<svg width="64" height="64" viewBox="0 0 64 64" fill="none" xmlns="http://www.w3.org/2000/svg">
<rect width="64" height="64" rx="12" fill="url(#paint0_linear_5113_34733)"/>
<path fill-rule="evenodd" clip-rule="evenodd" d="M21.5256 33.898C19.8747 29.4233 18.0673 27.9041 16.1034 29.3405C12.6109 31.8948 15.9273 49.0007 32.1053 49.0007C52.5478 49.0007 51.7502 24.215 46.1183 24.215C44.1282 24.215 42.8337 26.971 42.2348 32.4831C43.4495 24.0192 42.6763 19.7873 39.9155 19.7873C37.5045 19.7873 36.129 24.0192 35.7889 32.4831C36.2154 21.4579 34.9875 15.9453 32.1053 15.9453C29.223 15.9453 28.1059 21.4579 28.7538 32.4831C28.1097 23.228 26.6761 18.6005 24.4532 18.6005C21.3583 18.6005 20.3824 23.6997 21.5256 33.898Z" fill="white"/>
<path d="M10.9932 27.3509C10.7849 27.3509 10.6286 27.2468 10.5245 27.0905L9.89951 25.9969C9.63912 25.424 9.11833 24.9032 8.54546 24.5907L7.4518 23.9658C7.29556 23.9137 7.19141 23.7054 7.19141 23.5492C7.19141 23.3408 7.29556 23.1846 7.4518 23.0804L8.54546 22.4555C9.11833 22.143 9.63912 21.6743 9.95159 21.0494L10.5765 19.9557C10.6286 19.7995 10.8369 19.6953 10.9932 19.6953C11.2015 19.6953 11.3577 19.7995 11.4619 19.9557L12.0868 21.0494C12.3993 21.6222 12.9201 22.143 13.493 22.4555L14.5866 23.0804C14.7429 23.1846 14.847 23.3408 14.847 23.5492C14.847 23.7575 14.7429 23.9137 14.5866 24.0179L13.493 24.6428C12.9201 24.9553 12.3993 25.4761 12.0868 26.0489L11.4619 27.1426C11.3577 27.2468 11.2015 27.3509 10.9932 27.3509Z" fill="white"/>
<path d="M16.1125 19.2951C15.8324 19.2951 15.6223 19.1551 15.4822 18.9449L14.6418 17.4742C14.2916 16.7038 13.5913 16.0035 12.8209 15.5833L11.3502 14.7429C11.1401 14.6728 11 14.3927 11 14.1826C11 13.9024 11.1401 13.6923 11.3502 13.5523L12.8209 12.7118C13.5913 12.2916 14.2916 11.6613 14.7118 10.8209L15.5523 9.35017C15.6223 9.14007 15.9024 9 16.1125 9C16.3927 9 16.6028 9.14007 16.7429 9.35017L17.5833 10.8209C18.0035 11.5913 18.7038 12.2916 19.4742 12.7118L20.9449 13.5523C21.1551 13.6923 21.2951 13.9024 21.2951 14.1826C21.2951 14.4627 21.1551 14.6728 20.9449 14.8129L19.4742 15.6533C18.7038 16.0735 18.0035 16.7739 17.5833 17.5443L16.7429 19.015C16.6028 19.1551 16.3927 19.2951 16.1125 19.2951Z" fill="white"/>
<defs>
<linearGradient id="paint0_linear_5113_34733" x1="19.5" y1="9" x2="50" y2="67" gradientUnits="userSpaceOnUse">
<stop stop-color="#5E44FF"/>
<stop offset="1" stop-color="#0C009B"/>
</linearGradient>
</defs>
</svg>
