<svg width="16" height="19" viewBox="0 0 16 19" fill="none" xmlns="http://www.w3.org/2000/svg">
<path d="M12.2227 2.05338V0.666682C12.2227 0.302229 11.9205 0 11.556 0C11.1916 0 10.8893 0.302229 10.8893 0.666682V2.00005H5.11143V0.666682C5.11143 0.302229 4.8092 0 4.44475 0C4.0803 0 3.77807 0.302229 3.77807 0.666682V2.05338C1.37801 2.27561 0.213542 3.70675 0.0357601 5.83125C0.0179819 6.08903 0.23132 6.30237 0.480215 6.30237H15.5206C15.7783 6.30237 15.9917 6.08014 15.965 5.83125C15.7872 3.70675 14.6228 2.27561 12.2227 2.05338Z" fill="#E61111"/>
<path d="M15.1115 7.63559H0.888909C0.400009 7.63559 0 8.0356 0 8.5245V14.0002C0 16.6669 1.33336 18.4447 4.44455 18.4447H11.5558C14.667 18.4447 16.0004 16.6669 16.0004 14.0002V8.5245C16.0004 8.0356 15.6004 7.63559 15.1115 7.63559ZM5.52013 15.0758C5.47568 15.1113 5.43124 15.1558 5.38679 15.1824C5.33346 15.218 5.28012 15.2447 5.22679 15.2624C5.17345 15.2891 5.12012 15.3069 5.06678 15.3158C5.00456 15.3247 4.95122 15.3335 4.889 15.3335C4.77344 15.3335 4.65789 15.3069 4.55122 15.2624C4.43566 15.218 4.34677 15.1558 4.25788 15.0758C4.09787 14.9069 4.00009 14.6758 4.00009 14.4446C4.00009 14.2135 4.09787 13.9824 4.25788 13.8135C4.34677 13.7335 4.43566 13.6713 4.55122 13.6268C4.71122 13.5557 4.889 13.538 5.06678 13.5735C5.12012 13.5824 5.17345 13.6002 5.22679 13.6268C5.28012 13.6446 5.33346 13.6713 5.38679 13.7068C5.43124 13.7424 5.47568 13.778 5.52013 13.8135C5.68013 13.9824 5.77791 14.2135 5.77791 14.4446C5.77791 14.6758 5.68013 14.9069 5.52013 15.0758ZM5.52013 11.9646C5.35123 12.1246 5.12012 12.2224 4.889 12.2224C4.65789 12.2224 4.42677 12.1246 4.25788 11.9646C4.09787 11.7957 4.00009 11.5646 4.00009 11.3335C4.00009 11.1023 4.09787 10.8712 4.25788 10.7023C4.50677 10.4534 4.89789 10.3734 5.22679 10.5157C5.34235 10.5601 5.44012 10.6223 5.52013 10.7023C5.68013 10.8712 5.77791 11.1023 5.77791 11.3335C5.77791 11.5646 5.68013 11.7957 5.52013 11.9646ZM8.63131 15.0758C8.46242 15.2358 8.2313 15.3335 8.00018 15.3335C7.76907 15.3335 7.53795 15.2358 7.36906 15.0758C7.20905 14.9069 7.11127 14.6758 7.11127 14.4446C7.11127 14.2135 7.20905 13.9824 7.36906 13.8135C7.69795 13.4846 8.30241 13.4846 8.63131 13.8135C8.79131 13.9824 8.88909 14.2135 8.88909 14.4446C8.88909 14.6758 8.79131 14.9069 8.63131 15.0758ZM8.63131 11.9646C8.58686 12.0001 8.54242 12.0357 8.49797 12.0713C8.44464 12.1068 8.3913 12.1335 8.33797 12.1513C8.28464 12.1779 8.2313 12.1957 8.17797 12.2046C8.11574 12.2135 8.06241 12.2224 8.00018 12.2224C7.76907 12.2224 7.53795 12.1246 7.36906 11.9646C7.20905 11.7957 7.11127 11.5646 7.11127 11.3335C7.11127 11.1023 7.20905 10.8712 7.36906 10.7023C7.44906 10.6223 7.54684 10.5601 7.6624 10.5157C7.99129 10.3734 8.38241 10.4534 8.63131 10.7023C8.79131 10.8712 8.88909 11.1023 8.88909 11.3335C8.88909 11.5646 8.79131 11.7957 8.63131 11.9646ZM11.7425 15.0758C11.5736 15.2358 11.3425 15.3335 11.1114 15.3335C10.8802 15.3335 10.6491 15.2358 10.4802 15.0758C10.3202 14.9069 10.2225 14.6758 10.2225 14.4446C10.2225 14.2135 10.3202 13.9824 10.4802 13.8135C10.8091 13.4846 11.4136 13.4846 11.7425 13.8135C11.9025 13.9824 12.0003 14.2135 12.0003 14.4446C12.0003 14.6758 11.9025 14.9069 11.7425 15.0758ZM11.7425 11.9646C11.698 12.0001 11.6536 12.0357 11.6092 12.0713C11.5558 12.1068 11.5025 12.1335 11.4492 12.1513C11.3958 12.1779 11.3425 12.1957 11.2891 12.2046C11.2269 12.2135 11.1647 12.2224 11.1114 12.2224C10.8802 12.2224 10.6491 12.1246 10.4802 11.9646C10.3202 11.7957 10.2225 11.5646 10.2225 11.3335C10.2225 11.1023 10.3202 10.8712 10.4802 10.7023C10.5691 10.6223 10.658 10.5601 10.7736 10.5157C10.9336 10.4445 11.1114 10.4268 11.2891 10.4623C11.3425 10.4712 11.3958 10.489 11.4492 10.5157C11.5025 10.5334 11.5558 10.5601 11.6092 10.5957C11.6536 10.6312 11.698 10.6668 11.7425 10.7023C11.9025 10.8712 12.0003 11.1023 12.0003 11.3335C12.0003 11.5646 11.9025 11.7957 11.7425 11.9646Z" fill="#E61111"/>
</svg>
