<svg width="18" height="18" viewBox="0 0 18 18" fill="none" xmlns="http://www.w3.org/2000/svg">
<path d="M6.3 7.542C7.48299 7.542 8.442 6.58299 8.442 5.4C8.442 4.21701 7.48299 3.258 6.3 3.258C5.11701 3.258 4.158 4.21701 4.158 5.4C4.158 6.58299 5.11701 7.542 6.3 7.542Z" fill="#2F75FC"/>
<path d="M12.771 0H5.229C1.953 0 0 1.953 0 5.229V12.771C0 13.752 0.171 14.607 0.504 15.327C1.278 17.037 2.934 18 5.229 18H12.771C16.047 18 18 16.047 18 12.771V5.229C18 1.953 16.047 0 12.771 0ZM16.533 9.45C15.831 8.847 14.697 8.847 13.995 9.45L10.251 12.663C9.549 13.266 8.415 13.266 7.713 12.663L7.407 12.411C6.768 11.853 5.751 11.799 5.031 12.285L1.665 14.544C1.467 14.04 1.35 13.455 1.35 12.771V5.229C1.35 2.691 2.691 1.35 5.229 1.35H12.771C15.309 1.35 16.65 2.691 16.65 5.229V9.549L16.533 9.45Z" fill="#2F75FC"/>
</svg>
