<svg width="18" height="19" viewBox="0 0 18 19" fill="none" xmlns="http://www.w3.org/2000/svg">
<path fill-rule="evenodd" clip-rule="evenodd" d="M10.44 0.759387C13.95 1.29939 16.83 3.99939 17.73 7.50939C17.91 8.31939 18 9.03939 18 9.93939C18 12.0994 16.29 13.8094 14.13 13.8094H12.24C10.89 13.8094 9.9 14.6194 9.9 15.8794C9.9 16.7794 9.45 17.6794 8.73 18.2194C8.28 18.5794 7.65 18.7594 7.11 18.7594C6.75 18.7594 6.48 18.6694 6.21 18.5794C2.52 17.3194 0 13.8094 0 9.84939C0 7.14939 1.17 4.53939 3.24 2.82939C5.22 1.11939 7.83 0.309387 10.44 0.759387ZM6.38016 9.7613C6.77001 10.4545 6.52412 11.3324 5.83094 11.7223C5.13777 12.1121 4.2598 11.8662 3.86995 11.1731C3.4801 10.4799 3.72599 9.60193 4.41917 9.21208C5.11234 8.82223 5.99031 9.06812 6.38016 9.7613ZM7.80751 7.22229C8.50068 6.83244 8.74657 5.95447 8.35672 5.2613C7.96687 4.56812 7.0889 4.32223 6.39573 4.71208C5.70255 5.10193 5.45666 5.9799 5.84651 6.67307C6.23636 7.36625 7.11433 7.61214 7.80751 7.22229ZM13.2122 5.90192C13.602 6.5951 13.3561 7.47306 12.663 7.86291C11.9698 8.25276 11.0918 8.00687 10.702 7.3137C10.3121 6.62052 10.558 5.74256 11.2512 5.35271C11.9444 4.96285 12.8223 5.20875 13.2122 5.90192Z" fill="#4F9D8A"/>
</svg>
