<svg width="14" height="19" viewBox="0 0 14 19" fill="none" xmlns="http://www.w3.org/2000/svg">
<path fill-rule="evenodd" clip-rule="evenodd" d="M4.2875 0.625H9.68625C12.0575 0.625 13.9738 1.56125 14 3.94125V17.2237C14 17.3725 13.965 17.5212 13.895 17.6525C13.7812 17.8625 13.5887 18.02 13.3525 18.09C13.125 18.16 12.8713 18.125 12.6613 18.0025L6.99125 15.1675L1.3125 18.0025C1.18212 18.0716 1.0325 18.1162 0.88375 18.1162C0.39375 18.1162 0 17.7137 0 17.2237V3.94125C0 1.56125 1.925 0.625 4.2875 0.625ZM3.69227 7.29656H10.281C10.6573 7.29656 10.9635 6.98944 10.9635 6.60531C10.9635 6.22031 10.6573 5.91406 10.281 5.91406H3.69227C3.31602 5.91406 3.00977 6.22031 3.00977 6.60531C3.00977 6.98944 3.31602 7.29656 3.69227 7.29656Z" fill="#FF844B"/>
</svg>
