<svg width="18" height="16" viewBox="0 0 18 16" fill="none" xmlns="http://www.w3.org/2000/svg">
<path d="M9.00138 0.00390625C9.25233 0.00391644 9.49478 0.0913964 9.6839 0.250168C9.87303 0.40894 9.99603 0.628264 10.0302 0.867577L10.0398 1.00353L10.0385 2.00181H14.8846C15.7109 2.00181 16.5033 2.31776 17.0875 2.88016C17.6718 3.44255 18 4.20532 18 5.00067V13.005C18 13.8004 17.6718 14.5632 17.0875 15.1256C16.5033 15.688 15.7109 16.0039 14.8846 16.0039H3.11538C2.28913 16.0039 1.49672 15.688 0.912475 15.1256C0.328227 14.5632 0 13.8004 0 13.005V5.002C-4.04182e-08 4.60808 0.0806276 4.21801 0.237277 3.85408C0.393926 3.49016 0.623528 3.15951 0.912964 2.88102C1.2024 2.60253 1.546 2.38166 1.92414 2.23104C2.30227 2.08041 2.70753 2.00297 3.11677 2.00314L7.96292 2.00181V1.00353C7.96298 0.761767 8.05405 0.52822 8.21927 0.346142C8.3845 0.164064 8.61267 0.0457928 8.86154 0.013236L9.00138 0.00390625ZM5.88461 7.00162C5.65169 6.99265 5.41927 7.02906 5.20133 7.10868C4.98338 7.18829 4.78438 7.30947 4.61628 7.46493C4.44818 7.6204 4.31444 7.80695 4.22308 8.0134C4.13172 8.21984 4.08463 8.44193 4.08463 8.66632C4.08463 8.89072 4.13172 9.1128 4.22308 9.31924C4.31444 9.52569 4.44818 9.71224 4.61628 9.86771C4.78438 10.0232 4.98338 10.1444 5.20133 10.224C5.41927 10.3036 5.65169 10.34 5.88461 10.331C6.3313 10.3138 6.75375 10.1309 7.06347 9.82059C7.37319 9.51028 7.54617 9.09664 7.54617 8.66632C7.54617 8.236 7.37319 7.82236 7.06347 7.51205C6.75375 7.20175 6.3313 7.01883 5.88461 7.00162ZM12.1057 7.00162C11.8728 6.99265 11.6404 7.02906 11.4224 7.10868C11.2045 7.18829 11.0055 7.30947 10.8374 7.46493C10.6693 7.6204 10.5355 7.80695 10.4442 8.0134C10.3528 8.21984 10.3057 8.44193 10.3057 8.66632C10.3057 8.89072 10.3528 9.1128 10.4442 9.31924C10.5355 9.52569 10.6693 9.71224 10.8374 9.86771C11.0055 10.0232 11.2045 10.1444 11.4224 10.224C11.6404 10.3036 11.8728 10.34 12.1057 10.331C12.5524 10.3138 12.9748 10.1309 13.2845 9.82059C13.5943 9.51028 13.7672 9.09664 13.7672 8.66632C13.7672 8.236 13.5943 7.82236 13.2845 7.51205C12.9748 7.20175 12.5524 7.01883 12.1057 7.00162Z" fill="#3F75FF"/>
</svg>
