<?xml version="1.0" encoding="utf-8"?>
<!-- Generator: Adobe Illustrator 26.0.2, SVG Export Plug-In . SVG Version: 6.00 Build 0)  -->
<svg version="1.1" id="Layer_1" xmlns="http://www.w3.org/2000/svg" xmlns:xlink="http://www.w3.org/1999/xlink" x="0px" y="0px"
	 viewBox="0 0 87.3 78" style="enable-background:new 0 0 87.3 78;" xml:space="preserve">
<style type="text/css">
	.st0{fill:#0066DA;}
	.st1{fill:#00AC47;}
	.st2{fill:#EA4335;}
	.st3{fill:#00832D;}
	.st4{fill:#2684FC;}
	.st5{fill:#FFBA00;}
	.st6{fill:#34A853;}
	.st7{fill:#FBBC04;}
	.st8{fill:#4285F4;}
	.st9{fill:#1A73E8;}
	.st10{fill:#E94235;}
	.st11{fill:#0C9D58;}
	.st12{opacity:0.2;fill:#3E2723;enable-background:new    ;}
	.st13{opacity:0.2;fill:#FFFFFF;enable-background:new    ;}
	.st14{fill:#FFC107;}
	.st15{fill:#FFFFFF;}
	.st16{opacity:0.2;fill:#1A237E;enable-background:new    ;}
	.st17{opacity:0.2;}
	.st18{fill:#1A237E;}
	.st19{fill:url(#SVGID_00000088817617275364879220000005286621219189627265_);}
	.st20{fill:#188038;}
	.st21{fill:#1967D2;}
	.st22{filter:url(#Adobe_OpacityMaskFilter);}
	.st23{fill-rule:evenodd;clip-rule:evenodd;fill:#FFFFFF;}
	.st24{mask:url(#mask-2_00000137106897927044204810000017442038333586816682_);fill:#0F9D58;}
	.st25{filter:url(#Adobe_OpacityMaskFilter_00000090289172322523329480000011133351769079810960_);}
	.st26{mask:url(#mask-4_00000064336424826607782570000017955422308261571224_);fill:#F1F1F1;}
	.st27{filter:url(#Adobe_OpacityMaskFilter_00000013172550622228527040000004568418407678346913_);}
	
		.st28{mask:url(#mask-6_00000119101063681515262960000012756693851270139292_);fill:url(#Path_00000002371019961622592640000003998997242501288372_);}
	.st29{filter:url(#Adobe_OpacityMaskFilter_00000156570719336937999740000013867752755514182020_);}
	.st30{mask:url(#mask-9_00000147920844863489661220000008633831196068903608_);}
	.st31{fill:#87CEAC;}
	.st32{filter:url(#Adobe_OpacityMaskFilter_00000116914590786875439160000004271834077547301001_);}
	.st33{mask:url(#mask-11_00000013159684921425088800000008589362732119340955_);fill:#FFFFFF;fill-opacity:0.2;}
	.st34{filter:url(#Adobe_OpacityMaskFilter_00000012440432431725963320000002055915090503485628_);}
	.st35{mask:url(#mask-13_00000062159373447756652150000018191320538564470693_);fill:#263238;fill-opacity:0.2;}
	.st36{filter:url(#Adobe_OpacityMaskFilter_00000029752529391091787820000016019371766390433922_);}
	.st37{mask:url(#mask-15_00000121978274466120089670000004644126639569214899_);fill:#263238;fill-opacity:0.1;}
	.st38{fill:url(#Path_00000088129339542163839500000007909863036577405830_);}
	.st39{fill:#FF0000;}
	.st40{fill:#C5221F;}
	.st41{filter:url(#Adobe_OpacityMaskFilter_00000168824020364394735780000000508804166041850253_);}
	.st42{mask:url(#mask-2_00000078009726322465067210000014262786524678033802_);fill:#4285F4;}
	.st43{filter:url(#Adobe_OpacityMaskFilter_00000042732418778610103090000018329324094270663602_);}
	
		.st44{mask:url(#mask-4_00000121243293551549158070000002655700822813522847_);fill:url(#Path_00000054262659889842599570000004387256005710701741_);}
	.st45{filter:url(#Adobe_OpacityMaskFilter_00000121250549707026023010000016162251320360979391_);}
	.st46{mask:url(#mask-7_00000115472661557859594890000002464534761750819219_);fill:#F1F1F1;}
	.st47{filter:url(#Adobe_OpacityMaskFilter_00000106133696810450070310000017831801736469549234_);}
	.st48{mask:url(#mask-9_00000033369042767880254900000007876147394084937661_);}
	.st49{fill:#A1C2FA;}
	.st50{filter:url(#Adobe_OpacityMaskFilter_00000142888406420175446940000004282199520848170427_);}
	.st51{mask:url(#mask-11_00000100341815306852760010000012598455199632229014_);fill:#FFFFFF;fill-opacity:0.2;}
	.st52{filter:url(#Adobe_OpacityMaskFilter_00000157308501537806474720000011451704528061875871_);}
	.st53{mask:url(#mask-13_00000151513279323591976310000001270483658039615930_);fill:#1A237E;fill-opacity:0.2;}
	.st54{filter:url(#Adobe_OpacityMaskFilter_00000128484785620228127580000001480815199697457068_);}
	.st55{mask:url(#mask-15_00000138570237621816172180000006327754527219526075_);fill:#1A237E;fill-opacity:0.1;}
	.st56{fill:url(#Path_00000052094259598042958360000005775964724369638302_);}
	.st57{filter:url(#Adobe_OpacityMaskFilter_00000067932761191209419030000006491928736809148548_);}
	.st58{mask:url(#mask-2_00000174579222074127669110000002284619298921790886_);fill:#F4B400;}
	.st59{filter:url(#Adobe_OpacityMaskFilter_00000170253479799734297930000010559881210209276320_);}
	.st60{mask:url(#mask-4_00000087407440687074456800000002257355834669649820_);fill:#F1F1F1;}
	.st61{filter:url(#Adobe_OpacityMaskFilter_00000161633086820232339240000012007334519159208361_);}
	
		.st62{mask:url(#mask-6_00000153677743912979572680000014511372092426665362_);fill:url(#Path_00000156563658337947194690000013911698119111753142_);}
	.st63{filter:url(#Adobe_OpacityMaskFilter_00000003105601640104690200000000376593105774009251_);}
	.st64{mask:url(#mask-9_00000170960895189798711360000016237452462435676545_);}
	.st65{fill:#FADA80;}
	.st66{filter:url(#Adobe_OpacityMaskFilter_00000044861612059685263210000011304776013888325531_);}
	.st67{mask:url(#mask-11_00000024696231956633878110000002733514922679629223_);fill:#FFFFFF;fill-opacity:0.1;}
	.st68{filter:url(#Adobe_OpacityMaskFilter_00000063600244216021532950000014756688641755704985_);}
	.st69{mask:url(#mask-13_00000056404134882932175190000015859228855672889005_);fill:#FFFFFF;fill-opacity:0.2;}
	.st70{filter:url(#Adobe_OpacityMaskFilter_00000146460317451410864160000011730253905211688125_);}
	.st71{mask:url(#mask-15_00000068662904205051051810000000459225345993445522_);fill:#BF360C;fill-opacity:0.2;}
	.st72{filter:url(#Adobe_OpacityMaskFilter_00000086694182899188487220000009782022561109249665_);}
	.st73{mask:url(#mask-17_00000112634298898974973900000003884647652301164951_);fill:#BF360C;fill-opacity:0.1;}
	.st74{fill:url(#Path_00000139978722317090588210000005549108125042294693_);}
</style>
<g id="Page-1_00000022523019926716874840000011012876291709868218_">
	<g id="Consumer-Apps-Slides-Large-VD-R8" transform="translate(-449.000000, -452.000000)">
		<g id="Hero_00000052083630077501055710000016055079367458375098_" transform="translate(0.000000, 63.000000)">
			<g id="Personal_00000092433791969506489680000003481233988638769077_" transform="translate(277.000000, 299.000000)">
				<g id="Slides-icon" transform="translate(172.000000, 90.000000)">
					<g id="Group_00000043440904828302348040000015281859546526434695_">
						<g id="Clipped_00000176763113494860429100000002832649640117997489_">
							<defs>
								<filter id="Adobe_OpacityMaskFilter" filterUnits="userSpaceOnUse" x="15.8" y="0.2" width="56.4" height="77.5">
									<feColorMatrix  type="matrix" values="1 0 0 0 0  0 1 0 0 0  0 0 1 0 0  0 0 0 1 0"/>
								</filter>
							</defs>
							
								<mask maskUnits="userSpaceOnUse" x="15.8" y="0.2" width="56.4" height="77.5" id="mask-2_00000174579222074127669110000002284619298921790886_">
								<g class="st22">
									<path id="path-1_00000148635529109451911890000010507591218208545434_" class="st23" d="M51,0.2H21c-2.9,0-5.3,2.4-5.3,5.3
										v66.9c0,2.9,2.4,5.3,5.3,5.3h45.8c2.9,0,5.3-2.4,5.3-5.3V21.4L51,0.2z"/>
								</g>
							</mask>
							<path id="Path_00000171720031927826386760000010273534713913427391_" class="st58" d="M51,0.2H21c-2.9,0-5.3,2.4-5.3,5.3
								v66.9c0,2.9,2.4,5.3,5.3,5.3h45.8c2.9,0,5.3-2.4,5.3-5.3V21.4l-12.3-8.8L51,0.2z"/>
						</g>
						<g id="Clipped_00000178899277836280358620000010135834315907715480_">
							<defs>
								
									<filter id="Adobe_OpacityMaskFilter_00000106135573192554079050000000030670168316219789_" filterUnits="userSpaceOnUse" x="29.8" y="35.5" width="28.2" height="28.2">
									<feColorMatrix  type="matrix" values="1 0 0 0 0  0 1 0 0 0  0 0 1 0 0  0 0 0 1 0"/>
								</filter>
							</defs>
							
								<mask maskUnits="userSpaceOnUse" x="29.8" y="35.5" width="28.2" height="28.2" id="mask-4_00000087407440687074456800000002257355834669649820_">
								<g style="filter:url(#Adobe_OpacityMaskFilter_00000106135573192554079050000000030670168316219789_);">
									<path id="path-3_00000090989416711512974820000010244472582889923737_" class="st23" d="M51,0.2H21c-2.9,0-5.3,2.4-5.3,5.3
										v66.9c0,2.9,2.4,5.3,5.3,5.3h45.8c2.9,0,5.3-2.4,5.3-5.3V21.4L51,0.2z"/>
								</g>
							</mask>
							<path id="Shape_00000147908101219193617430000010161946060043651224_" class="st60" d="M55.4,35.5H32.5
								c-1.5,0-2.6,1.2-2.6,2.6V61c0,1.5,1.2,2.6,2.6,2.6h22.9c1.5,0,2.6-1.2,2.6-2.6V38.1C58,36.7,56.8,35.5,55.4,35.5z M54.5,55.7
								H33.4V43.4h21.1V55.7z"/>
						</g>
						<g id="Clipped_00000049904649650054539680000005853332836923229373_">
							<defs>
								
									<filter id="Adobe_OpacityMaskFilter_00000146501307427924201110000007332970559945596337_" filterUnits="userSpaceOnUse" x="52.5" y="19.8" width="19.6" height="19.6">
									<feColorMatrix  type="matrix" values="1 0 0 0 0  0 1 0 0 0  0 0 1 0 0  0 0 0 1 0"/>
								</filter>
							</defs>
							
								<mask maskUnits="userSpaceOnUse" x="52.5" y="19.8" width="19.6" height="19.6" id="mask-6_00000153677743912979572680000014511372092426665362_">
								<g style="filter:url(#Adobe_OpacityMaskFilter_00000146501307427924201110000007332970559945596337_);">
									<path id="path-5_00000145018012380677123730000010820574856202310275_" class="st23" d="M51,0.2H21c-2.9,0-5.3,2.4-5.3,5.3
										v66.9c0,2.9,2.4,5.3,5.3,5.3h45.8c2.9,0,5.3-2.4,5.3-5.3V21.4L51,0.2z"/>
								</g>
							</mask>
							
								<linearGradient id="Path_00000014608826112634440310000010619010136597147805_" gradientUnits="userSpaceOnUse" x1="-336.4886" y1="436.3574" x2="-336.4886" y2="435.2686" gradientTransform="matrix(16.452 0 0 -16.4483 5598.248 7198.8726)">
								<stop  offset="0" style="stop-color:#BF360C;stop-opacity:0.2"/>
								<stop  offset="1" style="stop-color:#BF360C;stop-opacity:2.000000e-02"/>
							</linearGradient>
							
								<polygon id="Path_00000018945059243807292960000001120307842283338923_" style="mask:url(#mask-6_00000153677743912979572680000014511372092426665362_);fill:url(#Path_00000014608826112634440310000010619010136597147805_);" points="
								52.5,19.8 72.1,39.4 72.1,21.4 							"/>
						</g>
						<g id="Clipped_00000029003874144484219450000001254837724925865123_">
							<defs>
								
									<filter id="Adobe_OpacityMaskFilter_00000174604178253203268440000012254378836612090042_" filterUnits="userSpaceOnUse" x="51" y="0.2" width="21.1" height="21.1">
									<feColorMatrix  type="matrix" values="1 0 0 0 0  0 1 0 0 0  0 0 1 0 0  0 0 0 1 0"/>
								</filter>
							</defs>
							
								<mask maskUnits="userSpaceOnUse" x="51" y="0.2" width="21.1" height="21.1" id="mask-9_00000170960895189798711360000016237452462435676545_">
								<g style="filter:url(#Adobe_OpacityMaskFilter_00000174604178253203268440000012254378836612090042_);">
									<path id="path-8_00000045618142879194302660000016058665699054160308_" class="st23" d="M51,0.2H21c-2.9,0-5.3,2.4-5.3,5.3
										v66.9c0,2.9,2.4,5.3,5.3,5.3h45.8c2.9,0,5.3-2.4,5.3-5.3V21.4L51,0.2z"/>
								</g>
							</mask>
							<g id="Group_00000054256954208342479450000002312107230431718833_" class="st64">
								<g transform="translate(26.625000, -2.958333)">
									<path id="Path_00000121272411000418672390000005685778349848589756_" class="st65" d="M24.4,3.2v15.9
										c0,2.9,2.4,5.3,5.3,5.3h15.9L24.4,3.2z"/>
								</g>
							</g>
						</g>
						<g id="Clipped_00000012447616274066934230000005882686961637260435_">
							<defs>
								
									<filter id="Adobe_OpacityMaskFilter_00000127018030887035923380000007389326126428406694_" filterUnits="userSpaceOnUse" x="51" y="0.2" width="21.1" height="21.1">
									<feColorMatrix  type="matrix" values="1 0 0 0 0  0 1 0 0 0  0 0 1 0 0  0 0 0 1 0"/>
								</filter>
							</defs>
							
								<mask maskUnits="userSpaceOnUse" x="51" y="0.2" width="21.1" height="21.1" id="mask-11_00000024696231956633878110000002733514922679629223_">
								<g style="filter:url(#Adobe_OpacityMaskFilter_00000127018030887035923380000007389326126428406694_);">
									<path id="path-10_00000130638442116959759810000017485639714577988001_" class="st23" d="M51,0.2H21
										c-2.9,0-5.3,2.4-5.3,5.3v66.9c0,2.9,2.4,5.3,5.3,5.3h45.8c2.9,0,5.3-2.4,5.3-5.3V21.4L51,0.2z"/>
								</g>
							</mask>
							<polygon id="Path_00000042712599671436498200000007104365048036895136_" class="st67" points="51,0.2 51,0.7 71.7,21.4 
								72.1,21.4 							"/>
						</g>
						<g id="Clipped_00000080906412755210994850000014550976062277969805_">
							<defs>
								
									<filter id="Adobe_OpacityMaskFilter_00000110432611021886034280000016861699564900133028_" filterUnits="userSpaceOnUse" x="15.8" y="0.2" width="35.2" height="5.7">
									<feColorMatrix  type="matrix" values="1 0 0 0 0  0 1 0 0 0  0 0 1 0 0  0 0 0 1 0"/>
								</filter>
							</defs>
							
								<mask maskUnits="userSpaceOnUse" x="15.8" y="0.2" width="35.2" height="5.7" id="mask-13_00000056404134882932175190000015859228855672889005_">
								<g style="filter:url(#Adobe_OpacityMaskFilter_00000110432611021886034280000016861699564900133028_);">
									<path id="path-12_00000007408935166512973330000012073776015465320636_" class="st23" d="M51,0.2H21
										c-2.9,0-5.3,2.4-5.3,5.3v66.9c0,2.9,2.4,5.3,5.3,5.3h45.8c2.9,0,5.3-2.4,5.3-5.3V21.4L51,0.2z"/>
								</g>
							</mask>
							<path id="Path_00000008123943233024496240000003642925173176140417_" class="st69" d="M21,0.2c-2.9,0-5.3,2.4-5.3,5.3V6
								c0-2.9,2.4-5.3,5.3-5.3H51V0.2H21z"/>
						</g>
						<g id="Clipped_00000134251584847681955750000000154860036104231322_">
							<defs>
								
									<filter id="Adobe_OpacityMaskFilter_00000096022882519221956070000011999828070897430151_" filterUnits="userSpaceOnUse" x="15.8" y="72" width="56.4" height="5.7">
									<feColorMatrix  type="matrix" values="1 0 0 0 0  0 1 0 0 0  0 0 1 0 0  0 0 0 1 0"/>
								</filter>
							</defs>
							
								<mask maskUnits="userSpaceOnUse" x="15.8" y="72" width="56.4" height="5.7" id="mask-15_00000068662904205051051810000000459225345993445522_">
								<g style="filter:url(#Adobe_OpacityMaskFilter_00000096022882519221956070000011999828070897430151_);">
									<path id="path-14_00000076593292186800658770000014048071615260588466_" class="st23" d="M51,0.2H21
										c-2.9,0-5.3,2.4-5.3,5.3v66.9c0,2.9,2.4,5.3,5.3,5.3h45.8c2.9,0,5.3-2.4,5.3-5.3V21.4L51,0.2z"/>
								</g>
							</mask>
							<path id="Path_00000118386624164509076360000005330038427858652813_" class="st71" d="M66.8,77.3H21c-2.9,0-5.3-2.4-5.3-5.3
								v0.4c0,2.9,2.4,5.3,5.3,5.3h45.8c2.9,0,5.3-2.4,5.3-5.3V72C72.1,74.9,69.7,77.3,66.8,77.3z"/>
						</g>
						<g id="Clipped_00000180340283395579319580000009096550980995204234_">
							<defs>
								
									<filter id="Adobe_OpacityMaskFilter_00000060010709331587654510000000275069873986326965_" filterUnits="userSpaceOnUse" x="51" y="16.1" width="21.1" height="5.7">
									<feColorMatrix  type="matrix" values="1 0 0 0 0  0 1 0 0 0  0 0 1 0 0  0 0 0 1 0"/>
								</filter>
							</defs>
							
								<mask maskUnits="userSpaceOnUse" x="51" y="16.1" width="21.1" height="5.7" id="mask-17_00000112634298898974973900000003884647652301164951_">
								<g style="filter:url(#Adobe_OpacityMaskFilter_00000060010709331587654510000000275069873986326965_);">
									<path id="path-16_00000106861595103725355490000006985363109110323079_" class="st23" d="M51,0.2H21
										c-2.9,0-5.3,2.4-5.3,5.3v66.9c0,2.9,2.4,5.3,5.3,5.3h45.8c2.9,0,5.3-2.4,5.3-5.3V21.4L51,0.2z"/>
								</g>
							</mask>
							<path id="Path_00000111176976164022180560000011665381880246027950_" class="st73" d="M56.3,21.4c-2.9,0-5.3-2.4-5.3-5.3v0.4
								c0,2.9,2.4,5.3,5.3,5.3h15.9v-0.4H56.3z"/>
						</g>
					</g>
					
						<radialGradient id="Path_00000091736870627749075200000017159272807070952876_" cx="-352.3174" cy="451.7799" r="1.9203" gradientTransform="matrix(47.3333 0 0 -47.3334 16693.9004 21386.6094)" gradientUnits="userSpaceOnUse">
						<stop  offset="0" style="stop-color:#FFFFFF;stop-opacity:0.1"/>
						<stop  offset="1" style="stop-color:#FFFFFF;stop-opacity:0"/>
					</radialGradient>
					
						<path id="Path_00000025441563918229833140000013062646366943413376_" style="fill:url(#Path_00000091736870627749075200000017159272807070952876_);" d="
						M51,0.2H21c-2.9,0-5.3,2.4-5.3,5.3v66.9c0,2.9,2.4,5.3,5.3,5.3h45.8c2.9,0,5.3-2.4,5.3-5.3V21.4L51,0.2z"/>
				</g>
			</g>
		</g>
	</g>
</g>
</svg>
