<?xml version="1.0" encoding="utf-8"?>
<!-- Generator: Adobe Illustrator 26.0.2, SVG Export Plug-In . SVG Version: 6.00 Build 0)  -->
<svg version="1.1" id="Layer_1" xmlns="http://www.w3.org/2000/svg" xmlns:xlink="http://www.w3.org/1999/xlink" x="0px" y="0px"
	 viewBox="0 0 87.3 78" style="enable-background:new 0 0 87.3 78;" xml:space="preserve">
<style type="text/css">
	.st0{fill:#0066DA;}
	.st1{fill:#00AC47;}
	.st2{fill:#EA4335;}
	.st3{fill:#00832D;}
	.st4{fill:#2684FC;}
	.st5{fill:#FFBA00;}
	.st6{fill:#34A853;}
	.st7{fill:#FBBC04;}
	.st8{fill:#4285F4;}
	.st9{fill:#1A73E8;}
	.st10{fill:#E94235;}
	.st11{fill:#0C9D58;}
	.st12{opacity:0.2;fill:#3E2723;enable-background:new    ;}
	.st13{opacity:0.2;fill:#FFFFFF;enable-background:new    ;}
	.st14{fill:#FFC107;}
	.st15{fill:#FFFFFF;}
	.st16{opacity:0.2;fill:#1A237E;enable-background:new    ;}
	.st17{opacity:0.2;}
	.st18{fill:#1A237E;}
	.st19{fill:url(#SVGID_00000084504467518874856560000017829510274480853132_);}
	.st20{fill:#188038;}
	.st21{fill:#1967D2;}
	.st22{filter:url(#Adobe_OpacityMaskFilter);}
	.st23{fill-rule:evenodd;clip-rule:evenodd;fill:#FFFFFF;}
	.st24{mask:url(#mask-2_00000137106897927044204810000017442038333586816682_);fill:#0F9D58;}
	.st25{filter:url(#Adobe_OpacityMaskFilter_00000000198706155976647780000014541763796623914925_);}
	.st26{mask:url(#mask-4_00000064336424826607782570000017955422308261571224_);fill:#F1F1F1;}
	.st27{filter:url(#Adobe_OpacityMaskFilter_00000048498977953945681730000014765171356063206576_);}
	
		.st28{mask:url(#mask-6_00000119101063681515262960000012756693851270139292_);fill:url(#Path_00000023984607894109860740000004497429871748669876_);}
	.st29{filter:url(#Adobe_OpacityMaskFilter_00000089547676648232021990000004102504488961960367_);}
	.st30{mask:url(#mask-9_00000147920844863489661220000008633831196068903608_);}
	.st31{fill:#87CEAC;}
	.st32{filter:url(#Adobe_OpacityMaskFilter_00000134954018049762202830000016580887835674625696_);}
	.st33{mask:url(#mask-11_00000013159684921425088800000008589362732119340955_);fill:#FFFFFF;fill-opacity:0.2;}
	.st34{filter:url(#Adobe_OpacityMaskFilter_00000031914757834678383400000005838612775585557637_);}
	.st35{mask:url(#mask-13_00000062159373447756652150000018191320538564470693_);fill:#263238;fill-opacity:0.2;}
	.st36{filter:url(#Adobe_OpacityMaskFilter_00000111881339051622002760000016883138324883995564_);}
	.st37{mask:url(#mask-15_00000121978274466120089670000004644126639569214899_);fill:#263238;fill-opacity:0.1;}
	.st38{fill:url(#Path_00000010992888583310239210000003136553136545944249_);}
	.st39{fill:#FF0000;}
	.st40{fill:#C5221F;}
	.st41{filter:url(#Adobe_OpacityMaskFilter_00000069373913608164057530000005146805875976621719_);}
	.st42{mask:url(#mask-2_00000078009726322465067210000014262786524678033802_);fill:#4285F4;}
	.st43{filter:url(#Adobe_OpacityMaskFilter_00000134945919003993143120000015869219534167675825_);}
	
		.st44{mask:url(#mask-4_00000121243293551549158070000002655700822813522847_);fill:url(#Path_00000085935211287565684690000014949133520261514901_);}
	.st45{filter:url(#Adobe_OpacityMaskFilter_00000182515015927712309780000014898319467614615444_);}
	.st46{mask:url(#mask-7_00000115472661557859594890000002464534761750819219_);fill:#F1F1F1;}
	.st47{filter:url(#Adobe_OpacityMaskFilter_00000062190032887082145060000001632205204677589419_);}
	.st48{mask:url(#mask-9_00000033369042767880254900000007876147394084937661_);}
	.st49{fill:#A1C2FA;}
	.st50{filter:url(#Adobe_OpacityMaskFilter_00000032622360956377345510000018346219864781335176_);}
	.st51{mask:url(#mask-11_00000100341815306852760010000012598455199632229014_);fill:#FFFFFF;fill-opacity:0.2;}
	.st52{filter:url(#Adobe_OpacityMaskFilter_00000077313410057369292910000002297611029911557505_);}
	.st53{mask:url(#mask-13_00000151513279323591976310000001270483658039615930_);fill:#1A237E;fill-opacity:0.2;}
	.st54{filter:url(#Adobe_OpacityMaskFilter_00000040565513555514794970000017957114681761272496_);}
	.st55{mask:url(#mask-15_00000138570237621816172180000006327754527219526075_);fill:#1A237E;fill-opacity:0.1;}
	.st56{fill:url(#Path_00000088822826413292542090000003098751436992542356_);}
	.st57{filter:url(#Adobe_OpacityMaskFilter_00000081621710563300504600000002521654057077568128_);}
	.st58{mask:url(#mask-2_00000174579222074127669110000002284619298921790886_);fill:#F4B400;}
	.st59{filter:url(#Adobe_OpacityMaskFilter_00000166671100962317545130000010433715901179052212_);}
	.st60{mask:url(#mask-4_00000087407440687074456800000002257355834669649820_);fill:#F1F1F1;}
	.st61{filter:url(#Adobe_OpacityMaskFilter_00000022553119937725254740000012055727674233863823_);}
	
		.st62{mask:url(#mask-6_00000153677743912979572680000014511372092426665362_);fill:url(#Path_00000026161493142882554650000007613130524540580483_);}
	.st63{filter:url(#Adobe_OpacityMaskFilter_00000176751523476050379290000011217093210650110389_);}
	.st64{mask:url(#mask-9_00000170960895189798711360000016237452462435676545_);}
	.st65{fill:#FADA80;}
	.st66{filter:url(#Adobe_OpacityMaskFilter_00000096749471926106699120000018212956892028053152_);}
	.st67{mask:url(#mask-11_00000024696231956633878110000002733514922679629223_);fill:#FFFFFF;fill-opacity:0.1;}
	.st68{filter:url(#Adobe_OpacityMaskFilter_00000111188794076206756470000000795161679667660416_);}
	.st69{mask:url(#mask-13_00000056404134882932175190000015859228855672889005_);fill:#FFFFFF;fill-opacity:0.2;}
	.st70{filter:url(#Adobe_OpacityMaskFilter_00000013163012420523280600000008301968812583097778_);}
	.st71{mask:url(#mask-15_00000068662904205051051810000000459225345993445522_);fill:#BF360C;fill-opacity:0.2;}
	.st72{filter:url(#Adobe_OpacityMaskFilter_00000037663849914418296710000000140733067226704779_);}
	.st73{mask:url(#mask-17_00000112634298898974973900000003884647652301164951_);fill:#BF360C;fill-opacity:0.1;}
	.st74{fill:url(#Path_00000160171350463446597930000004491409809038932911_);}
</style>
<g>
	<path class="st11" d="M69.1,51.6c0,1.2-1,2.2-2.2,2.2H20.1c-1.2,0-2.2-1-2.2-2.2V5.7c0-1.2,1-2.2,2.2-2.2h46.8c1.2,0,2.2,1,2.2,2.2
		L69.1,51.6L69.1,51.6z"/>
	<path class="st2" d="M29.2,50.2c-0.3,1.2,0.3,2.4,1.4,2.7L74,64.6c1.1,0.3,2.2-0.4,2.6-1.6l10.2-38.1c0.3-1.2-0.3-2.4-1.4-2.7
		L42,10.5c-1.1-0.3-2.2,0.4-2.6,1.6L29.2,50.2z"/>
	<polygon class="st12" points="77,38.4 79.3,52.3 77,60.8 	"/>
	<polygon class="st12" points="51.8,13.7 53.8,14.2 55.1,22.7 	"/>
	<path class="st13" d="M85.4,22.2L42,10.5c-1.1-0.3-2.2,0.4-2.6,1.6L29.2,50.2c0,0.1,0,0.1,0,0.2l10.1-37.8c0.3-1.2,1.5-1.9,2.6-1.6
		l43.3,11.7c1,0.3,1.6,1.4,1.4,2.5l0.1-0.3C87.1,23.7,86.4,22.5,85.4,22.2L85.4,22.2z"/>
	<path class="st14" d="M63.4,45.5c0.4,1.1-0.1,2.4-1.2,2.8L16.5,65c-1.1,0.4-2.3-0.2-2.7-1.4L0.3,26.5c-0.4-1.1,0.1-2.4,1.2-2.8
		L47.2,7.1c1.1-0.4,2.3,0.2,2.7,1.4L63.4,45.5z"/>
	<path class="st13" d="M0.5,27c-0.4-1.1,0.1-2.4,1.2-2.8L47.4,7.6c1-0.4,2.2,0.2,2.7,1.3l-0.2-0.4c-0.4-1.1-1.6-1.8-2.7-1.4
		L1.5,23.7c-1.1,0.4-1.6,1.6-1.2,2.8l13.5,37.1c0,0,0,0,0,0L0.5,27z"/>
	<path class="st8" d="M77,72.2c0,1.2-1,2.2-2.2,2.2H12.2c-1.2,0-2.2-1-2.2-2.2V25c0-1.2,1-2.2,2.2-2.2h62.5c1.2,0,2.2,1,2.2,2.2
		V72.2z"/>
	<path class="st15" d="M65,41.5H46.3v-4.9H65c0.5,0,1,0.4,1,1v3C66,41,65.6,41.5,65,41.5z M65,60.2H46.3v-4.9H65c0.5,0,1,0.4,1,1v3
		C66,59.7,65.6,60.2,65,60.2z M68,50.8H46.3v-4.9H68c0.5,0,1,0.4,1,1v3C69,50.4,68.5,50.8,68,50.8L68,50.8z"/>
	<path class="st16" d="M74.8,74H12.2C11,74,10,73,10,71.8v0.5c0,1.2,1,2.2,2.2,2.2h62.5c1.2,0,2.2-1,2.2-2.2v-0.5
		C77,73,76,74,74.8,74z"/>
	<path class="st13" d="M12.2,23.2h62.5c1.2,0,2.2,1,2.2,2.2V25c0-1.2-1-2.2-2.2-2.2H12.2c-1.2,0-2.2,1-2.2,2.2v0.5
		C10,24.2,11,23.2,12.2,23.2L12.2,23.2z"/>
	<path class="st15" d="M29.6,46.4v4.4H36c-0.5,2.7-2.9,4.7-6.4,4.7c-3.9,0-7-3.3-7-7.1s3.1-7.1,7-7.1c1.7,0,3.3,0.6,4.5,1.8v0
		l3.4-3.4c-2-1.9-4.7-3.1-7.9-3.1c-6.5,0-11.8,5.3-11.8,11.8s5.3,11.8,11.8,11.8c6.8,0,11.3-4.8,11.3-11.6c0-0.8-0.1-1.5-0.2-2.2
		H29.6z"/>
	<g class="st17">
		<path class="st18" d="M29.7,50.8v0.5H36c0-0.2,0.1-0.3,0.1-0.5H29.7z"/>
		<path class="st18" d="M29.7,60.2c-6.4,0-11.7-5.2-11.8-11.6c0,0.1,0,0.2,0,0.2c0,6.5,5.3,11.8,11.8,11.8c6.8,0,11.3-4.8,11.3-11.6
			c0-0.1,0-0.1,0-0.2C40.9,55.5,36.4,60.2,29.7,60.2z M34.2,43c-1.2-1.2-2.8-1.8-4.5-1.8c-3.9,0-7,3.3-7,7.1c0,0.1,0,0.2,0,0.2
			c0.1-3.8,3.2-6.9,7-6.9c1.7,0,3.3,0.6,4.5,1.8v0l3.6-3.6c-0.1-0.1-0.2-0.1-0.3-0.2L34.2,43L34.2,43z"/>
	</g>
	<path class="st16" d="M66,41v-0.5c0,0.5-0.4,1-1,1H46.3V42H65C65.6,42,66,41.5,66,41L66,41z M65,60.2H46.3v0.5H65c0.5,0,1-0.4,1-1
		v-0.5C66,59.7,65.6,60.2,65,60.2z M68,50.8H46.3v0.5H68c0.5,0,1-0.4,1-1v-0.5C69,50.4,68.5,50.8,68,50.8L68,50.8z"/>
	
		<radialGradient id="SVGID_00000141422129497546829810000018062088910557187218_" cx="19.6973" cy="68.6045" r="84.2972" gradientTransform="matrix(1 0 0 -1 0 77.8898)" gradientUnits="userSpaceOnUse">
		<stop  offset="0" style="stop-color:#FFFFFF;stop-opacity:0.1"/>
		<stop  offset="1" style="stop-color:#FFFFFF;stop-opacity:0"/>
	</radialGradient>
	<path style="fill:url(#SVGID_00000141422129497546829810000018062088910557187218_);" d="M85.4,22.2l-16.2-4.4V5.7
		c0-1.2-1-2.2-2.2-2.2H20.1c-1.2,0-2.2,1-2.2,2.2v12l-16.4,6c-1.1,0.4-1.6,1.6-1.2,2.8L10,53.2v19.1c0,1.2,1,2.2,2.2,2.2h62.5
		c1.2,0,2.2-1,2.2-2.2V61.3l9.8-36.5C87.1,23.7,86.4,22.5,85.4,22.2L85.4,22.2z"/>
</g>
</svg>
