<?xml version="1.0" encoding="utf-8"?>
<!-- Generator: Adobe Illustrator 26.0.2, SVG Export Plug-In . SVG Version: 6.00 Build 0)  -->
<svg version="1.1" id="Layer_1" xmlns="http://www.w3.org/2000/svg" xmlns:xlink="http://www.w3.org/1999/xlink" x="0px" y="0px"
	 viewBox="0 0 87.3 78" style="enable-background:new 0 0 87.3 78;" xml:space="preserve">
<style type="text/css">
	.st0{fill:#0066DA;}
	.st1{fill:#00AC47;}
	.st2{fill:#EA4335;}
	.st3{fill:#00832D;}
	.st4{fill:#2684FC;}
	.st5{fill:#FFBA00;}
	.st6{fill:#34A853;}
	.st7{fill:#FBBC04;}
	.st8{fill:#4285F4;}
	.st9{fill:#1A73E8;}
	.st10{fill:#E94235;}
	.st11{fill:#0C9D58;}
	.st12{opacity:0.2;fill:#3E2723;enable-background:new    ;}
	.st13{opacity:0.2;fill:#FFFFFF;enable-background:new    ;}
	.st14{fill:#FFC107;}
	.st15{fill:#FFFFFF;}
	.st16{opacity:0.2;fill:#1A237E;enable-background:new    ;}
	.st17{opacity:0.2;}
	.st18{fill:#1A237E;}
	.st19{fill:url(#SVGID_00000152246791768070724390000001327070990625919392_);}
	.st20{fill:#188038;}
	.st21{fill:#1967D2;}
	.st22{filter:url(#Adobe_OpacityMaskFilter);}
	.st23{fill-rule:evenodd;clip-rule:evenodd;fill:#FFFFFF;}
	.st24{mask:url(#mask-2_00000137106897927044204810000017442038333586816682_);fill:#0F9D58;}
	.st25{filter:url(#Adobe_OpacityMaskFilter_00000093167824256343101540000016569099367694371234_);}
	.st26{mask:url(#mask-4_00000064336424826607782570000017955422308261571224_);fill:#F1F1F1;}
	.st27{filter:url(#Adobe_OpacityMaskFilter_00000157268110470384747810000016864833129515745931_);}
	
		.st28{mask:url(#mask-6_00000119101063681515262960000012756693851270139292_);fill:url(#Path_00000041257470515185874910000010882030906626999426_);}
	.st29{filter:url(#Adobe_OpacityMaskFilter_00000083791749964589407030000002241377663745209772_);}
	.st30{mask:url(#mask-9_00000147920844863489661220000008633831196068903608_);}
	.st31{fill:#87CEAC;}
	.st32{filter:url(#Adobe_OpacityMaskFilter_00000075162743755929887710000016742656378398488476_);}
	.st33{mask:url(#mask-11_00000013159684921425088800000008589362732119340955_);fill:#FFFFFF;fill-opacity:0.2;}
	.st34{filter:url(#Adobe_OpacityMaskFilter_00000070809897642918395300000003920647881145332865_);}
	.st35{mask:url(#mask-13_00000062159373447756652150000018191320538564470693_);fill:#263238;fill-opacity:0.2;}
	.st36{filter:url(#Adobe_OpacityMaskFilter_00000077292820580833706910000010054143189821482143_);}
	.st37{mask:url(#mask-15_00000121978274466120089670000004644126639569214899_);fill:#263238;fill-opacity:0.1;}
	.st38{fill:url(#Path_00000050662347546378756570000001835037132754370701_);}
	.st39{fill:#FF0000;}
	.st40{fill:#C5221F;}
	.st41{filter:url(#Adobe_OpacityMaskFilter_00000075143121592157985940000014069349879755090576_);}
	.st42{mask:url(#mask-2_00000078009726322465067210000014262786524678033802_);fill:#4285F4;}
	.st43{filter:url(#Adobe_OpacityMaskFilter_00000084491839006327159220000007466777297030435007_);}
	
		.st44{mask:url(#mask-4_00000121243293551549158070000002655700822813522847_);fill:url(#Path_00000115516121682627793580000001915275212920794275_);}
	.st45{filter:url(#Adobe_OpacityMaskFilter_00000098909324774490738510000013529062944958836882_);}
	.st46{mask:url(#mask-7_00000115472661557859594890000002464534761750819219_);fill:#F1F1F1;}
	.st47{filter:url(#Adobe_OpacityMaskFilter_00000055704919269921305620000010309967007617100211_);}
	.st48{mask:url(#mask-9_00000033369042767880254900000007876147394084937661_);}
	.st49{fill:#A1C2FA;}
	.st50{filter:url(#Adobe_OpacityMaskFilter_00000013909004628225556580000016528312220193950593_);}
	.st51{mask:url(#mask-11_00000100341815306852760010000012598455199632229014_);fill:#FFFFFF;fill-opacity:0.2;}
	.st52{filter:url(#Adobe_OpacityMaskFilter_00000040557027393029435650000009516406376079076795_);}
	.st53{mask:url(#mask-13_00000151513279323591976310000001270483658039615930_);fill:#1A237E;fill-opacity:0.2;}
	.st54{filter:url(#Adobe_OpacityMaskFilter_00000026844167956415252350000002427504320604027832_);}
	.st55{mask:url(#mask-15_00000138570237621816172180000006327754527219526075_);fill:#1A237E;fill-opacity:0.1;}
	.st56{fill:url(#Path_00000122705856175901944480000013634020609395708551_);}
	.st57{filter:url(#Adobe_OpacityMaskFilter_00000029029756758497510830000001682291809600306874_);}
	.st58{mask:url(#mask-2_00000174579222074127669110000002284619298921790886_);fill:#F4B400;}
	.st59{filter:url(#Adobe_OpacityMaskFilter_00000145741003799182711000000007379277211114434946_);}
	.st60{mask:url(#mask-4_00000087407440687074456800000002257355834669649820_);fill:#F1F1F1;}
	.st61{filter:url(#Adobe_OpacityMaskFilter_00000106829239678983769640000010083212871748945337_);}
	
		.st62{mask:url(#mask-6_00000153677743912979572680000014511372092426665362_);fill:url(#Path_00000081611549467931698080000008159683699861672369_);}
	.st63{filter:url(#Adobe_OpacityMaskFilter_00000076586271215976378370000002617019148920894095_);}
	.st64{mask:url(#mask-9_00000170960895189798711360000016237452462435676545_);}
	.st65{fill:#FADA80;}
	.st66{filter:url(#Adobe_OpacityMaskFilter_00000072238814258545140100000007224278707222976423_);}
	.st67{mask:url(#mask-11_00000024696231956633878110000002733514922679629223_);fill:#FFFFFF;fill-opacity:0.1;}
	.st68{filter:url(#Adobe_OpacityMaskFilter_00000132772518242374409250000002697665503067559576_);}
	.st69{mask:url(#mask-13_00000056404134882932175190000015859228855672889005_);fill:#FFFFFF;fill-opacity:0.2;}
	.st70{filter:url(#Adobe_OpacityMaskFilter_00000013908590213198542880000011058694287391171486_);}
	.st71{mask:url(#mask-15_00000068662904205051051810000000459225345993445522_);fill:#BF360C;fill-opacity:0.2;}
	.st72{filter:url(#Adobe_OpacityMaskFilter_00000004516278109039986360000014233882737724406677_);}
	.st73{mask:url(#mask-17_00000112634298898974973900000003884647652301164951_);fill:#BF360C;fill-opacity:0.1;}
	.st74{fill:url(#Path_00000176721659031766640570000017601880445250222243_);}
</style>
<g>
	<path class="st15" d="M62.3,18.6H21.5v40.9h40.9V18.6z"/>
	<path class="st2" d="M62.3,77.8l18.4-18.4H62.3V77.8z"/>
	<path class="st7" d="M80.7,18.6H62.3v40.9h18.4V18.6z"/>
	<path class="st6" d="M62.3,59.4H21.5v18.4h40.9V59.4z"/>
	<path class="st20" d="M3.1,59.4v12.3c0,3.4,2.7,6.1,6.1,6.1h12.3V59.4H3.1z"/>
	<path class="st21" d="M80.7,18.6V6.3c0-3.4-2.7-6.1-6.1-6.1H62.3v18.4H80.7z"/>
	<path class="st8" d="M62.3,0.2H9.2c-3.4,0-6.1,2.7-6.1,6.1v53.1h18.4V18.6h40.9V0.2z"/>
	<path class="st8" d="M29.8,50.3c-1.5-1-2.6-2.5-3.2-4.5l3.5-1.5c0.3,1.2,0.9,2.2,1.7,2.9c0.8,0.7,1.8,1,2.9,1c1.2,0,2.2-0.4,3-1.1
		c0.8-0.7,1.3-1.6,1.3-2.7c0-1.1-0.4-2-1.3-2.7c-0.9-0.7-2-1.1-3.3-1.1h-2v-3.5h1.8c1.1,0,2.1-0.3,2.9-0.9c0.8-0.6,1.2-1.5,1.2-2.5
		c0-1-0.3-1.7-1-2.3c-0.7-0.6-1.6-0.9-2.6-0.9c-1,0-1.9,0.3-2.5,0.8c-0.6,0.6-1.1,1.3-1.3,2l-3.5-1.5c0.5-1.3,1.3-2.5,2.6-3.5
		c1.3-1,2.9-1.5,4.8-1.5c1.4,0,2.7,0.3,3.9,0.8c1.1,0.6,2,1.3,2.7,2.3c0.6,1,1,2.1,1,3.3c0,1.3-0.3,2.3-0.9,3.2
		c-0.6,0.9-1.3,1.5-2.2,2v0.2c1.1,0.5,2.1,1.2,2.9,2.2c0.7,1,1.1,2.2,1.1,3.6c0,1.4-0.4,2.6-1.1,3.7c-0.7,1.1-1.7,1.9-2.9,2.6
		c-1.2,0.6-2.6,0.9-4.2,0.9C33,51.8,31.4,51.3,29.8,50.3L29.8,50.3z M51.6,32.7l-3.9,2.8l-1.9-3l7-5h2.7v23.8h-3.8V32.7z"/>
</g>
</svg>
