<?xml version="1.0" encoding="utf-8"?>
<!-- Generator: Adobe Illustrator 26.0.2, SVG Export Plug-In . SVG Version: 6.00 Build 0)  -->
<svg version="1.1" id="Layer_1" xmlns="http://www.w3.org/2000/svg" xmlns:xlink="http://www.w3.org/1999/xlink" x="0px" y="0px"
	 viewBox="0 0 87.3 78" style="enable-background:new 0 0 87.3 78;" xml:space="preserve">
<style type="text/css">
	.st0{fill:#0066DA;}
	.st1{fill:#00AC47;}
	.st2{fill:#EA4335;}
	.st3{fill:#00832D;}
	.st4{fill:#2684FC;}
	.st5{fill:#FFBA00;}
	.st6{fill:#34A853;}
	.st7{fill:#FBBC04;}
	.st8{fill:#4285F4;}
	.st9{fill:#1A73E8;}
	.st10{fill:#E94235;}
	.st11{fill:#0C9D58;}
	.st12{opacity:0.2;fill:#3E2723;enable-background:new    ;}
	.st13{opacity:0.2;fill:#FFFFFF;enable-background:new    ;}
	.st14{fill:#FFC107;}
	.st15{fill:#FFFFFF;}
	.st16{opacity:0.2;fill:#1A237E;enable-background:new    ;}
	.st17{opacity:0.2;}
	.st18{fill:#1A237E;}
	.st19{fill:url(#SVGID_00000114069700171223700860000004018796156175851396_);}
	.st20{fill:#188038;}
	.st21{fill:#1967D2;}
	.st22{filter:url(#Adobe_OpacityMaskFilter);}
	.st23{fill-rule:evenodd;clip-rule:evenodd;fill:#FFFFFF;}
	.st24{mask:url(#mask-2_00000137106897927044204810000017442038333586816682_);fill:#0F9D58;}
	.st25{filter:url(#Adobe_OpacityMaskFilter_00000108291008260242882140000012642594065049062315_);}
	.st26{mask:url(#mask-4_00000064336424826607782570000017955422308261571224_);fill:#F1F1F1;}
	.st27{filter:url(#Adobe_OpacityMaskFilter_00000122706820017451433010000015538960615398395279_);}
	
		.st28{mask:url(#mask-6_00000119101063681515262960000012756693851270139292_);fill:url(#Path_00000011748533277406336450000004487207305293229185_);}
	.st29{filter:url(#Adobe_OpacityMaskFilter_00000039835072690510900080000004921564659677176506_);}
	.st30{mask:url(#mask-9_00000147920844863489661220000008633831196068903608_);}
	.st31{fill:#87CEAC;}
	.st32{filter:url(#Adobe_OpacityMaskFilter_00000121240657644212317210000008636038340072753809_);}
	.st33{mask:url(#mask-11_00000013159684921425088800000008589362732119340955_);fill:#FFFFFF;fill-opacity:0.2;}
	.st34{filter:url(#Adobe_OpacityMaskFilter_00000130609225514025940700000008680347893108752291_);}
	.st35{mask:url(#mask-13_00000062159373447756652150000018191320538564470693_);fill:#263238;fill-opacity:0.2;}
	.st36{filter:url(#Adobe_OpacityMaskFilter_00000143583434154825755640000005507312513157271990_);}
	.st37{mask:url(#mask-15_00000121978274466120089670000004644126639569214899_);fill:#263238;fill-opacity:0.1;}
	.st38{fill:url(#Path_00000165934216690888604620000007285738875548583323_);}
	.st39{fill:#FF0000;}
	.st40{fill:#C5221F;}
	.st41{filter:url(#Adobe_OpacityMaskFilter_00000005963546788247071300000012813953061164484782_);}
	.st42{mask:url(#mask-2_00000078009726322465067210000014262786524678033802_);fill:#4285F4;}
	.st43{filter:url(#Adobe_OpacityMaskFilter_00000134945629722811599770000003652347749210476163_);}
	
		.st44{mask:url(#mask-4_00000121243293551549158070000002655700822813522847_);fill:url(#Path_00000158007251489274749330000013796370204524192400_);}
	.st45{filter:url(#Adobe_OpacityMaskFilter_00000055692656633499246980000017739803776382372541_);}
	.st46{mask:url(#mask-7_00000115472661557859594890000002464534761750819219_);fill:#F1F1F1;}
	.st47{filter:url(#Adobe_OpacityMaskFilter_00000045614788597211919290000013051420272791226512_);}
	.st48{mask:url(#mask-9_00000033369042767880254900000007876147394084937661_);}
	.st49{fill:#A1C2FA;}
	.st50{filter:url(#Adobe_OpacityMaskFilter_00000036971800530998271510000002796147007626234787_);}
	.st51{mask:url(#mask-11_00000100341815306852760010000012598455199632229014_);fill:#FFFFFF;fill-opacity:0.2;}
	.st52{filter:url(#Adobe_OpacityMaskFilter_00000102523291504675211720000015111948132634923650_);}
	.st53{mask:url(#mask-13_00000151513279323591976310000001270483658039615930_);fill:#1A237E;fill-opacity:0.2;}
	.st54{filter:url(#Adobe_OpacityMaskFilter_00000009577596590540536410000007945877193467594168_);}
	.st55{mask:url(#mask-15_00000138570237621816172180000006327754527219526075_);fill:#1A237E;fill-opacity:0.1;}
	.st56{fill:url(#Path_00000148635247602987716510000006284960948996133813_);}
	.st57{filter:url(#Adobe_OpacityMaskFilter_00000107570944340729297630000012006894954432097450_);}
	.st58{mask:url(#mask-2_00000174579222074127669110000002284619298921790886_);fill:#F4B400;}
	.st59{filter:url(#Adobe_OpacityMaskFilter_00000072268710231748980090000005109781828727507897_);}
	.st60{mask:url(#mask-4_00000087407440687074456800000002257355834669649820_);fill:#F1F1F1;}
	.st61{filter:url(#Adobe_OpacityMaskFilter_00000170273799944733103310000003517257679277172906_);}
	
		.st62{mask:url(#mask-6_00000153677743912979572680000014511372092426665362_);fill:url(#Path_00000090292144921923370320000007450390037954610866_);}
	.st63{filter:url(#Adobe_OpacityMaskFilter_00000179612424750399372510000002645497965051465384_);}
	.st64{mask:url(#mask-9_00000170960895189798711360000016237452462435676545_);}
	.st65{fill:#FADA80;}
	.st66{filter:url(#Adobe_OpacityMaskFilter_00000010293855991404130340000015280325718040278681_);}
	.st67{mask:url(#mask-11_00000024696231956633878110000002733514922679629223_);fill:#FFFFFF;fill-opacity:0.1;}
	.st68{filter:url(#Adobe_OpacityMaskFilter_00000064332716192103791990000000822938490671600039_);}
	.st69{mask:url(#mask-13_00000056404134882932175190000015859228855672889005_);fill:#FFFFFF;fill-opacity:0.2;}
	.st70{filter:url(#Adobe_OpacityMaskFilter_00000060743533067231109870000016822319305974470072_);}
	.st71{mask:url(#mask-15_00000068662904205051051810000000459225345993445522_);fill:#BF360C;fill-opacity:0.2;}
	.st72{filter:url(#Adobe_OpacityMaskFilter_00000008124405371479321010000011962318490480760487_);}
	.st73{mask:url(#mask-17_00000112634298898974973900000003884647652301164951_);fill:#BF360C;fill-opacity:0.1;}
	.st74{fill:url(#Path_00000124160520620739904460000000989563908956064442_);}
</style>
<g id="Page-1_00000102521294717832622090000005681642356161578116_">
	<g id="Consumer-Apps-Docs-Large-VD-R8" transform="translate(-451.000000, -463.000000)">
		<g id="Hero_00000154383733995795924890000008365328078703557810_" transform="translate(0.000000, 63.000000)">
			<g id="Personal_00000014618984519395187250000003611663337059748515_" transform="translate(277.000000, 309.000000)">
				<g id="Docs-icon" transform="translate(174.000000, 91.000000)">
					<g id="Group_00000131358484458912192650000007083579627405274249_">
						<g id="Clipped_00000029042729546382472800000003241325120475451812_">
							<defs>
								<filter id="Adobe_OpacityMaskFilter" filterUnits="userSpaceOnUse" x="17.7" y="0.2" width="56.1" height="77.6">
									<feColorMatrix  type="matrix" values="1 0 0 0 0  0 1 0 0 0  0 0 1 0 0  0 0 0 1 0"/>
								</filter>
							</defs>
							
								<mask maskUnits="userSpaceOnUse" x="17.7" y="0.2" width="56.1" height="77.6" id="mask-2_00000078009726322465067210000014262786524678033802_">
								<g class="st22">
									<path id="path-1_00000155139406882529807260000017696491853251682995_" class="st23" d="M52.8,0.2H23
										c-2.9,0-5.3,2.4-5.3,5.3v67c0,2.9,2.4,5.3,5.3,5.3h45.6c2.9,0,5.3-2.4,5.3-5.3V21.4L52.8,0.2z"/>
								</g>
							</mask>
							<path id="Path_00000142874745982466773410000010470727223699988636_" class="st42" d="M52.8,0.2H23c-2.9,0-5.3,2.4-5.3,5.3
								v67c0,2.9,2.4,5.3,5.3,5.3h45.6c2.9,0,5.3-2.4,5.3-5.3V21.4l-12.3-8.8L52.8,0.2z"/>
						</g>
						<g id="Clipped_00000160153597827982405990000006618306771409397926_">
							<defs>
								
									<filter id="Adobe_OpacityMaskFilter_00000177467450268340101740000005089097818172716975_" filterUnits="userSpaceOnUse" x="54.3" y="19.9" width="19.5" height="19.6">
									<feColorMatrix  type="matrix" values="1 0 0 0 0  0 1 0 0 0  0 0 1 0 0  0 0 0 1 0"/>
								</filter>
							</defs>
							
								<mask maskUnits="userSpaceOnUse" x="54.3" y="19.9" width="19.5" height="19.6" id="mask-4_00000121243293551549158070000002655700822813522847_">
								<g style="filter:url(#Adobe_OpacityMaskFilter_00000177467450268340101740000005089097818172716975_);">
									<path id="path-3_00000110434201303636422790000016492256586208006557_" class="st23" d="M52.8,0.2H23
										c-2.9,0-5.3,2.4-5.3,5.3v67c0,2.9,2.4,5.3,5.3,5.3h45.6c2.9,0,5.3-2.4,5.3-5.3V21.4L52.8,0.2z"/>
								</g>
							</mask>
							
								<linearGradient id="Path_00000124120718867484308780000011908916575690153652_" gradientUnits="userSpaceOnUse" x1="-537.6628" y1="436.3249" x2="-537.6628" y2="435.2337" gradientTransform="matrix(16.3362 0 0 -16.4273 8847.4297 7189.1665)">
								<stop  offset="0" style="stop-color:#1A237E;stop-opacity:0.2"/>
								<stop  offset="1" style="stop-color:#1A237E;stop-opacity:2.000000e-02"/>
							</linearGradient>
							
								<polygon id="Path_00000181810133005069732480000009525748085556249506_" style="mask:url(#mask-4_00000121243293551549158070000002655700822813522847_);fill:url(#Path_00000124120718867484308780000011908916575690153652_);" points="
								54.3,19.9 73.8,39.5 73.8,21.4 							"/>
						</g>
						<g id="Clipped_00000171706997114291415130000002791388853925109634_">
							<defs>
								
									<filter id="Adobe_OpacityMaskFilter_00000177442587882432472810000016825631422257145503_" filterUnits="userSpaceOnUse" x="31.8" y="39" width="28" height="24.7">
									<feColorMatrix  type="matrix" values="1 0 0 0 0  0 1 0 0 0  0 0 1 0 0  0 0 0 1 0"/>
								</filter>
							</defs>
							
								<mask maskUnits="userSpaceOnUse" x="31.8" y="39" width="28" height="24.7" id="mask-7_00000115472661557859594890000002464534761750819219_">
								<g style="filter:url(#Adobe_OpacityMaskFilter_00000177442587882432472810000016825631422257145503_);">
									<path id="path-6_00000057863841924817422090000005170322445639858576_" class="st23" d="M52.8,0.2H23
										c-2.9,0-5.3,2.4-5.3,5.3v67c0,2.9,2.4,5.3,5.3,5.3h45.6c2.9,0,5.3-2.4,5.3-5.3V21.4L52.8,0.2z"/>
								</g>
							</mask>
							<path id="Shape_00000003083049560360063770000003952179598388928656_" class="st46" d="M31.8,56.7h28v-3.5h-28V56.7z
								 M31.8,63.7h21v-3.5h-21V63.7z M31.8,39v3.5h28V39H31.8z M31.8,49.6h28v-3.5h-28V49.6z"/>
						</g>
						<g id="Clipped_00000003794938271601685420000009934480562172495287_">
							<defs>
								
									<filter id="Adobe_OpacityMaskFilter_00000016753924499128814900000017262694310034536091_" filterUnits="userSpaceOnUse" x="52.8" y="0.2" width="21" height="21.2">
									<feColorMatrix  type="matrix" values="1 0 0 0 0  0 1 0 0 0  0 0 1 0 0  0 0 0 1 0"/>
								</filter>
							</defs>
							
								<mask maskUnits="userSpaceOnUse" x="52.8" y="0.2" width="21" height="21.2" id="mask-9_00000033369042767880254900000007876147394084937661_">
								<g style="filter:url(#Adobe_OpacityMaskFilter_00000016753924499128814900000017262694310034536091_);">
									<path id="path-8_00000181810020318802785660000016946077194102083494_" class="st23" d="M52.8,0.2H23
										c-2.9,0-5.3,2.4-5.3,5.3v67c0,2.9,2.4,5.3,5.3,5.3h45.6c2.9,0,5.3-2.4,5.3-5.3V21.4L52.8,0.2z"/>
								</g>
							</mask>
							<g id="Group_00000120526860736861527830000011495775532598338473_" class="st48">
								<g transform="translate(26.437500, -2.954545)">
									<path id="Path_00000124139625219469307660000011332148397754109368_" class="st49" d="M26.4,3.2v15.9
										c0,2.9,2.4,5.3,5.3,5.3h15.8L26.4,3.2z"/>
								</g>
							</g>
						</g>
						<g id="Clipped_00000166657020205432865780000014194477033729690297_">
							<defs>
								
									<filter id="Adobe_OpacityMaskFilter_00000139994975737061391430000010044985825856818858_" filterUnits="userSpaceOnUse" x="17.7" y="0.2" width="35.1" height="5.7">
									<feColorMatrix  type="matrix" values="1 0 0 0 0  0 1 0 0 0  0 0 1 0 0  0 0 0 1 0"/>
								</filter>
							</defs>
							
								<mask maskUnits="userSpaceOnUse" x="17.7" y="0.2" width="35.1" height="5.7" id="mask-11_00000100341815306852760010000012598455199632229014_">
								<g style="filter:url(#Adobe_OpacityMaskFilter_00000139994975737061391430000010044985825856818858_);">
									<path id="path-10_00000042004751085390464980000017767189610484776125_" class="st23" d="M52.8,0.2H23
										c-2.9,0-5.3,2.4-5.3,5.3v67c0,2.9,2.4,5.3,5.3,5.3h45.6c2.9,0,5.3-2.4,5.3-5.3V21.4L52.8,0.2z"/>
								</g>
							</mask>
							<path id="Path_00000047055561140206891210000012237094490462189960_" class="st51" d="M23,0.2c-2.9,0-5.3,2.4-5.3,5.3V6
								c0-2.9,2.4-5.3,5.3-5.3h29.8V0.2H23z"/>
						</g>
						<g id="Clipped_00000141423806093899122820000001331551728700023963_">
							<defs>
								
									<filter id="Adobe_OpacityMaskFilter_00000177483447769405948520000007660004433099597733_" filterUnits="userSpaceOnUse" x="17.7" y="72.1" width="56.1" height="5.7">
									<feColorMatrix  type="matrix" values="1 0 0 0 0  0 1 0 0 0  0 0 1 0 0  0 0 0 1 0"/>
								</filter>
							</defs>
							
								<mask maskUnits="userSpaceOnUse" x="17.7" y="72.1" width="56.1" height="5.7" id="mask-13_00000151513279323591976310000001270483658039615930_">
								<g style="filter:url(#Adobe_OpacityMaskFilter_00000177483447769405948520000007660004433099597733_);">
									<path id="path-12_00000088821254371724213960000008942006176359465123_" class="st23" d="M52.8,0.2H23
										c-2.9,0-5.3,2.4-5.3,5.3v67c0,2.9,2.4,5.3,5.3,5.3h45.6c2.9,0,5.3-2.4,5.3-5.3V21.4L52.8,0.2z"/>
								</g>
							</mask>
							<path id="Path_00000149368442504560909800000011222241366798464422_" class="st53" d="M68.6,77.4H23c-2.9,0-5.3-2.4-5.3-5.3
								v0.4c0,2.9,2.4,5.3,5.3,5.3h45.6c2.9,0,5.3-2.4,5.3-5.3v-0.4C73.8,75,71.5,77.4,68.6,77.4z"/>
						</g>
						<g id="Clipped_00000157277364833944419300000007466420535190003347_">
							<defs>
								
									<filter id="Adobe_OpacityMaskFilter_00000125580987826860388220000014436812753239990194_" filterUnits="userSpaceOnUse" x="52.8" y="16.1" width="21" height="5.7">
									<feColorMatrix  type="matrix" values="1 0 0 0 0  0 1 0 0 0  0 0 1 0 0  0 0 0 1 0"/>
								</filter>
							</defs>
							
								<mask maskUnits="userSpaceOnUse" x="52.8" y="16.1" width="21" height="5.7" id="mask-15_00000138570237621816172180000006327754527219526075_">
								<g style="filter:url(#Adobe_OpacityMaskFilter_00000125580987826860388220000014436812753239990194_);">
									<path id="path-14_00000178177303523462367900000011072882868806400184_" class="st23" d="M52.8,0.2H23
										c-2.9,0-5.3,2.4-5.3,5.3v67c0,2.9,2.4,5.3,5.3,5.3h45.6c2.9,0,5.3-2.4,5.3-5.3V21.4L52.8,0.2z"/>
								</g>
							</mask>
							<path id="Path_00000042012066502740864830000011302491077972531608_" class="st55" d="M58.1,21.4c-2.9,0-5.3-2.4-5.3-5.3v0.4
								c0,2.9,2.4,5.3,5.3,5.3h15.8v-0.4H58.1z"/>
						</g>
					</g>
					
						<radialGradient id="Path_00000178175560141757071290000014570088810965125799_" cx="-562.2529" cy="451.7225" r="1.9244" gradientTransform="matrix(47 0 0 -47 26445.4004 21233.3125)" gradientUnits="userSpaceOnUse">
						<stop  offset="0" style="stop-color:#FFFFFF;stop-opacity:0.1"/>
						<stop  offset="1" style="stop-color:#FFFFFF;stop-opacity:0"/>
					</radialGradient>
					
						<path id="Path_00000000218989308537252640000017115953258509900430_" style="fill:url(#Path_00000178175560141757071290000014570088810965125799_);" d="
						M52.8,0.2H23c-2.9,0-5.3,2.4-5.3,5.3v67c0,2.9,2.4,5.3,5.3,5.3h45.6c2.9,0,5.3-2.4,5.3-5.3V21.4L52.8,0.2z"/>
				</g>
			</g>
		</g>
	</g>
</g>
</svg>
