<?xml version="1.0" encoding="utf-8"?>
<!-- Generator: Adobe Illustrator 26.0.2, SVG Export Plug-In . SVG Version: 6.00 Build 0)  -->
<svg version="1.1" id="Layer_1" xmlns="http://www.w3.org/2000/svg" xmlns:xlink="http://www.w3.org/1999/xlink" x="0px" y="0px"
	 viewBox="0 0 87.3 78" style="enable-background:new 0 0 87.3 78;" xml:space="preserve">
<style type="text/css">
	.st0{fill:#0066DA;}
	.st1{fill:#00AC47;}
	.st2{fill:#EA4335;}
	.st3{fill:#00832D;}
	.st4{fill:#2684FC;}
	.st5{fill:#FFBA00;}
	.st6{fill:#34A853;}
	.st7{fill:#FBBC04;}
	.st8{fill:#4285F4;}
	.st9{fill:#1A73E8;}
	.st10{fill:#E94235;}
	.st11{fill:#0C9D58;}
	.st12{opacity:0.2;fill:#3E2723;enable-background:new    ;}
	.st13{opacity:0.2;fill:#FFFFFF;enable-background:new    ;}
	.st14{fill:#FFC107;}
	.st15{fill:#FFFFFF;}
	.st16{opacity:0.2;fill:#1A237E;enable-background:new    ;}
	.st17{opacity:0.2;}
	.st18{fill:#1A237E;}
	.st19{fill:url(#SVGID_00000046326308035600587150000018160516090186830007_);}
	.st20{fill:#188038;}
	.st21{fill:#1967D2;}
	.st22{filter:url(#Adobe_OpacityMaskFilter);}
	.st23{fill-rule:evenodd;clip-rule:evenodd;fill:#FFFFFF;}
	.st24{mask:url(#mask-2_00000137106897927044204810000017442038333586816682_);fill:#0F9D58;}
	.st25{filter:url(#Adobe_OpacityMaskFilter_00000173133189161559714550000017986679583286120364_);}
	.st26{mask:url(#mask-4_00000064336424826607782570000017955422308261571224_);fill:#F1F1F1;}
	.st27{filter:url(#Adobe_OpacityMaskFilter_00000096779137162973130740000012965043927252287409_);}
	
		.st28{mask:url(#mask-6_00000119101063681515262960000012756693851270139292_);fill:url(#Path_00000174563413156574990700000011098682688902703269_);}
	.st29{filter:url(#Adobe_OpacityMaskFilter_00000024712379977688770650000002659940854952511918_);}
	.st30{mask:url(#mask-9_00000147920844863489661220000008633831196068903608_);}
	.st31{fill:#87CEAC;}
	.st32{filter:url(#Adobe_OpacityMaskFilter_00000056417514535305713090000007156422748012429727_);}
	.st33{mask:url(#mask-11_00000013159684921425088800000008589362732119340955_);fill:#FFFFFF;fill-opacity:0.2;}
	.st34{filter:url(#Adobe_OpacityMaskFilter_00000075158596736023215860000007547901579244876731_);}
	.st35{mask:url(#mask-13_00000062159373447756652150000018191320538564470693_);fill:#263238;fill-opacity:0.2;}
	.st36{filter:url(#Adobe_OpacityMaskFilter_00000096746290064649368930000006535015855611801475_);}
	.st37{mask:url(#mask-15_00000121978274466120089670000004644126639569214899_);fill:#263238;fill-opacity:0.1;}
	.st38{fill:url(#Path_00000132772897283908649790000015563450171820944564_);}
	.st39{fill:#FF0000;}
	.st40{fill:#C5221F;}
	.st41{filter:url(#Adobe_OpacityMaskFilter_00000062912576397847120200000008997119511489228220_);}
	.st42{mask:url(#mask-2_00000078009726322465067210000014262786524678033802_);fill:#4285F4;}
	.st43{filter:url(#Adobe_OpacityMaskFilter_00000130610078565677783890000002858598353395688612_);}
	
		.st44{mask:url(#mask-4_00000121243293551549158070000002655700822813522847_);fill:url(#Path_00000156567825414967500480000006692939866704619706_);}
	.st45{filter:url(#Adobe_OpacityMaskFilter_00000090999235904798893370000003882490842519920268_);}
	.st46{mask:url(#mask-7_00000115472661557859594890000002464534761750819219_);fill:#F1F1F1;}
	.st47{filter:url(#Adobe_OpacityMaskFilter_00000075869501537096977820000000713869499010173621_);}
	.st48{mask:url(#mask-9_00000033369042767880254900000007876147394084937661_);}
	.st49{fill:#A1C2FA;}
	.st50{filter:url(#Adobe_OpacityMaskFilter_00000095314702929232839590000014689349686223168176_);}
	.st51{mask:url(#mask-11_00000100341815306852760010000012598455199632229014_);fill:#FFFFFF;fill-opacity:0.2;}
	.st52{filter:url(#Adobe_OpacityMaskFilter_00000177456914777311781970000008613432910021632662_);}
	.st53{mask:url(#mask-13_00000151513279323591976310000001270483658039615930_);fill:#1A237E;fill-opacity:0.2;}
	.st54{filter:url(#Adobe_OpacityMaskFilter_00000075881399203733283530000003173903671299644292_);}
	.st55{mask:url(#mask-15_00000138570237621816172180000006327754527219526075_);fill:#1A237E;fill-opacity:0.1;}
	.st56{fill:url(#Path_00000031887932320490952900000000720628887542695057_);}
	.st57{filter:url(#Adobe_OpacityMaskFilter_00000067218535574573273660000002625580421441060998_);}
	.st58{mask:url(#mask-2_00000174579222074127669110000002284619298921790886_);fill:#F4B400;}
	.st59{filter:url(#Adobe_OpacityMaskFilter_00000129167220921783503060000013380230187977406361_);}
	.st60{mask:url(#mask-4_00000087407440687074456800000002257355834669649820_);fill:#F1F1F1;}
	.st61{filter:url(#Adobe_OpacityMaskFilter_00000026156661511943886160000004056877335606708617_);}
	
		.st62{mask:url(#mask-6_00000153677743912979572680000014511372092426665362_);fill:url(#Path_00000070840714678852481880000017882007490470593921_);}
	.st63{filter:url(#Adobe_OpacityMaskFilter_00000152949508578755520980000012759456064019614123_);}
	.st64{mask:url(#mask-9_00000170960895189798711360000016237452462435676545_);}
	.st65{fill:#FADA80;}
	.st66{filter:url(#Adobe_OpacityMaskFilter_00000021819315041635015810000004300679125083616429_);}
	.st67{mask:url(#mask-11_00000024696231956633878110000002733514922679629223_);fill:#FFFFFF;fill-opacity:0.1;}
	.st68{filter:url(#Adobe_OpacityMaskFilter_00000029743521348659621100000006062178563685218432_);}
	.st69{mask:url(#mask-13_00000056404134882932175190000015859228855672889005_);fill:#FFFFFF;fill-opacity:0.2;}
	.st70{filter:url(#Adobe_OpacityMaskFilter_00000008837785366229731410000012403301526012788151_);}
	.st71{mask:url(#mask-15_00000068662904205051051810000000459225345993445522_);fill:#BF360C;fill-opacity:0.2;}
	.st72{filter:url(#Adobe_OpacityMaskFilter_00000129205326292399728830000008254824906208797109_);}
	.st73{mask:url(#mask-17_00000112634298898974973900000003884647652301164951_);fill:#BF360C;fill-opacity:0.1;}
	.st74{fill:url(#Path_00000120520224410975836810000009424476015222964648_);}
</style>
<g id="Page-1">
	<g id="Consumer-Apps-Sheets-Large-VD-R8-" transform="translate(-451.000000, -451.000000)">
		<g id="Hero" transform="translate(0.000000, 63.000000)">
			<g id="account_settings" transform="translate(277.000000, 299.000000)">
				<g id="Sheets-icon" transform="translate(174.833333, 89.958333)">
					<g id="Group_00000131326368137288809110000012498868185038484613_">
						<g id="Clipped">
							<defs>
								<filter id="Adobe_OpacityMaskFilter" filterUnits="userSpaceOnUse" x="14" y="-0.7" width="56.5" height="77.6">
									<feColorMatrix  type="matrix" values="1 0 0 0 0  0 1 0 0 0  0 0 1 0 0  0 0 0 1 0"/>
								</filter>
							</defs>
							
								<mask maskUnits="userSpaceOnUse" x="14" y="-0.7" width="56.5" height="77.6" id="mask-2_00000137106897927044204810000017442038333586816682_">
								<g class="st22">
									<path id="path-1_00000161590882516049396640000015094153653058573719_" class="st23" d="M49.3-0.7h-30
										c-2.9,0-5.3,2.4-5.3,5.3v67.1c0,2.9,2.4,5.3,5.3,5.3h45.9c2.9,0,5.3-2.4,5.3-5.3V20.5L49.3-0.7z"/>
								</g>
							</mask>
							<path id="Path" class="st24" d="M49.3-0.7h-30c-2.9,0-5.3,2.4-5.3,5.3v67.1c0,2.9,2.4,5.3,5.3,5.3h45.9
								c2.9,0,5.3-2.4,5.3-5.3V20.5l-12.4-8.8L49.3-0.7z"/>
						</g>
						<g id="Clipped_00000138559029729905236730000003287225191032578222_">
							<defs>
								
									<filter id="Adobe_OpacityMaskFilter_00000131360086981280561280000013317110229481575607_" filterUnits="userSpaceOnUse" x="28.1" y="37.2" width="28.2" height="25.6">
									<feColorMatrix  type="matrix" values="1 0 0 0 0  0 1 0 0 0  0 0 1 0 0  0 0 0 1 0"/>
								</filter>
							</defs>
							
								<mask maskUnits="userSpaceOnUse" x="28.1" y="37.2" width="28.2" height="25.6" id="mask-4_00000064336424826607782570000017955422308261571224_">
								<g style="filter:url(#Adobe_OpacityMaskFilter_00000131360086981280561280000013317110229481575607_);">
									<path id="path-3_00000173850800297987795520000015657063371423243708_" class="st23" d="M49.3-0.7h-30
										c-2.9,0-5.3,2.4-5.3,5.3v67.1c0,2.9,2.4,5.3,5.3,5.3h45.9c2.9,0,5.3-2.4,5.3-5.3V20.5L49.3-0.7z"/>
								</g>
							</mask>
							<path id="Shape" class="st26" d="M28.1,37.2v25.6h28.2V37.2H28.1z M40.4,59.3h-8.8v-4.4h8.8V59.3z M40.4,52.2h-8.8v-4.4h8.8
								V52.2z M40.4,45.2h-8.8v-4.4h8.8V45.2z M52.8,59.3H44v-4.4h8.8V59.3z M52.8,52.2H44v-4.4h8.8V52.2z M52.8,45.2H44v-4.4h8.8
								V45.2z"/>
						</g>
						<g id="Clipped_00000158737371841222070530000009828596438259414969_">
							<defs>
								
									<filter id="Adobe_OpacityMaskFilter_00000127015801878021818050000013266268370528522628_" filterUnits="userSpaceOnUse" x="50.8" y="18.9" width="19.6" height="19.6">
									<feColorMatrix  type="matrix" values="1 0 0 0 0  0 1 0 0 0  0 0 1 0 0  0 0 0 1 0"/>
								</filter>
							</defs>
							
								<mask maskUnits="userSpaceOnUse" x="50.8" y="18.9" width="19.6" height="19.6" id="mask-6_00000119101063681515262960000012756693851270139292_">
								<g style="filter:url(#Adobe_OpacityMaskFilter_00000127015801878021818050000013266268370528522628_);">
									<path id="path-5_00000101062706944827402540000013437366927540398999_" class="st23" d="M49.3-0.7h-30
										c-2.9,0-5.3,2.4-5.3,5.3v67.1c0,2.9,2.4,5.3,5.3,5.3h45.9c2.9,0,5.3-2.4,5.3-5.3V20.5L49.3-0.7z"/>
								</g>
							</mask>
							
								<linearGradient id="Path_00000120557138579935004120000016398216567844608896_" gradientUnits="userSpaceOnUse" x1="-438.2033" y1="435.4551" x2="-438.2033" y2="434.3644" gradientTransform="matrix(16.452 0 0 -16.4483 7269.9604 7183.1094)">
								<stop  offset="0" style="stop-color:#263238;stop-opacity:0.2"/>
								<stop  offset="1" style="stop-color:#263238;stop-opacity:2.000000e-02"/>
							</linearGradient>
							
								<polygon id="Path_00000150062122036800141990000016188145214939156113_" style="mask:url(#mask-6_00000119101063681515262960000012756693851270139292_);fill:url(#Path_00000120557138579935004120000016398216567844608896_);" points="
								50.8,18.9 70.4,38.5 70.4,20.5 							"/>
						</g>
						<g id="Clipped_00000112609928795514810490000009836603143292610189_">
							<defs>
								
									<filter id="Adobe_OpacityMaskFilter_00000170957737761108111470000015164068546510324901_" filterUnits="userSpaceOnUse" x="49.3" y="-0.7" width="21.2" height="21.2">
									<feColorMatrix  type="matrix" values="1 0 0 0 0  0 1 0 0 0  0 0 1 0 0  0 0 0 1 0"/>
								</filter>
							</defs>
							
								<mask maskUnits="userSpaceOnUse" x="49.3" y="-0.7" width="21.2" height="21.2" id="mask-9_00000147920844863489661220000008633831196068903608_">
								<g style="filter:url(#Adobe_OpacityMaskFilter_00000170957737761108111470000015164068546510324901_);">
									<path id="path-8_00000016074103959567983170000012397349347091998601_" class="st23" d="M49.3-0.7h-30
										c-2.9,0-5.3,2.4-5.3,5.3v67.1c0,2.9,2.4,5.3,5.3,5.3h45.9c2.9,0,5.3-2.4,5.3-5.3V20.5L49.3-0.7z"/>
								</g>
							</mask>
							<g id="Group" class="st30">
								<g transform="translate(26.625000, -2.958333)">
									<path id="Path_00000119117124700272878030000000496299106511275411_" class="st31" d="M22.6,2.2v15.9
										c0,2.9,2.4,5.3,5.3,5.3h15.9L22.6,2.2z"/>
								</g>
							</g>
						</g>
						<g id="Clipped_00000085958297906879623250000011780066312291104906_">
							<defs>
								
									<filter id="Adobe_OpacityMaskFilter_00000178199623127937430870000006573398750004971698_" filterUnits="userSpaceOnUse" x="14" y="-0.7" width="35.3" height="5.7">
									<feColorMatrix  type="matrix" values="1 0 0 0 0  0 1 0 0 0  0 0 1 0 0  0 0 0 1 0"/>
								</filter>
							</defs>
							
								<mask maskUnits="userSpaceOnUse" x="14" y="-0.7" width="35.3" height="5.7" id="mask-11_00000013159684921425088800000008589362732119340955_">
								<g style="filter:url(#Adobe_OpacityMaskFilter_00000178199623127937430870000006573398750004971698_);">
									<path id="path-10_00000126319543491839089720000011847791010122016433_" class="st23" d="M49.3-0.7h-30
										c-2.9,0-5.3,2.4-5.3,5.3v67.1c0,2.9,2.4,5.3,5.3,5.3h45.9c2.9,0,5.3-2.4,5.3-5.3V20.5L49.3-0.7z"/>
								</g>
							</mask>
							<path id="Path_00000169559332264545665370000003172921191073060746_" class="st33" d="M19.3-0.7c-2.9,0-5.3,2.4-5.3,5.3V5
								c0-2.9,2.4-5.3,5.3-5.3h30v-0.4H19.3z"/>
						</g>
						<g id="Clipped_00000053547210907542983230000004811538735225327523_">
							<defs>
								
									<filter id="Adobe_OpacityMaskFilter_00000078026692027235730490000007052282650637769657_" filterUnits="userSpaceOnUse" x="14" y="71.2" width="56.5" height="5.7">
									<feColorMatrix  type="matrix" values="1 0 0 0 0  0 1 0 0 0  0 0 1 0 0  0 0 0 1 0"/>
								</filter>
							</defs>
							
								<mask maskUnits="userSpaceOnUse" x="14" y="71.2" width="56.5" height="5.7" id="mask-13_00000062159373447756652150000018191320538564470693_">
								<g style="filter:url(#Adobe_OpacityMaskFilter_00000078026692027235730490000007052282650637769657_);">
									<path id="path-12_00000101824362310815604810000013856824671138260906_" class="st23" d="M49.3-0.7h-30
										c-2.9,0-5.3,2.4-5.3,5.3v67.1c0,2.9,2.4,5.3,5.3,5.3h45.9c2.9,0,5.3-2.4,5.3-5.3V20.5L49.3-0.7z"/>
								</g>
							</mask>
							<path id="Path_00000144324207406054483350000000365646274662675591_" class="st35" d="M65.1,76.5H19.3
								c-2.9,0-5.3-2.4-5.3-5.3v0.4c0,2.9,2.4,5.3,5.3,5.3h45.9c2.9,0,5.3-2.4,5.3-5.3v-0.4C70.4,74.1,68.1,76.5,65.1,76.5z"/>
						</g>
						<g id="Clipped_00000077318025804632550600000000294203757889070765_">
							<defs>
								
									<filter id="Adobe_OpacityMaskFilter_00000088094773365473559420000009268603913573362871_" filterUnits="userSpaceOnUse" x="49.3" y="15.2" width="21.2" height="5.7">
									<feColorMatrix  type="matrix" values="1 0 0 0 0  0 1 0 0 0  0 0 1 0 0  0 0 0 1 0"/>
								</filter>
							</defs>
							
								<mask maskUnits="userSpaceOnUse" x="49.3" y="15.2" width="21.2" height="5.7" id="mask-15_00000121978274466120089670000004644126639569214899_">
								<g style="filter:url(#Adobe_OpacityMaskFilter_00000088094773365473559420000009268603913573362871_);">
									<path id="path-14_00000016789446233506776810000011527536030450844802_" class="st23" d="M49.3-0.7h-30
										c-2.9,0-5.3,2.4-5.3,5.3v67.1c0,2.9,2.4,5.3,5.3,5.3h45.9c2.9,0,5.3-2.4,5.3-5.3V20.5L49.3-0.7z"/>
								</g>
							</mask>
							<path id="Path_00000152250097321065561940000005658452268390915480_" class="st37" d="M54.6,20.5c-2.9,0-5.3-2.4-5.3-5.3v0.4
								c0,2.9,2.4,5.3,5.3,5.3h15.9v-0.4H54.6z"/>
						</g>
					</g>
					
						<radialGradient id="Path_00000003825762918305780910000017588652779579913913_" cx="-458.2215" cy="450.8417" r="1.9236" gradientTransform="matrix(47.3333 0 0 -47.3334 21704.9102 21341.248)" gradientUnits="userSpaceOnUse">
						<stop  offset="0" style="stop-color:#FFFFFF;stop-opacity:0.1"/>
						<stop  offset="1" style="stop-color:#FFFFFF;stop-opacity:0"/>
					</radialGradient>
					
						<path id="Path_00000159464338572763762880000002776202475484878517_" style="fill:url(#Path_00000003825762918305780910000017588652779579913913_);" d="
						M49.3-0.7h-30c-2.9,0-5.3,2.4-5.3,5.3v67.1c0,2.9,2.4,5.3,5.3,5.3h45.9c2.9,0,5.3-2.4,5.3-5.3V20.5L49.3-0.7z"/>
				</g>
			</g>
		</g>
	</g>
</g>
</svg>
