<?xml version="1.0" encoding="utf-8"?>
<!-- Generator: Adobe Illustrator 26.0.2, SVG Export Plug-In . SVG Version: 6.00 Build 0)  -->
<svg version="1.1" id="Layer_1" xmlns="http://www.w3.org/2000/svg" xmlns:xlink="http://www.w3.org/1999/xlink" x="0px" y="0px"
	 viewBox="0 0 87.3 78" style="enable-background:new 0 0 87.3 78;" xml:space="preserve">
<style type="text/css">
	.st0{fill:#0066DA;}
	.st1{fill:#00AC47;}
	.st2{fill:#EA4335;}
	.st3{fill:#00832D;}
	.st4{fill:#2684FC;}
	.st5{fill:#FFBA00;}
	.st6{fill:#34A853;}
	.st7{fill:#FBBC04;}
	.st8{fill:#4285F4;}
	.st9{fill:#1A73E8;}
	.st10{fill:#E94235;}
	.st11{fill:#0C9D58;}
	.st12{opacity:0.2;fill:#3E2723;enable-background:new    ;}
	.st13{opacity:0.2;fill:#FFFFFF;enable-background:new    ;}
	.st14{fill:#FFC107;}
	.st15{fill:#FFFFFF;}
	.st16{opacity:0.2;fill:#1A237E;enable-background:new    ;}
	.st17{opacity:0.2;}
	.st18{fill:#1A237E;}
	.st19{fill:url(#SVGID_00000074439828669454147130000012649798509016711568_);}
	.st20{fill:#188038;}
	.st21{fill:#1967D2;}
	.st22{filter:url(#Adobe_OpacityMaskFilter);}
	.st23{fill-rule:evenodd;clip-rule:evenodd;fill:#FFFFFF;}
	.st24{mask:url(#mask-2_00000137106897927044204810000017442038333586816682_);fill:#0F9D58;}
	.st25{filter:url(#Adobe_OpacityMaskFilter_00000150088766190718629030000005608524170961885346_);}
	.st26{mask:url(#mask-4_00000064336424826607782570000017955422308261571224_);fill:#F1F1F1;}
	.st27{filter:url(#Adobe_OpacityMaskFilter_00000045592717821691078010000008386951705978358427_);}
	
		.st28{mask:url(#mask-6_00000119101063681515262960000012756693851270139292_);fill:url(#Path_00000059301367209723813490000016528609994774375045_);}
	.st29{filter:url(#Adobe_OpacityMaskFilter_00000109030187933534013830000006793222973520095672_);}
	.st30{mask:url(#mask-9_00000147920844863489661220000008633831196068903608_);}
	.st31{fill:#87CEAC;}
	.st32{filter:url(#Adobe_OpacityMaskFilter_00000120521710946216769900000015226493417530182066_);}
	.st33{mask:url(#mask-11_00000013159684921425088800000008589362732119340955_);fill:#FFFFFF;fill-opacity:0.2;}
	.st34{filter:url(#Adobe_OpacityMaskFilter_00000152235647147651841220000010131458202489022128_);}
	.st35{mask:url(#mask-13_00000062159373447756652150000018191320538564470693_);fill:#263238;fill-opacity:0.2;}
	.st36{filter:url(#Adobe_OpacityMaskFilter_00000116957727286809119720000004465664329152049054_);}
	.st37{mask:url(#mask-15_00000121978274466120089670000004644126639569214899_);fill:#263238;fill-opacity:0.1;}
	.st38{fill:url(#Path_00000030446489730981713000000008715958056627367335_);}
	.st39{fill:#FF0000;}
	.st40{fill:#C5221F;}
	.st41{filter:url(#Adobe_OpacityMaskFilter_00000113348386871888243490000018007023415121152689_);}
	.st42{mask:url(#mask-2_00000078009726322465067210000014262786524678033802_);fill:#4285F4;}
	.st43{filter:url(#Adobe_OpacityMaskFilter_00000020381839236721186730000002555751843397603516_);}
	
		.st44{mask:url(#mask-4_00000121243293551549158070000002655700822813522847_);fill:url(#Path_00000104681832431292329930000016151435197649299857_);}
	.st45{filter:url(#Adobe_OpacityMaskFilter_00000152979298200623180570000008883702959016864407_);}
	.st46{mask:url(#mask-7_00000115472661557859594890000002464534761750819219_);fill:#F1F1F1;}
	.st47{filter:url(#Adobe_OpacityMaskFilter_00000061447466148591581810000007195563757463239591_);}
	.st48{mask:url(#mask-9_00000033369042767880254900000007876147394084937661_);}
	.st49{fill:#A1C2FA;}
	.st50{filter:url(#Adobe_OpacityMaskFilter_00000074400387675963050380000000065301249313657524_);}
	.st51{mask:url(#mask-11_00000100341815306852760010000012598455199632229014_);fill:#FFFFFF;fill-opacity:0.2;}
	.st52{filter:url(#Adobe_OpacityMaskFilter_00000044147576850419371160000013675184615205619385_);}
	.st53{mask:url(#mask-13_00000151513279323591976310000001270483658039615930_);fill:#1A237E;fill-opacity:0.2;}
	.st54{filter:url(#Adobe_OpacityMaskFilter_00000114060374965156699920000010437354518900473011_);}
	.st55{mask:url(#mask-15_00000138570237621816172180000006327754527219526075_);fill:#1A237E;fill-opacity:0.1;}
	.st56{fill:url(#Path_00000032635560116907370540000002146808206513016244_);}
	.st57{filter:url(#Adobe_OpacityMaskFilter_00000149364664271697248200000010258430183974337983_);}
	.st58{mask:url(#mask-2_00000174579222074127669110000002284619298921790886_);fill:#F4B400;}
	.st59{filter:url(#Adobe_OpacityMaskFilter_00000080885794741605145250000009399521437162509974_);}
	.st60{mask:url(#mask-4_00000087407440687074456800000002257355834669649820_);fill:#F1F1F1;}
	.st61{filter:url(#Adobe_OpacityMaskFilter_00000148622590348066810280000011881464212574334620_);}
	
		.st62{mask:url(#mask-6_00000153677743912979572680000014511372092426665362_);fill:url(#Path_00000065796484134536148210000004090385092125072543_);}
	.st63{filter:url(#Adobe_OpacityMaskFilter_00000165943549767969958440000018159595125196760471_);}
	.st64{mask:url(#mask-9_00000170960895189798711360000016237452462435676545_);}
	.st65{fill:#FADA80;}
	.st66{filter:url(#Adobe_OpacityMaskFilter_00000004505299523541624060000004726764569370411194_);}
	.st67{mask:url(#mask-11_00000024696231956633878110000002733514922679629223_);fill:#FFFFFF;fill-opacity:0.1;}
	.st68{filter:url(#Adobe_OpacityMaskFilter_00000013151008623480979690000006652902495447455361_);}
	.st69{mask:url(#mask-13_00000056404134882932175190000015859228855672889005_);fill:#FFFFFF;fill-opacity:0.2;}
	.st70{filter:url(#Adobe_OpacityMaskFilter_00000023243529161164652710000010568169381547163276_);}
	.st71{mask:url(#mask-15_00000068662904205051051810000000459225345993445522_);fill:#BF360C;fill-opacity:0.2;}
	.st72{filter:url(#Adobe_OpacityMaskFilter_00000010298865092560863620000018330485090263274431_);}
	.st73{mask:url(#mask-17_00000112634298898974973900000003884647652301164951_);fill:#BF360C;fill-opacity:0.1;}
	.st74{fill:url(#Path_00000008117845116757028810000016076629783831144097_);}
</style>
<g>
	<path class="st6" d="M31.6,57.2c2.4,3,4.8,6.7,6.1,9c1.5,2.9,2.2,4.9,3.3,8.5c0.7,2,1.3,2.5,2.7,2.5c1.5,0,2.1-1,2.7-2.5
		c1.1-3.3,1.9-5.9,3.2-8.3c5.1-9.6,13.3-16.4,18-25.7c0,0,3.1-5.7,3.1-13.7c0-7.4-3-12.6-3-12.6L31.6,57.2L31.6,57.2z"/>
	<path class="st7" d="M19.3,39.8c2.9,6.6,8.4,12.4,12.2,17.5l20-23.7c0,0-2.8,3.7-7.9,3.7c-5.7,0-10.3-4.5-10.3-10.3
		c0-3.9,2.3-6.7,2.3-6.7C20.9,22.5,21.8,26.1,19.3,39.8L19.3,39.8z"/>
	<path class="st8" d="M51.8,1.2c6.7,2.1,12.3,6.7,15.7,13.3l-16,19.1c0,0,2.3-2.7,2.3-6.7c0-5.8-4.9-10.3-10.3-10.3
		c-5.1,0-7.9,3.7-7.9,3.7C37,17.5,49.6,2.2,51.8,1.2L51.8,1.2z"/>
	<path class="st9" d="M23,9.6C27,4.9,33.9,0,43.6,0c4.6,0,8.2,1.2,8.2,1.2l-16,19.1C34.6,19.7,24.1,11.5,23,9.6L23,9.6z"/>
	<path class="st2" d="M19.3,39.8c0,0-2.6-5.2-2.6-12.7c0-7.1,2.8-13.3,6.3-17.4l12.7,10.7L19.3,39.8L19.3,39.8z"/>
</g>
</svg>
