<svg width="691" height="710" viewBox="0 0 691 710" fill="none" xmlns="http://www.w3.org/2000/svg">
<g filter="url(#filter0_d_1631_2038)">
<g clip-path="url(#clip0_1631_2038)">
<rect x="65" y="32" width="561" height="580" rx="31" fill="#F9FAFB"/>
<g opacity="0.5">
<path d="M1004.97 272.654C1001.72 265.57 993.342 262.462 986.258 265.711L934.953 289.243C927.87 292.492 924.761 300.868 928.01 307.952L951.542 359.257C954.791 366.341 963.168 369.449 970.251 366.2L1021.56 342.668C1028.64 339.419 1031.75 331.042 1028.5 323.959L1004.97 272.654Z" fill="url(#paint0_linear_1631_2038)"/>
<path d="M665.073 428.554C661.824 421.47 653.447 418.361 646.364 421.61L595.059 445.142C587.975 448.392 584.866 456.768 588.116 463.852L611.648 515.157C614.897 522.24 623.273 525.349 630.357 522.1L681.662 498.568C688.745 495.319 691.854 486.942 688.605 479.858L665.073 428.554Z" fill="url(#paint1_linear_1631_2038)"/>
<path d="M325.178 584.453C321.929 577.37 313.553 574.261 306.469 577.51L255.164 601.042C248.08 604.291 244.972 612.668 248.221 619.751L271.753 671.056C275.002 678.14 283.378 681.249 290.462 677.999L341.767 654.467C348.851 651.218 351.959 642.842 348.71 635.758L325.178 584.453Z" fill="url(#paint2_linear_1631_2038)"/>
<path d="M927.017 102.707C923.768 95.6228 915.392 92.5143 908.308 95.7634L857.003 119.295C849.92 122.544 846.811 130.921 850.06 138.005L873.592 189.309C876.841 196.393 885.218 199.502 892.301 196.253L943.606 172.721C950.69 169.472 953.799 161.095 950.549 154.011L927.017 102.707Z" fill="url(#paint3_linear_1631_2038)"/>
<path d="M587.123 258.606C583.874 251.523 575.497 248.414 568.414 251.663L517.109 275.195C510.025 278.444 506.917 286.821 510.166 293.904L533.698 345.209C536.947 352.293 545.323 355.401 552.407 352.152L603.712 328.62C610.796 325.371 613.904 316.995 610.655 309.911L587.123 258.606Z" fill="url(#paint4_linear_1631_2038)"/>
<path d="M247.228 414.506C243.979 407.422 235.603 404.314 228.519 407.563L177.214 431.095C170.131 434.344 167.022 442.72 170.271 449.804L193.803 501.109C197.052 508.193 205.429 511.301 212.512 508.052L263.817 484.52C270.901 481.271 274.009 472.895 270.76 465.811L247.228 414.506Z" fill="url(#paint5_linear_1631_2038)"/>
<path d="M849.068 -67.2407C845.819 -74.3244 837.442 -77.433 830.358 -74.1839L779.054 -50.6518C771.97 -47.4027 768.861 -39.0264 772.11 -31.9426L795.642 19.3622C798.891 26.4459 807.268 29.5545 814.352 26.3054L865.656 2.77334C872.74 -0.475728 875.849 -8.8521 872.6 -15.9358L849.068 -67.2407Z" fill="url(#paint6_linear_1631_2038)"/>
<path d="M732.143 -322.162C728.894 -329.245 720.517 -332.354 713.434 -329.105L662.129 -305.573C655.045 -302.324 651.936 -293.947 655.186 -286.864L678.718 -235.559C681.967 -228.475 690.343 -225.366 697.427 -228.616L748.732 -252.148C755.815 -255.397 758.924 -263.773 755.675 -270.857L732.143 -322.162Z" fill="url(#paint7_linear_1631_2038)"/>
<path d="M509.173 88.659C505.924 81.5754 497.548 78.4668 490.464 81.7158L439.159 105.248C432.075 108.497 428.967 116.873 432.216 123.957L455.748 175.262C458.997 182.346 467.373 185.454 474.457 182.205L525.762 158.673C532.846 155.424 535.954 147.048 532.705 139.964L509.173 88.659Z" fill="url(#paint8_linear_1631_2038)"/>
<path d="M392.248 -166.262C388.999 -173.346 380.623 -176.454 373.539 -173.205L322.234 -149.673C315.15 -146.424 312.042 -138.048 315.291 -130.964L338.823 -79.659C342.072 -72.5752 350.449 -69.4667 357.532 -72.7158L408.837 -96.2478C415.921 -99.4969 419.029 -107.873 415.78 -114.957L392.248 -166.262Z" fill="url(#paint9_linear_1631_2038)"/>
<path d="M169.278 244.559C166.029 237.475 157.653 234.366 150.569 237.616L99.2644 261.148C92.1807 264.397 89.0721 272.773 92.3212 279.857L115.853 331.162C119.102 338.245 127.479 341.354 134.562 338.105L185.867 314.573C192.951 311.324 196.06 302.947 192.811 295.864L169.278 244.559Z" fill="url(#paint10_linear_1631_2038)"/>
<path d="M52.3537 -10.3622C49.1046 -17.4459 40.7282 -20.5545 33.6445 -17.3054L-17.6604 6.22667C-24.7441 9.47579 -27.8527 17.8522 -24.6036 24.9359L-1.07154 76.2407C2.17759 83.3245 10.554 86.433 17.6377 83.1839L68.9425 59.6519C76.0263 56.4028 79.1348 48.0264 75.8857 40.9427L52.3537 -10.3622Z" fill="url(#paint11_linear_1631_2038)"/>
<path d="M771.118 -237.188C767.869 -244.272 759.492 -247.38 752.409 -244.131L701.104 -220.599C694.02 -217.35 690.911 -208.974 694.161 -201.89L717.693 -150.585C720.942 -143.501 729.318 -140.393 736.402 -143.642L787.707 -167.174C794.79 -170.423 797.899 -178.799 794.65 -185.883L771.118 -237.188Z" fill="url(#paint12_linear_1631_2038)"/>
<path d="M654.193 -492.109C650.944 -499.193 642.567 -502.301 635.484 -499.052L584.179 -475.52C577.095 -472.271 573.987 -463.895 577.236 -456.811L600.768 -405.506C604.017 -398.422 612.393 -395.314 619.477 -398.563L670.782 -422.095C677.866 -425.344 680.974 -433.72 677.725 -440.804L654.193 -492.109Z" fill="url(#paint13_linear_1631_2038)"/>
<path d="M431.223 -81.2882C427.974 -88.372 419.598 -91.4805 412.514 -88.2314L361.209 -64.6994C354.125 -61.4503 351.017 -53.0739 354.266 -45.9902L377.798 5.31469C381.047 12.3984 389.423 15.507 396.507 12.2579L447.812 -11.2742C454.896 -14.5233 458.004 -22.8997 454.755 -29.9834L431.223 -81.2882Z" fill="url(#paint14_linear_1631_2038)"/>
<path d="M314.298 -336.209C311.049 -343.293 302.673 -346.401 295.589 -343.152L244.284 -319.62C237.201 -316.371 234.092 -307.995 237.341 -300.911L260.873 -249.606C264.122 -242.523 272.499 -239.414 279.582 -242.663L330.887 -266.195C337.971 -269.444 341.08 -277.821 337.83 -284.904L314.298 -336.209Z" fill="url(#paint15_linear_1631_2038)"/>
<path d="M91.3286 74.6115C88.0795 67.5278 79.7031 64.4192 72.6194 67.6683L21.3146 91.2003C14.2308 94.4494 11.1223 102.826 14.3714 109.91L37.9034 161.214C41.1525 168.298 49.5289 171.407 56.6126 168.158L107.917 144.626C115.001 141.376 118.11 133 114.861 125.916L91.3286 74.6115Z" fill="url(#paint16_linear_1631_2038)"/>
<path d="M-25.5962 -180.309C-28.8452 -187.393 -37.2217 -190.502 -44.3054 -187.253L-95.6103 -163.721C-102.694 -160.472 -105.802 -152.095 -102.553 -145.011L-79.0214 -93.7066C-75.7723 -86.6228 -67.3959 -83.5143 -60.3122 -86.7634L-9.00734 -110.295C-1.92365 -113.544 1.18495 -121.921 -2.06412 -129.005L-25.5962 -180.309Z" fill="url(#paint17_linear_1631_2038)"/>
<path d="M835.02 350.604C831.771 343.52 823.395 340.411 816.311 343.661L765.006 367.193C757.922 370.442 754.814 378.818 758.063 385.902L781.595 437.207C784.844 444.29 793.22 447.399 800.304 444.15L851.609 420.618C858.693 417.369 861.801 408.992 858.552 401.909L835.02 350.604Z" fill="url(#paint18_linear_1631_2038)"/>
<path d="M495.126 506.503C491.876 499.42 483.5 496.311 476.416 499.56L425.111 523.092C418.028 526.341 414.919 534.718 418.168 541.802L441.7 593.106C444.949 600.19 453.326 603.299 460.41 600.05L511.714 576.518C518.798 573.268 521.907 564.892 518.658 557.808L495.126 506.503Z" fill="url(#paint19_linear_1631_2038)"/>
<path d="M155.231 662.403C151.982 655.32 143.605 652.211 136.522 655.46L85.2169 678.992C78.1331 682.241 75.0245 690.618 78.2737 697.701L101.806 749.006C105.055 756.09 113.431 759.198 120.515 755.949L171.82 732.417C178.904 729.168 182.012 720.792 178.763 713.708L155.231 662.403Z" fill="url(#paint20_linear_1631_2038)"/>
<path d="M757.07 180.656C753.821 173.573 745.445 170.464 738.361 173.713L687.056 197.245C679.972 200.494 676.864 208.871 680.113 215.954L703.645 267.259C706.894 274.343 715.27 277.452 722.354 274.203L773.659 250.671C780.743 247.421 783.851 239.045 780.602 231.961L757.07 180.656Z" fill="url(#paint21_linear_1631_2038)"/>
<path d="M417.176 336.556C413.927 329.472 405.55 326.364 398.466 329.613L347.162 353.145C340.078 356.394 336.969 364.77 340.218 371.854L363.75 423.159C366.999 430.243 375.376 433.351 382.46 430.102L433.764 406.57C440.848 403.321 443.957 394.945 440.708 387.861L417.176 336.556Z" fill="url(#paint22_linear_1631_2038)"/>
<path d="M77.281 492.456C74.0319 485.372 65.6555 482.264 58.5718 485.513L7.26698 509.045C0.183253 512.294 -2.92537 520.67 0.323677 527.754L23.8557 579.059C27.1049 586.143 35.4813 589.251 42.5649 586.002L93.8699 562.47C100.954 559.221 104.062 550.845 100.813 543.761L77.281 492.456Z" fill="url(#paint23_linear_1631_2038)"/>
<path d="M679.12 10.7092C675.871 3.62546 667.495 0.516867 660.411 3.76598L609.106 27.298C602.023 30.5472 598.914 38.9235 602.163 46.0072L625.695 97.3121C628.944 104.396 637.321 107.504 644.404 104.255L695.709 80.7232C702.793 77.4741 705.901 69.0977 702.652 62.014L679.12 10.7092Z" fill="url(#paint24_linear_1631_2038)"/>
<path d="M562.196 -244.212C558.946 -251.295 550.57 -254.404 543.486 -251.155L492.181 -227.623C485.098 -224.374 481.989 -215.997 485.238 -208.914L508.77 -157.609C512.019 -150.525 520.396 -147.417 527.48 -150.666L578.784 -174.198C585.868 -177.447 588.977 -185.823 585.728 -192.907L562.196 -244.212Z" fill="url(#paint25_linear_1631_2038)"/>
<path d="M339.226 166.609C335.977 159.525 327.6 156.417 320.517 159.666L269.212 183.198C262.128 186.447 259.019 194.823 262.269 201.907L285.801 253.212C289.05 260.296 297.426 263.404 304.51 260.155L355.815 236.623C362.898 233.374 366.007 224.997 362.758 217.914L339.226 166.609Z" fill="url(#paint26_linear_1631_2038)"/>
<path d="M222.301 -88.312C219.052 -95.3957 210.675 -98.5043 203.592 -95.2552L152.287 -71.7232C145.203 -68.4741 142.095 -60.0977 145.344 -53.014L168.876 -1.70914C172.125 5.37459 180.501 8.48318 187.585 5.2341L238.89 -18.2979C245.974 -21.547 249.082 -29.9235 245.833 -37.0072L222.301 -88.312Z" fill="url(#paint27_linear_1631_2038)"/>
<path d="M-0.668852 322.509C-3.91792 315.425 -12.2943 312.316 -19.378 315.565L-70.6828 339.097C-77.7666 342.347 -80.8752 350.723 -77.6261 357.807L-54.0941 409.112C-50.845 416.195 -42.4686 419.304 -35.3849 416.055L15.92 392.523C23.0037 389.274 26.1123 380.897 22.8632 373.814L-0.668852 322.509Z" fill="url(#paint28_linear_1631_2038)"/>
<path d="M-117.594 67.5877C-120.843 60.504 -129.219 57.3954 -136.303 60.6446L-187.608 84.1766C-194.691 87.4257 -197.8 95.8021 -194.551 102.886L-171.019 154.191C-167.77 161.274 -159.393 164.383 -152.31 161.134L-101.005 137.602C-93.9211 134.353 -90.8125 125.976 -94.0616 118.893L-117.594 67.5877Z" fill="url(#paint29_linear_1631_2038)"/>
<path d="M601.17 -159.238C597.921 -166.322 589.545 -169.43 582.461 -166.181L531.156 -142.649C524.073 -139.4 520.964 -131.024 524.213 -123.94L547.745 -72.6352C550.994 -65.5515 559.371 -62.4429 566.454 -65.692L617.759 -89.224C624.843 -92.4731 627.952 -100.85 624.703 -107.933L601.17 -159.238Z" fill="url(#paint30_linear_1631_2038)"/>
<path d="M484.246 -414.159C480.997 -421.243 472.62 -424.351 465.536 -421.102L414.232 -397.57C407.148 -394.321 404.039 -385.945 407.288 -378.861L430.82 -327.556C434.07 -320.472 442.446 -317.364 449.53 -320.613L500.835 -344.145C507.918 -347.394 511.027 -355.77 507.778 -362.854L484.246 -414.159Z" fill="url(#paint31_linear_1631_2038)"/>
<path d="M261.276 -3.33834C258.027 -10.4221 249.65 -13.5307 242.567 -10.2815L191.262 13.2505C184.178 16.4996 181.07 24.876 184.319 31.9597L207.851 83.2645C211.1 90.3483 219.476 93.4568 226.56 90.2077L277.865 66.6757C284.948 63.4266 288.057 55.0502 284.808 47.9664L261.276 -3.33834Z" fill="url(#paint32_linear_1631_2038)"/>
<path d="M144.351 -258.259C141.102 -265.343 132.726 -268.452 125.642 -265.202L74.337 -241.67C67.2533 -238.421 64.1447 -230.045 67.3938 -222.961L90.9259 -171.656C94.175 -164.573 102.551 -161.464 109.635 -164.713L160.94 -188.245C168.024 -191.494 171.132 -199.871 167.883 -206.954L144.351 -258.259Z" fill="url(#paint33_linear_1631_2038)"/>
<path d="M-78.6187 152.561C-81.8678 145.478 -90.2442 142.369 -97.3279 145.618L-148.633 169.15C-155.716 172.399 -158.825 180.776 -155.576 187.859L-132.044 239.164C-128.795 246.248 -120.418 249.357 -113.335 246.107L-62.0299 222.575C-54.9461 219.326 -51.8375 210.95 -55.0866 203.866L-78.6187 152.561Z" fill="url(#paint34_linear_1631_2038)"/>
<path d="M-195.544 -102.36C-198.793 -109.443 -207.169 -112.552 -214.253 -109.303L-265.558 -85.7707C-272.641 -82.5216 -275.75 -74.1452 -272.501 -67.0615L-248.969 -15.7567C-245.72 -8.67296 -237.343 -5.56436 -230.26 -8.81344L-178.955 -32.3455C-171.871 -35.5946 -168.762 -43.971 -172.011 -51.0547L-195.544 -102.36Z" fill="url(#paint35_linear_1631_2038)"/>
<path d="M1043.94 357.628C1040.69 350.544 1032.32 347.435 1025.23 350.684L973.928 374.216C966.844 377.465 963.736 385.842 966.985 392.926L990.517 444.23C993.766 451.314 1002.14 454.423 1009.23 451.174L1060.53 427.642C1067.61 424.393 1070.72 416.016 1067.47 408.932L1043.94 357.628Z" fill="url(#paint36_linear_1631_2038)"/>
<path d="M704.048 513.527C700.799 506.444 692.422 503.335 685.338 506.584L634.034 530.116C626.95 533.365 623.841 541.742 627.09 548.825L650.623 600.13C653.872 607.214 662.248 610.322 669.332 607.073L720.637 583.541C727.72 580.292 730.829 571.916 727.58 564.832L704.048 513.527Z" fill="url(#paint37_linear_1631_2038)"/>
<path d="M364.153 669.427C360.904 662.343 352.528 659.235 345.444 662.484L294.139 686.016C287.055 689.265 283.947 697.641 287.196 704.725L310.728 756.03C313.977 763.114 322.353 766.222 329.437 762.973L380.742 739.441C387.826 736.192 390.934 727.816 387.685 720.732L364.153 669.427Z" fill="url(#paint38_linear_1631_2038)"/>
<path d="M965.992 187.68C962.743 180.597 954.367 177.488 947.283 180.737L895.978 204.269C888.895 207.518 885.786 215.895 889.035 222.978L912.567 274.283C915.816 281.367 924.193 284.475 931.276 281.226L982.581 257.694C989.665 254.445 992.774 246.069 989.524 238.985L965.992 187.68Z" fill="url(#paint39_linear_1631_2038)"/>
<path d="M626.098 343.58C622.849 336.496 614.472 333.388 607.389 336.637L556.084 360.169C549 363.418 545.891 371.794 549.141 378.878L572.673 430.183C575.922 437.267 584.298 440.375 591.382 437.126L642.687 413.594C649.77 410.345 652.879 401.969 649.63 394.885L626.098 343.58Z" fill="url(#paint40_linear_1631_2038)"/>
<path d="M286.203 499.48C282.954 492.396 274.578 489.287 267.494 492.537L216.189 516.069C209.106 519.318 205.997 527.694 209.246 534.778L232.778 586.083C236.027 593.166 244.404 596.275 251.487 593.026L302.792 569.494C309.876 566.245 312.984 557.868 309.735 550.785L286.203 499.48Z" fill="url(#paint41_linear_1631_2038)"/>
<path d="M888.043 17.733C884.793 10.6493 876.417 7.54069 869.333 10.7898L818.028 34.3218C810.945 37.5709 807.836 45.9473 811.085 53.031L834.617 104.336C837.866 111.42 846.243 114.528 853.327 111.279L904.631 87.747C911.715 84.4979 914.824 76.1215 911.575 69.0378L888.043 17.733Z" fill="url(#paint42_linear_1631_2038)"/>
<path d="M548.148 173.633C544.899 166.549 536.523 163.44 529.439 166.689L478.134 190.222C471.05 193.471 467.942 201.847 471.191 208.931L494.723 260.236C497.972 267.319 506.348 270.428 513.432 267.179L564.737 243.647C571.821 240.398 574.929 232.021 571.68 224.938L548.148 173.633Z" fill="url(#paint43_linear_1631_2038)"/>
<path d="M208.253 329.532C205.004 322.449 196.628 319.34 189.544 322.589L138.239 346.121C131.156 349.37 128.047 357.747 131.296 364.831L154.828 416.135C158.077 423.219 166.454 426.328 173.537 423.079L224.842 399.547C231.926 396.297 235.035 387.921 231.785 380.837L208.253 329.532Z" fill="url(#paint44_linear_1631_2038)"/>
<path d="M810.093 -152.214C806.844 -159.298 798.467 -162.407 791.383 -159.158L740.079 -135.626C732.995 -132.376 729.886 -124 733.135 -116.916L756.667 -65.6114C759.917 -58.5277 768.293 -55.4191 775.377 -58.6682L826.682 -82.2003C833.765 -85.4493 836.874 -93.8258 833.625 -100.91L810.093 -152.214Z" fill="url(#paint45_linear_1631_2038)"/>
<path d="M693.168 -407.135C689.919 -414.219 681.542 -417.328 674.459 -414.078L623.154 -390.546C616.07 -387.297 612.962 -378.921 616.211 -371.837L639.743 -320.532C642.992 -313.449 651.368 -310.34 658.452 -313.589L709.757 -337.121C716.84 -340.37 719.949 -348.747 716.7 -355.83L693.168 -407.135Z" fill="url(#paint46_linear_1631_2038)"/>
<path d="M470.198 3.68538C466.949 -3.39837 458.573 -6.50691 451.489 -3.2578L400.184 20.2742C393.1 23.5233 389.992 31.8998 393.241 38.9834L416.773 90.2884C420.022 97.372 428.398 100.481 435.482 97.2315L486.787 73.6995C493.871 70.4504 496.979 62.074 493.73 54.9902L470.198 3.68538Z" fill="url(#paint47_linear_1631_2038)"/>
<path d="M353.273 -251.236C350.024 -258.319 341.648 -261.428 334.564 -258.179L283.259 -234.647C276.176 -231.398 273.067 -223.021 276.316 -215.937L299.848 -164.633C303.097 -157.549 311.474 -154.44 318.557 -157.689L369.862 -181.221C376.946 -184.471 380.054 -192.847 376.805 -199.931L353.273 -251.236Z" fill="url(#paint48_linear_1631_2038)"/>
<path d="M130.304 159.585C127.054 152.501 118.678 149.393 111.594 152.642L60.2895 176.174C53.2058 179.423 50.0972 187.799 53.3463 194.883L76.8784 246.188C80.1274 253.272 88.5038 256.38 95.5875 253.131L146.892 229.599C153.976 226.35 157.085 217.974 153.836 210.89L130.304 159.585Z" fill="url(#paint49_linear_1631_2038)"/>
<path d="M13.3788 -95.3358C10.1297 -102.42 1.75326 -105.528 -5.33048 -102.279L-56.6353 -78.7469C-63.719 -75.4979 -66.8276 -67.1214 -63.5785 -60.0377L-40.0465 -8.7329C-36.7974 -1.64916 -28.421 1.4594 -21.3372 -1.78971L29.9676 -25.3217C37.0513 -28.5708 40.1599 -36.9472 36.9108 -44.031L13.3788 -95.3358Z" fill="url(#paint50_linear_1631_2038)"/>
<path d="M873.995 435.577C870.746 428.494 862.369 425.385 855.286 428.634L803.981 452.166C796.897 455.415 793.789 463.792 797.038 470.875L820.57 522.18C823.819 529.264 832.195 532.373 839.279 529.123L890.584 505.591C897.668 502.342 900.776 493.966 897.527 486.882L873.995 435.577Z" fill="url(#paint51_linear_1631_2038)"/>
<path d="M534.1 591.477C530.851 584.393 522.475 581.285 515.391 584.534L464.086 608.066C457.003 611.315 453.894 619.691 457.143 626.775L480.675 678.08C483.924 685.164 492.301 688.272 499.384 685.023L550.689 661.491C557.773 658.242 560.882 649.866 557.632 642.782L534.1 591.477Z" fill="url(#paint52_linear_1631_2038)"/>
<path d="M194.206 747.377C190.957 740.293 182.58 737.185 175.497 740.434L124.192 763.966C117.108 767.215 113.999 775.591 117.249 782.675L140.781 833.98C144.03 841.063 152.406 844.172 159.49 840.923L210.795 817.391C217.878 814.142 220.987 805.765 217.738 798.682L194.206 747.377Z" fill="url(#paint53_linear_1631_2038)"/>
<path d="M796.045 265.63C792.796 258.546 784.42 255.438 777.336 258.687L726.031 282.219C718.947 285.468 715.839 293.844 719.088 300.928L742.62 352.233C745.869 359.317 754.245 362.425 761.329 359.176L812.634 335.644C819.718 332.395 822.826 324.019 819.577 316.935L796.045 265.63Z" fill="url(#paint54_linear_1631_2038)"/>
<path d="M456.151 421.53C452.902 414.446 444.525 411.338 437.441 414.587L386.136 438.119C379.053 441.368 375.944 449.744 379.193 456.828L402.725 508.133C405.974 515.216 414.351 518.325 421.435 515.076L472.739 491.544C479.823 488.295 482.932 479.918 479.683 472.835L456.151 421.53Z" fill="url(#paint55_linear_1631_2038)"/>
<path d="M116.256 577.43C113.007 570.346 104.631 567.237 97.5468 570.486L46.2418 594.018C39.1582 597.267 36.0497 605.644 39.2988 612.728L62.8308 664.032C66.0798 671.116 74.4562 674.225 81.54 670.976L132.845 647.444C139.929 644.195 143.037 635.818 139.788 628.734L116.256 577.43Z" fill="url(#paint56_linear_1631_2038)"/>
<path d="M718.095 95.6828C714.846 88.5991 706.47 85.4905 699.386 88.7397L648.081 112.272C640.997 115.521 637.889 123.897 641.138 130.981L664.67 182.286C667.919 189.369 676.296 192.478 683.379 189.229L734.684 165.697C741.768 162.448 744.876 154.071 741.627 146.988L718.095 95.6828Z" fill="url(#paint57_linear_1631_2038)"/>
<path d="M378.201 251.583C374.952 244.499 366.575 241.39 359.491 244.639L308.187 268.171C301.103 271.421 297.994 279.797 301.243 286.881L324.775 338.185C328.025 345.269 336.401 348.378 343.485 345.129L394.79 321.597C401.873 318.348 404.982 309.971 401.733 302.887L378.201 251.583Z" fill="url(#paint58_linear_1631_2038)"/>
<path d="M38.3061 407.482C35.057 400.399 26.6805 397.29 19.5969 400.539L-31.708 424.071C-38.7917 427.32 -41.9003 435.697 -38.6511 442.78L-15.1191 494.085C-11.87 501.169 -3.49361 504.278 3.59011 501.028L54.8949 477.496C61.9786 474.247 65.0872 465.871 61.8382 458.787L38.3061 407.482Z" fill="url(#paint59_linear_1631_2038)"/>
<path d="M640.145 -74.2645C636.896 -81.3482 628.52 -84.4567 621.436 -81.2076L570.131 -57.6756C563.048 -54.4266 559.939 -46.0501 563.188 -38.9664L586.72 12.3385C589.969 19.4222 598.346 22.5307 605.429 19.2816L656.734 -4.25037C663.818 -7.49949 666.927 -15.8759 663.677 -22.9596L640.145 -74.2645Z" fill="url(#paint60_linear_1631_2038)"/>
<path d="M523.221 -329.185C519.972 -336.269 511.595 -339.378 504.511 -336.129L453.207 -312.597C446.123 -309.347 443.014 -300.971 446.263 -293.887L469.795 -242.582C473.044 -235.499 481.421 -232.39 488.505 -235.639L539.809 -259.171C546.893 -262.42 550.002 -270.797 546.753 -277.881L523.221 -329.185Z" fill="url(#paint61_linear_1631_2038)"/>
<path d="M300.251 81.6352C297.002 74.5515 288.625 71.443 281.542 74.6921L230.237 98.2241C223.153 101.473 220.044 109.85 223.294 116.933L246.826 168.238C250.075 175.322 258.451 178.43 265.535 175.181L316.84 151.649C323.923 148.4 327.032 140.024 323.783 132.94L300.251 81.6352Z" fill="url(#paint62_linear_1631_2038)"/>
<path d="M183.326 -173.286C180.077 -180.369 171.701 -183.478 164.617 -180.229L113.312 -156.697C106.228 -153.448 103.12 -145.071 106.369 -137.988L129.901 -86.6828C133.15 -79.5991 141.526 -76.4905 148.61 -79.7395L199.915 -103.272C206.999 -106.521 210.107 -114.897 206.858 -121.981L183.326 -173.286Z" fill="url(#paint63_linear_1631_2038)"/>
<path d="M-39.6438 237.535C-42.8929 230.451 -51.2693 227.343 -58.353 230.592L-109.658 254.124C-116.741 257.373 -119.85 265.749 -116.601 272.833L-93.0689 324.138C-89.8199 331.222 -81.4435 334.33 -74.3597 331.081L-23.0549 307.549C-15.9712 304.3 -12.8626 295.924 -16.1117 288.84L-39.6438 237.535Z" fill="url(#paint64_linear_1631_2038)"/>
<path d="M-156.569 -17.3859C-159.818 -24.4696 -168.194 -27.5782 -175.278 -24.3291L-226.583 -0.797087C-233.666 2.45203 -236.775 10.8284 -233.526 17.9121L-209.994 69.217C-206.745 76.3007 -198.368 79.4093 -191.285 76.1602L-139.98 52.6281C-132.896 49.379 -129.787 41.0026 -133.036 33.9189L-156.569 -17.3859Z" fill="url(#paint65_linear_1631_2038)"/>
<path d="M919.994 311.629C916.745 304.545 908.368 301.437 901.285 304.686L849.98 328.218C842.896 331.467 839.787 339.843 843.036 346.927L866.569 398.232C869.818 405.316 878.194 408.424 885.278 405.175L936.583 381.643C943.666 378.394 946.775 370.017 943.526 362.934L919.994 311.629Z" fill="url(#paint66_linear_1631_2038)"/>
<path d="M580.099 467.529C576.85 460.445 568.474 457.336 561.39 460.585L510.085 484.117C503.001 487.367 499.893 495.743 503.142 502.827L526.674 554.132C529.923 561.215 538.299 564.324 545.383 561.075L596.688 537.543C603.772 534.294 606.88 525.917 603.631 518.833L580.099 467.529Z" fill="url(#paint67_linear_1631_2038)"/>
<path d="M240.205 623.428C236.955 616.345 228.579 613.236 221.495 616.485L170.191 640.017C163.107 643.266 159.998 651.643 163.247 658.726L186.779 710.031C190.028 717.115 198.405 720.223 205.489 716.974L256.793 693.442C263.877 690.193 266.986 681.817 263.737 674.733L240.205 623.428Z" fill="url(#paint68_linear_1631_2038)"/>
<path d="M842.044 141.682C838.795 134.598 830.418 131.489 823.335 134.738L772.03 158.27C764.946 161.519 761.837 169.896 765.087 176.98L788.619 228.284C791.868 235.368 800.244 238.477 807.328 235.228L858.633 211.696C865.716 208.446 868.825 200.07 865.576 192.986L842.044 141.682Z" fill="url(#paint69_linear_1631_2038)"/>
<path d="M502.149 297.581C498.9 290.498 490.524 287.389 483.44 290.638L432.135 314.17C425.052 317.419 421.943 325.796 425.192 332.879L448.724 384.184C451.973 391.268 460.35 394.376 467.433 391.127L518.738 367.595C525.822 364.346 528.93 355.97 525.681 348.886L502.149 297.581Z" fill="url(#paint70_linear_1631_2038)"/>
<path d="M162.255 453.481C159.006 446.397 150.629 443.289 143.545 446.538L92.2406 470.07C85.157 473.319 82.0483 481.695 85.2973 488.779L108.829 540.084C112.079 547.168 120.455 550.276 127.539 547.027L178.843 523.495C185.927 520.246 189.036 511.87 185.787 504.786L162.255 453.481Z" fill="url(#paint71_linear_1631_2038)"/>
<path d="M764.094 -28.2658C760.845 -35.3495 752.468 -38.458 745.385 -35.209L694.08 -11.6769C686.996 -8.42783 683.888 -0.051458 687.137 7.03228L710.669 58.3371C713.918 65.4209 722.294 68.5294 729.378 65.2804L780.683 41.7483C787.767 38.4992 790.875 30.1228 787.626 23.0391L764.094 -28.2658Z" fill="url(#paint72_linear_1631_2038)"/>
<path d="M647.169 -283.187C643.92 -290.27 635.544 -293.379 628.46 -290.13L577.155 -266.598C570.071 -263.349 566.963 -254.972 570.212 -247.889L593.744 -196.584C596.993 -189.5 605.369 -186.391 612.453 -189.641L663.758 -213.173C670.842 -216.422 673.95 -224.798 670.701 -231.882L647.169 -283.187Z" fill="url(#paint73_linear_1631_2038)"/>
<path d="M424.199 127.634C420.95 120.55 412.574 117.442 405.49 120.691L354.185 144.223C347.102 147.472 343.993 155.848 347.242 162.932L370.774 214.237C374.023 221.321 382.4 224.429 389.483 221.18L440.788 197.648C447.872 194.399 450.981 186.023 447.731 178.939L424.199 127.634Z" fill="url(#paint74_linear_1631_2038)"/>
<path d="M307.275 -127.287C304.026 -134.371 295.649 -137.479 288.565 -134.23L237.261 -110.698C230.177 -107.449 227.068 -99.0726 230.317 -91.9889L253.849 -40.684C257.098 -33.6003 265.475 -30.4917 272.559 -33.7408L323.863 -57.2729C330.947 -60.522 334.056 -68.8984 330.807 -75.9821L307.275 -127.287Z" fill="url(#paint75_linear_1631_2038)"/>
<path d="M84.3048 283.534C81.0558 276.45 72.6793 273.341 65.5956 276.591L14.2907 300.123C7.20705 303.372 4.09851 311.748 7.34757 318.832L30.8796 370.137C34.1286 377.22 42.5051 380.329 49.5888 377.08L100.894 353.548C107.977 350.299 111.086 341.922 107.837 334.839L84.3048 283.534Z" fill="url(#paint76_linear_1631_2038)"/>
<path d="M-32.6199 28.6128C-35.8691 21.5291 -44.2455 18.4205 -51.3292 21.6696L-102.634 45.2017C-109.718 48.4507 -112.826 56.8271 -109.577 63.9108L-86.0452 115.216C-82.7961 122.299 -74.4197 125.408 -67.336 122.159L-16.0311 98.6268C-8.94738 95.3777 -5.83888 87.0014 -9.08795 79.9176L-32.6199 28.6128Z" fill="url(#paint77_linear_1631_2038)"/>
<path d="M686.144 -198.213C682.895 -205.297 674.519 -208.405 667.435 -205.156L616.13 -181.624C609.046 -178.375 605.938 -169.999 609.187 -162.915L632.719 -111.61C635.968 -104.526 644.344 -101.418 651.428 -104.667L702.733 -128.199C709.817 -131.448 712.925 -139.824 709.676 -146.908L686.144 -198.213Z" fill="url(#paint78_linear_1631_2038)"/>
<path d="M569.219 -453.134C565.97 -460.218 557.594 -463.326 550.51 -460.077L499.205 -436.545C492.122 -433.296 489.013 -424.92 492.262 -417.836L515.794 -366.531C519.043 -359.447 527.42 -356.339 534.503 -359.588L585.808 -383.12C592.892 -386.369 596 -394.745 592.751 -401.829L569.219 -453.134Z" fill="url(#paint79_linear_1631_2038)"/>
<path d="M346.25 -42.3133C343 -49.397 334.624 -52.5056 327.54 -49.2565L276.235 -25.7244C269.152 -22.4754 266.043 -14.099 269.292 -7.01522L292.824 44.2896C296.073 51.3733 304.45 54.4819 311.534 51.2328L362.838 27.7008C369.922 24.4517 373.031 16.0753 369.782 8.99154L346.25 -42.3133Z" fill="url(#paint80_linear_1631_2038)"/>
<path d="M229.325 -297.234C226.076 -304.318 217.699 -307.427 210.616 -304.177L159.311 -280.645C152.227 -277.396 149.118 -269.02 152.367 -261.936L175.9 -210.631C179.149 -203.548 187.525 -200.439 194.609 -203.688L245.914 -227.22C252.997 -230.469 256.106 -238.846 252.857 -245.929L229.325 -297.234Z" fill="url(#paint81_linear_1631_2038)"/>
<path d="M6.35498 113.586C3.10586 106.503 -5.27056 103.394 -12.3543 106.643L-63.6591 130.175C-70.7428 133.424 -73.8514 141.801 -70.6023 148.884L-47.0703 200.189C-43.8212 207.273 -35.4447 210.382 -28.361 207.133L22.9438 183.6C30.0275 180.351 33.1361 171.975 29.887 164.891L6.35498 113.586Z" fill="url(#paint82_linear_1631_2038)"/>
<path d="M-110.57 -141.334C-113.819 -148.418 -122.195 -151.527 -129.279 -148.278L-180.584 -124.746C-187.668 -121.497 -190.776 -113.12 -187.527 -106.036L-163.995 -54.7316C-160.746 -47.6479 -152.37 -44.5393 -145.286 -47.7884L-93.981 -71.3205C-86.8973 -74.5695 -83.7887 -82.9459 -87.0378 -90.0296L-110.57 -141.334Z" fill="url(#paint83_linear_1631_2038)"/>
<path d="M750.046 389.579C746.797 382.495 738.421 379.386 731.337 382.636L680.032 406.168C672.949 409.417 669.84 417.793 673.089 424.877L696.621 476.182C699.87 483.265 708.247 486.374 715.331 483.125L766.635 459.593C773.719 456.344 776.828 447.967 773.578 440.884L750.046 389.579Z" fill="url(#paint84_linear_1631_2038)"/>
<path d="M410.152 545.478C406.903 538.395 398.526 535.286 391.443 538.535L340.138 562.067C333.054 565.316 329.945 573.693 333.195 580.776L356.727 632.081C359.976 639.165 368.352 642.274 375.436 639.025L426.741 615.493C433.824 612.243 436.933 603.867 433.684 596.783L410.152 545.478Z" fill="url(#paint85_linear_1631_2038)"/>
<path d="M70.2573 701.378C67.0081 694.294 58.6318 691.186 51.5481 694.435L0.243224 717.967C-6.84044 721.216 -9.94906 729.593 -6.69998 736.676L16.832 787.981C20.0811 795.065 28.4575 798.173 35.5412 794.924L86.8462 771.392C93.9299 768.143 97.0384 759.767 93.7894 752.683L70.2573 701.378Z" fill="url(#paint86_linear_1631_2038)"/>
<path d="M672.097 219.631C668.847 212.548 660.471 209.439 653.387 212.688L602.083 236.22C594.999 239.469 591.89 247.846 595.139 254.929L618.671 306.234C621.92 313.318 630.297 316.427 637.381 313.177L688.685 289.645C695.769 286.396 698.878 278.02 695.629 270.936L672.097 219.631Z" fill="url(#paint87_linear_1631_2038)"/>
<path d="M332.202 375.531C328.953 368.447 320.577 365.339 313.493 368.588L262.188 392.12C255.104 395.369 251.996 403.745 255.245 410.829L278.777 462.134C282.026 469.218 290.402 472.326 297.486 469.077L348.791 445.545C355.875 442.296 358.983 433.92 355.734 426.836L332.202 375.531Z" fill="url(#paint88_linear_1631_2038)"/>
<path d="M-7.69256 531.431C-10.9416 524.347 -19.3181 521.239 -26.4019 524.488L-77.7066 548.02C-84.7904 551.269 -87.899 559.645 -84.6499 566.729L-61.1178 618.034C-57.8688 625.117 -49.4923 628.226 -42.4085 624.977L8.89624 601.445C15.98 598.196 19.0886 589.819 15.8394 582.736L-7.69256 531.431Z" fill="url(#paint89_linear_1631_2038)"/>
<path d="M594.147 49.6841C590.898 42.6004 582.521 39.4918 575.437 42.7409L524.133 66.2729C517.049 69.522 513.94 77.8985 517.189 84.9821L540.721 136.287C543.971 143.371 552.347 146.479 559.431 143.23L610.736 119.698C617.819 116.449 620.928 108.073 617.679 100.989L594.147 49.6841Z" fill="url(#paint90_linear_1631_2038)"/>
<path d="M477.222 -205.237C473.973 -212.321 465.596 -215.429 458.513 -212.18L407.208 -188.648C400.124 -185.399 397.016 -177.022 400.265 -169.939L423.797 -118.634C427.046 -111.55 435.422 -108.442 442.506 -111.691L493.811 -135.223C500.894 -138.472 504.003 -146.848 500.754 -153.932L477.222 -205.237Z" fill="url(#paint91_linear_1631_2038)"/>
<path d="M254.252 205.584C251.003 198.5 242.627 195.392 235.543 198.641L184.238 222.173C177.154 225.422 174.046 233.798 177.295 240.882L200.827 292.187C204.076 299.27 212.452 302.379 219.536 299.13L270.841 275.598C277.925 272.349 281.033 263.972 277.784 256.889L254.252 205.584Z" fill="url(#paint92_linear_1631_2038)"/>
<path d="M137.327 -49.337C134.078 -56.4207 125.702 -59.5294 118.618 -56.2803L67.3133 -32.7482C60.2295 -29.4991 57.1209 -21.1227 60.37 -14.039L83.9021 37.2658C87.1512 44.3495 95.5276 47.4581 102.611 44.2091L153.916 20.677C161 17.4279 164.108 9.05148 160.859 1.96778L137.327 -49.337Z" fill="url(#paint93_linear_1631_2038)"/>
<path d="M-85.6424 361.484C-88.8915 354.4 -97.2679 351.291 -104.352 354.54L-155.656 378.072C-162.74 381.322 -165.849 389.698 -162.6 396.782L-139.068 448.086C-135.819 455.17 -127.442 458.279 -120.358 455.03L-69.0536 431.498C-61.9698 428.248 -58.8614 419.872 -62.1105 412.788L-85.6424 361.484Z" fill="url(#paint94_linear_1631_2038)"/>
<path d="M-202.567 106.563C-205.816 99.4789 -214.193 96.3703 -221.276 99.6194L-272.581 123.152C-279.665 126.401 -282.774 134.777 -279.524 141.861L-255.992 193.166C-252.743 200.249 -244.367 203.358 -237.283 200.109L-185.978 176.577C-178.895 173.328 -175.786 164.951 -179.035 157.868L-202.567 106.563Z" fill="url(#paint95_linear_1631_2038)"/>
<path d="M516.197 -120.263C512.948 -127.347 504.571 -130.455 497.488 -127.206L446.183 -103.674C439.099 -100.425 435.99 -92.0488 439.24 -84.9651L462.772 -33.6603C466.021 -26.5765 474.397 -23.468 481.481 -26.7171L532.786 -50.2491C539.869 -53.4982 542.978 -61.8746 539.729 -68.9583L516.197 -120.263Z" fill="url(#paint96_linear_1631_2038)"/>
<path d="M399.272 -375.184C396.023 -382.268 387.647 -385.376 380.563 -382.127L329.258 -358.595C322.174 -355.346 319.066 -346.97 322.315 -339.886L345.847 -288.581C349.096 -281.497 357.472 -278.389 364.556 -281.638L415.861 -305.17C422.945 -308.419 426.053 -316.796 422.804 -323.879L399.272 -375.184Z" fill="url(#paint97_linear_1631_2038)"/>
<path d="M176.302 35.6366C173.053 28.5529 164.677 25.4442 157.593 28.6934L106.288 52.2254C99.2044 55.4745 96.0958 63.8509 99.345 70.9346L122.877 122.239C126.126 129.323 134.503 132.432 141.586 129.183L192.891 105.651C199.975 102.402 203.083 94.0251 199.834 86.9414L176.302 35.6366Z" fill="url(#paint98_linear_1631_2038)"/>
<path d="M59.3774 -219.284C56.1283 -226.368 47.7519 -229.477 40.6682 -226.228L-10.6366 -202.696C-17.7203 -199.446 -20.8289 -191.07 -17.5799 -183.986L5.95224 -132.681C9.2013 -125.598 17.5777 -122.489 24.6614 -125.738L75.9663 -149.27C83.05 -152.519 86.1586 -160.896 82.9095 -167.98L59.3774 -219.284Z" fill="url(#paint99_linear_1631_2038)"/>
<path d="M-163.592 191.536C-166.841 184.453 -175.218 181.344 -182.302 184.593L-233.606 208.125C-240.69 211.374 -243.799 219.751 -240.55 226.834L-217.018 278.139C-213.768 285.223 -205.392 288.331 -198.308 285.082L-147.004 261.55C-139.92 258.301 -136.811 249.925 -140.06 242.841L-163.592 191.536Z" fill="url(#paint100_linear_1631_2038)"/>
<path d="M-280.517 -63.3846C-283.766 -70.4683 -292.143 -73.5769 -299.226 -70.3279L-350.531 -46.7958C-357.615 -43.5467 -360.723 -35.1703 -357.474 -28.0865L-333.942 23.2182C-330.693 30.302 -322.317 33.4106 -315.233 30.1614L-263.928 6.62944C-256.845 3.38033 -253.736 -4.99609 -256.985 -12.0798L-280.517 -63.3846Z" fill="url(#paint101_linear_1631_2038)"/>
<path d="M958.969 396.602C955.72 389.519 947.343 386.41 940.259 389.659L888.955 413.191C881.871 416.44 878.762 424.817 882.011 431.9L905.543 483.205C908.792 490.289 917.169 493.398 924.253 490.149L975.557 466.617C982.641 463.367 985.75 454.991 982.501 447.907L958.969 396.602Z" fill="url(#paint102_linear_1631_2038)"/>
<path d="M619.074 552.502C615.825 545.418 607.449 542.31 600.365 545.559L549.06 569.091C541.976 572.34 538.868 580.717 542.117 587.8L565.649 639.105C568.898 646.189 577.274 649.297 584.358 646.048L635.663 622.516C642.747 619.267 645.855 610.891 642.606 603.807L619.074 552.502Z" fill="url(#paint103_linear_1631_2038)"/>
<path d="M279.179 708.402C275.93 701.318 267.554 698.21 260.47 701.459L209.165 724.991C202.082 728.24 198.973 736.616 202.222 743.7L225.754 795.005C229.003 802.089 237.38 805.197 244.463 801.948L295.768 778.416C302.852 775.167 305.961 766.79 302.711 759.707L279.179 708.402Z" fill="url(#paint104_linear_1631_2038)"/>
<path d="M881.019 226.655C877.77 219.571 869.393 216.463 862.31 219.712L811.005 243.244C803.921 246.493 800.812 254.87 804.061 261.953L827.594 313.258C830.843 320.342 839.219 323.45 846.303 320.201L897.608 296.669C904.691 293.42 907.8 285.044 904.551 277.96L881.019 226.655Z" fill="url(#paint105_linear_1631_2038)"/>
<path d="M541.124 382.555C537.875 375.471 529.499 372.363 522.415 375.612L471.11 399.144C464.026 402.393 460.918 410.769 464.167 417.853L487.699 469.158C490.948 476.242 499.324 479.35 506.408 476.101L557.713 452.569C564.797 449.32 567.905 440.943 564.656 433.86L541.124 382.555Z" fill="url(#paint106_linear_1631_2038)"/>
<path d="M201.23 538.455C197.981 531.371 189.604 528.262 182.52 531.511L131.215 555.043C124.132 558.293 121.023 566.669 124.272 573.753L147.804 625.058C151.054 632.141 159.43 635.25 166.514 632.001L217.818 608.469C224.902 605.22 228.011 596.843 224.762 589.759L201.23 538.455Z" fill="url(#paint107_linear_1631_2038)"/>
<path d="M803.069 56.7079C799.82 49.6242 791.443 46.5156 784.36 49.7647L733.055 73.2967C725.971 76.5458 722.863 84.9222 726.112 92.006L749.644 143.311C752.893 150.395 761.269 153.503 768.353 150.254L819.658 126.722C826.741 123.473 829.85 115.096 826.601 108.013L803.069 56.7079Z" fill="url(#paint108_linear_1631_2038)"/>
<path d="M463.174 212.608C459.925 205.524 451.549 202.415 444.465 205.665L393.16 229.196C386.077 232.446 382.968 240.822 386.217 247.906L409.749 299.211C412.998 306.294 421.375 309.403 428.458 306.154L479.763 282.622C486.847 279.373 489.955 270.996 486.706 263.912L463.174 212.608Z" fill="url(#paint109_linear_1631_2038)"/>
<path d="M123.28 368.507C120.031 361.424 111.654 358.315 104.571 361.564L53.2657 385.096C46.182 388.345 43.0734 396.722 46.3224 403.805L69.8545 455.11C73.1037 462.194 81.4801 465.303 88.5638 462.053L139.869 438.521C146.952 435.272 150.061 426.896 146.812 419.812L123.28 368.507Z" fill="url(#paint110_linear_1631_2038)"/>
<path d="M725.119 -113.239C721.87 -120.323 713.494 -123.432 706.41 -120.183L655.105 -96.6506C648.021 -93.4015 644.913 -85.0251 648.162 -77.9413L671.694 -26.6365C674.943 -19.5528 683.319 -16.4442 690.403 -19.6933L741.708 -43.2253C748.792 -46.4744 751.9 -54.8508 748.651 -61.9346L725.119 -113.239Z" fill="url(#paint111_linear_1631_2038)"/>
<path d="M608.194 -368.16C604.945 -375.244 596.569 -378.353 589.485 -375.104L538.18 -351.572C531.096 -348.322 527.988 -339.946 531.237 -332.862L554.769 -281.557C558.018 -274.474 566.395 -271.365 573.478 -274.614L624.783 -298.146C631.867 -301.395 634.975 -309.772 631.726 -316.855L608.194 -368.16Z" fill="url(#paint112_linear_1631_2038)"/>
<path d="M385.224 42.6603C381.975 35.5766 373.599 32.468 366.515 35.7171L315.21 59.2491C308.127 62.4983 305.018 70.8747 308.267 77.9584L331.799 129.263C335.048 136.347 343.425 139.456 350.508 136.206L401.813 112.674C408.897 109.425 412.006 101.049 408.756 93.9652L385.224 42.6603Z" fill="url(#paint113_linear_1631_2038)"/>
<path d="M268.3 -212.261C265.051 -219.344 256.674 -222.453 249.59 -219.204L198.286 -195.672C191.202 -192.423 188.093 -184.046 191.342 -176.963L214.874 -125.658C218.124 -118.574 226.5 -115.465 233.584 -118.714L284.889 -142.247C291.972 -145.496 295.081 -153.872 291.832 -160.956L268.3 -212.261Z" fill="url(#paint114_linear_1631_2038)"/>
<path d="M45.3299 198.56C42.0808 191.476 33.7044 188.368 26.6207 191.617L-24.6842 215.149C-31.7679 218.398 -34.8765 226.774 -31.6274 233.858L-8.09535 285.163C-4.84624 292.247 3.5302 295.355 10.6139 292.106L61.9188 268.574C69.0025 265.325 72.111 256.949 68.8619 249.865L45.3299 198.56Z" fill="url(#paint115_linear_1631_2038)"/>
<path d="M-71.5949 -56.3609C-74.844 -63.4446 -83.2204 -66.5532 -90.3042 -63.304L-141.609 -39.772C-148.693 -36.5229 -151.801 -28.1465 -148.552 -21.0628L-125.02 30.242C-121.771 37.3258 -113.395 40.4343 -106.311 37.1852L-55.006 13.6532C-47.9223 10.4041 -44.8138 2.02775 -48.0629 -5.056L-71.5949 -56.3609Z" fill="url(#paint116_linear_1631_2038)"/>
<path d="M789.021 474.552C785.772 467.469 777.396 464.36 770.312 467.609L719.007 491.141C711.924 494.39 708.815 502.767 712.064 509.85L735.596 561.155C738.845 568.239 747.222 571.348 754.305 568.098L805.61 544.566C812.694 541.317 815.803 532.941 812.553 525.857L789.021 474.552Z" fill="url(#paint117_linear_1631_2038)"/>
<path d="M449.127 630.452C445.878 623.368 437.501 620.26 430.418 623.509L379.113 647.041C372.029 650.29 368.92 658.666 372.17 665.75L395.701 717.055C398.951 724.139 407.327 727.247 414.411 723.998L465.716 700.466C472.799 697.217 475.908 688.841 472.659 681.757L449.127 630.452Z" fill="url(#paint118_linear_1631_2038)"/>
<path d="M109.232 786.352C105.983 779.268 97.6067 776.159 90.523 779.409L39.2181 802.941C32.1344 806.19 29.0258 814.566 32.275 821.65L55.807 872.955C59.0561 880.038 67.4325 883.147 74.5162 879.898L125.821 856.366C132.905 853.117 136.013 844.74 132.764 837.657L109.232 786.352Z" fill="url(#paint119_linear_1631_2038)"/>
<path d="M711.071 304.605C707.822 297.521 699.446 294.413 692.362 297.662L641.057 321.194C633.974 324.443 630.865 332.819 634.114 339.903L657.646 391.208C660.895 398.292 669.272 401.4 676.355 398.151L727.66 374.619C734.744 371.37 737.853 362.994 734.604 355.91L711.071 304.605Z" fill="url(#paint120_linear_1631_2038)"/>
<path d="M371.177 460.505C367.928 453.421 359.551 450.313 352.468 453.562L301.163 477.094C294.079 480.343 290.971 488.719 294.22 495.803L317.752 547.108C321.001 554.191 329.377 557.3 336.461 554.051L387.766 530.519C394.849 527.27 397.958 518.893 394.709 511.81L371.177 460.505Z" fill="url(#paint121_linear_1631_2038)"/>
<path d="M31.2824 616.405C28.0333 609.321 19.6569 606.212 12.5732 609.461L-38.7317 632.993C-45.8155 636.242 -48.924 644.619 -45.6749 651.703L-22.1428 703.007C-18.8937 710.091 -10.5174 713.2 -3.43362 709.951L47.8712 686.419C54.9548 683.17 58.0635 674.793 54.8144 667.709L31.2824 616.405Z" fill="url(#paint122_linear_1631_2038)"/>
<path d="M633.122 134.658C629.873 127.574 621.496 124.466 614.412 127.715L563.108 151.247C556.024 154.496 552.915 162.872 556.164 169.956L579.696 221.261C582.946 228.344 591.322 231.453 598.406 228.204L649.71 204.672C656.794 201.423 659.903 193.046 656.654 185.963L633.122 134.658Z" fill="url(#paint123_linear_1631_2038)"/>
<path d="M293.227 290.558C289.978 283.474 281.602 280.365 274.518 283.614L223.213 307.146C216.129 310.395 213.021 318.772 216.27 325.856L239.802 377.16C243.051 384.244 251.427 387.353 258.511 384.104L309.816 360.572C316.9 357.322 320.008 348.946 316.759 341.862L293.227 290.558Z" fill="url(#paint124_linear_1631_2038)"/>
<path d="M-46.6675 446.457C-49.9166 439.374 -58.293 436.265 -65.3767 439.514L-116.682 463.046C-123.765 466.295 -126.874 474.672 -123.625 481.755L-100.093 533.06C-96.8436 540.144 -88.4672 543.252 -81.3835 540.003L-30.0788 516.471C-22.995 513.222 -19.8863 504.846 -23.1354 497.762L-46.6675 446.457Z" fill="url(#paint125_linear_1631_2038)"/>
<path d="M555.172 -35.2895C551.923 -42.3733 543.546 -45.4818 536.463 -42.2327L485.158 -18.7007C478.074 -15.4516 474.965 -7.07517 478.214 0.00852409L501.747 51.3134C504.996 58.3971 513.372 61.5056 520.456 58.2565L571.761 34.7245C578.844 31.4754 581.953 23.099 578.704 16.0153L555.172 -35.2895Z" fill="url(#paint126_linear_1631_2038)"/>
<path d="M438.247 -290.21C434.998 -297.294 426.621 -300.403 419.538 -297.154L368.233 -273.622C361.149 -270.373 358.041 -261.996 361.29 -254.912L384.822 -203.608C388.071 -196.524 396.447 -193.415 403.531 -196.664L454.836 -220.196C461.92 -223.446 465.028 -231.822 461.779 -238.906L438.247 -290.21Z" fill="url(#paint127_linear_1631_2038)"/>
<path d="M215.277 120.61C212.028 113.526 203.652 110.418 196.568 113.667L145.263 137.199C138.179 140.448 135.071 148.825 138.32 155.908L161.852 207.213C165.101 214.297 173.477 217.405 180.561 214.156L231.866 190.624C238.95 187.375 242.058 178.999 238.809 171.915L215.277 120.61Z" fill="url(#paint128_linear_1631_2038)"/>
<path d="M98.3524 -134.311C95.1033 -141.394 86.7269 -144.503 79.6432 -141.254L28.3383 -117.722C21.2546 -114.473 18.146 -106.096 21.3951 -99.0127L44.9271 -47.7078C48.1762 -40.6241 56.5526 -37.5155 63.6363 -40.7646L114.941 -64.2966C122.025 -67.5457 125.134 -75.9222 121.884 -83.0059L98.3524 -134.311Z" fill="url(#paint129_linear_1631_2038)"/>
<path d="M-124.617 276.51C-127.866 269.426 -136.243 266.318 -143.327 269.567L-194.632 293.099C-201.715 296.348 -204.824 304.724 -201.575 311.808L-178.043 363.113C-174.794 370.197 -166.417 373.305 -159.333 370.056L-108.029 346.524C-100.945 343.275 -97.8362 334.898 -101.085 327.815L-124.617 276.51Z" fill="url(#paint130_linear_1631_2038)"/>
<path d="M-241.542 21.589C-244.791 14.5053 -253.168 11.3967 -260.251 14.6458L-311.556 38.1779C-318.64 41.4269 -321.748 49.8033 -318.499 56.887L-294.967 108.192C-291.718 115.276 -283.342 118.384 -276.258 115.135L-224.953 91.6031C-217.87 88.354 -214.761 79.9776 -218.01 72.8939L-241.542 21.589Z" fill="url(#paint131_linear_1631_2038)"/>
</g>
<g opacity="0.7">
<rect width="580" height="398" transform="translate(65 32)" fill="url(#paint132_linear_1631_2038)" fill-opacity="0.36"/>
</g>
<g filter="url(#filter1_f_1631_2038)">
<path d="M-17 290.5L147 379L342 169L523 411L699 247.5L708 711H-17V290.5Z" fill="white"/>
</g>
</g>
</g>
<defs>
<filter id="filter0_d_1631_2038" x="0" y="0" width="691" height="710" filterUnits="userSpaceOnUse" color-interpolation-filters="sRGB">
<feFlood flood-opacity="0" result="BackgroundImageFix"/>
<feColorMatrix in="SourceAlpha" type="matrix" values="0 0 0 0 0 0 0 0 0 0 0 0 0 0 0 0 0 0 127 0" result="hardAlpha"/>
<feOffset dy="33"/>
<feGaussianBlur stdDeviation="32.5"/>
<feComposite in2="hardAlpha" operator="out"/>
<feColorMatrix type="matrix" values="0 0 0 0 0.473708 0 0 0 0 0.512538 0 0 0 0 0.635502 0 0 0 0.06 0"/>
<feBlend mode="normal" in2="BackgroundImageFix" result="effect1_dropShadow_1631_2038"/>
<feBlend mode="normal" in="SourceGraphic" in2="effect1_dropShadow_1631_2038" result="shape"/>
</filter>
<filter id="filter1_f_1631_2038" x="-155" y="31" width="1001" height="818" filterUnits="userSpaceOnUse" color-interpolation-filters="sRGB">
<feFlood flood-opacity="0" result="BackgroundImageFix"/>
<feBlend mode="normal" in="SourceGraphic" in2="BackgroundImageFix" result="shape"/>
<feGaussianBlur stdDeviation="69" result="effect1_foregroundBlur_1631_2038"/>
</filter>
<linearGradient id="paint0_linear_1631_2038" x1="-2.50013" y1="400.5" x2="467.5" y2="-70.4999" gradientUnits="userSpaceOnUse">
<stop stop-color="white" stop-opacity="0"/>
<stop offset="0.509215" stop-color="white"/>
<stop offset="1" stop-color="white" stop-opacity="0"/>
</linearGradient>
<linearGradient id="paint1_linear_1631_2038" x1="-2.50013" y1="400.5" x2="467.5" y2="-70.4999" gradientUnits="userSpaceOnUse">
<stop stop-color="white" stop-opacity="0"/>
<stop offset="0.509215" stop-color="white"/>
<stop offset="1" stop-color="white" stop-opacity="0"/>
</linearGradient>
<linearGradient id="paint2_linear_1631_2038" x1="-2.50013" y1="400.5" x2="467.5" y2="-70.4999" gradientUnits="userSpaceOnUse">
<stop stop-color="white" stop-opacity="0"/>
<stop offset="0.509215" stop-color="white"/>
<stop offset="1" stop-color="white" stop-opacity="0"/>
</linearGradient>
<linearGradient id="paint3_linear_1631_2038" x1="-2.50013" y1="400.5" x2="467.5" y2="-70.4999" gradientUnits="userSpaceOnUse">
<stop stop-color="white" stop-opacity="0"/>
<stop offset="0.509215" stop-color="white"/>
<stop offset="1" stop-color="white" stop-opacity="0"/>
</linearGradient>
<linearGradient id="paint4_linear_1631_2038" x1="-2.50013" y1="400.5" x2="467.5" y2="-70.4999" gradientUnits="userSpaceOnUse">
<stop stop-color="white" stop-opacity="0"/>
<stop offset="0.509215" stop-color="white"/>
<stop offset="1" stop-color="white" stop-opacity="0"/>
</linearGradient>
<linearGradient id="paint5_linear_1631_2038" x1="-2.50013" y1="400.5" x2="467.5" y2="-70.4999" gradientUnits="userSpaceOnUse">
<stop stop-color="white" stop-opacity="0"/>
<stop offset="0.509215" stop-color="white"/>
<stop offset="1" stop-color="white" stop-opacity="0"/>
</linearGradient>
<linearGradient id="paint6_linear_1631_2038" x1="-2.50013" y1="400.5" x2="467.5" y2="-70.4999" gradientUnits="userSpaceOnUse">
<stop stop-color="white" stop-opacity="0"/>
<stop offset="0.509215" stop-color="white"/>
<stop offset="1" stop-color="white" stop-opacity="0"/>
</linearGradient>
<linearGradient id="paint7_linear_1631_2038" x1="-2.50013" y1="400.5" x2="467.5" y2="-70.4999" gradientUnits="userSpaceOnUse">
<stop stop-color="white" stop-opacity="0"/>
<stop offset="0.509215" stop-color="white"/>
<stop offset="1" stop-color="white" stop-opacity="0"/>
</linearGradient>
<linearGradient id="paint8_linear_1631_2038" x1="-2.50013" y1="400.5" x2="467.5" y2="-70.4999" gradientUnits="userSpaceOnUse">
<stop stop-color="white" stop-opacity="0"/>
<stop offset="0.509215" stop-color="white"/>
<stop offset="1" stop-color="white" stop-opacity="0"/>
</linearGradient>
<linearGradient id="paint9_linear_1631_2038" x1="-2.50013" y1="400.5" x2="467.5" y2="-70.4999" gradientUnits="userSpaceOnUse">
<stop stop-color="white" stop-opacity="0"/>
<stop offset="0.509215" stop-color="white"/>
<stop offset="1" stop-color="white" stop-opacity="0"/>
</linearGradient>
<linearGradient id="paint10_linear_1631_2038" x1="-2.50013" y1="400.5" x2="467.5" y2="-70.4999" gradientUnits="userSpaceOnUse">
<stop stop-color="white" stop-opacity="0"/>
<stop offset="0.509215" stop-color="white"/>
<stop offset="1" stop-color="white" stop-opacity="0"/>
</linearGradient>
<linearGradient id="paint11_linear_1631_2038" x1="-2.50013" y1="400.5" x2="467.5" y2="-70.4999" gradientUnits="userSpaceOnUse">
<stop stop-color="white" stop-opacity="0"/>
<stop offset="0.509215" stop-color="white"/>
<stop offset="1" stop-color="white" stop-opacity="0"/>
</linearGradient>
<linearGradient id="paint12_linear_1631_2038" x1="-2.50013" y1="400.5" x2="467.5" y2="-70.4999" gradientUnits="userSpaceOnUse">
<stop stop-color="white" stop-opacity="0"/>
<stop offset="0.509215" stop-color="white"/>
<stop offset="1" stop-color="white" stop-opacity="0"/>
</linearGradient>
<linearGradient id="paint13_linear_1631_2038" x1="-2.50013" y1="400.5" x2="467.5" y2="-70.4999" gradientUnits="userSpaceOnUse">
<stop stop-color="white" stop-opacity="0"/>
<stop offset="0.509215" stop-color="white"/>
<stop offset="1" stop-color="white" stop-opacity="0"/>
</linearGradient>
<linearGradient id="paint14_linear_1631_2038" x1="-2.50013" y1="400.5" x2="467.5" y2="-70.4999" gradientUnits="userSpaceOnUse">
<stop stop-color="white" stop-opacity="0"/>
<stop offset="0.509215" stop-color="white"/>
<stop offset="1" stop-color="white" stop-opacity="0"/>
</linearGradient>
<linearGradient id="paint15_linear_1631_2038" x1="-2.50013" y1="400.5" x2="467.5" y2="-70.4999" gradientUnits="userSpaceOnUse">
<stop stop-color="white" stop-opacity="0"/>
<stop offset="0.509215" stop-color="white"/>
<stop offset="1" stop-color="white" stop-opacity="0"/>
</linearGradient>
<linearGradient id="paint16_linear_1631_2038" x1="-2.50013" y1="400.5" x2="467.5" y2="-70.4999" gradientUnits="userSpaceOnUse">
<stop stop-color="white" stop-opacity="0"/>
<stop offset="0.509215" stop-color="white"/>
<stop offset="1" stop-color="white" stop-opacity="0"/>
</linearGradient>
<linearGradient id="paint17_linear_1631_2038" x1="-2.50013" y1="400.5" x2="467.5" y2="-70.4999" gradientUnits="userSpaceOnUse">
<stop stop-color="white" stop-opacity="0"/>
<stop offset="0.509215" stop-color="white"/>
<stop offset="1" stop-color="white" stop-opacity="0"/>
</linearGradient>
<linearGradient id="paint18_linear_1631_2038" x1="-2.50013" y1="400.5" x2="467.5" y2="-70.4999" gradientUnits="userSpaceOnUse">
<stop stop-color="white" stop-opacity="0"/>
<stop offset="0.509215" stop-color="white"/>
<stop offset="1" stop-color="white" stop-opacity="0"/>
</linearGradient>
<linearGradient id="paint19_linear_1631_2038" x1="-2.50013" y1="400.5" x2="467.5" y2="-70.4999" gradientUnits="userSpaceOnUse">
<stop stop-color="white" stop-opacity="0"/>
<stop offset="0.509215" stop-color="white"/>
<stop offset="1" stop-color="white" stop-opacity="0"/>
</linearGradient>
<linearGradient id="paint20_linear_1631_2038" x1="-2.50013" y1="400.5" x2="467.5" y2="-70.4999" gradientUnits="userSpaceOnUse">
<stop stop-color="white" stop-opacity="0"/>
<stop offset="0.509215" stop-color="white"/>
<stop offset="1" stop-color="white" stop-opacity="0"/>
</linearGradient>
<linearGradient id="paint21_linear_1631_2038" x1="-2.50013" y1="400.5" x2="467.5" y2="-70.4999" gradientUnits="userSpaceOnUse">
<stop stop-color="white" stop-opacity="0"/>
<stop offset="0.509215" stop-color="white"/>
<stop offset="1" stop-color="white" stop-opacity="0"/>
</linearGradient>
<linearGradient id="paint22_linear_1631_2038" x1="-2.50013" y1="400.5" x2="467.5" y2="-70.4999" gradientUnits="userSpaceOnUse">
<stop stop-color="white" stop-opacity="0"/>
<stop offset="0.509215" stop-color="white"/>
<stop offset="1" stop-color="white" stop-opacity="0"/>
</linearGradient>
<linearGradient id="paint23_linear_1631_2038" x1="-2.50013" y1="400.5" x2="467.5" y2="-70.4999" gradientUnits="userSpaceOnUse">
<stop stop-color="white" stop-opacity="0"/>
<stop offset="0.509215" stop-color="white"/>
<stop offset="1" stop-color="white" stop-opacity="0"/>
</linearGradient>
<linearGradient id="paint24_linear_1631_2038" x1="-2.50013" y1="400.5" x2="467.5" y2="-70.4999" gradientUnits="userSpaceOnUse">
<stop stop-color="white" stop-opacity="0"/>
<stop offset="0.509215" stop-color="white"/>
<stop offset="1" stop-color="white" stop-opacity="0"/>
</linearGradient>
<linearGradient id="paint25_linear_1631_2038" x1="-2.50013" y1="400.5" x2="467.5" y2="-70.4999" gradientUnits="userSpaceOnUse">
<stop stop-color="white" stop-opacity="0"/>
<stop offset="0.509215" stop-color="white"/>
<stop offset="1" stop-color="white" stop-opacity="0"/>
</linearGradient>
<linearGradient id="paint26_linear_1631_2038" x1="-2.50013" y1="400.5" x2="467.5" y2="-70.4999" gradientUnits="userSpaceOnUse">
<stop stop-color="white" stop-opacity="0"/>
<stop offset="0.509215" stop-color="white"/>
<stop offset="1" stop-color="white" stop-opacity="0"/>
</linearGradient>
<linearGradient id="paint27_linear_1631_2038" x1="-2.50013" y1="400.5" x2="467.5" y2="-70.4999" gradientUnits="userSpaceOnUse">
<stop stop-color="white" stop-opacity="0"/>
<stop offset="0.509215" stop-color="white"/>
<stop offset="1" stop-color="white" stop-opacity="0"/>
</linearGradient>
<linearGradient id="paint28_linear_1631_2038" x1="-2.50013" y1="400.5" x2="467.5" y2="-70.4999" gradientUnits="userSpaceOnUse">
<stop stop-color="white" stop-opacity="0"/>
<stop offset="0.509215" stop-color="white"/>
<stop offset="1" stop-color="white" stop-opacity="0"/>
</linearGradient>
<linearGradient id="paint29_linear_1631_2038" x1="-2.50013" y1="400.5" x2="467.5" y2="-70.4999" gradientUnits="userSpaceOnUse">
<stop stop-color="white" stop-opacity="0"/>
<stop offset="0.509215" stop-color="white"/>
<stop offset="1" stop-color="white" stop-opacity="0"/>
</linearGradient>
<linearGradient id="paint30_linear_1631_2038" x1="-2.50013" y1="400.5" x2="467.5" y2="-70.4999" gradientUnits="userSpaceOnUse">
<stop stop-color="white" stop-opacity="0"/>
<stop offset="0.509215" stop-color="white"/>
<stop offset="1" stop-color="white" stop-opacity="0"/>
</linearGradient>
<linearGradient id="paint31_linear_1631_2038" x1="-2.50013" y1="400.5" x2="467.5" y2="-70.4999" gradientUnits="userSpaceOnUse">
<stop stop-color="white" stop-opacity="0"/>
<stop offset="0.509215" stop-color="white"/>
<stop offset="1" stop-color="white" stop-opacity="0"/>
</linearGradient>
<linearGradient id="paint32_linear_1631_2038" x1="-2.50013" y1="400.5" x2="467.5" y2="-70.4999" gradientUnits="userSpaceOnUse">
<stop stop-color="white" stop-opacity="0"/>
<stop offset="0.509215" stop-color="white"/>
<stop offset="1" stop-color="white" stop-opacity="0"/>
</linearGradient>
<linearGradient id="paint33_linear_1631_2038" x1="-2.50013" y1="400.5" x2="467.5" y2="-70.4999" gradientUnits="userSpaceOnUse">
<stop stop-color="white" stop-opacity="0"/>
<stop offset="0.509215" stop-color="white"/>
<stop offset="1" stop-color="white" stop-opacity="0"/>
</linearGradient>
<linearGradient id="paint34_linear_1631_2038" x1="-2.50013" y1="400.5" x2="467.5" y2="-70.4999" gradientUnits="userSpaceOnUse">
<stop stop-color="white" stop-opacity="0"/>
<stop offset="0.509215" stop-color="white"/>
<stop offset="1" stop-color="white" stop-opacity="0"/>
</linearGradient>
<linearGradient id="paint35_linear_1631_2038" x1="-2.50013" y1="400.5" x2="467.5" y2="-70.4999" gradientUnits="userSpaceOnUse">
<stop stop-color="white" stop-opacity="0"/>
<stop offset="0.509215" stop-color="white"/>
<stop offset="1" stop-color="white" stop-opacity="0"/>
</linearGradient>
<linearGradient id="paint36_linear_1631_2038" x1="-2.50013" y1="400.5" x2="467.5" y2="-70.4999" gradientUnits="userSpaceOnUse">
<stop stop-color="white" stop-opacity="0"/>
<stop offset="0.509215" stop-color="white"/>
<stop offset="1" stop-color="white" stop-opacity="0"/>
</linearGradient>
<linearGradient id="paint37_linear_1631_2038" x1="-2.50013" y1="400.5" x2="467.5" y2="-70.4999" gradientUnits="userSpaceOnUse">
<stop stop-color="white" stop-opacity="0"/>
<stop offset="0.509215" stop-color="white"/>
<stop offset="1" stop-color="white" stop-opacity="0"/>
</linearGradient>
<linearGradient id="paint38_linear_1631_2038" x1="-2.50013" y1="400.5" x2="467.5" y2="-70.4999" gradientUnits="userSpaceOnUse">
<stop stop-color="white" stop-opacity="0"/>
<stop offset="0.509215" stop-color="white"/>
<stop offset="1" stop-color="white" stop-opacity="0"/>
</linearGradient>
<linearGradient id="paint39_linear_1631_2038" x1="-2.50013" y1="400.5" x2="467.5" y2="-70.4999" gradientUnits="userSpaceOnUse">
<stop stop-color="white" stop-opacity="0"/>
<stop offset="0.509215" stop-color="white"/>
<stop offset="1" stop-color="white" stop-opacity="0"/>
</linearGradient>
<linearGradient id="paint40_linear_1631_2038" x1="-2.50013" y1="400.5" x2="467.5" y2="-70.4999" gradientUnits="userSpaceOnUse">
<stop stop-color="white" stop-opacity="0"/>
<stop offset="0.509215" stop-color="white"/>
<stop offset="1" stop-color="white" stop-opacity="0"/>
</linearGradient>
<linearGradient id="paint41_linear_1631_2038" x1="-2.50013" y1="400.5" x2="467.5" y2="-70.4999" gradientUnits="userSpaceOnUse">
<stop stop-color="white" stop-opacity="0"/>
<stop offset="0.509215" stop-color="white"/>
<stop offset="1" stop-color="white" stop-opacity="0"/>
</linearGradient>
<linearGradient id="paint42_linear_1631_2038" x1="-2.50013" y1="400.5" x2="467.5" y2="-70.4999" gradientUnits="userSpaceOnUse">
<stop stop-color="white" stop-opacity="0"/>
<stop offset="0.509215" stop-color="white"/>
<stop offset="1" stop-color="white" stop-opacity="0"/>
</linearGradient>
<linearGradient id="paint43_linear_1631_2038" x1="-2.50013" y1="400.5" x2="467.5" y2="-70.4999" gradientUnits="userSpaceOnUse">
<stop stop-color="white" stop-opacity="0"/>
<stop offset="0.509215" stop-color="white"/>
<stop offset="1" stop-color="white" stop-opacity="0"/>
</linearGradient>
<linearGradient id="paint44_linear_1631_2038" x1="-2.50013" y1="400.5" x2="467.5" y2="-70.4999" gradientUnits="userSpaceOnUse">
<stop stop-color="white" stop-opacity="0"/>
<stop offset="0.509215" stop-color="white"/>
<stop offset="1" stop-color="white" stop-opacity="0"/>
</linearGradient>
<linearGradient id="paint45_linear_1631_2038" x1="-2.50013" y1="400.5" x2="467.5" y2="-70.4999" gradientUnits="userSpaceOnUse">
<stop stop-color="white" stop-opacity="0"/>
<stop offset="0.509215" stop-color="white"/>
<stop offset="1" stop-color="white" stop-opacity="0"/>
</linearGradient>
<linearGradient id="paint46_linear_1631_2038" x1="-2.50013" y1="400.5" x2="467.5" y2="-70.4999" gradientUnits="userSpaceOnUse">
<stop stop-color="white" stop-opacity="0"/>
<stop offset="0.509215" stop-color="white"/>
<stop offset="1" stop-color="white" stop-opacity="0"/>
</linearGradient>
<linearGradient id="paint47_linear_1631_2038" x1="-2.50013" y1="400.5" x2="467.5" y2="-70.4999" gradientUnits="userSpaceOnUse">
<stop stop-color="white" stop-opacity="0"/>
<stop offset="0.509215" stop-color="white"/>
<stop offset="1" stop-color="white" stop-opacity="0"/>
</linearGradient>
<linearGradient id="paint48_linear_1631_2038" x1="-2.50013" y1="400.5" x2="467.5" y2="-70.4999" gradientUnits="userSpaceOnUse">
<stop stop-color="white" stop-opacity="0"/>
<stop offset="0.509215" stop-color="white"/>
<stop offset="1" stop-color="white" stop-opacity="0"/>
</linearGradient>
<linearGradient id="paint49_linear_1631_2038" x1="-2.50013" y1="400.5" x2="467.5" y2="-70.4999" gradientUnits="userSpaceOnUse">
<stop stop-color="white" stop-opacity="0"/>
<stop offset="0.509215" stop-color="white"/>
<stop offset="1" stop-color="white" stop-opacity="0"/>
</linearGradient>
<linearGradient id="paint50_linear_1631_2038" x1="-2.50013" y1="400.5" x2="467.5" y2="-70.4999" gradientUnits="userSpaceOnUse">
<stop stop-color="white" stop-opacity="0"/>
<stop offset="0.509215" stop-color="white"/>
<stop offset="1" stop-color="white" stop-opacity="0"/>
</linearGradient>
<linearGradient id="paint51_linear_1631_2038" x1="-2.50013" y1="400.5" x2="467.5" y2="-70.4999" gradientUnits="userSpaceOnUse">
<stop stop-color="white" stop-opacity="0"/>
<stop offset="0.509215" stop-color="white"/>
<stop offset="1" stop-color="white" stop-opacity="0"/>
</linearGradient>
<linearGradient id="paint52_linear_1631_2038" x1="-2.50013" y1="400.5" x2="467.5" y2="-70.4999" gradientUnits="userSpaceOnUse">
<stop stop-color="white" stop-opacity="0"/>
<stop offset="0.509215" stop-color="white"/>
<stop offset="1" stop-color="white" stop-opacity="0"/>
</linearGradient>
<linearGradient id="paint53_linear_1631_2038" x1="-2.50013" y1="400.5" x2="467.5" y2="-70.4999" gradientUnits="userSpaceOnUse">
<stop stop-color="white" stop-opacity="0"/>
<stop offset="0.509215" stop-color="white"/>
<stop offset="1" stop-color="white" stop-opacity="0"/>
</linearGradient>
<linearGradient id="paint54_linear_1631_2038" x1="-2.50013" y1="400.5" x2="467.5" y2="-70.4999" gradientUnits="userSpaceOnUse">
<stop stop-color="white" stop-opacity="0"/>
<stop offset="0.509215" stop-color="white"/>
<stop offset="1" stop-color="white" stop-opacity="0"/>
</linearGradient>
<linearGradient id="paint55_linear_1631_2038" x1="-2.50013" y1="400.5" x2="467.5" y2="-70.4999" gradientUnits="userSpaceOnUse">
<stop stop-color="white" stop-opacity="0"/>
<stop offset="0.509215" stop-color="white"/>
<stop offset="1" stop-color="white" stop-opacity="0"/>
</linearGradient>
<linearGradient id="paint56_linear_1631_2038" x1="-2.50013" y1="400.5" x2="467.5" y2="-70.4999" gradientUnits="userSpaceOnUse">
<stop stop-color="white" stop-opacity="0"/>
<stop offset="0.509215" stop-color="white"/>
<stop offset="1" stop-color="white" stop-opacity="0"/>
</linearGradient>
<linearGradient id="paint57_linear_1631_2038" x1="-2.50013" y1="400.5" x2="467.5" y2="-70.4999" gradientUnits="userSpaceOnUse">
<stop stop-color="white" stop-opacity="0"/>
<stop offset="0.509215" stop-color="white"/>
<stop offset="1" stop-color="white" stop-opacity="0"/>
</linearGradient>
<linearGradient id="paint58_linear_1631_2038" x1="-2.50013" y1="400.5" x2="467.5" y2="-70.4999" gradientUnits="userSpaceOnUse">
<stop stop-color="white" stop-opacity="0"/>
<stop offset="0.509215" stop-color="white"/>
<stop offset="1" stop-color="white" stop-opacity="0"/>
</linearGradient>
<linearGradient id="paint59_linear_1631_2038" x1="-2.50013" y1="400.5" x2="467.5" y2="-70.4999" gradientUnits="userSpaceOnUse">
<stop stop-color="white" stop-opacity="0"/>
<stop offset="0.509215" stop-color="white"/>
<stop offset="1" stop-color="white" stop-opacity="0"/>
</linearGradient>
<linearGradient id="paint60_linear_1631_2038" x1="-2.50013" y1="400.5" x2="467.5" y2="-70.4999" gradientUnits="userSpaceOnUse">
<stop stop-color="white" stop-opacity="0"/>
<stop offset="0.509215" stop-color="white"/>
<stop offset="1" stop-color="white" stop-opacity="0"/>
</linearGradient>
<linearGradient id="paint61_linear_1631_2038" x1="-2.50013" y1="400.5" x2="467.5" y2="-70.4999" gradientUnits="userSpaceOnUse">
<stop stop-color="white" stop-opacity="0"/>
<stop offset="0.509215" stop-color="white"/>
<stop offset="1" stop-color="white" stop-opacity="0"/>
</linearGradient>
<linearGradient id="paint62_linear_1631_2038" x1="-2.50013" y1="400.5" x2="467.5" y2="-70.4999" gradientUnits="userSpaceOnUse">
<stop stop-color="white" stop-opacity="0"/>
<stop offset="0.509215" stop-color="white"/>
<stop offset="1" stop-color="white" stop-opacity="0"/>
</linearGradient>
<linearGradient id="paint63_linear_1631_2038" x1="-2.50013" y1="400.5" x2="467.5" y2="-70.4999" gradientUnits="userSpaceOnUse">
<stop stop-color="white" stop-opacity="0"/>
<stop offset="0.509215" stop-color="white"/>
<stop offset="1" stop-color="white" stop-opacity="0"/>
</linearGradient>
<linearGradient id="paint64_linear_1631_2038" x1="-2.50013" y1="400.5" x2="467.5" y2="-70.4999" gradientUnits="userSpaceOnUse">
<stop stop-color="white" stop-opacity="0"/>
<stop offset="0.509215" stop-color="white"/>
<stop offset="1" stop-color="white" stop-opacity="0"/>
</linearGradient>
<linearGradient id="paint65_linear_1631_2038" x1="-2.50013" y1="400.5" x2="467.5" y2="-70.4999" gradientUnits="userSpaceOnUse">
<stop stop-color="white" stop-opacity="0"/>
<stop offset="0.509215" stop-color="white"/>
<stop offset="1" stop-color="white" stop-opacity="0"/>
</linearGradient>
<linearGradient id="paint66_linear_1631_2038" x1="-2.50013" y1="400.5" x2="467.5" y2="-70.4999" gradientUnits="userSpaceOnUse">
<stop stop-color="white" stop-opacity="0"/>
<stop offset="0.509215" stop-color="white"/>
<stop offset="1" stop-color="white" stop-opacity="0"/>
</linearGradient>
<linearGradient id="paint67_linear_1631_2038" x1="-2.50013" y1="400.5" x2="467.5" y2="-70.4999" gradientUnits="userSpaceOnUse">
<stop stop-color="white" stop-opacity="0"/>
<stop offset="0.509215" stop-color="white"/>
<stop offset="1" stop-color="white" stop-opacity="0"/>
</linearGradient>
<linearGradient id="paint68_linear_1631_2038" x1="-2.50013" y1="400.5" x2="467.5" y2="-70.4999" gradientUnits="userSpaceOnUse">
<stop stop-color="white" stop-opacity="0"/>
<stop offset="0.509215" stop-color="white"/>
<stop offset="1" stop-color="white" stop-opacity="0"/>
</linearGradient>
<linearGradient id="paint69_linear_1631_2038" x1="-2.50013" y1="400.5" x2="467.5" y2="-70.4999" gradientUnits="userSpaceOnUse">
<stop stop-color="white" stop-opacity="0"/>
<stop offset="0.509215" stop-color="white"/>
<stop offset="1" stop-color="white" stop-opacity="0"/>
</linearGradient>
<linearGradient id="paint70_linear_1631_2038" x1="-2.50013" y1="400.5" x2="467.5" y2="-70.4999" gradientUnits="userSpaceOnUse">
<stop stop-color="white" stop-opacity="0"/>
<stop offset="0.509215" stop-color="white"/>
<stop offset="1" stop-color="white" stop-opacity="0"/>
</linearGradient>
<linearGradient id="paint71_linear_1631_2038" x1="-2.50013" y1="400.5" x2="467.5" y2="-70.4999" gradientUnits="userSpaceOnUse">
<stop stop-color="white" stop-opacity="0"/>
<stop offset="0.509215" stop-color="white"/>
<stop offset="1" stop-color="white" stop-opacity="0"/>
</linearGradient>
<linearGradient id="paint72_linear_1631_2038" x1="-2.50013" y1="400.5" x2="467.5" y2="-70.4999" gradientUnits="userSpaceOnUse">
<stop stop-color="white" stop-opacity="0"/>
<stop offset="0.509215" stop-color="white"/>
<stop offset="1" stop-color="white" stop-opacity="0"/>
</linearGradient>
<linearGradient id="paint73_linear_1631_2038" x1="-2.50013" y1="400.5" x2="467.5" y2="-70.4999" gradientUnits="userSpaceOnUse">
<stop stop-color="white" stop-opacity="0"/>
<stop offset="0.509215" stop-color="white"/>
<stop offset="1" stop-color="white" stop-opacity="0"/>
</linearGradient>
<linearGradient id="paint74_linear_1631_2038" x1="-2.50013" y1="400.5" x2="467.5" y2="-70.4999" gradientUnits="userSpaceOnUse">
<stop stop-color="white" stop-opacity="0"/>
<stop offset="0.509215" stop-color="white"/>
<stop offset="1" stop-color="white" stop-opacity="0"/>
</linearGradient>
<linearGradient id="paint75_linear_1631_2038" x1="-2.50013" y1="400.5" x2="467.5" y2="-70.4999" gradientUnits="userSpaceOnUse">
<stop stop-color="white" stop-opacity="0"/>
<stop offset="0.509215" stop-color="white"/>
<stop offset="1" stop-color="white" stop-opacity="0"/>
</linearGradient>
<linearGradient id="paint76_linear_1631_2038" x1="-2.50013" y1="400.5" x2="467.5" y2="-70.4999" gradientUnits="userSpaceOnUse">
<stop stop-color="white" stop-opacity="0"/>
<stop offset="0.509215" stop-color="white"/>
<stop offset="1" stop-color="white" stop-opacity="0"/>
</linearGradient>
<linearGradient id="paint77_linear_1631_2038" x1="-2.50013" y1="400.5" x2="467.5" y2="-70.4999" gradientUnits="userSpaceOnUse">
<stop stop-color="white" stop-opacity="0"/>
<stop offset="0.509215" stop-color="white"/>
<stop offset="1" stop-color="white" stop-opacity="0"/>
</linearGradient>
<linearGradient id="paint78_linear_1631_2038" x1="-2.50013" y1="400.5" x2="467.5" y2="-70.4999" gradientUnits="userSpaceOnUse">
<stop stop-color="white" stop-opacity="0"/>
<stop offset="0.509215" stop-color="white"/>
<stop offset="1" stop-color="white" stop-opacity="0"/>
</linearGradient>
<linearGradient id="paint79_linear_1631_2038" x1="-2.50013" y1="400.5" x2="467.5" y2="-70.4999" gradientUnits="userSpaceOnUse">
<stop stop-color="white" stop-opacity="0"/>
<stop offset="0.509215" stop-color="white"/>
<stop offset="1" stop-color="white" stop-opacity="0"/>
</linearGradient>
<linearGradient id="paint80_linear_1631_2038" x1="-2.50013" y1="400.5" x2="467.5" y2="-70.4999" gradientUnits="userSpaceOnUse">
<stop stop-color="white" stop-opacity="0"/>
<stop offset="0.509215" stop-color="white"/>
<stop offset="1" stop-color="white" stop-opacity="0"/>
</linearGradient>
<linearGradient id="paint81_linear_1631_2038" x1="-2.50013" y1="400.5" x2="467.5" y2="-70.4999" gradientUnits="userSpaceOnUse">
<stop stop-color="white" stop-opacity="0"/>
<stop offset="0.509215" stop-color="white"/>
<stop offset="1" stop-color="white" stop-opacity="0"/>
</linearGradient>
<linearGradient id="paint82_linear_1631_2038" x1="-2.50013" y1="400.5" x2="467.5" y2="-70.4999" gradientUnits="userSpaceOnUse">
<stop stop-color="white" stop-opacity="0"/>
<stop offset="0.509215" stop-color="white"/>
<stop offset="1" stop-color="white" stop-opacity="0"/>
</linearGradient>
<linearGradient id="paint83_linear_1631_2038" x1="-2.50013" y1="400.5" x2="467.5" y2="-70.4999" gradientUnits="userSpaceOnUse">
<stop stop-color="white" stop-opacity="0"/>
<stop offset="0.509215" stop-color="white"/>
<stop offset="1" stop-color="white" stop-opacity="0"/>
</linearGradient>
<linearGradient id="paint84_linear_1631_2038" x1="-2.50013" y1="400.5" x2="467.5" y2="-70.4999" gradientUnits="userSpaceOnUse">
<stop stop-color="white" stop-opacity="0"/>
<stop offset="0.509215" stop-color="white"/>
<stop offset="1" stop-color="white" stop-opacity="0"/>
</linearGradient>
<linearGradient id="paint85_linear_1631_2038" x1="-2.50013" y1="400.5" x2="467.5" y2="-70.4999" gradientUnits="userSpaceOnUse">
<stop stop-color="white" stop-opacity="0"/>
<stop offset="0.509215" stop-color="white"/>
<stop offset="1" stop-color="white" stop-opacity="0"/>
</linearGradient>
<linearGradient id="paint86_linear_1631_2038" x1="-2.50013" y1="400.5" x2="467.5" y2="-70.4999" gradientUnits="userSpaceOnUse">
<stop stop-color="white" stop-opacity="0"/>
<stop offset="0.509215" stop-color="white"/>
<stop offset="1" stop-color="white" stop-opacity="0"/>
</linearGradient>
<linearGradient id="paint87_linear_1631_2038" x1="-2.50013" y1="400.5" x2="467.5" y2="-70.4999" gradientUnits="userSpaceOnUse">
<stop stop-color="white" stop-opacity="0"/>
<stop offset="0.509215" stop-color="white"/>
<stop offset="1" stop-color="white" stop-opacity="0"/>
</linearGradient>
<linearGradient id="paint88_linear_1631_2038" x1="-2.50013" y1="400.5" x2="467.5" y2="-70.4999" gradientUnits="userSpaceOnUse">
<stop stop-color="white" stop-opacity="0"/>
<stop offset="0.509215" stop-color="white"/>
<stop offset="1" stop-color="white" stop-opacity="0"/>
</linearGradient>
<linearGradient id="paint89_linear_1631_2038" x1="-2.50013" y1="400.5" x2="467.5" y2="-70.4999" gradientUnits="userSpaceOnUse">
<stop stop-color="white" stop-opacity="0"/>
<stop offset="0.509215" stop-color="white"/>
<stop offset="1" stop-color="white" stop-opacity="0"/>
</linearGradient>
<linearGradient id="paint90_linear_1631_2038" x1="-2.50013" y1="400.5" x2="467.5" y2="-70.4999" gradientUnits="userSpaceOnUse">
<stop stop-color="white" stop-opacity="0"/>
<stop offset="0.509215" stop-color="white"/>
<stop offset="1" stop-color="white" stop-opacity="0"/>
</linearGradient>
<linearGradient id="paint91_linear_1631_2038" x1="-2.50013" y1="400.5" x2="467.5" y2="-70.4999" gradientUnits="userSpaceOnUse">
<stop stop-color="white" stop-opacity="0"/>
<stop offset="0.509215" stop-color="white"/>
<stop offset="1" stop-color="white" stop-opacity="0"/>
</linearGradient>
<linearGradient id="paint92_linear_1631_2038" x1="-2.50013" y1="400.5" x2="467.5" y2="-70.4999" gradientUnits="userSpaceOnUse">
<stop stop-color="white" stop-opacity="0"/>
<stop offset="0.509215" stop-color="white"/>
<stop offset="1" stop-color="white" stop-opacity="0"/>
</linearGradient>
<linearGradient id="paint93_linear_1631_2038" x1="-2.50013" y1="400.5" x2="467.5" y2="-70.4999" gradientUnits="userSpaceOnUse">
<stop stop-color="white" stop-opacity="0"/>
<stop offset="0.509215" stop-color="white"/>
<stop offset="1" stop-color="white" stop-opacity="0"/>
</linearGradient>
<linearGradient id="paint94_linear_1631_2038" x1="-2.50013" y1="400.5" x2="467.5" y2="-70.4999" gradientUnits="userSpaceOnUse">
<stop stop-color="white" stop-opacity="0"/>
<stop offset="0.509215" stop-color="white"/>
<stop offset="1" stop-color="white" stop-opacity="0"/>
</linearGradient>
<linearGradient id="paint95_linear_1631_2038" x1="-2.50013" y1="400.5" x2="467.5" y2="-70.4999" gradientUnits="userSpaceOnUse">
<stop stop-color="white" stop-opacity="0"/>
<stop offset="0.509215" stop-color="white"/>
<stop offset="1" stop-color="white" stop-opacity="0"/>
</linearGradient>
<linearGradient id="paint96_linear_1631_2038" x1="-2.50013" y1="400.5" x2="467.5" y2="-70.4999" gradientUnits="userSpaceOnUse">
<stop stop-color="white" stop-opacity="0"/>
<stop offset="0.509215" stop-color="white"/>
<stop offset="1" stop-color="white" stop-opacity="0"/>
</linearGradient>
<linearGradient id="paint97_linear_1631_2038" x1="-2.50013" y1="400.5" x2="467.5" y2="-70.4999" gradientUnits="userSpaceOnUse">
<stop stop-color="white" stop-opacity="0"/>
<stop offset="0.509215" stop-color="white"/>
<stop offset="1" stop-color="white" stop-opacity="0"/>
</linearGradient>
<linearGradient id="paint98_linear_1631_2038" x1="-2.50013" y1="400.5" x2="467.5" y2="-70.4999" gradientUnits="userSpaceOnUse">
<stop stop-color="white" stop-opacity="0"/>
<stop offset="0.509215" stop-color="white"/>
<stop offset="1" stop-color="white" stop-opacity="0"/>
</linearGradient>
<linearGradient id="paint99_linear_1631_2038" x1="-2.50013" y1="400.5" x2="467.5" y2="-70.4999" gradientUnits="userSpaceOnUse">
<stop stop-color="white" stop-opacity="0"/>
<stop offset="0.509215" stop-color="white"/>
<stop offset="1" stop-color="white" stop-opacity="0"/>
</linearGradient>
<linearGradient id="paint100_linear_1631_2038" x1="-2.50013" y1="400.5" x2="467.5" y2="-70.4999" gradientUnits="userSpaceOnUse">
<stop stop-color="white" stop-opacity="0"/>
<stop offset="0.509215" stop-color="white"/>
<stop offset="1" stop-color="white" stop-opacity="0"/>
</linearGradient>
<linearGradient id="paint101_linear_1631_2038" x1="-2.50013" y1="400.5" x2="467.5" y2="-70.4999" gradientUnits="userSpaceOnUse">
<stop stop-color="white" stop-opacity="0"/>
<stop offset="0.509215" stop-color="white"/>
<stop offset="1" stop-color="white" stop-opacity="0"/>
</linearGradient>
<linearGradient id="paint102_linear_1631_2038" x1="-2.50013" y1="400.5" x2="467.5" y2="-70.4999" gradientUnits="userSpaceOnUse">
<stop stop-color="white" stop-opacity="0"/>
<stop offset="0.509215" stop-color="white"/>
<stop offset="1" stop-color="white" stop-opacity="0"/>
</linearGradient>
<linearGradient id="paint103_linear_1631_2038" x1="-2.50013" y1="400.5" x2="467.5" y2="-70.4999" gradientUnits="userSpaceOnUse">
<stop stop-color="white" stop-opacity="0"/>
<stop offset="0.509215" stop-color="white"/>
<stop offset="1" stop-color="white" stop-opacity="0"/>
</linearGradient>
<linearGradient id="paint104_linear_1631_2038" x1="-2.50013" y1="400.5" x2="467.5" y2="-70.4999" gradientUnits="userSpaceOnUse">
<stop stop-color="white" stop-opacity="0"/>
<stop offset="0.509215" stop-color="white"/>
<stop offset="1" stop-color="white" stop-opacity="0"/>
</linearGradient>
<linearGradient id="paint105_linear_1631_2038" x1="-2.50013" y1="400.5" x2="467.5" y2="-70.4999" gradientUnits="userSpaceOnUse">
<stop stop-color="white" stop-opacity="0"/>
<stop offset="0.509215" stop-color="white"/>
<stop offset="1" stop-color="white" stop-opacity="0"/>
</linearGradient>
<linearGradient id="paint106_linear_1631_2038" x1="-2.50013" y1="400.5" x2="467.5" y2="-70.4999" gradientUnits="userSpaceOnUse">
<stop stop-color="white" stop-opacity="0"/>
<stop offset="0.509215" stop-color="white"/>
<stop offset="1" stop-color="white" stop-opacity="0"/>
</linearGradient>
<linearGradient id="paint107_linear_1631_2038" x1="-2.50013" y1="400.5" x2="467.5" y2="-70.4999" gradientUnits="userSpaceOnUse">
<stop stop-color="white" stop-opacity="0"/>
<stop offset="0.509215" stop-color="white"/>
<stop offset="1" stop-color="white" stop-opacity="0"/>
</linearGradient>
<linearGradient id="paint108_linear_1631_2038" x1="-2.50013" y1="400.5" x2="467.5" y2="-70.4999" gradientUnits="userSpaceOnUse">
<stop stop-color="white" stop-opacity="0"/>
<stop offset="0.509215" stop-color="white"/>
<stop offset="1" stop-color="white" stop-opacity="0"/>
</linearGradient>
<linearGradient id="paint109_linear_1631_2038" x1="-2.50013" y1="400.5" x2="467.5" y2="-70.4999" gradientUnits="userSpaceOnUse">
<stop stop-color="white" stop-opacity="0"/>
<stop offset="0.509215" stop-color="white"/>
<stop offset="1" stop-color="white" stop-opacity="0"/>
</linearGradient>
<linearGradient id="paint110_linear_1631_2038" x1="-2.50013" y1="400.5" x2="467.5" y2="-70.4999" gradientUnits="userSpaceOnUse">
<stop stop-color="white" stop-opacity="0"/>
<stop offset="0.509215" stop-color="white"/>
<stop offset="1" stop-color="white" stop-opacity="0"/>
</linearGradient>
<linearGradient id="paint111_linear_1631_2038" x1="-2.50013" y1="400.5" x2="467.5" y2="-70.4999" gradientUnits="userSpaceOnUse">
<stop stop-color="white" stop-opacity="0"/>
<stop offset="0.509215" stop-color="white"/>
<stop offset="1" stop-color="white" stop-opacity="0"/>
</linearGradient>
<linearGradient id="paint112_linear_1631_2038" x1="-2.50013" y1="400.5" x2="467.5" y2="-70.4999" gradientUnits="userSpaceOnUse">
<stop stop-color="white" stop-opacity="0"/>
<stop offset="0.509215" stop-color="white"/>
<stop offset="1" stop-color="white" stop-opacity="0"/>
</linearGradient>
<linearGradient id="paint113_linear_1631_2038" x1="-2.50013" y1="400.5" x2="467.5" y2="-70.4999" gradientUnits="userSpaceOnUse">
<stop stop-color="white" stop-opacity="0"/>
<stop offset="0.509215" stop-color="white"/>
<stop offset="1" stop-color="white" stop-opacity="0"/>
</linearGradient>
<linearGradient id="paint114_linear_1631_2038" x1="-2.50013" y1="400.5" x2="467.5" y2="-70.4999" gradientUnits="userSpaceOnUse">
<stop stop-color="white" stop-opacity="0"/>
<stop offset="0.509215" stop-color="white"/>
<stop offset="1" stop-color="white" stop-opacity="0"/>
</linearGradient>
<linearGradient id="paint115_linear_1631_2038" x1="-2.50013" y1="400.5" x2="467.5" y2="-70.4999" gradientUnits="userSpaceOnUse">
<stop stop-color="white" stop-opacity="0"/>
<stop offset="0.509215" stop-color="white"/>
<stop offset="1" stop-color="white" stop-opacity="0"/>
</linearGradient>
<linearGradient id="paint116_linear_1631_2038" x1="-2.50013" y1="400.5" x2="467.5" y2="-70.4999" gradientUnits="userSpaceOnUse">
<stop stop-color="white" stop-opacity="0"/>
<stop offset="0.509215" stop-color="white"/>
<stop offset="1" stop-color="white" stop-opacity="0"/>
</linearGradient>
<linearGradient id="paint117_linear_1631_2038" x1="-2.50013" y1="400.5" x2="467.5" y2="-70.4999" gradientUnits="userSpaceOnUse">
<stop stop-color="white" stop-opacity="0"/>
<stop offset="0.509215" stop-color="white"/>
<stop offset="1" stop-color="white" stop-opacity="0"/>
</linearGradient>
<linearGradient id="paint118_linear_1631_2038" x1="-2.50013" y1="400.5" x2="467.5" y2="-70.4999" gradientUnits="userSpaceOnUse">
<stop stop-color="white" stop-opacity="0"/>
<stop offset="0.509215" stop-color="white"/>
<stop offset="1" stop-color="white" stop-opacity="0"/>
</linearGradient>
<linearGradient id="paint119_linear_1631_2038" x1="-2.50013" y1="400.5" x2="467.5" y2="-70.4999" gradientUnits="userSpaceOnUse">
<stop stop-color="white" stop-opacity="0"/>
<stop offset="0.509215" stop-color="white"/>
<stop offset="1" stop-color="white" stop-opacity="0"/>
</linearGradient>
<linearGradient id="paint120_linear_1631_2038" x1="-2.50013" y1="400.5" x2="467.5" y2="-70.4999" gradientUnits="userSpaceOnUse">
<stop stop-color="white" stop-opacity="0"/>
<stop offset="0.509215" stop-color="white"/>
<stop offset="1" stop-color="white" stop-opacity="0"/>
</linearGradient>
<linearGradient id="paint121_linear_1631_2038" x1="-2.50013" y1="400.5" x2="467.5" y2="-70.4999" gradientUnits="userSpaceOnUse">
<stop stop-color="white" stop-opacity="0"/>
<stop offset="0.509215" stop-color="white"/>
<stop offset="1" stop-color="white" stop-opacity="0"/>
</linearGradient>
<linearGradient id="paint122_linear_1631_2038" x1="-2.50013" y1="400.5" x2="467.5" y2="-70.4999" gradientUnits="userSpaceOnUse">
<stop stop-color="white" stop-opacity="0"/>
<stop offset="0.509215" stop-color="white"/>
<stop offset="1" stop-color="white" stop-opacity="0"/>
</linearGradient>
<linearGradient id="paint123_linear_1631_2038" x1="-2.50013" y1="400.5" x2="467.5" y2="-70.4999" gradientUnits="userSpaceOnUse">
<stop stop-color="white" stop-opacity="0"/>
<stop offset="0.509215" stop-color="white"/>
<stop offset="1" stop-color="white" stop-opacity="0"/>
</linearGradient>
<linearGradient id="paint124_linear_1631_2038" x1="-2.50013" y1="400.5" x2="467.5" y2="-70.4999" gradientUnits="userSpaceOnUse">
<stop stop-color="white" stop-opacity="0"/>
<stop offset="0.509215" stop-color="white"/>
<stop offset="1" stop-color="white" stop-opacity="0"/>
</linearGradient>
<linearGradient id="paint125_linear_1631_2038" x1="-2.50013" y1="400.5" x2="467.5" y2="-70.4999" gradientUnits="userSpaceOnUse">
<stop stop-color="white" stop-opacity="0"/>
<stop offset="0.509215" stop-color="white"/>
<stop offset="1" stop-color="white" stop-opacity="0"/>
</linearGradient>
<linearGradient id="paint126_linear_1631_2038" x1="-2.50013" y1="400.5" x2="467.5" y2="-70.4999" gradientUnits="userSpaceOnUse">
<stop stop-color="white" stop-opacity="0"/>
<stop offset="0.509215" stop-color="white"/>
<stop offset="1" stop-color="white" stop-opacity="0"/>
</linearGradient>
<linearGradient id="paint127_linear_1631_2038" x1="-2.50013" y1="400.5" x2="467.5" y2="-70.4999" gradientUnits="userSpaceOnUse">
<stop stop-color="white" stop-opacity="0"/>
<stop offset="0.509215" stop-color="white"/>
<stop offset="1" stop-color="white" stop-opacity="0"/>
</linearGradient>
<linearGradient id="paint128_linear_1631_2038" x1="-2.50013" y1="400.5" x2="467.5" y2="-70.4999" gradientUnits="userSpaceOnUse">
<stop stop-color="white" stop-opacity="0"/>
<stop offset="0.509215" stop-color="white"/>
<stop offset="1" stop-color="white" stop-opacity="0"/>
</linearGradient>
<linearGradient id="paint129_linear_1631_2038" x1="-2.50013" y1="400.5" x2="467.5" y2="-70.4999" gradientUnits="userSpaceOnUse">
<stop stop-color="white" stop-opacity="0"/>
<stop offset="0.509215" stop-color="white"/>
<stop offset="1" stop-color="white" stop-opacity="0"/>
</linearGradient>
<linearGradient id="paint130_linear_1631_2038" x1="-2.50013" y1="400.5" x2="467.5" y2="-70.4999" gradientUnits="userSpaceOnUse">
<stop stop-color="white" stop-opacity="0"/>
<stop offset="0.509215" stop-color="white"/>
<stop offset="1" stop-color="white" stop-opacity="0"/>
</linearGradient>
<linearGradient id="paint131_linear_1631_2038" x1="-2.50013" y1="400.5" x2="467.5" y2="-70.4999" gradientUnits="userSpaceOnUse">
<stop stop-color="white" stop-opacity="0"/>
<stop offset="0.509215" stop-color="white"/>
<stop offset="1" stop-color="white" stop-opacity="0"/>
</linearGradient>
<linearGradient id="paint132_linear_1631_2038" x1="3.66989e-06" y1="168.5" x2="573.565" y2="-173.235" gradientUnits="userSpaceOnUse">
<stop stop-color="#0031AE" stop-opacity="0.32"/>
<stop offset="1" stop-color="#F3B61A" stop-opacity="0.15"/>
</linearGradient>
<clipPath id="clip0_1631_2038">
<rect x="65" y="32" width="561" height="580" rx="31" fill="white"/>
</clipPath>
</defs>
</svg>
