<svg width="561" height="580" viewBox="0 0 561 580" fill="none" xmlns="http://www.w3.org/2000/svg">
<g opacity="0.02">
<path d="M939.968 240.654C936.719 233.57 928.343 230.462 921.259 233.711L869.954 257.243C862.871 260.492 859.762 268.868 863.011 275.952L886.543 327.257C889.792 334.34 898.169 337.449 905.252 334.2L956.557 310.668C963.641 307.419 966.749 299.042 963.5 291.959L939.968 240.654Z" fill="url(#paint0_linear_2049_18300)"/>
<path d="M600.074 396.554C596.825 389.47 588.448 386.361 581.365 389.61L530.06 413.142C522.976 416.392 519.867 424.768 523.116 431.852L546.649 483.157C549.898 490.24 558.274 493.349 565.358 490.1L616.663 466.568C623.746 463.319 626.855 454.942 623.606 447.858L600.074 396.554Z" fill="url(#paint1_linear_2049_18300)"/>
<path d="M260.179 552.453C256.93 545.37 248.554 542.261 241.47 545.51L190.165 569.042C183.081 572.291 179.973 580.668 183.222 587.751L206.754 639.056C210.003 646.14 218.379 649.249 225.463 645.999L276.768 622.467C283.852 619.218 286.96 610.842 283.711 603.758L260.179 552.453Z" fill="url(#paint2_linear_2049_18300)"/>
<path d="M862.018 70.7065C858.769 63.6228 850.393 60.5142 843.309 63.7633L792.004 87.2954C784.921 90.5444 781.812 98.9209 785.061 106.005L808.593 157.309C811.842 164.393 820.219 167.502 827.302 164.253L878.607 140.721C885.691 137.471 888.8 129.095 885.55 122.011L862.018 70.7065Z" fill="url(#paint3_linear_2049_18300)"/>
<path d="M522.124 226.606C518.875 219.523 510.498 216.414 503.415 219.663L452.11 243.195C445.026 246.444 441.918 254.821 445.167 261.904L468.699 313.209C471.948 320.293 480.324 323.401 487.408 320.152L538.713 296.62C545.796 293.371 548.905 284.995 545.656 277.911L522.124 226.606Z" fill="url(#paint4_linear_2049_18300)"/>
<path d="M182.229 382.506C178.98 375.422 170.604 372.314 163.52 375.563L112.215 399.095C105.131 402.344 102.023 410.72 105.272 417.804L128.804 469.109C132.053 476.193 140.429 479.301 147.513 476.052L198.818 452.52C205.902 449.271 209.01 440.895 205.761 433.811L182.229 382.506Z" fill="url(#paint5_linear_2049_18300)"/>
<path d="M784.069 -99.2407C780.82 -106.324 772.443 -109.433 765.359 -106.184L714.055 -82.6519C706.971 -79.4028 703.862 -71.0264 707.111 -63.9427L730.643 -12.6378C733.892 -5.55413 742.269 -2.44554 749.353 -5.69462L800.657 -29.2267C807.741 -32.4758 810.85 -40.8521 807.601 -47.9359L784.069 -99.2407Z" fill="url(#paint6_linear_2049_18300)"/>
<path d="M667.144 -354.162C663.895 -361.245 655.518 -364.354 648.435 -361.105L597.13 -337.573C590.046 -334.324 586.937 -325.947 590.187 -318.864L613.719 -267.559C616.968 -260.475 625.344 -257.366 632.428 -260.616L683.733 -284.148C690.816 -287.397 693.925 -295.773 690.676 -302.857L667.144 -354.162Z" fill="url(#paint7_linear_2049_18300)"/>
<path d="M444.174 56.659C440.925 49.5753 432.549 46.4667 425.465 49.7158L374.16 73.2479C367.076 76.4969 363.968 84.8734 367.217 91.9571L390.749 143.262C393.998 150.346 402.374 153.454 409.458 150.205L460.763 126.673C467.847 123.424 470.955 115.048 467.706 107.964L444.174 56.659Z" fill="url(#paint8_linear_2049_18300)"/>
<path d="M327.249 -198.262C324 -205.346 315.624 -208.454 308.54 -205.205L257.235 -181.673C250.151 -178.424 247.043 -170.048 250.292 -162.964L273.824 -111.659C277.073 -104.575 285.449 -101.467 292.533 -104.716L343.838 -128.248C350.922 -131.497 354.03 -139.873 350.781 -146.957L327.249 -198.262Z" fill="url(#paint9_linear_2049_18300)"/>
<path d="M104.279 212.559C101.03 205.475 92.6539 202.366 85.5701 205.616L34.2653 229.148C27.1816 232.397 24.073 240.773 27.3221 247.857L50.8542 299.162C54.1032 306.245 62.4796 309.354 69.5633 306.105L120.868 282.573C127.952 279.324 131.06 270.947 127.811 263.864L104.279 212.559Z" fill="url(#paint10_linear_2049_18300)"/>
<path d="M-12.6454 -42.3622C-15.8945 -49.4459 -24.2709 -52.5544 -31.3546 -49.3054L-82.6595 -25.7733C-89.7432 -22.5242 -92.8518 -14.1478 -89.6027 -7.06408L-66.0707 44.2407C-62.8215 51.3245 -54.4451 54.433 -47.3614 51.1839L3.9434 27.652C11.0271 24.4029 14.1357 16.0264 10.8866 8.94269L-12.6454 -42.3622Z" fill="url(#paint11_linear_2049_18300)"/>
<path d="M706.119 -269.188C702.87 -276.272 694.493 -279.38 687.41 -276.131L636.105 -252.599C629.021 -249.35 625.912 -240.974 629.161 -233.89L652.694 -182.585C655.943 -175.501 664.319 -172.393 671.403 -175.642L722.708 -199.174C729.791 -202.423 732.9 -210.799 729.651 -217.883L706.119 -269.188Z" fill="url(#paint12_linear_2049_18300)"/>
<path d="M589.194 -524.109C585.945 -531.193 577.568 -534.301 570.485 -531.052L519.18 -507.52C512.096 -504.271 508.988 -495.895 512.237 -488.811L535.769 -437.506C539.018 -430.422 547.394 -427.314 554.478 -430.563L605.783 -454.095C612.867 -457.344 615.975 -465.72 612.726 -472.804L589.194 -524.109Z" fill="url(#paint13_linear_2049_18300)"/>
<path d="M366.224 -113.288C362.975 -120.372 354.599 -123.481 347.515 -120.231L296.21 -96.6994C289.126 -93.4503 286.018 -85.0739 289.267 -77.9902L312.799 -26.6853C316.048 -19.6016 324.424 -16.493 331.508 -19.7422L382.813 -43.2742C389.897 -46.5233 393.005 -54.8997 389.756 -61.9834L366.224 -113.288Z" fill="url(#paint14_linear_2049_18300)"/>
<path d="M249.299 -368.209C246.05 -375.293 237.674 -378.402 230.59 -375.152L179.285 -351.62C172.202 -348.371 169.093 -339.995 172.342 -332.911L195.874 -281.606C199.123 -274.523 207.5 -271.414 214.583 -274.663L265.888 -298.195C272.972 -301.444 276.081 -309.821 272.831 -316.904L249.299 -368.209Z" fill="url(#paint15_linear_2049_18300)"/>
<path d="M26.3295 42.6115C23.0804 35.5278 14.704 32.4192 7.6203 35.6683L-43.6846 59.2003C-50.7683 62.4495 -53.8769 70.8259 -50.6278 77.9096L-27.0957 129.214C-23.8466 136.298 -15.4702 139.407 -8.38648 136.158L42.9183 112.626C50.0021 109.377 53.1106 101 49.8615 93.9164L26.3295 42.6115Z" fill="url(#paint16_linear_2049_18300)"/>
<path d="M-90.5952 -212.309C-93.8443 -219.393 -102.221 -222.502 -109.304 -219.253L-160.609 -195.721C-167.693 -192.472 -170.802 -184.095 -167.553 -177.011L-144.021 -125.707C-140.771 -118.623 -132.395 -115.514 -125.311 -118.763L-74.0064 -142.295C-66.9227 -145.544 -63.8141 -153.921 -67.0632 -161.005L-90.5952 -212.309Z" fill="url(#paint17_linear_2049_18300)"/>
<path d="M770.021 318.604C766.772 311.52 758.396 308.411 751.312 311.661L700.007 335.193C692.923 338.442 689.815 346.818 693.064 353.902L716.596 405.207C719.845 412.29 728.221 415.399 735.305 412.15L786.61 388.618C793.694 385.369 796.802 376.992 793.553 369.909L770.021 318.604Z" fill="url(#paint18_linear_2049_18300)"/>
<path d="M430.126 474.503C426.877 467.42 418.501 464.311 411.417 467.56L360.112 491.092C353.029 494.341 349.92 502.718 353.169 509.802L376.701 561.106C379.95 568.19 388.327 571.299 395.41 568.05L446.715 544.518C453.799 541.268 456.908 532.892 453.658 525.808L430.126 474.503Z" fill="url(#paint19_linear_2049_18300)"/>
<path d="M90.2317 630.403C86.9827 623.32 78.6063 620.211 71.5225 623.46L20.2178 646.992C13.134 650.241 10.0254 658.618 13.2746 665.701L36.8066 717.006C40.0556 724.09 48.432 727.198 55.5158 723.949L106.821 700.417C113.904 697.168 117.013 688.792 113.764 681.708L90.2317 630.403Z" fill="url(#paint20_linear_2049_18300)"/>
<path d="M692.071 148.656C688.822 141.573 680.446 138.464 673.362 141.713L622.057 165.245C614.973 168.494 611.865 176.871 615.114 183.954L638.646 235.259C641.895 242.343 650.271 245.452 657.355 242.202L708.66 218.67C715.744 215.421 718.852 207.045 715.603 199.961L692.071 148.656Z" fill="url(#paint21_linear_2049_18300)"/>
<path d="M352.177 304.556C348.927 297.472 340.551 294.364 333.467 297.613L282.162 321.145C275.079 324.394 271.97 332.77 275.219 339.854L298.751 391.159C302 398.243 310.377 401.351 317.46 398.102L368.765 374.57C375.849 371.321 378.958 362.945 375.709 355.861L352.177 304.556Z" fill="url(#paint22_linear_2049_18300)"/>
<path d="M12.2819 460.456C9.03281 453.372 0.656418 450.264 -6.42731 453.513L-57.7321 477.045C-64.8159 480.294 -67.9245 488.67 -64.6754 495.754L-41.1434 547.059C-37.8942 554.143 -29.5178 557.251 -22.4342 554.002L28.8708 530.47C35.9545 527.221 39.063 518.845 35.8139 511.761L12.2819 460.456Z" fill="url(#paint23_linear_2049_18300)"/>
<path d="M614.121 -21.2908C610.872 -28.3746 602.496 -31.4832 595.412 -28.2341L544.107 -4.702C537.024 -1.45288 533.915 6.92347 537.164 14.0072L560.696 65.312C563.945 72.3958 572.322 75.5044 579.405 72.2552L630.71 48.7232C637.794 45.4741 640.902 37.0977 637.653 30.014L614.121 -21.2908Z" fill="url(#paint24_linear_2049_18300)"/>
<path d="M497.196 -276.212C493.947 -283.296 485.571 -286.404 478.487 -283.155L427.182 -259.623C420.099 -256.374 416.99 -247.997 420.239 -240.914L443.771 -189.609C447.02 -182.525 455.397 -179.417 462.48 -182.666L513.785 -206.198C520.869 -209.447 523.978 -217.823 520.729 -224.907L497.196 -276.212Z" fill="url(#paint25_linear_2049_18300)"/>
<path d="M274.227 134.609C270.978 127.525 262.601 124.417 255.517 127.666L204.213 151.198C197.129 154.447 194.02 162.823 197.269 169.907L220.801 221.212C224.051 228.296 232.427 231.404 239.511 228.155L290.816 204.623C297.899 201.374 301.008 192.997 297.759 185.914L274.227 134.609Z" fill="url(#paint26_linear_2049_18300)"/>
<path d="M157.302 -120.312C154.053 -127.396 145.676 -130.504 138.593 -127.255L87.2878 -103.723C80.2041 -100.474 77.0955 -92.0977 80.3446 -85.014L103.877 -33.7092C107.126 -26.6254 115.502 -23.5168 122.586 -26.7659L173.891 -50.2979C180.974 -53.5471 184.083 -61.9235 180.834 -69.0072L157.302 -120.312Z" fill="url(#paint27_linear_2049_18300)"/>
<path d="M-65.668 290.509C-68.917 283.425 -77.2935 280.316 -84.3772 283.565L-135.682 307.097C-142.766 310.347 -145.874 318.723 -142.625 325.807L-119.093 377.112C-115.844 384.195 -107.468 387.304 -100.384 384.055L-49.0791 360.523C-41.9954 357.274 -38.8869 348.897 -42.1359 341.814L-65.668 290.509Z" fill="url(#paint28_linear_2049_18300)"/>
<path d="M-182.593 35.5878C-185.842 28.504 -194.218 25.3955 -201.302 28.6446L-252.607 52.1766C-259.691 55.4257 -262.799 63.8021 -259.55 70.8858L-236.018 122.191C-232.769 129.274 -224.392 132.383 -217.309 129.134L-166.004 105.602C-158.92 102.353 -155.812 93.9763 -159.061 86.8926L-182.593 35.5878Z" fill="url(#paint29_linear_2049_18300)"/>
<path d="M536.171 -191.238C532.922 -198.322 524.546 -201.43 517.462 -198.181L466.157 -174.649C459.074 -171.4 455.965 -163.024 459.214 -155.94L482.746 -104.635C485.995 -97.5515 494.372 -94.443 501.455 -97.692L552.76 -121.224C559.844 -124.473 562.953 -132.85 559.703 -139.933L536.171 -191.238Z" fill="url(#paint30_linear_2049_18300)"/>
<path d="M419.247 -446.159C415.998 -453.243 407.621 -456.351 400.537 -453.102L349.233 -429.57C342.149 -426.321 339.04 -417.945 342.289 -410.861L365.821 -359.556C369.07 -352.472 377.447 -349.364 384.531 -352.613L435.835 -376.145C442.919 -379.394 446.028 -387.771 442.779 -394.854L419.247 -446.159Z" fill="url(#paint31_linear_2049_18300)"/>
<path d="M196.277 -35.3384C193.028 -42.4221 184.651 -45.5307 177.568 -42.2816L126.263 -18.7496C119.179 -15.5005 116.071 -7.12405 119.32 -0.040314L142.852 51.2645C146.101 58.3482 154.477 61.4568 161.561 58.2077L212.866 34.6757C219.949 31.4266 223.058 23.0502 219.809 15.9664L196.277 -35.3384Z" fill="url(#paint32_linear_2049_18300)"/>
<path d="M79.352 -290.259C76.1029 -297.343 67.7265 -300.452 60.6428 -297.203L9.33795 -273.67C2.25426 -270.421 -0.854331 -262.045 2.39474 -254.961L25.9268 -203.656C29.1759 -196.573 37.5523 -193.464 44.636 -196.713L95.9409 -220.245C103.025 -223.494 106.133 -231.871 102.884 -238.954L79.352 -290.259Z" fill="url(#paint33_linear_2049_18300)"/>
<path d="M-143.618 120.561C-146.867 113.478 -155.243 110.369 -162.327 113.618L-213.632 137.15C-220.716 140.399 -223.824 148.776 -220.575 155.859L-197.043 207.164C-193.794 214.248 -185.418 217.357 -178.334 214.107L-127.029 190.575C-119.945 187.326 -116.837 178.95 -120.086 171.866L-143.618 120.561Z" fill="url(#paint34_linear_2049_18300)"/>
<path d="M-260.543 -134.36C-263.792 -141.443 -272.168 -144.552 -279.252 -141.303L-330.557 -117.771C-337.64 -114.522 -340.749 -106.145 -337.5 -99.0615L-313.968 -47.7567C-310.719 -40.6729 -302.342 -37.5644 -295.259 -40.8134L-243.954 -64.3455C-236.87 -67.5946 -233.761 -75.971 -237.011 -83.0547L-260.543 -134.36Z" fill="url(#paint35_linear_2049_18300)"/>
<path d="M978.943 325.627C975.694 318.544 967.318 315.435 960.234 318.684L908.929 342.216C901.845 345.465 898.737 353.842 901.986 360.926L925.518 412.23C928.767 419.314 937.143 422.423 944.227 419.174L995.532 395.642C1002.62 392.393 1005.72 384.016 1002.48 376.932L978.943 325.627Z" fill="url(#paint36_linear_2049_18300)"/>
<path d="M639.049 481.527C635.8 474.444 627.423 471.335 620.339 474.584L569.035 498.116C561.951 501.365 558.842 509.742 562.091 516.825L585.623 568.13C588.873 575.214 597.249 578.322 604.333 575.073L655.637 551.541C662.721 548.292 665.83 539.916 662.581 532.832L639.049 481.527Z" fill="url(#paint37_linear_2049_18300)"/>
<path d="M299.154 637.427C295.905 630.343 287.529 627.235 280.445 630.484L229.14 654.016C222.056 657.265 218.948 665.641 222.197 672.725L245.729 724.03C248.978 731.114 257.354 734.222 264.438 730.973L315.743 707.441C322.827 704.192 325.935 695.816 322.686 688.732L299.154 637.427Z" fill="url(#paint38_linear_2049_18300)"/>
<path d="M900.993 155.68C897.744 148.596 889.368 145.488 882.284 148.737L830.979 172.269C823.896 175.518 820.787 183.895 824.036 190.978L847.568 242.283C850.817 249.367 859.194 252.475 866.277 249.226L917.582 225.694C924.666 222.445 927.775 214.069 924.525 206.985L900.993 155.68Z" fill="url(#paint39_linear_2049_18300)"/>
<path d="M561.099 311.58C557.85 304.496 549.473 301.388 542.39 304.637L491.085 328.169C484.001 331.418 480.892 339.794 484.142 346.878L507.674 398.183C510.923 405.267 519.299 408.375 526.383 405.126L577.688 381.594C584.771 378.345 587.88 369.969 584.631 362.885L561.099 311.58Z" fill="url(#paint40_linear_2049_18300)"/>
<path d="M221.204 467.48C217.955 460.396 209.579 457.287 202.495 460.537L151.19 484.069C144.106 487.318 140.998 495.694 144.247 502.778L167.779 554.083C171.028 561.166 179.404 564.275 186.488 561.026L237.793 537.494C244.877 534.245 247.985 525.868 244.736 518.785L221.204 467.48Z" fill="url(#paint41_linear_2049_18300)"/>
<path d="M823.044 -14.2671C819.794 -21.3508 811.418 -24.4594 804.334 -21.2103L753.029 2.32176C745.946 5.57083 742.837 13.9473 746.086 21.031L769.618 72.3358C772.867 79.4195 781.244 82.5281 788.328 79.2791L839.632 55.747C846.716 52.4979 849.825 44.1215 846.576 37.0377L823.044 -14.2671Z" fill="url(#paint42_linear_2049_18300)"/>
<path d="M483.149 141.633C479.9 134.549 471.523 131.44 464.44 134.689L413.135 158.222C406.051 161.471 402.943 169.847 406.192 176.931L429.724 228.236C432.973 235.319 441.349 238.428 448.433 235.179L499.738 211.647C506.822 208.398 509.93 200.021 506.681 192.937L483.149 141.633Z" fill="url(#paint43_linear_2049_18300)"/>
<path d="M143.254 297.532C140.005 290.449 131.629 287.34 124.545 290.589L73.2403 314.121C66.1565 317.37 63.0479 325.747 66.2971 332.831L89.8291 384.135C93.0782 391.219 101.455 394.328 108.538 391.079L159.843 367.547C166.927 364.297 170.035 355.921 166.786 348.837L143.254 297.532Z" fill="url(#paint44_linear_2049_18300)"/>
<path d="M745.094 -184.214C741.845 -191.298 733.468 -194.407 726.384 -191.158L675.08 -167.626C667.996 -164.376 664.887 -156 668.136 -148.916L691.668 -97.6114C694.918 -90.5278 703.294 -87.4192 710.378 -90.6683L761.682 -114.2C768.766 -117.449 771.875 -125.826 768.626 -132.91L745.094 -184.214Z" fill="url(#paint45_linear_2049_18300)"/>
<path d="M628.169 -439.135C624.92 -446.219 616.543 -449.328 609.46 -446.079L558.155 -422.546C551.071 -419.297 547.963 -410.921 551.212 -403.837L574.744 -352.532C577.993 -345.449 586.369 -342.34 593.453 -345.589L644.758 -369.121C651.841 -372.37 654.95 -380.747 651.701 -387.83L628.169 -439.135Z" fill="url(#paint46_linear_2049_18300)"/>
<path d="M405.199 -28.3146C401.95 -35.3984 393.574 -38.5069 386.49 -35.2578L335.185 -11.7258C328.101 -8.47671 324.993 -0.100272 328.242 6.9834L351.774 58.2883C355.023 65.372 363.399 68.4805 370.483 65.2314L421.788 41.6994C428.872 38.4504 431.98 30.0739 428.731 22.9902L405.199 -28.3146Z" fill="url(#paint47_linear_2049_18300)"/>
<path d="M288.274 -283.236C285.025 -290.319 276.649 -293.428 269.565 -290.179L218.26 -266.647C211.176 -263.398 208.068 -255.021 211.317 -247.937L234.849 -196.633C238.098 -189.549 246.475 -186.44 253.558 -189.689L304.863 -213.222C311.947 -216.471 315.055 -224.847 311.806 -231.931L288.274 -283.236Z" fill="url(#paint48_linear_2049_18300)"/>
<path d="M65.3044 127.585C62.0553 120.501 53.679 117.393 46.5952 120.642L-4.70963 144.174C-11.7933 147.423 -14.9019 155.799 -11.6528 162.883L11.8792 214.188C15.1283 221.272 23.5047 224.38 30.5884 221.131L81.8933 197.599C88.977 194.35 92.0856 185.974 88.8365 178.89L65.3044 127.585Z" fill="url(#paint49_linear_2049_18300)"/>
<path d="M-51.6203 -127.336C-54.8694 -134.42 -63.2458 -137.528 -70.3296 -134.279L-121.634 -110.747C-128.718 -107.498 -131.827 -99.1214 -128.578 -92.0377L-105.046 -40.7329C-101.797 -33.6491 -93.4201 -30.5406 -86.3363 -33.7897L-35.0315 -57.3217C-27.9479 -60.5708 -24.8392 -68.9472 -28.0883 -76.031L-51.6203 -127.336Z" fill="url(#paint50_linear_2049_18300)"/>
<path d="M808.996 403.577C805.747 396.494 797.37 393.385 790.287 396.634L738.982 420.166C731.898 423.415 728.79 431.792 732.039 438.875L755.571 490.18C758.82 497.264 767.196 500.373 774.28 497.123L825.585 473.591C832.668 470.342 835.777 461.966 832.528 454.882L808.996 403.577Z" fill="url(#paint51_linear_2049_18300)"/>
<path d="M469.101 559.477C465.852 552.393 457.476 549.285 450.392 552.534L399.087 576.066C392.003 579.315 388.895 587.691 392.144 594.775L415.676 646.08C418.925 653.164 427.302 656.272 434.385 653.023L485.69 629.491C492.774 626.242 495.882 617.866 492.633 610.782L469.101 559.477Z" fill="url(#paint52_linear_2049_18300)"/>
<path d="M129.207 715.377C125.958 708.293 117.581 705.185 110.498 708.434L59.1927 731.966C52.1089 735.215 49.0004 743.591 52.2494 750.675L75.7815 801.98C79.0307 809.063 87.407 812.172 94.4907 808.923L145.795 785.391C152.879 782.142 155.988 773.765 152.739 766.682L129.207 715.377Z" fill="url(#paint53_linear_2049_18300)"/>
<path d="M731.046 233.63C727.797 226.546 719.421 223.438 712.337 226.687L661.032 250.219C653.948 253.468 650.84 261.844 654.089 268.928L677.621 320.233C680.87 327.317 689.246 330.425 696.33 327.176L747.635 303.644C754.719 300.395 757.827 292.019 754.578 284.935L731.046 233.63Z" fill="url(#paint54_linear_2049_18300)"/>
<path d="M391.152 389.53C387.902 382.446 379.526 379.338 372.442 382.587L321.137 406.119C314.054 409.368 310.945 417.744 314.194 424.828L337.726 476.133C340.975 483.216 349.352 486.325 356.435 483.076L407.74 459.544C414.824 456.295 417.933 447.918 414.684 440.835L391.152 389.53Z" fill="url(#paint55_linear_2049_18300)"/>
<path d="M51.2568 545.43C48.0077 538.346 39.6314 535.237 32.5476 538.486L-18.7573 562.018C-25.8409 565.268 -28.9495 573.644 -25.7004 580.728L-2.16832 632.033C1.08073 639.116 9.45708 642.225 16.5408 638.976L67.8456 615.444C74.9294 612.195 78.038 603.818 74.7889 596.734L51.2568 545.43Z" fill="url(#paint56_linear_2049_18300)"/>
<path d="M653.096 63.6828C649.847 56.599 641.471 53.4905 634.387 56.7396L583.082 80.2716C575.998 83.5207 572.89 91.8972 576.139 98.9809L599.671 150.286C602.92 157.369 611.296 160.478 618.38 157.229L669.685 133.697C676.769 130.448 679.877 122.071 676.628 114.988L653.096 63.6828Z" fill="url(#paint57_linear_2049_18300)"/>
<path d="M313.202 219.583C309.953 212.499 301.576 209.39 294.492 212.639L243.188 236.171C236.104 239.421 232.995 247.797 236.244 254.881L259.776 306.185C263.025 313.269 271.402 316.378 278.486 313.129L329.79 289.597C336.874 286.348 339.983 277.971 336.734 270.887L313.202 219.583Z" fill="url(#paint58_linear_2049_18300)"/>
<path d="M-26.693 375.482C-29.9421 368.399 -38.3186 365.29 -45.4022 368.539L-96.7071 392.071C-103.791 395.32 -106.899 403.697 -103.65 410.78L-80.1182 462.085C-76.8691 469.169 -68.4927 472.278 -61.409 469.028L-10.1042 445.496C-3.02048 442.247 0.0880815 433.871 -3.16097 426.787L-26.693 375.482Z" fill="url(#paint59_linear_2049_18300)"/>
<path d="M575.146 -106.265C571.897 -113.348 563.521 -116.457 556.437 -113.208L505.132 -89.6757C498.049 -86.4266 494.94 -78.0502 498.189 -70.9664L521.721 -19.6616C524.97 -12.5778 533.347 -9.4693 540.43 -12.7184L591.735 -36.2504C598.819 -39.4995 601.927 -47.8759 598.678 -54.9596L575.146 -106.265Z" fill="url(#paint60_linear_2049_18300)"/>
<path d="M458.222 -361.185C454.972 -368.269 446.596 -371.378 439.512 -368.129L388.208 -344.597C381.124 -341.348 378.015 -332.971 381.264 -325.887L404.796 -274.583C408.045 -267.499 416.422 -264.39 423.506 -267.639L474.81 -291.171C481.894 -294.42 485.003 -302.797 481.754 -309.881L458.222 -361.185Z" fill="url(#paint61_linear_2049_18300)"/>
<path d="M235.252 49.6352C232.003 42.5515 223.626 39.443 216.543 42.6921L165.238 66.2241C158.154 69.4732 155.045 77.8496 158.294 84.9333L181.827 136.238C185.076 143.322 193.452 146.43 200.536 143.181L251.841 119.649C258.924 116.4 262.033 108.024 258.784 100.94L235.252 49.6352Z" fill="url(#paint62_linear_2049_18300)"/>
<path d="M118.327 -205.286C115.078 -212.369 106.701 -215.478 99.6178 -212.229L48.3129 -188.697C41.2292 -185.448 38.1206 -177.071 41.3697 -169.988L64.9018 -118.683C68.1509 -111.599 76.5272 -108.49 83.6109 -111.74L134.916 -135.272C142 -138.521 145.108 -146.897 141.859 -153.981L118.327 -205.286Z" fill="url(#paint63_linear_2049_18300)"/>
<path d="M-104.643 205.535C-107.892 198.451 -116.268 195.343 -123.352 198.592L-174.657 222.124C-181.741 225.373 -184.849 233.749 -181.6 240.833L-158.068 292.138C-154.819 299.222 -146.443 302.33 -139.359 299.081L-88.0541 275.549C-80.9703 272.3 -77.8617 263.924 -81.1108 256.84L-104.643 205.535Z" fill="url(#paint64_linear_2049_18300)"/>
<path d="M-221.568 -49.3859C-224.817 -56.4696 -233.193 -59.5782 -240.277 -56.3291L-291.582 -32.7971C-298.665 -29.548 -301.774 -21.1716 -298.525 -14.0878L-274.993 37.217C-271.744 44.3007 -263.367 47.4093 -256.284 44.1602L-204.979 20.6281C-197.895 17.3791 -194.787 9.00266 -198.036 1.91891L-221.568 -49.3859Z" fill="url(#paint65_linear_2049_18300)"/>
<path d="M854.995 279.629C851.746 272.545 843.369 269.436 836.285 272.686L784.981 296.218C777.897 299.467 774.788 307.843 778.037 314.927L801.57 366.232C804.819 373.316 813.195 376.424 820.279 373.175L871.584 349.643C878.667 346.394 881.776 338.017 878.527 330.934L854.995 279.629Z" fill="url(#paint66_linear_2049_18300)"/>
<path d="M515.1 435.529C511.851 428.445 503.475 425.336 496.391 428.585L445.086 452.117C438.002 455.366 434.894 463.743 438.143 470.827L461.675 522.132C464.924 529.215 473.3 532.324 480.384 529.075L531.689 505.543C538.773 502.293 541.881 493.917 538.632 486.833L515.1 435.529Z" fill="url(#paint67_linear_2049_18300)"/>
<path d="M175.205 591.428C171.956 584.345 163.58 581.236 156.496 584.485L105.191 608.017C98.1077 611.266 94.9992 619.643 98.2482 626.726L121.78 678.031C125.029 685.115 133.406 688.223 140.489 684.974L191.794 661.442C198.878 658.193 201.987 649.817 198.738 642.733L175.205 591.428Z" fill="url(#paint68_linear_2049_18300)"/>
<path d="M777.045 109.681C773.796 102.598 765.419 99.4892 758.336 102.738L707.031 126.27C699.947 129.519 696.838 137.896 700.088 144.98L723.62 196.284C726.869 203.368 735.245 206.477 742.329 203.228L793.634 179.696C800.717 176.446 803.826 168.07 800.577 160.986L777.045 109.681Z" fill="url(#paint69_linear_2049_18300)"/>
<path d="M437.15 265.581C433.901 258.497 425.525 255.389 418.441 258.638L367.136 282.17C360.052 285.419 356.944 293.796 360.193 300.879L383.725 352.184C386.974 359.268 395.35 362.376 402.434 359.127L453.739 335.595C460.823 332.346 463.931 323.97 460.682 316.886L437.15 265.581Z" fill="url(#paint70_linear_2049_18300)"/>
<path d="M97.2556 421.481C94.0065 414.397 85.63 411.289 78.5464 414.538L27.2415 438.07C20.1578 441.319 17.0492 449.695 20.2982 456.779L43.8304 508.084C47.0795 515.168 55.4558 518.276 62.5396 515.027L113.844 491.495C120.928 488.246 124.037 479.87 120.788 472.786L97.2556 421.481Z" fill="url(#paint71_linear_2049_18300)"/>
<path d="M699.095 -60.2658C695.846 -67.3495 687.469 -70.4581 680.386 -67.209L629.081 -43.6769C621.997 -40.4279 618.889 -32.0515 622.138 -24.9678L645.67 26.3371C648.919 33.4208 657.295 36.5294 664.379 33.2803L715.684 9.74828C722.767 6.49916 725.876 -1.87722 722.627 -8.96096L699.095 -60.2658Z" fill="url(#paint72_linear_2049_18300)"/>
<path d="M582.17 -315.187C578.921 -322.27 570.545 -325.379 563.461 -322.13L512.156 -298.598C505.072 -295.349 501.964 -286.972 505.213 -279.889L528.745 -228.584C531.994 -221.5 540.37 -218.392 547.454 -221.641L598.759 -245.173C605.843 -248.422 608.951 -256.798 605.702 -263.882L582.17 -315.187Z" fill="url(#paint73_linear_2049_18300)"/>
<path d="M359.2 95.6339C355.951 88.5502 347.575 85.4417 340.491 88.6907L289.186 112.223C282.103 115.472 278.994 123.848 282.243 130.932L305.775 182.237C309.024 189.321 317.401 192.429 324.484 189.18L375.789 165.648C382.873 162.399 385.981 154.022 382.732 146.939L359.2 95.6339Z" fill="url(#paint74_linear_2049_18300)"/>
<path d="M242.276 -159.287C239.026 -166.371 230.65 -169.479 223.566 -166.23L172.261 -142.698C165.178 -139.449 162.069 -131.073 165.318 -123.989L188.85 -72.6841C192.099 -65.6004 200.476 -62.4918 207.56 -65.7409L258.864 -89.2729C265.948 -92.522 269.057 -100.898 265.808 -107.982L242.276 -159.287Z" fill="url(#paint75_linear_2049_18300)"/>
<path d="M19.3057 251.534C16.0566 244.45 7.68022 241.341 0.596473 244.591L-50.7084 268.123C-57.7921 271.372 -60.9006 279.748 -57.6515 286.832L-34.1195 338.137C-30.8705 345.22 -22.494 348.329 -15.4103 345.08L35.8946 321.548C42.9782 318.299 46.0868 309.922 42.8377 302.839L19.3057 251.534Z" fill="url(#paint76_linear_2049_18300)"/>
<path d="M-97.6191 -3.38722C-100.868 -10.4709 -109.245 -13.5795 -116.328 -10.3304L-167.633 13.2017C-174.717 16.4507 -177.825 24.8271 -174.576 31.9108L-151.044 83.2157C-147.795 90.2994 -139.419 93.408 -132.335 90.1589L-81.0302 66.6268C-73.9465 63.3777 -70.838 55.0014 -74.0871 47.9177L-97.6191 -3.38722Z" fill="url(#paint77_linear_2049_18300)"/>
<path d="M621.145 -230.213C617.896 -237.297 609.52 -240.405 602.436 -237.156L551.131 -213.624C544.047 -210.375 540.939 -201.999 544.188 -194.915L567.72 -143.61C570.969 -136.526 579.345 -133.418 586.429 -136.667L637.734 -160.199C644.818 -163.448 647.926 -171.825 644.677 -178.908L621.145 -230.213Z" fill="url(#paint78_linear_2049_18300)"/>
<path d="M504.22 -485.134C500.971 -492.218 492.595 -495.326 485.511 -492.077L434.206 -468.545C427.122 -465.296 424.014 -456.92 427.263 -449.836L450.795 -398.531C454.044 -391.447 462.421 -388.339 469.504 -391.588L520.809 -415.12C527.893 -418.369 531.001 -426.745 527.752 -433.829L504.22 -485.134Z" fill="url(#paint79_linear_2049_18300)"/>
<path d="M281.25 -74.3133C278.001 -81.397 269.625 -84.5056 262.541 -81.2565L211.236 -57.7245C204.153 -54.4754 201.044 -46.099 204.293 -39.0152L227.825 12.2895C231.074 19.3733 239.451 22.4819 246.534 19.2328L297.839 -4.29926C304.923 -7.54833 308.032 -15.9247 304.783 -23.0085L281.25 -74.3133Z" fill="url(#paint80_linear_2049_18300)"/>
<path d="M164.326 -329.234C161.077 -336.318 152.7 -339.427 145.616 -336.177L94.3116 -312.645C87.2279 -309.396 84.1193 -301.02 87.3684 -293.936L110.9 -242.631C114.15 -235.548 122.526 -232.439 129.61 -235.688L180.915 -259.22C187.998 -262.469 191.107 -270.846 187.858 -277.929L164.326 -329.234Z" fill="url(#paint81_linear_2049_18300)"/>
<path d="M-58.6441 81.5864C-61.8933 74.5027 -70.2697 71.3942 -77.3534 74.6432L-128.658 98.1753C-135.742 101.424 -138.851 109.801 -135.601 116.884L-112.069 168.189C-108.82 175.273 -100.444 178.382 -93.3602 175.133L-42.0553 151.6C-34.9716 148.351 -31.863 139.975 -35.1121 132.891L-58.6441 81.5864Z" fill="url(#paint82_linear_2049_18300)"/>
<path d="M-175.569 -173.334C-178.818 -180.418 -187.194 -183.527 -194.278 -180.278L-245.583 -156.746C-252.667 -153.497 -255.775 -145.12 -252.526 -138.036L-228.994 -86.7316C-225.745 -79.6479 -217.369 -76.5393 -210.285 -79.7884L-158.98 -103.32C-151.896 -106.57 -148.788 -114.946 -152.037 -122.03L-175.569 -173.334Z" fill="url(#paint83_linear_2049_18300)"/>
<path d="M685.047 357.579C681.798 350.495 673.422 347.386 666.338 350.636L615.033 374.168C607.95 377.417 604.841 385.793 608.09 392.877L631.622 444.182C634.871 451.265 643.248 454.374 650.331 451.125L701.636 427.593C708.72 424.344 711.829 415.967 708.579 408.884L685.047 357.579Z" fill="url(#paint84_linear_2049_18300)"/>
<path d="M345.153 513.478C341.904 506.395 333.527 503.286 326.444 506.535L275.139 530.067C268.055 533.316 264.946 541.693 268.196 548.777L291.728 600.081C294.977 607.165 303.353 610.274 310.437 607.025L361.742 583.493C368.825 580.243 371.934 571.867 368.685 564.783L345.153 513.478Z" fill="url(#paint85_linear_2049_18300)"/>
<path d="M5.25816 669.378C2.00902 662.294 -6.36734 659.186 -13.4511 662.435L-64.7559 685.967C-71.8396 689.216 -74.9482 697.593 -71.6991 704.676L-48.1671 755.981C-44.918 763.065 -36.5416 766.173 -29.4579 762.924L21.847 739.392C28.9308 736.143 32.0393 727.767 28.7902 720.683L5.25816 669.378Z" fill="url(#paint86_linear_2049_18300)"/>
<path d="M607.097 187.631C603.848 180.548 595.472 177.439 588.388 180.688L537.083 204.22C530 207.469 526.891 215.846 530.14 222.929L553.672 274.234C556.921 281.318 565.298 284.427 572.381 281.177L623.686 257.645C630.77 254.396 633.879 246.02 630.63 238.936L607.097 187.631Z" fill="url(#paint87_linear_2049_18300)"/>
<path d="M267.203 343.531C263.954 336.447 255.577 333.339 248.494 336.588L197.189 360.12C190.105 363.369 186.996 371.745 190.246 378.829L213.778 430.134C217.027 437.218 225.403 440.326 232.487 437.077L283.792 413.545C290.875 410.296 293.984 401.92 290.735 394.836L267.203 343.531Z" fill="url(#paint88_linear_2049_18300)"/>
<path d="M-72.6917 499.431C-75.9407 492.347 -84.3172 489.239 -91.401 492.488L-142.706 516.02C-149.79 519.269 -152.898 527.645 -149.649 534.729L-126.117 586.034C-122.868 593.117 -114.491 596.226 -107.408 592.977L-56.1029 569.445C-49.0191 566.196 -45.9106 557.819 -49.1597 550.736L-72.6917 499.431Z" fill="url(#paint89_linear_2049_18300)"/>
<path d="M529.148 17.6841C525.899 10.6004 517.522 7.49177 510.438 10.7409L459.134 34.2729C452.05 37.522 448.941 45.8984 452.19 52.9821L475.722 104.287C478.971 111.371 487.348 114.479 494.432 111.23L545.736 87.6981C552.82 84.449 555.929 76.0726 552.68 68.9889L529.148 17.6841Z" fill="url(#paint90_linear_2049_18300)"/>
<path d="M412.223 -237.237C408.974 -244.321 400.597 -247.429 393.514 -244.18L342.209 -220.648C335.125 -217.399 332.016 -209.022 335.266 -201.939L358.798 -150.634C362.047 -143.55 370.423 -140.442 377.507 -143.691L428.812 -167.223C435.895 -170.472 439.004 -178.848 435.755 -185.932L412.223 -237.237Z" fill="url(#paint91_linear_2049_18300)"/>
<path d="M189.253 173.584C186.004 166.5 177.628 163.392 170.544 166.641L119.239 190.173C112.155 193.422 109.047 201.798 112.296 208.882L135.828 260.187C139.077 267.271 147.453 270.379 154.537 267.13L205.842 243.598C212.926 240.349 216.034 231.972 212.785 224.889L189.253 173.584Z" fill="url(#paint92_linear_2049_18300)"/>
<path d="M72.3282 -81.3371C69.0791 -88.4208 60.7027 -91.5294 53.619 -88.2803L2.31418 -64.7483C-4.76956 -61.4992 -7.87815 -53.1227 -4.62904 -46.039L18.903 5.26584C22.1521 12.3495 30.5285 15.4582 37.6122 12.209L88.917 -11.323C96.0008 -14.5721 99.1094 -22.9485 95.8603 -30.0322L72.3282 -81.3371Z" fill="url(#paint93_linear_2049_18300)"/>
<path d="M-150.642 329.484C-153.891 322.4 -162.267 319.291 -169.351 322.54L-220.656 346.072C-227.739 349.322 -230.848 357.698 -227.599 364.782L-204.067 416.086C-200.818 423.17 -192.441 426.279 -185.358 423.03L-134.053 399.498C-126.969 396.249 -123.86 387.872 -127.11 380.788L-150.642 329.484Z" fill="url(#paint94_linear_2049_18300)"/>
<path d="M-267.566 74.5627C-270.815 67.4789 -279.192 64.3704 -286.276 67.6195L-337.58 91.1515C-344.664 94.4007 -347.773 102.777 -344.524 109.861L-320.992 161.166C-317.742 168.249 -309.366 171.358 -302.282 168.109L-250.977 144.577C-243.894 141.328 -240.785 132.951 -244.034 125.868L-267.566 74.5627Z" fill="url(#paint95_linear_2049_18300)"/>
<path d="M451.198 -152.263C447.949 -159.347 439.572 -162.455 432.489 -159.206L381.184 -135.674C374.1 -132.425 370.991 -124.049 374.24 -116.965L397.773 -65.6603C401.022 -58.5766 409.398 -55.468 416.482 -58.7171L467.787 -82.2491C474.87 -85.4982 477.979 -93.8747 474.73 -100.958L451.198 -152.263Z" fill="url(#paint96_linear_2049_18300)"/>
<path d="M334.273 -407.184C331.024 -414.268 322.647 -417.376 315.564 -414.127L264.259 -390.595C257.175 -387.346 254.067 -378.97 257.316 -371.886L280.848 -320.581C284.097 -313.498 292.473 -310.389 299.557 -313.638L350.862 -337.17C357.946 -340.419 361.054 -348.796 357.805 -355.879L334.273 -407.184Z" fill="url(#paint97_linear_2049_18300)"/>
<path d="M111.303 3.63657C108.054 -3.44716 99.6777 -6.55577 92.594 -3.30667L41.2891 20.2254C34.2053 23.4745 31.0967 31.8509 34.3458 38.9346L57.8779 90.2395C61.127 97.3232 69.5034 100.432 76.5871 97.1827L127.892 73.6506C134.976 70.4015 138.084 62.0251 134.835 54.9414L111.303 3.63657Z" fill="url(#paint98_linear_2049_18300)"/>
<path d="M-5.62168 -251.284C-8.87075 -258.368 -17.2471 -261.477 -24.3309 -258.228L-75.6357 -234.696C-82.7194 -231.446 -85.828 -223.07 -82.5789 -215.986L-59.0468 -164.681C-55.7978 -157.598 -47.4214 -154.489 -40.3377 -157.738L10.9672 -181.27C18.0509 -184.519 21.1595 -192.896 17.9104 -199.98L-5.62168 -251.284Z" fill="url(#paint99_linear_2049_18300)"/>
<path d="M-228.591 159.536C-231.841 152.453 -240.217 149.344 -247.301 152.593L-298.605 176.125C-305.689 179.374 -308.798 187.751 -305.549 194.834L-282.017 246.139C-278.768 253.223 -270.391 256.331 -263.307 253.082L-212.003 229.55C-204.919 226.301 -201.81 217.925 -205.059 210.841L-228.591 159.536Z" fill="url(#paint100_linear_2049_18300)"/>
<path d="M-345.516 -95.3846C-348.765 -102.468 -357.142 -105.577 -364.225 -102.328L-415.53 -78.7958C-422.614 -75.5467 -425.723 -67.1703 -422.474 -60.0865L-398.941 -8.78176C-395.692 -1.69802 -387.316 1.41057 -380.232 -1.83854L-328.927 -25.3705C-321.844 -28.6197 -318.735 -36.9961 -321.984 -44.0798L-345.516 -95.3846Z" fill="url(#paint101_linear_2049_18300)"/>
<path d="M893.97 364.602C890.72 357.519 882.344 354.41 875.26 357.659L823.956 381.191C816.872 384.44 813.763 392.817 817.012 399.9L840.544 451.205C843.793 458.289 852.17 461.398 859.254 458.149L910.558 434.617C917.642 431.367 920.751 422.991 917.502 415.907L893.97 364.602Z" fill="url(#paint102_linear_2049_18300)"/>
<path d="M554.075 520.502C550.826 513.418 542.449 510.31 535.366 513.559L484.061 537.091C476.977 540.34 473.869 548.716 477.118 555.8L500.65 607.105C503.899 614.189 512.275 617.297 519.359 614.048L570.664 590.516C577.748 587.267 580.856 578.891 577.607 571.807L554.075 520.502Z" fill="url(#paint103_linear_2049_18300)"/>
<path d="M214.18 676.402C210.931 669.318 202.555 666.21 195.471 669.459L144.166 692.991C137.083 696.24 133.974 704.616 137.223 711.7L160.755 763.005C164.004 770.089 172.381 773.197 179.464 769.948L230.769 746.416C237.853 743.167 240.962 734.79 237.712 727.707L214.18 676.402Z" fill="url(#paint104_linear_2049_18300)"/>
<path d="M816.02 194.655C812.771 187.571 804.394 184.463 797.31 187.712L746.006 211.244C738.922 214.493 735.813 222.869 739.062 229.953L762.594 281.258C765.844 288.342 774.22 291.45 781.304 288.201L832.609 264.669C839.692 261.42 842.801 253.044 839.552 245.96L816.02 194.655Z" fill="url(#paint105_linear_2049_18300)"/>
<path d="M476.125 350.555C472.876 343.471 464.5 340.363 457.416 343.612L406.111 367.144C399.027 370.393 395.919 378.769 399.168 385.853L422.7 437.158C425.949 444.242 434.325 447.35 441.409 444.101L492.714 420.569C499.798 417.32 502.906 408.943 499.657 401.86L476.125 350.555Z" fill="url(#paint106_linear_2049_18300)"/>
<path d="M136.231 506.455C132.981 499.371 124.605 496.262 117.521 499.511L66.2164 523.044C59.1327 526.293 56.0241 534.669 59.2732 541.753L82.8053 593.058C86.0544 600.141 94.4308 603.25 101.515 600.001L152.819 576.469C159.903 573.22 163.012 564.843 159.763 557.76L136.231 506.455Z" fill="url(#paint107_linear_2049_18300)"/>
<path d="M738.07 24.7079C734.821 17.6241 726.444 14.5156 719.361 17.7647L668.056 41.2967C660.972 44.5458 657.863 52.9222 661.113 60.0059L684.645 111.311C687.894 118.395 696.27 121.503 703.354 118.254L754.659 94.7219C761.742 91.4728 764.851 83.0964 761.602 76.0127L738.07 24.7079Z" fill="url(#paint108_linear_2049_18300)"/>
<path d="M398.175 180.608C394.926 173.524 386.55 170.415 379.466 173.664L328.161 197.196C321.077 200.446 317.969 208.822 321.218 215.906L344.75 267.21C347.999 274.294 356.376 277.403 363.459 274.154L414.764 250.622C421.848 247.373 424.956 238.996 421.707 231.912L398.175 180.608Z" fill="url(#paint109_linear_2049_18300)"/>
<path d="M58.2807 336.507C55.0316 329.424 46.6551 326.315 39.5714 329.564L-11.7334 353.096C-18.8171 356.345 -21.9258 364.722 -18.6767 371.805L4.85537 423.11C8.10455 430.194 16.4809 433.303 23.5647 430.053L74.8695 406.521C81.9532 403.272 85.0618 394.896 81.8127 387.812L58.2807 336.507Z" fill="url(#paint110_linear_2049_18300)"/>
<path d="M660.12 -145.239C656.871 -152.323 648.495 -155.432 641.411 -152.183L590.106 -128.651C583.022 -125.402 579.914 -117.025 583.163 -109.941L606.695 -58.6365C609.944 -51.5528 618.32 -48.4443 625.404 -51.6933L676.709 -75.2254C683.793 -78.4745 686.901 -86.8509 683.652 -93.9346L660.12 -145.239Z" fill="url(#paint111_linear_2049_18300)"/>
<path d="M543.195 -400.16C539.946 -407.244 531.57 -410.353 524.486 -407.104L473.181 -383.572C466.097 -380.322 462.989 -371.946 466.238 -364.862L489.77 -313.557C493.019 -306.474 501.395 -303.365 508.479 -306.614L559.784 -330.146C566.868 -333.395 569.976 -341.772 566.727 -348.856L543.195 -400.16Z" fill="url(#paint112_linear_2049_18300)"/>
<path d="M320.225 10.6603C316.976 3.57659 308.6 0.468005 301.516 3.7171L250.211 27.2491C243.128 30.4982 240.019 38.8746 243.268 45.9583L266.8 97.2632C270.049 104.347 278.426 107.456 285.509 104.206L336.814 80.6744C343.898 77.4253 347.007 69.0489 343.757 61.9651L320.225 10.6603Z" fill="url(#paint113_linear_2049_18300)"/>
<path d="M203.301 -244.261C200.052 -251.344 191.675 -254.453 184.591 -251.204L133.287 -227.672C126.203 -224.423 123.094 -216.046 126.343 -208.963L149.875 -157.658C153.124 -150.574 161.501 -147.465 168.585 -150.714L219.889 -174.247C226.973 -177.496 230.082 -185.872 226.833 -192.956L203.301 -244.261Z" fill="url(#paint114_linear_2049_18300)"/>
<path d="M-19.6692 166.56C-22.9183 159.476 -31.2947 156.368 -38.3784 159.617L-89.6833 183.149C-96.767 186.398 -99.8756 194.774 -96.6265 201.858L-73.0945 253.163C-69.8454 260.247 -61.4689 263.355 -54.3852 260.106L-3.08033 236.574C4.00336 233.325 7.11191 224.949 3.86279 217.865L-19.6692 166.56Z" fill="url(#paint115_linear_2049_18300)"/>
<path d="M-136.594 -88.3608C-139.843 -95.4446 -148.22 -98.5531 -155.303 -95.304L-206.608 -71.772C-213.692 -68.5229 -216.8 -60.1465 -213.551 -53.0628L-190.019 -1.75795C-186.77 5.3258 -178.394 8.43435 -171.31 5.18524L-120.005 -18.3468C-112.921 -21.5959 -109.813 -29.9722 -113.062 -37.056L-136.594 -88.3608Z" fill="url(#paint116_linear_2049_18300)"/>
<path d="M724.022 442.552C720.773 435.469 712.397 432.36 705.313 435.609L654.008 459.141C646.925 462.39 643.816 470.767 647.065 477.85L670.597 529.155C673.846 536.239 682.223 539.347 689.306 536.098L740.611 512.566C747.695 509.317 750.803 500.941 747.554 493.857L724.022 442.552Z" fill="url(#paint117_linear_2049_18300)"/>
<path d="M384.128 598.452C380.879 591.368 372.502 588.26 365.418 591.509L314.114 615.041C307.03 618.29 303.921 626.666 307.17 633.75L330.702 685.055C333.952 692.139 342.328 695.247 349.412 691.998L400.716 668.466C407.8 665.217 410.909 656.841 407.66 649.757L384.128 598.452Z" fill="url(#paint118_linear_2049_18300)"/>
<path d="M44.2331 754.352C40.984 747.268 32.6076 744.159 25.5239 747.409L-25.781 770.941C-32.8647 774.19 -35.9733 782.566 -32.7241 789.65L-9.19209 840.955C-5.943 848.038 2.43338 851.147 9.51711 847.898L60.8219 824.366C67.9056 821.117 71.0143 812.74 67.7651 805.657L44.2331 754.352Z" fill="url(#paint119_linear_2049_18300)"/>
<path d="M646.072 272.605C642.823 265.521 634.447 262.413 627.363 265.662L576.058 289.194C568.975 292.443 565.866 300.819 569.115 307.903L592.647 359.208C595.896 366.292 604.273 369.4 611.356 366.151L662.661 342.619C669.745 339.37 672.854 330.994 669.604 323.91L646.072 272.605Z" fill="url(#paint120_linear_2049_18300)"/>
<path d="M306.178 428.505C302.929 421.421 294.552 418.313 287.469 421.562L236.164 445.094C229.08 448.343 225.971 456.719 229.221 463.803L252.753 515.108C256.002 522.191 264.378 525.3 271.462 522.051L322.767 498.519C329.85 495.27 332.959 486.893 329.71 479.81L306.178 428.505Z" fill="url(#paint121_linear_2049_18300)"/>
<path d="M-33.7167 584.405C-36.9658 577.321 -45.3422 574.212 -52.4259 577.461L-103.731 600.993C-110.815 604.242 -113.923 612.619 -110.674 619.703L-87.1419 671.007C-83.8928 678.091 -75.5165 681.2 -68.4327 677.951L-17.1279 654.419C-10.0443 651.17 -6.93565 642.793 -10.1847 635.709L-33.7167 584.405Z" fill="url(#paint122_linear_2049_18300)"/>
<path d="M568.123 102.658C564.873 95.574 556.497 92.4655 549.413 95.7146L498.108 119.247C491.025 122.496 487.916 130.872 491.165 137.956L514.697 189.261C517.946 196.344 526.323 199.453 533.407 196.204L584.711 172.672C591.795 169.423 594.904 161.046 591.655 153.963L568.123 102.658Z" fill="url(#paint123_linear_2049_18300)"/>
<path d="M228.228 258.557C224.979 251.474 216.602 248.365 209.519 251.614L158.214 275.146C151.13 278.395 148.022 286.772 151.271 293.856L174.803 345.16C178.052 352.244 186.428 355.353 193.512 352.104L244.817 328.572C251.9 325.322 255.009 316.946 251.76 309.862L228.228 258.557Z" fill="url(#paint124_linear_2049_18300)"/>
<path d="M-111.667 414.457C-114.916 407.374 -123.292 404.265 -130.376 407.514L-181.681 431.046C-188.764 434.295 -191.873 442.672 -188.624 449.755L-165.092 501.06C-161.843 508.144 -153.466 511.252 -146.383 508.003L-95.0779 484.471C-87.9941 481.222 -84.8855 472.846 -88.1345 465.762L-111.667 414.457Z" fill="url(#paint125_linear_2049_18300)"/>
<path d="M490.173 -67.2896C486.924 -74.3733 478.547 -77.4819 471.464 -74.2327L420.159 -50.7007C413.075 -47.4516 409.966 -39.0752 413.215 -31.9915L436.747 19.3133C439.997 26.3971 448.373 29.5056 455.457 26.2565L506.762 2.72452C513.845 -0.524609 516.954 -8.90105 513.705 -15.9847L490.173 -67.2896Z" fill="url(#paint126_linear_2049_18300)"/>
<path d="M373.248 -322.211C369.999 -329.294 361.622 -332.403 354.539 -329.154L303.234 -305.622C296.15 -302.373 293.042 -293.996 296.291 -286.912L319.823 -235.608C323.072 -228.524 331.448 -225.415 338.532 -228.664L389.837 -252.196C396.921 -255.446 400.029 -263.822 396.78 -270.906L373.248 -322.211Z" fill="url(#paint127_linear_2049_18300)"/>
<path d="M150.278 88.6102C147.029 81.5265 138.653 78.4179 131.569 81.667L80.264 105.199C73.1803 108.448 70.0717 116.825 73.3208 123.908L96.8529 175.213C100.102 182.297 108.478 185.405 115.562 182.156L166.867 158.624C173.951 155.375 177.059 146.999 173.81 139.915L150.278 88.6102Z" fill="url(#paint128_linear_2049_18300)"/>
<path d="M33.3533 -166.311C30.1042 -173.394 21.7278 -176.503 14.6441 -173.254L-36.6608 -149.722C-43.7445 -146.473 -46.8531 -138.096 -43.604 -131.013L-20.0719 -79.7079C-16.8228 -72.6241 -8.44648 -69.5155 -1.36274 -72.7646L49.9421 -96.2967C57.0259 -99.5458 60.1344 -107.922 56.8853 -115.006L33.3533 -166.311Z" fill="url(#paint129_linear_2049_18300)"/>
<path d="M-189.617 244.51C-192.866 237.426 -201.242 234.318 -208.326 237.567L-259.631 261.099C-266.714 264.348 -269.823 272.724 -266.574 279.808L-243.042 331.113C-239.793 338.197 -231.416 341.305 -224.333 338.056L-173.028 314.524C-165.944 311.275 -162.835 302.898 -166.084 295.815L-189.617 244.51Z" fill="url(#paint130_linear_2049_18300)"/>
<path d="M-306.541 -10.411C-309.79 -17.4947 -318.167 -20.6033 -325.25 -17.3542L-376.555 6.17788C-383.639 9.42693 -386.748 17.8033 -383.499 24.887L-359.967 76.192C-356.717 83.2757 -348.341 86.3842 -341.257 83.1351L-289.952 59.6031C-282.869 56.354 -279.76 47.9776 -283.009 40.8939L-306.541 -10.411Z" fill="url(#paint131_linear_2049_18300)"/>
</g>
<defs>
<linearGradient id="paint0_linear_2049_18300" x1="-67.4992" y1="368.5" x2="402.501" y2="-102.5" gradientUnits="userSpaceOnUse">
<stop stop-color="white" stop-opacity="0"/>
<stop offset="0.509215" stop-color="white"/>
<stop offset="1" stop-color="white" stop-opacity="0"/>
</linearGradient>
<linearGradient id="paint1_linear_2049_18300" x1="-67.4992" y1="368.5" x2="402.501" y2="-102.5" gradientUnits="userSpaceOnUse">
<stop stop-color="white" stop-opacity="0"/>
<stop offset="0.509215" stop-color="white"/>
<stop offset="1" stop-color="white" stop-opacity="0"/>
</linearGradient>
<linearGradient id="paint2_linear_2049_18300" x1="-67.4992" y1="368.5" x2="402.501" y2="-102.5" gradientUnits="userSpaceOnUse">
<stop stop-color="white" stop-opacity="0"/>
<stop offset="0.509215" stop-color="white"/>
<stop offset="1" stop-color="white" stop-opacity="0"/>
</linearGradient>
<linearGradient id="paint3_linear_2049_18300" x1="-67.4992" y1="368.5" x2="402.501" y2="-102.5" gradientUnits="userSpaceOnUse">
<stop stop-color="white" stop-opacity="0"/>
<stop offset="0.509215" stop-color="white"/>
<stop offset="1" stop-color="white" stop-opacity="0"/>
</linearGradient>
<linearGradient id="paint4_linear_2049_18300" x1="-67.4992" y1="368.5" x2="402.501" y2="-102.5" gradientUnits="userSpaceOnUse">
<stop stop-color="white" stop-opacity="0"/>
<stop offset="0.509215" stop-color="white"/>
<stop offset="1" stop-color="white" stop-opacity="0"/>
</linearGradient>
<linearGradient id="paint5_linear_2049_18300" x1="-67.4992" y1="368.5" x2="402.501" y2="-102.5" gradientUnits="userSpaceOnUse">
<stop stop-color="white" stop-opacity="0"/>
<stop offset="0.509215" stop-color="white"/>
<stop offset="1" stop-color="white" stop-opacity="0"/>
</linearGradient>
<linearGradient id="paint6_linear_2049_18300" x1="-67.4992" y1="368.5" x2="402.501" y2="-102.5" gradientUnits="userSpaceOnUse">
<stop stop-color="white" stop-opacity="0"/>
<stop offset="0.509215" stop-color="white"/>
<stop offset="1" stop-color="white" stop-opacity="0"/>
</linearGradient>
<linearGradient id="paint7_linear_2049_18300" x1="-67.4992" y1="368.5" x2="402.501" y2="-102.5" gradientUnits="userSpaceOnUse">
<stop stop-color="white" stop-opacity="0"/>
<stop offset="0.509215" stop-color="white"/>
<stop offset="1" stop-color="white" stop-opacity="0"/>
</linearGradient>
<linearGradient id="paint8_linear_2049_18300" x1="-67.4992" y1="368.5" x2="402.501" y2="-102.5" gradientUnits="userSpaceOnUse">
<stop stop-color="white" stop-opacity="0"/>
<stop offset="0.509215" stop-color="white"/>
<stop offset="1" stop-color="white" stop-opacity="0"/>
</linearGradient>
<linearGradient id="paint9_linear_2049_18300" x1="-67.4992" y1="368.5" x2="402.501" y2="-102.5" gradientUnits="userSpaceOnUse">
<stop stop-color="white" stop-opacity="0"/>
<stop offset="0.509215" stop-color="white"/>
<stop offset="1" stop-color="white" stop-opacity="0"/>
</linearGradient>
<linearGradient id="paint10_linear_2049_18300" x1="-67.4992" y1="368.5" x2="402.501" y2="-102.5" gradientUnits="userSpaceOnUse">
<stop stop-color="white" stop-opacity="0"/>
<stop offset="0.509215" stop-color="white"/>
<stop offset="1" stop-color="white" stop-opacity="0"/>
</linearGradient>
<linearGradient id="paint11_linear_2049_18300" x1="-67.4992" y1="368.5" x2="402.501" y2="-102.5" gradientUnits="userSpaceOnUse">
<stop stop-color="white" stop-opacity="0"/>
<stop offset="0.509215" stop-color="white"/>
<stop offset="1" stop-color="white" stop-opacity="0"/>
</linearGradient>
<linearGradient id="paint12_linear_2049_18300" x1="-67.4992" y1="368.5" x2="402.501" y2="-102.5" gradientUnits="userSpaceOnUse">
<stop stop-color="white" stop-opacity="0"/>
<stop offset="0.509215" stop-color="white"/>
<stop offset="1" stop-color="white" stop-opacity="0"/>
</linearGradient>
<linearGradient id="paint13_linear_2049_18300" x1="-67.4992" y1="368.5" x2="402.501" y2="-102.5" gradientUnits="userSpaceOnUse">
<stop stop-color="white" stop-opacity="0"/>
<stop offset="0.509215" stop-color="white"/>
<stop offset="1" stop-color="white" stop-opacity="0"/>
</linearGradient>
<linearGradient id="paint14_linear_2049_18300" x1="-67.4992" y1="368.5" x2="402.501" y2="-102.5" gradientUnits="userSpaceOnUse">
<stop stop-color="white" stop-opacity="0"/>
<stop offset="0.509215" stop-color="white"/>
<stop offset="1" stop-color="white" stop-opacity="0"/>
</linearGradient>
<linearGradient id="paint15_linear_2049_18300" x1="-67.4992" y1="368.5" x2="402.501" y2="-102.5" gradientUnits="userSpaceOnUse">
<stop stop-color="white" stop-opacity="0"/>
<stop offset="0.509215" stop-color="white"/>
<stop offset="1" stop-color="white" stop-opacity="0"/>
</linearGradient>
<linearGradient id="paint16_linear_2049_18300" x1="-67.4992" y1="368.5" x2="402.501" y2="-102.5" gradientUnits="userSpaceOnUse">
<stop stop-color="white" stop-opacity="0"/>
<stop offset="0.509215" stop-color="white"/>
<stop offset="1" stop-color="white" stop-opacity="0"/>
</linearGradient>
<linearGradient id="paint17_linear_2049_18300" x1="-67.4992" y1="368.5" x2="402.501" y2="-102.5" gradientUnits="userSpaceOnUse">
<stop stop-color="white" stop-opacity="0"/>
<stop offset="0.509215" stop-color="white"/>
<stop offset="1" stop-color="white" stop-opacity="0"/>
</linearGradient>
<linearGradient id="paint18_linear_2049_18300" x1="-67.4992" y1="368.5" x2="402.501" y2="-102.5" gradientUnits="userSpaceOnUse">
<stop stop-color="white" stop-opacity="0"/>
<stop offset="0.509215" stop-color="white"/>
<stop offset="1" stop-color="white" stop-opacity="0"/>
</linearGradient>
<linearGradient id="paint19_linear_2049_18300" x1="-67.4992" y1="368.5" x2="402.501" y2="-102.5" gradientUnits="userSpaceOnUse">
<stop stop-color="white" stop-opacity="0"/>
<stop offset="0.509215" stop-color="white"/>
<stop offset="1" stop-color="white" stop-opacity="0"/>
</linearGradient>
<linearGradient id="paint20_linear_2049_18300" x1="-67.4992" y1="368.5" x2="402.501" y2="-102.5" gradientUnits="userSpaceOnUse">
<stop stop-color="white" stop-opacity="0"/>
<stop offset="0.509215" stop-color="white"/>
<stop offset="1" stop-color="white" stop-opacity="0"/>
</linearGradient>
<linearGradient id="paint21_linear_2049_18300" x1="-67.4992" y1="368.5" x2="402.501" y2="-102.5" gradientUnits="userSpaceOnUse">
<stop stop-color="white" stop-opacity="0"/>
<stop offset="0.509215" stop-color="white"/>
<stop offset="1" stop-color="white" stop-opacity="0"/>
</linearGradient>
<linearGradient id="paint22_linear_2049_18300" x1="-67.4992" y1="368.5" x2="402.501" y2="-102.5" gradientUnits="userSpaceOnUse">
<stop stop-color="white" stop-opacity="0"/>
<stop offset="0.509215" stop-color="white"/>
<stop offset="1" stop-color="white" stop-opacity="0"/>
</linearGradient>
<linearGradient id="paint23_linear_2049_18300" x1="-67.4992" y1="368.5" x2="402.501" y2="-102.5" gradientUnits="userSpaceOnUse">
<stop stop-color="white" stop-opacity="0"/>
<stop offset="0.509215" stop-color="white"/>
<stop offset="1" stop-color="white" stop-opacity="0"/>
</linearGradient>
<linearGradient id="paint24_linear_2049_18300" x1="-67.4992" y1="368.5" x2="402.501" y2="-102.5" gradientUnits="userSpaceOnUse">
<stop stop-color="white" stop-opacity="0"/>
<stop offset="0.509215" stop-color="white"/>
<stop offset="1" stop-color="white" stop-opacity="0"/>
</linearGradient>
<linearGradient id="paint25_linear_2049_18300" x1="-67.4992" y1="368.5" x2="402.501" y2="-102.5" gradientUnits="userSpaceOnUse">
<stop stop-color="white" stop-opacity="0"/>
<stop offset="0.509215" stop-color="white"/>
<stop offset="1" stop-color="white" stop-opacity="0"/>
</linearGradient>
<linearGradient id="paint26_linear_2049_18300" x1="-67.4992" y1="368.5" x2="402.501" y2="-102.5" gradientUnits="userSpaceOnUse">
<stop stop-color="white" stop-opacity="0"/>
<stop offset="0.509215" stop-color="white"/>
<stop offset="1" stop-color="white" stop-opacity="0"/>
</linearGradient>
<linearGradient id="paint27_linear_2049_18300" x1="-67.4992" y1="368.5" x2="402.501" y2="-102.5" gradientUnits="userSpaceOnUse">
<stop stop-color="white" stop-opacity="0"/>
<stop offset="0.509215" stop-color="white"/>
<stop offset="1" stop-color="white" stop-opacity="0"/>
</linearGradient>
<linearGradient id="paint28_linear_2049_18300" x1="-67.4992" y1="368.5" x2="402.501" y2="-102.5" gradientUnits="userSpaceOnUse">
<stop stop-color="white" stop-opacity="0"/>
<stop offset="0.509215" stop-color="white"/>
<stop offset="1" stop-color="white" stop-opacity="0"/>
</linearGradient>
<linearGradient id="paint29_linear_2049_18300" x1="-67.4992" y1="368.5" x2="402.501" y2="-102.5" gradientUnits="userSpaceOnUse">
<stop stop-color="white" stop-opacity="0"/>
<stop offset="0.509215" stop-color="white"/>
<stop offset="1" stop-color="white" stop-opacity="0"/>
</linearGradient>
<linearGradient id="paint30_linear_2049_18300" x1="-67.4992" y1="368.5" x2="402.501" y2="-102.5" gradientUnits="userSpaceOnUse">
<stop stop-color="white" stop-opacity="0"/>
<stop offset="0.509215" stop-color="white"/>
<stop offset="1" stop-color="white" stop-opacity="0"/>
</linearGradient>
<linearGradient id="paint31_linear_2049_18300" x1="-67.4992" y1="368.5" x2="402.501" y2="-102.5" gradientUnits="userSpaceOnUse">
<stop stop-color="white" stop-opacity="0"/>
<stop offset="0.509215" stop-color="white"/>
<stop offset="1" stop-color="white" stop-opacity="0"/>
</linearGradient>
<linearGradient id="paint32_linear_2049_18300" x1="-67.4992" y1="368.5" x2="402.501" y2="-102.5" gradientUnits="userSpaceOnUse">
<stop stop-color="white" stop-opacity="0"/>
<stop offset="0.509215" stop-color="white"/>
<stop offset="1" stop-color="white" stop-opacity="0"/>
</linearGradient>
<linearGradient id="paint33_linear_2049_18300" x1="-67.4992" y1="368.5" x2="402.501" y2="-102.5" gradientUnits="userSpaceOnUse">
<stop stop-color="white" stop-opacity="0"/>
<stop offset="0.509215" stop-color="white"/>
<stop offset="1" stop-color="white" stop-opacity="0"/>
</linearGradient>
<linearGradient id="paint34_linear_2049_18300" x1="-67.4992" y1="368.5" x2="402.501" y2="-102.5" gradientUnits="userSpaceOnUse">
<stop stop-color="white" stop-opacity="0"/>
<stop offset="0.509215" stop-color="white"/>
<stop offset="1" stop-color="white" stop-opacity="0"/>
</linearGradient>
<linearGradient id="paint35_linear_2049_18300" x1="-67.4992" y1="368.5" x2="402.501" y2="-102.5" gradientUnits="userSpaceOnUse">
<stop stop-color="white" stop-opacity="0"/>
<stop offset="0.509215" stop-color="white"/>
<stop offset="1" stop-color="white" stop-opacity="0"/>
</linearGradient>
<linearGradient id="paint36_linear_2049_18300" x1="-67.4992" y1="368.5" x2="402.501" y2="-102.5" gradientUnits="userSpaceOnUse">
<stop stop-color="white" stop-opacity="0"/>
<stop offset="0.509215" stop-color="white"/>
<stop offset="1" stop-color="white" stop-opacity="0"/>
</linearGradient>
<linearGradient id="paint37_linear_2049_18300" x1="-67.4992" y1="368.5" x2="402.501" y2="-102.5" gradientUnits="userSpaceOnUse">
<stop stop-color="white" stop-opacity="0"/>
<stop offset="0.509215" stop-color="white"/>
<stop offset="1" stop-color="white" stop-opacity="0"/>
</linearGradient>
<linearGradient id="paint38_linear_2049_18300" x1="-67.4992" y1="368.5" x2="402.501" y2="-102.5" gradientUnits="userSpaceOnUse">
<stop stop-color="white" stop-opacity="0"/>
<stop offset="0.509215" stop-color="white"/>
<stop offset="1" stop-color="white" stop-opacity="0"/>
</linearGradient>
<linearGradient id="paint39_linear_2049_18300" x1="-67.4992" y1="368.5" x2="402.501" y2="-102.5" gradientUnits="userSpaceOnUse">
<stop stop-color="white" stop-opacity="0"/>
<stop offset="0.509215" stop-color="white"/>
<stop offset="1" stop-color="white" stop-opacity="0"/>
</linearGradient>
<linearGradient id="paint40_linear_2049_18300" x1="-67.4992" y1="368.5" x2="402.501" y2="-102.5" gradientUnits="userSpaceOnUse">
<stop stop-color="white" stop-opacity="0"/>
<stop offset="0.509215" stop-color="white"/>
<stop offset="1" stop-color="white" stop-opacity="0"/>
</linearGradient>
<linearGradient id="paint41_linear_2049_18300" x1="-67.4992" y1="368.5" x2="402.501" y2="-102.5" gradientUnits="userSpaceOnUse">
<stop stop-color="white" stop-opacity="0"/>
<stop offset="0.509215" stop-color="white"/>
<stop offset="1" stop-color="white" stop-opacity="0"/>
</linearGradient>
<linearGradient id="paint42_linear_2049_18300" x1="-67.4992" y1="368.5" x2="402.501" y2="-102.5" gradientUnits="userSpaceOnUse">
<stop stop-color="white" stop-opacity="0"/>
<stop offset="0.509215" stop-color="white"/>
<stop offset="1" stop-color="white" stop-opacity="0"/>
</linearGradient>
<linearGradient id="paint43_linear_2049_18300" x1="-67.4992" y1="368.5" x2="402.501" y2="-102.5" gradientUnits="userSpaceOnUse">
<stop stop-color="white" stop-opacity="0"/>
<stop offset="0.509215" stop-color="white"/>
<stop offset="1" stop-color="white" stop-opacity="0"/>
</linearGradient>
<linearGradient id="paint44_linear_2049_18300" x1="-67.4992" y1="368.5" x2="402.501" y2="-102.5" gradientUnits="userSpaceOnUse">
<stop stop-color="white" stop-opacity="0"/>
<stop offset="0.509215" stop-color="white"/>
<stop offset="1" stop-color="white" stop-opacity="0"/>
</linearGradient>
<linearGradient id="paint45_linear_2049_18300" x1="-67.4992" y1="368.5" x2="402.501" y2="-102.5" gradientUnits="userSpaceOnUse">
<stop stop-color="white" stop-opacity="0"/>
<stop offset="0.509215" stop-color="white"/>
<stop offset="1" stop-color="white" stop-opacity="0"/>
</linearGradient>
<linearGradient id="paint46_linear_2049_18300" x1="-67.4992" y1="368.5" x2="402.501" y2="-102.5" gradientUnits="userSpaceOnUse">
<stop stop-color="white" stop-opacity="0"/>
<stop offset="0.509215" stop-color="white"/>
<stop offset="1" stop-color="white" stop-opacity="0"/>
</linearGradient>
<linearGradient id="paint47_linear_2049_18300" x1="-67.4992" y1="368.5" x2="402.501" y2="-102.5" gradientUnits="userSpaceOnUse">
<stop stop-color="white" stop-opacity="0"/>
<stop offset="0.509215" stop-color="white"/>
<stop offset="1" stop-color="white" stop-opacity="0"/>
</linearGradient>
<linearGradient id="paint48_linear_2049_18300" x1="-67.4992" y1="368.5" x2="402.501" y2="-102.5" gradientUnits="userSpaceOnUse">
<stop stop-color="white" stop-opacity="0"/>
<stop offset="0.509215" stop-color="white"/>
<stop offset="1" stop-color="white" stop-opacity="0"/>
</linearGradient>
<linearGradient id="paint49_linear_2049_18300" x1="-67.4992" y1="368.5" x2="402.501" y2="-102.5" gradientUnits="userSpaceOnUse">
<stop stop-color="white" stop-opacity="0"/>
<stop offset="0.509215" stop-color="white"/>
<stop offset="1" stop-color="white" stop-opacity="0"/>
</linearGradient>
<linearGradient id="paint50_linear_2049_18300" x1="-67.4992" y1="368.5" x2="402.501" y2="-102.5" gradientUnits="userSpaceOnUse">
<stop stop-color="white" stop-opacity="0"/>
<stop offset="0.509215" stop-color="white"/>
<stop offset="1" stop-color="white" stop-opacity="0"/>
</linearGradient>
<linearGradient id="paint51_linear_2049_18300" x1="-67.4992" y1="368.5" x2="402.501" y2="-102.5" gradientUnits="userSpaceOnUse">
<stop stop-color="white" stop-opacity="0"/>
<stop offset="0.509215" stop-color="white"/>
<stop offset="1" stop-color="white" stop-opacity="0"/>
</linearGradient>
<linearGradient id="paint52_linear_2049_18300" x1="-67.4992" y1="368.5" x2="402.501" y2="-102.5" gradientUnits="userSpaceOnUse">
<stop stop-color="white" stop-opacity="0"/>
<stop offset="0.509215" stop-color="white"/>
<stop offset="1" stop-color="white" stop-opacity="0"/>
</linearGradient>
<linearGradient id="paint53_linear_2049_18300" x1="-67.4992" y1="368.5" x2="402.501" y2="-102.5" gradientUnits="userSpaceOnUse">
<stop stop-color="white" stop-opacity="0"/>
<stop offset="0.509215" stop-color="white"/>
<stop offset="1" stop-color="white" stop-opacity="0"/>
</linearGradient>
<linearGradient id="paint54_linear_2049_18300" x1="-67.4992" y1="368.5" x2="402.501" y2="-102.5" gradientUnits="userSpaceOnUse">
<stop stop-color="white" stop-opacity="0"/>
<stop offset="0.509215" stop-color="white"/>
<stop offset="1" stop-color="white" stop-opacity="0"/>
</linearGradient>
<linearGradient id="paint55_linear_2049_18300" x1="-67.4992" y1="368.5" x2="402.501" y2="-102.5" gradientUnits="userSpaceOnUse">
<stop stop-color="white" stop-opacity="0"/>
<stop offset="0.509215" stop-color="white"/>
<stop offset="1" stop-color="white" stop-opacity="0"/>
</linearGradient>
<linearGradient id="paint56_linear_2049_18300" x1="-67.4992" y1="368.5" x2="402.501" y2="-102.5" gradientUnits="userSpaceOnUse">
<stop stop-color="white" stop-opacity="0"/>
<stop offset="0.509215" stop-color="white"/>
<stop offset="1" stop-color="white" stop-opacity="0"/>
</linearGradient>
<linearGradient id="paint57_linear_2049_18300" x1="-67.4992" y1="368.5" x2="402.501" y2="-102.5" gradientUnits="userSpaceOnUse">
<stop stop-color="white" stop-opacity="0"/>
<stop offset="0.509215" stop-color="white"/>
<stop offset="1" stop-color="white" stop-opacity="0"/>
</linearGradient>
<linearGradient id="paint58_linear_2049_18300" x1="-67.4992" y1="368.5" x2="402.501" y2="-102.5" gradientUnits="userSpaceOnUse">
<stop stop-color="white" stop-opacity="0"/>
<stop offset="0.509215" stop-color="white"/>
<stop offset="1" stop-color="white" stop-opacity="0"/>
</linearGradient>
<linearGradient id="paint59_linear_2049_18300" x1="-67.4992" y1="368.5" x2="402.501" y2="-102.5" gradientUnits="userSpaceOnUse">
<stop stop-color="white" stop-opacity="0"/>
<stop offset="0.509215" stop-color="white"/>
<stop offset="1" stop-color="white" stop-opacity="0"/>
</linearGradient>
<linearGradient id="paint60_linear_2049_18300" x1="-67.4992" y1="368.5" x2="402.501" y2="-102.5" gradientUnits="userSpaceOnUse">
<stop stop-color="white" stop-opacity="0"/>
<stop offset="0.509215" stop-color="white"/>
<stop offset="1" stop-color="white" stop-opacity="0"/>
</linearGradient>
<linearGradient id="paint61_linear_2049_18300" x1="-67.4992" y1="368.5" x2="402.501" y2="-102.5" gradientUnits="userSpaceOnUse">
<stop stop-color="white" stop-opacity="0"/>
<stop offset="0.509215" stop-color="white"/>
<stop offset="1" stop-color="white" stop-opacity="0"/>
</linearGradient>
<linearGradient id="paint62_linear_2049_18300" x1="-67.4992" y1="368.5" x2="402.501" y2="-102.5" gradientUnits="userSpaceOnUse">
<stop stop-color="white" stop-opacity="0"/>
<stop offset="0.509215" stop-color="white"/>
<stop offset="1" stop-color="white" stop-opacity="0"/>
</linearGradient>
<linearGradient id="paint63_linear_2049_18300" x1="-67.4992" y1="368.5" x2="402.501" y2="-102.5" gradientUnits="userSpaceOnUse">
<stop stop-color="white" stop-opacity="0"/>
<stop offset="0.509215" stop-color="white"/>
<stop offset="1" stop-color="white" stop-opacity="0"/>
</linearGradient>
<linearGradient id="paint64_linear_2049_18300" x1="-67.4992" y1="368.5" x2="402.501" y2="-102.5" gradientUnits="userSpaceOnUse">
<stop stop-color="white" stop-opacity="0"/>
<stop offset="0.509215" stop-color="white"/>
<stop offset="1" stop-color="white" stop-opacity="0"/>
</linearGradient>
<linearGradient id="paint65_linear_2049_18300" x1="-67.4992" y1="368.5" x2="402.501" y2="-102.5" gradientUnits="userSpaceOnUse">
<stop stop-color="white" stop-opacity="0"/>
<stop offset="0.509215" stop-color="white"/>
<stop offset="1" stop-color="white" stop-opacity="0"/>
</linearGradient>
<linearGradient id="paint66_linear_2049_18300" x1="-67.4992" y1="368.5" x2="402.501" y2="-102.5" gradientUnits="userSpaceOnUse">
<stop stop-color="white" stop-opacity="0"/>
<stop offset="0.509215" stop-color="white"/>
<stop offset="1" stop-color="white" stop-opacity="0"/>
</linearGradient>
<linearGradient id="paint67_linear_2049_18300" x1="-67.4992" y1="368.5" x2="402.501" y2="-102.5" gradientUnits="userSpaceOnUse">
<stop stop-color="white" stop-opacity="0"/>
<stop offset="0.509215" stop-color="white"/>
<stop offset="1" stop-color="white" stop-opacity="0"/>
</linearGradient>
<linearGradient id="paint68_linear_2049_18300" x1="-67.4992" y1="368.5" x2="402.501" y2="-102.5" gradientUnits="userSpaceOnUse">
<stop stop-color="white" stop-opacity="0"/>
<stop offset="0.509215" stop-color="white"/>
<stop offset="1" stop-color="white" stop-opacity="0"/>
</linearGradient>
<linearGradient id="paint69_linear_2049_18300" x1="-67.4992" y1="368.5" x2="402.501" y2="-102.5" gradientUnits="userSpaceOnUse">
<stop stop-color="white" stop-opacity="0"/>
<stop offset="0.509215" stop-color="white"/>
<stop offset="1" stop-color="white" stop-opacity="0"/>
</linearGradient>
<linearGradient id="paint70_linear_2049_18300" x1="-67.4992" y1="368.5" x2="402.501" y2="-102.5" gradientUnits="userSpaceOnUse">
<stop stop-color="white" stop-opacity="0"/>
<stop offset="0.509215" stop-color="white"/>
<stop offset="1" stop-color="white" stop-opacity="0"/>
</linearGradient>
<linearGradient id="paint71_linear_2049_18300" x1="-67.4992" y1="368.5" x2="402.501" y2="-102.5" gradientUnits="userSpaceOnUse">
<stop stop-color="white" stop-opacity="0"/>
<stop offset="0.509215" stop-color="white"/>
<stop offset="1" stop-color="white" stop-opacity="0"/>
</linearGradient>
<linearGradient id="paint72_linear_2049_18300" x1="-67.4992" y1="368.5" x2="402.501" y2="-102.5" gradientUnits="userSpaceOnUse">
<stop stop-color="white" stop-opacity="0"/>
<stop offset="0.509215" stop-color="white"/>
<stop offset="1" stop-color="white" stop-opacity="0"/>
</linearGradient>
<linearGradient id="paint73_linear_2049_18300" x1="-67.4992" y1="368.5" x2="402.501" y2="-102.5" gradientUnits="userSpaceOnUse">
<stop stop-color="white" stop-opacity="0"/>
<stop offset="0.509215" stop-color="white"/>
<stop offset="1" stop-color="white" stop-opacity="0"/>
</linearGradient>
<linearGradient id="paint74_linear_2049_18300" x1="-67.4992" y1="368.5" x2="402.501" y2="-102.5" gradientUnits="userSpaceOnUse">
<stop stop-color="white" stop-opacity="0"/>
<stop offset="0.509215" stop-color="white"/>
<stop offset="1" stop-color="white" stop-opacity="0"/>
</linearGradient>
<linearGradient id="paint75_linear_2049_18300" x1="-67.4992" y1="368.5" x2="402.501" y2="-102.5" gradientUnits="userSpaceOnUse">
<stop stop-color="white" stop-opacity="0"/>
<stop offset="0.509215" stop-color="white"/>
<stop offset="1" stop-color="white" stop-opacity="0"/>
</linearGradient>
<linearGradient id="paint76_linear_2049_18300" x1="-67.4992" y1="368.5" x2="402.501" y2="-102.5" gradientUnits="userSpaceOnUse">
<stop stop-color="white" stop-opacity="0"/>
<stop offset="0.509215" stop-color="white"/>
<stop offset="1" stop-color="white" stop-opacity="0"/>
</linearGradient>
<linearGradient id="paint77_linear_2049_18300" x1="-67.4992" y1="368.5" x2="402.501" y2="-102.5" gradientUnits="userSpaceOnUse">
<stop stop-color="white" stop-opacity="0"/>
<stop offset="0.509215" stop-color="white"/>
<stop offset="1" stop-color="white" stop-opacity="0"/>
</linearGradient>
<linearGradient id="paint78_linear_2049_18300" x1="-67.4992" y1="368.5" x2="402.501" y2="-102.5" gradientUnits="userSpaceOnUse">
<stop stop-color="white" stop-opacity="0"/>
<stop offset="0.509215" stop-color="white"/>
<stop offset="1" stop-color="white" stop-opacity="0"/>
</linearGradient>
<linearGradient id="paint79_linear_2049_18300" x1="-67.4992" y1="368.5" x2="402.501" y2="-102.5" gradientUnits="userSpaceOnUse">
<stop stop-color="white" stop-opacity="0"/>
<stop offset="0.509215" stop-color="white"/>
<stop offset="1" stop-color="white" stop-opacity="0"/>
</linearGradient>
<linearGradient id="paint80_linear_2049_18300" x1="-67.4992" y1="368.5" x2="402.501" y2="-102.5" gradientUnits="userSpaceOnUse">
<stop stop-color="white" stop-opacity="0"/>
<stop offset="0.509215" stop-color="white"/>
<stop offset="1" stop-color="white" stop-opacity="0"/>
</linearGradient>
<linearGradient id="paint81_linear_2049_18300" x1="-67.4992" y1="368.5" x2="402.501" y2="-102.5" gradientUnits="userSpaceOnUse">
<stop stop-color="white" stop-opacity="0"/>
<stop offset="0.509215" stop-color="white"/>
<stop offset="1" stop-color="white" stop-opacity="0"/>
</linearGradient>
<linearGradient id="paint82_linear_2049_18300" x1="-67.4992" y1="368.5" x2="402.501" y2="-102.5" gradientUnits="userSpaceOnUse">
<stop stop-color="white" stop-opacity="0"/>
<stop offset="0.509215" stop-color="white"/>
<stop offset="1" stop-color="white" stop-opacity="0"/>
</linearGradient>
<linearGradient id="paint83_linear_2049_18300" x1="-67.4992" y1="368.5" x2="402.501" y2="-102.5" gradientUnits="userSpaceOnUse">
<stop stop-color="white" stop-opacity="0"/>
<stop offset="0.509215" stop-color="white"/>
<stop offset="1" stop-color="white" stop-opacity="0"/>
</linearGradient>
<linearGradient id="paint84_linear_2049_18300" x1="-67.4992" y1="368.5" x2="402.501" y2="-102.5" gradientUnits="userSpaceOnUse">
<stop stop-color="white" stop-opacity="0"/>
<stop offset="0.509215" stop-color="white"/>
<stop offset="1" stop-color="white" stop-opacity="0"/>
</linearGradient>
<linearGradient id="paint85_linear_2049_18300" x1="-67.4992" y1="368.5" x2="402.501" y2="-102.5" gradientUnits="userSpaceOnUse">
<stop stop-color="white" stop-opacity="0"/>
<stop offset="0.509215" stop-color="white"/>
<stop offset="1" stop-color="white" stop-opacity="0"/>
</linearGradient>
<linearGradient id="paint86_linear_2049_18300" x1="-67.4992" y1="368.5" x2="402.501" y2="-102.5" gradientUnits="userSpaceOnUse">
<stop stop-color="white" stop-opacity="0"/>
<stop offset="0.509215" stop-color="white"/>
<stop offset="1" stop-color="white" stop-opacity="0"/>
</linearGradient>
<linearGradient id="paint87_linear_2049_18300" x1="-67.4992" y1="368.5" x2="402.501" y2="-102.5" gradientUnits="userSpaceOnUse">
<stop stop-color="white" stop-opacity="0"/>
<stop offset="0.509215" stop-color="white"/>
<stop offset="1" stop-color="white" stop-opacity="0"/>
</linearGradient>
<linearGradient id="paint88_linear_2049_18300" x1="-67.4992" y1="368.5" x2="402.501" y2="-102.5" gradientUnits="userSpaceOnUse">
<stop stop-color="white" stop-opacity="0"/>
<stop offset="0.509215" stop-color="white"/>
<stop offset="1" stop-color="white" stop-opacity="0"/>
</linearGradient>
<linearGradient id="paint89_linear_2049_18300" x1="-67.4992" y1="368.5" x2="402.501" y2="-102.5" gradientUnits="userSpaceOnUse">
<stop stop-color="white" stop-opacity="0"/>
<stop offset="0.509215" stop-color="white"/>
<stop offset="1" stop-color="white" stop-opacity="0"/>
</linearGradient>
<linearGradient id="paint90_linear_2049_18300" x1="-67.4992" y1="368.5" x2="402.501" y2="-102.5" gradientUnits="userSpaceOnUse">
<stop stop-color="white" stop-opacity="0"/>
<stop offset="0.509215" stop-color="white"/>
<stop offset="1" stop-color="white" stop-opacity="0"/>
</linearGradient>
<linearGradient id="paint91_linear_2049_18300" x1="-67.4992" y1="368.5" x2="402.501" y2="-102.5" gradientUnits="userSpaceOnUse">
<stop stop-color="white" stop-opacity="0"/>
<stop offset="0.509215" stop-color="white"/>
<stop offset="1" stop-color="white" stop-opacity="0"/>
</linearGradient>
<linearGradient id="paint92_linear_2049_18300" x1="-67.4992" y1="368.5" x2="402.501" y2="-102.5" gradientUnits="userSpaceOnUse">
<stop stop-color="white" stop-opacity="0"/>
<stop offset="0.509215" stop-color="white"/>
<stop offset="1" stop-color="white" stop-opacity="0"/>
</linearGradient>
<linearGradient id="paint93_linear_2049_18300" x1="-67.4992" y1="368.5" x2="402.501" y2="-102.5" gradientUnits="userSpaceOnUse">
<stop stop-color="white" stop-opacity="0"/>
<stop offset="0.509215" stop-color="white"/>
<stop offset="1" stop-color="white" stop-opacity="0"/>
</linearGradient>
<linearGradient id="paint94_linear_2049_18300" x1="-67.4992" y1="368.5" x2="402.501" y2="-102.5" gradientUnits="userSpaceOnUse">
<stop stop-color="white" stop-opacity="0"/>
<stop offset="0.509215" stop-color="white"/>
<stop offset="1" stop-color="white" stop-opacity="0"/>
</linearGradient>
<linearGradient id="paint95_linear_2049_18300" x1="-67.4992" y1="368.5" x2="402.501" y2="-102.5" gradientUnits="userSpaceOnUse">
<stop stop-color="white" stop-opacity="0"/>
<stop offset="0.509215" stop-color="white"/>
<stop offset="1" stop-color="white" stop-opacity="0"/>
</linearGradient>
<linearGradient id="paint96_linear_2049_18300" x1="-67.4992" y1="368.5" x2="402.501" y2="-102.5" gradientUnits="userSpaceOnUse">
<stop stop-color="white" stop-opacity="0"/>
<stop offset="0.509215" stop-color="white"/>
<stop offset="1" stop-color="white" stop-opacity="0"/>
</linearGradient>
<linearGradient id="paint97_linear_2049_18300" x1="-67.4992" y1="368.5" x2="402.501" y2="-102.5" gradientUnits="userSpaceOnUse">
<stop stop-color="white" stop-opacity="0"/>
<stop offset="0.509215" stop-color="white"/>
<stop offset="1" stop-color="white" stop-opacity="0"/>
</linearGradient>
<linearGradient id="paint98_linear_2049_18300" x1="-67.4992" y1="368.5" x2="402.501" y2="-102.5" gradientUnits="userSpaceOnUse">
<stop stop-color="white" stop-opacity="0"/>
<stop offset="0.509215" stop-color="white"/>
<stop offset="1" stop-color="white" stop-opacity="0"/>
</linearGradient>
<linearGradient id="paint99_linear_2049_18300" x1="-67.4992" y1="368.5" x2="402.501" y2="-102.5" gradientUnits="userSpaceOnUse">
<stop stop-color="white" stop-opacity="0"/>
<stop offset="0.509215" stop-color="white"/>
<stop offset="1" stop-color="white" stop-opacity="0"/>
</linearGradient>
<linearGradient id="paint100_linear_2049_18300" x1="-67.4992" y1="368.5" x2="402.501" y2="-102.5" gradientUnits="userSpaceOnUse">
<stop stop-color="white" stop-opacity="0"/>
<stop offset="0.509215" stop-color="white"/>
<stop offset="1" stop-color="white" stop-opacity="0"/>
</linearGradient>
<linearGradient id="paint101_linear_2049_18300" x1="-67.4992" y1="368.5" x2="402.501" y2="-102.5" gradientUnits="userSpaceOnUse">
<stop stop-color="white" stop-opacity="0"/>
<stop offset="0.509215" stop-color="white"/>
<stop offset="1" stop-color="white" stop-opacity="0"/>
</linearGradient>
<linearGradient id="paint102_linear_2049_18300" x1="-67.4992" y1="368.5" x2="402.501" y2="-102.5" gradientUnits="userSpaceOnUse">
<stop stop-color="white" stop-opacity="0"/>
<stop offset="0.509215" stop-color="white"/>
<stop offset="1" stop-color="white" stop-opacity="0"/>
</linearGradient>
<linearGradient id="paint103_linear_2049_18300" x1="-67.4992" y1="368.5" x2="402.501" y2="-102.5" gradientUnits="userSpaceOnUse">
<stop stop-color="white" stop-opacity="0"/>
<stop offset="0.509215" stop-color="white"/>
<stop offset="1" stop-color="white" stop-opacity="0"/>
</linearGradient>
<linearGradient id="paint104_linear_2049_18300" x1="-67.4992" y1="368.5" x2="402.501" y2="-102.5" gradientUnits="userSpaceOnUse">
<stop stop-color="white" stop-opacity="0"/>
<stop offset="0.509215" stop-color="white"/>
<stop offset="1" stop-color="white" stop-opacity="0"/>
</linearGradient>
<linearGradient id="paint105_linear_2049_18300" x1="-67.4992" y1="368.5" x2="402.501" y2="-102.5" gradientUnits="userSpaceOnUse">
<stop stop-color="white" stop-opacity="0"/>
<stop offset="0.509215" stop-color="white"/>
<stop offset="1" stop-color="white" stop-opacity="0"/>
</linearGradient>
<linearGradient id="paint106_linear_2049_18300" x1="-67.4992" y1="368.5" x2="402.501" y2="-102.5" gradientUnits="userSpaceOnUse">
<stop stop-color="white" stop-opacity="0"/>
<stop offset="0.509215" stop-color="white"/>
<stop offset="1" stop-color="white" stop-opacity="0"/>
</linearGradient>
<linearGradient id="paint107_linear_2049_18300" x1="-67.4992" y1="368.5" x2="402.501" y2="-102.5" gradientUnits="userSpaceOnUse">
<stop stop-color="white" stop-opacity="0"/>
<stop offset="0.509215" stop-color="white"/>
<stop offset="1" stop-color="white" stop-opacity="0"/>
</linearGradient>
<linearGradient id="paint108_linear_2049_18300" x1="-67.4992" y1="368.5" x2="402.501" y2="-102.5" gradientUnits="userSpaceOnUse">
<stop stop-color="white" stop-opacity="0"/>
<stop offset="0.509215" stop-color="white"/>
<stop offset="1" stop-color="white" stop-opacity="0"/>
</linearGradient>
<linearGradient id="paint109_linear_2049_18300" x1="-67.4992" y1="368.5" x2="402.501" y2="-102.5" gradientUnits="userSpaceOnUse">
<stop stop-color="white" stop-opacity="0"/>
<stop offset="0.509215" stop-color="white"/>
<stop offset="1" stop-color="white" stop-opacity="0"/>
</linearGradient>
<linearGradient id="paint110_linear_2049_18300" x1="-67.4992" y1="368.5" x2="402.501" y2="-102.5" gradientUnits="userSpaceOnUse">
<stop stop-color="white" stop-opacity="0"/>
<stop offset="0.509215" stop-color="white"/>
<stop offset="1" stop-color="white" stop-opacity="0"/>
</linearGradient>
<linearGradient id="paint111_linear_2049_18300" x1="-67.4992" y1="368.5" x2="402.501" y2="-102.5" gradientUnits="userSpaceOnUse">
<stop stop-color="white" stop-opacity="0"/>
<stop offset="0.509215" stop-color="white"/>
<stop offset="1" stop-color="white" stop-opacity="0"/>
</linearGradient>
<linearGradient id="paint112_linear_2049_18300" x1="-67.4992" y1="368.5" x2="402.501" y2="-102.5" gradientUnits="userSpaceOnUse">
<stop stop-color="white" stop-opacity="0"/>
<stop offset="0.509215" stop-color="white"/>
<stop offset="1" stop-color="white" stop-opacity="0"/>
</linearGradient>
<linearGradient id="paint113_linear_2049_18300" x1="-67.4992" y1="368.5" x2="402.501" y2="-102.5" gradientUnits="userSpaceOnUse">
<stop stop-color="white" stop-opacity="0"/>
<stop offset="0.509215" stop-color="white"/>
<stop offset="1" stop-color="white" stop-opacity="0"/>
</linearGradient>
<linearGradient id="paint114_linear_2049_18300" x1="-67.4992" y1="368.5" x2="402.501" y2="-102.5" gradientUnits="userSpaceOnUse">
<stop stop-color="white" stop-opacity="0"/>
<stop offset="0.509215" stop-color="white"/>
<stop offset="1" stop-color="white" stop-opacity="0"/>
</linearGradient>
<linearGradient id="paint115_linear_2049_18300" x1="-67.4992" y1="368.5" x2="402.501" y2="-102.5" gradientUnits="userSpaceOnUse">
<stop stop-color="white" stop-opacity="0"/>
<stop offset="0.509215" stop-color="white"/>
<stop offset="1" stop-color="white" stop-opacity="0"/>
</linearGradient>
<linearGradient id="paint116_linear_2049_18300" x1="-67.4992" y1="368.5" x2="402.501" y2="-102.5" gradientUnits="userSpaceOnUse">
<stop stop-color="white" stop-opacity="0"/>
<stop offset="0.509215" stop-color="white"/>
<stop offset="1" stop-color="white" stop-opacity="0"/>
</linearGradient>
<linearGradient id="paint117_linear_2049_18300" x1="-67.4992" y1="368.5" x2="402.501" y2="-102.5" gradientUnits="userSpaceOnUse">
<stop stop-color="white" stop-opacity="0"/>
<stop offset="0.509215" stop-color="white"/>
<stop offset="1" stop-color="white" stop-opacity="0"/>
</linearGradient>
<linearGradient id="paint118_linear_2049_18300" x1="-67.4992" y1="368.5" x2="402.501" y2="-102.5" gradientUnits="userSpaceOnUse">
<stop stop-color="white" stop-opacity="0"/>
<stop offset="0.509215" stop-color="white"/>
<stop offset="1" stop-color="white" stop-opacity="0"/>
</linearGradient>
<linearGradient id="paint119_linear_2049_18300" x1="-67.4992" y1="368.5" x2="402.501" y2="-102.5" gradientUnits="userSpaceOnUse">
<stop stop-color="white" stop-opacity="0"/>
<stop offset="0.509215" stop-color="white"/>
<stop offset="1" stop-color="white" stop-opacity="0"/>
</linearGradient>
<linearGradient id="paint120_linear_2049_18300" x1="-67.4992" y1="368.5" x2="402.501" y2="-102.5" gradientUnits="userSpaceOnUse">
<stop stop-color="white" stop-opacity="0"/>
<stop offset="0.509215" stop-color="white"/>
<stop offset="1" stop-color="white" stop-opacity="0"/>
</linearGradient>
<linearGradient id="paint121_linear_2049_18300" x1="-67.4992" y1="368.5" x2="402.501" y2="-102.5" gradientUnits="userSpaceOnUse">
<stop stop-color="white" stop-opacity="0"/>
<stop offset="0.509215" stop-color="white"/>
<stop offset="1" stop-color="white" stop-opacity="0"/>
</linearGradient>
<linearGradient id="paint122_linear_2049_18300" x1="-67.4992" y1="368.5" x2="402.501" y2="-102.5" gradientUnits="userSpaceOnUse">
<stop stop-color="white" stop-opacity="0"/>
<stop offset="0.509215" stop-color="white"/>
<stop offset="1" stop-color="white" stop-opacity="0"/>
</linearGradient>
<linearGradient id="paint123_linear_2049_18300" x1="-67.4992" y1="368.5" x2="402.501" y2="-102.5" gradientUnits="userSpaceOnUse">
<stop stop-color="white" stop-opacity="0"/>
<stop offset="0.509215" stop-color="white"/>
<stop offset="1" stop-color="white" stop-opacity="0"/>
</linearGradient>
<linearGradient id="paint124_linear_2049_18300" x1="-67.4992" y1="368.5" x2="402.501" y2="-102.5" gradientUnits="userSpaceOnUse">
<stop stop-color="white" stop-opacity="0"/>
<stop offset="0.509215" stop-color="white"/>
<stop offset="1" stop-color="white" stop-opacity="0"/>
</linearGradient>
<linearGradient id="paint125_linear_2049_18300" x1="-67.4992" y1="368.5" x2="402.501" y2="-102.5" gradientUnits="userSpaceOnUse">
<stop stop-color="white" stop-opacity="0"/>
<stop offset="0.509215" stop-color="white"/>
<stop offset="1" stop-color="white" stop-opacity="0"/>
</linearGradient>
<linearGradient id="paint126_linear_2049_18300" x1="-67.4992" y1="368.5" x2="402.501" y2="-102.5" gradientUnits="userSpaceOnUse">
<stop stop-color="white" stop-opacity="0"/>
<stop offset="0.509215" stop-color="white"/>
<stop offset="1" stop-color="white" stop-opacity="0"/>
</linearGradient>
<linearGradient id="paint127_linear_2049_18300" x1="-67.4992" y1="368.5" x2="402.501" y2="-102.5" gradientUnits="userSpaceOnUse">
<stop stop-color="white" stop-opacity="0"/>
<stop offset="0.509215" stop-color="white"/>
<stop offset="1" stop-color="white" stop-opacity="0"/>
</linearGradient>
<linearGradient id="paint128_linear_2049_18300" x1="-67.4992" y1="368.5" x2="402.501" y2="-102.5" gradientUnits="userSpaceOnUse">
<stop stop-color="white" stop-opacity="0"/>
<stop offset="0.509215" stop-color="white"/>
<stop offset="1" stop-color="white" stop-opacity="0"/>
</linearGradient>
<linearGradient id="paint129_linear_2049_18300" x1="-67.4992" y1="368.5" x2="402.501" y2="-102.5" gradientUnits="userSpaceOnUse">
<stop stop-color="white" stop-opacity="0"/>
<stop offset="0.509215" stop-color="white"/>
<stop offset="1" stop-color="white" stop-opacity="0"/>
</linearGradient>
<linearGradient id="paint130_linear_2049_18300" x1="-67.4992" y1="368.5" x2="402.501" y2="-102.5" gradientUnits="userSpaceOnUse">
<stop stop-color="white" stop-opacity="0"/>
<stop offset="0.509215" stop-color="white"/>
<stop offset="1" stop-color="white" stop-opacity="0"/>
</linearGradient>
<linearGradient id="paint131_linear_2049_18300" x1="-67.4992" y1="368.5" x2="402.501" y2="-102.5" gradientUnits="userSpaceOnUse">
<stop stop-color="white" stop-opacity="0"/>
<stop offset="0.509215" stop-color="white"/>
<stop offset="1" stop-color="white" stop-opacity="0"/>
</linearGradient>
</defs>
</svg>
