<svg width="58" height="57" viewBox="0 0 58 57" fill="none" xmlns="http://www.w3.org/2000/svg">
<g clip-path="url(#clip0_9876_107384)">
<rect x="0.351562" width="56.95" height="56.95" rx="28.475" fill="#26344F"/>
<path d="M1.5 42.5L56 13L69.5 64.5H19.5L1.5 42.5Z" fill="#F9FAFB"/>
<path d="M27.9189 18.9684C27.8363 18.8333 27.6041 18.6232 27.0262 18.7233C26.7064 18.7783 26.3813 18.8033 26.0562 18.7883C24.8541 18.7383 23.7654 18.203 23.0069 17.3775C22.3362 16.6522 21.9234 15.7067 21.9182 14.6861C21.9182 14.1158 22.0317 13.5655 22.2639 13.0452C22.4909 12.54 22.331 12.2748 22.2175 12.1648C22.0988 12.0497 21.8202 11.8896 21.2733 12.1098C19.163 12.9702 17.8576 15.0213 18.0124 17.2175C18.1672 19.2836 19.6635 21.0495 21.6448 21.7148C22.1195 21.8749 22.6199 21.97 23.1359 21.99C23.2185 21.995 23.301 22 23.3836 22C25.112 22 26.7322 21.2096 27.7538 19.8639C28.0994 19.3986 28.0066 19.1035 27.9189 18.9684Z" fill="#D5E5FF"/>
<path d="M35.0109 42.8361C37.1235 42.8361 38.8361 41.1235 38.8361 39.0109C38.8361 36.8984 37.1235 35.1858 35.0109 35.1858C32.8984 35.1858 31.1858 36.8984 31.1858 39.0109C31.1858 41.1235 32.8984 42.8361 35.0109 42.8361Z" fill="#FFB525"/>
<path d="M35.0109 45C34.7104 45 34.4645 44.776 34.4645 44.4754V44.4317C34.4645 44.1311 34.7104 43.8852 35.0109 43.8852C35.3115 43.8852 35.5574 44.1311 35.5574 44.4317C35.5574 44.7322 35.3115 45 35.0109 45ZM38.9126 43.459C38.7705 43.459 38.6339 43.4044 38.5246 43.3005L38.4536 43.2295C38.2404 43.0164 38.2404 42.6721 38.4536 42.459C38.6667 42.2459 39.0109 42.2459 39.224 42.459L39.2951 42.5301C39.5082 42.7432 39.5082 43.0874 39.2951 43.3005C39.1913 43.4044 39.0546 43.459 38.9126 43.459ZM31.1093 43.459C30.9672 43.459 30.8306 43.4044 30.7213 43.3005C30.5082 43.0874 30.5082 42.7432 30.7213 42.5301L30.7923 42.459C31.0055 42.2459 31.3497 42.2459 31.5628 42.459C31.776 42.6721 31.776 43.0164 31.5628 43.2295L31.4918 43.3005C31.388 43.4044 31.2459 43.459 31.1093 43.459ZM40.4754 39.5574H40.4317C40.1311 39.5574 39.8852 39.3115 39.8852 39.0109C39.8852 38.7104 40.1311 38.4645 40.4317 38.4645C40.7322 38.4645 41 38.7104 41 39.0109C41 39.3115 40.776 39.5574 40.4754 39.5574ZM29.5902 39.5574H29.5464C29.2459 39.5574 29 39.3115 29 39.0109C29 38.7104 29.2459 38.4645 29.5464 38.4645C29.847 38.4645 30.1148 38.7104 30.1148 39.0109C30.1148 39.3115 29.8907 39.5574 29.5902 39.5574ZM38.8415 35.7268C38.6995 35.7268 38.5628 35.6721 38.4536 35.5683C38.2404 35.3552 38.2404 35.0109 38.4536 34.7978L38.5246 34.7268C38.7377 34.5137 39.082 34.5137 39.2951 34.7268C39.5082 34.9399 39.5082 35.2842 39.2951 35.4973L39.224 35.5683C39.1202 35.6721 38.9836 35.7268 38.8415 35.7268ZM31.1803 35.7268C31.0383 35.7268 30.9016 35.6721 30.7923 35.5683L30.7213 35.4918C30.5082 35.2787 30.5082 34.9344 30.7213 34.7213C30.9344 34.5082 31.2787 34.5082 31.4918 34.7213L31.5628 34.7923C31.776 35.0055 31.776 35.3497 31.5628 35.5628C31.459 35.6721 31.3169 35.7268 31.1803 35.7268ZM35.0109 34.1148C34.7104 34.1148 34.4645 33.8907 34.4645 33.5902V33.5464C34.4645 33.2459 34.7104 33 35.0109 33C35.3115 33 35.5574 33.2459 35.5574 33.5464C35.5574 33.847 35.3115 34.1148 35.0109 34.1148Z" fill="#FFB525"/>
</g>
<defs>
<clipPath id="clip0_9876_107384">
<rect x="0.351562" width="56.95" height="56.95" rx="28.475" fill="white"/>
</clipPath>
</defs>
</svg>
