<svg width="14" height="15" viewBox="0 0 14 15" fill="none" xmlns="http://www.w3.org/2000/svg">
<path d="M13.3202 8.97717C12.4403 12.5066 8.8655 14.6546 5.33564 13.7744C1.80725 12.8945 -0.3407 9.31955 0.539593 5.79039C1.41911 2.26056 4.99387 0.112448 8.52264 0.992354C12.0522 1.87226 14.2001 5.44763 13.3201 8.97724L13.3201 8.97717H13.3202Z" fill="#F7931A"/>
<path d="M9.84601 6.43967C9.97714 5.56292 9.30964 5.09163 8.39689 4.77724L8.693 3.5896L7.97004 3.40946L7.6818 4.56583C7.49174 4.51843 7.29656 4.47376 7.10257 4.42948L7.39291 3.26548L6.67041 3.08534L6.37414 4.27259C6.21687 4.23678 6.06239 4.20139 5.91252 4.1641L5.91336 4.16036L4.91639 3.91141L4.72408 4.68356C4.72408 4.68356 5.26045 4.80651 5.24914 4.81408C5.5419 4.88715 5.59484 5.08094 5.58605 5.23455L5.24876 6.58755C5.26892 6.59267 5.29506 6.60007 5.32392 6.61167C5.2998 6.60568 5.27413 6.59914 5.2475 6.59276L4.77473 8.48812C4.73896 8.57706 4.64814 8.71054 4.44346 8.65985C4.45071 8.67035 3.91801 8.52872 3.91801 8.52872L3.55908 9.35627L4.49988 9.5908C4.67491 9.63469 4.84642 9.68061 5.01532 9.7238L4.71616 10.9251L5.43827 11.1052L5.73453 9.91669C5.93181 9.97024 6.12325 10.0196 6.31067 10.0662L6.01541 11.2491L6.73839 11.4293L7.03752 10.2302C8.2703 10.4636 9.19726 10.3695 9.58742 9.25444C9.90182 8.3567 9.57177 7.83888 8.92321 7.5012C9.39559 7.39226 9.7514 7.08157 9.84627 6.43977L9.84604 6.43961L9.84601 6.43967ZM8.19424 8.75588C7.97082 9.65363 6.45929 9.16833 5.96923 9.04664L6.36622 7.45518C6.85625 7.57752 8.42774 7.81962 8.19427 8.75588H8.19424ZM8.41782 6.42666C8.21401 7.24326 6.95595 6.82839 6.54785 6.72666L6.90777 5.2833C7.31588 5.38503 8.63014 5.5749 8.41789 6.42666H8.41782Z" fill="white"/>
</svg>
