<svg width="38" height="33" viewBox="0 0 38 33" fill="none" xmlns="http://www.w3.org/2000/svg">
<path fill-rule="evenodd" clip-rule="evenodd" d="M28.9254 4.79217H31.194C34.9751 4.79217 37.8109 7.66747 38 11.3095V25.4944C38 29.3281 34.9751 32.2034 31.3831 32.2034H6.61692C2.83582 32.2034 0 29.1364 0 25.4944V11.3095C0 7.66747 2.83582 4.79217 6.61692 4.79217H8.69652L10.398 2.49193C11.7214 0.958434 13.4229 0 15.5025 0H22.3085C24.199 0 26.0896 0.958434 27.2239 2.49193L28.9254 4.79217ZM25.1446 17.6352C25.1446 21.1288 22.3514 23.9609 18.9058 23.9609C15.4602 23.9609 12.667 21.1288 12.667 17.6352C12.667 14.1417 15.4602 11.3096 18.9058 11.3096C22.3514 11.3096 25.1446 14.1417 25.1446 17.6352Z" fill="#9DA4AE"/>
</svg>
