<svg width="23" height="23" viewBox="0 0 23 23" fill="none" xmlns="http://www.w3.org/2000/svg">
<path d="M11.13 0.655241C11.13 0.655241 17.5238 0.369344 20.9136 6.7731H10.586C10.586 6.7731 8.63693 6.7105 6.97202 9.06653C6.49376 10.0554 5.97968 11.0741 6.55658 13.0816C5.72553 11.6787 2.14453 5.46558 2.14453 5.46558C2.14453 5.46558 4.67037 0.908404 11.1299 0.655241H11.13Z" fill="#EF3F36"/>
<path d="M20.579 16.9119C20.579 16.9119 17.6287 22.574 10.3711 22.294C11.2678 20.7482 15.5363 13.3824 15.5363 13.3824C15.5363 13.3824 16.5676 11.7323 15.351 9.11717C14.7322 8.20873 14.1015 7.25859 12.0689 6.75218C13.704 6.73738 20.8929 6.75218 20.8929 6.75218C20.8929 6.75218 23.5861 11.2111 20.579 16.9119Z" fill="#FCD900"/>
<path d="M1.72119 16.9561C1.72119 16.9561 -1.72535 11.5798 2.1486 5.45605C3.04238 7.00193 7.31088 14.3678 7.31088 14.3678C7.31088 14.3678 8.23158 16.0834 11.1101 16.3395C12.2072 16.2591 13.349 16.1906 14.8078 14.6924C14.0036 16.1102 10.3956 22.3055 10.3956 22.3055C10.3956 22.3055 5.17061 22.4008 1.7211 16.9561H1.72119Z" fill="#61BC5B"/>
<path d="M10.3672 22.3469L11.8199 16.3066C11.8199 16.3066 13.4162 16.1814 14.7554 14.719C13.9243 16.1755 10.3672 22.3469 10.3672 22.3469Z" fill="#5AB055"/>
<path d="M6.26172 11.5677C6.26172 8.90504 8.42891 6.74561 11.1012 6.74561C13.7734 6.74561 15.9406 8.90504 15.9406 11.5677C15.9406 14.2305 13.7734 16.3899 11.1012 16.3899C8.42891 16.3869 6.26172 14.2305 6.26172 11.5677Z" fill="white"/>
<path d="M7.07422 11.5695C7.07422 9.35349 8.87674 7.55444 11.1037 7.55444C13.3276 7.55444 15.1331 9.35053 15.1331 11.5695C15.1331 13.7855 13.3307 15.5846 11.1037 15.5846C8.87971 15.5846 7.07422 13.7855 7.07422 11.5695Z" fill="url(#paint0_linear_1707_3524)"/>
<path d="M20.8904 6.75521L14.909 8.5036C14.909 8.5036 14.0063 7.18406 12.0664 6.75521C13.7493 6.74624 20.8904 6.75521 20.8904 6.75521Z" fill="#EACA05"/>
<path d="M6.44003 12.861C5.59998 11.4105 2.14453 5.46533 2.14453 5.46533L6.57449 9.83183C6.57449 9.83183 6.12008 10.7641 6.29054 12.0985L6.43994 12.861H6.44003Z" fill="#DF3A32"/>
<defs>
<linearGradient id="paint0_linear_1707_3524" x1="11.1035" y1="7.61114" x2="11.1035" y2="15.3429" gradientUnits="userSpaceOnUse">
<stop stop-color="#86BBE5"/>
<stop offset="1" stop-color="#1072BA"/>
</linearGradient>
</defs>
</svg>
