<svg width="14" height="14" viewBox="0 0 14 14" fill="none" xmlns="http://www.w3.org/2000/svg">
<g clip-path="url(#clip0_3417_567)">
<path d="M7 14.0006C10.866 14.0006 14 10.8665 14 7.00055C14 3.13456 10.866 0.000549316 7 0.000549316C3.13401 0.000549316 0 3.13456 0 7.00055C0 10.8665 3.13401 14.0006 7 14.0006Z" fill="#F0F0F0"/>
<path d="M6.69556 7.0005H13.9999C13.9999 6.36869 13.9157 5.75663 13.7587 5.1744H6.69556V7.0005Z" fill="#D80027"/>
<path d="M6.69556 3.34836H12.9725C12.544 2.64913 11.9961 2.03108 11.3573 1.52226H6.69556V3.34836Z" fill="#D80027"/>
<path d="M6.99997 14.0005C8.6474 14.0005 10.1616 13.4311 11.3574 12.4788H2.64258C3.83832 13.4311 5.35254 14.0005 6.99997 14.0005Z" fill="#D80027"/>
<path d="M1.02748 10.6527H12.9727C13.3167 10.0914 13.5835 9.47776 13.7589 8.8266H0.241211C0.416676 9.47776 0.683469 10.0914 1.02748 10.6527V10.6527Z" fill="#D80027"/>
<path d="M3.24253 1.0937H3.88043L3.28707 1.52477L3.51373 2.22228L2.92039 1.79121L2.32706 2.22228L2.52284 1.61971C2.00041 2.05489 1.54252 2.56474 1.16517 3.13283H1.36957L0.991867 3.40723C0.933023 3.50539 0.876586 3.60511 0.8225 3.70631L1.00286 4.26142L0.666367 4.01694C0.582723 4.19415 0.506215 4.37536 0.437445 4.56034L0.636152 5.17196H1.36957L0.776207 5.60304L1.00286 6.30055L0.409527 5.86948L0.0541133 6.12771C0.0185391 6.41367 0 6.70494 0 7.00055H7C7 3.13458 7 2.67882 7 0.000549316C5.61717 0.000549316 4.32811 0.401682 3.24253 1.0937V1.0937ZM3.51373 6.30055L2.92039 5.86948L2.32706 6.30055L2.55371 5.60304L1.96036 5.17196H2.69377L2.92039 4.47445L3.14702 5.17196H3.88043L3.28707 5.60304L3.51373 6.30055ZM3.28707 3.56391L3.51373 4.26142L2.92039 3.83034L2.32706 4.26142L2.55371 3.56391L1.96036 3.13283H2.69377L2.92039 2.43532L3.14702 3.13283H3.88043L3.28707 3.56391ZM6.02459 6.30055L5.43126 5.86948L4.83793 6.30055L5.06458 5.60304L4.47122 5.17196H5.20464L5.43126 4.47445L5.65789 5.17196H6.3913L5.79794 5.60304L6.02459 6.30055ZM5.79794 3.56391L6.02459 4.26142L5.43126 3.83034L4.83793 4.26142L5.06458 3.56391L4.47122 3.13283H5.20464L5.43126 2.43532L5.65789 3.13283H6.3913L5.79794 3.56391ZM5.79794 1.52477L6.02459 2.22228L5.43126 1.79121L4.83793 2.22228L5.06458 1.52477L4.47122 1.0937H5.20464L5.43126 0.396186L5.65789 1.0937H6.3913L5.79794 1.52477Z" fill="#0052B4"/>
</g>
<defs>
<clipPath id="clip0_3417_567">
<rect width="14" height="14" fill="white" transform="translate(0 0.000549316)"/>
</clipPath>
</defs>
</svg>
