<svg width="14" height="14" viewBox="0 0 14 14" fill="none" xmlns="http://www.w3.org/2000/svg">
<g clip-path="url(#clip0_3417_539)">
<path d="M7.31811 0.715284C7.07993 0.68904 6.83963 0.675919 6.5984 0.675919C4.8484 0.675919 3.17009 1.37114 1.93266 2.60858C0.695222 3.84601 0 5.5242 0 7.27432C0 8.57947 0.386977 9.8551 1.11207 10.9402C1.83706 12.0254 2.86759 12.871 4.07327 13.3703C5.10146 13.7963 6.21775 13.954 7.31788 13.8334C6.70068 13.7656 6.09286 13.6105 5.51292 13.3703C4.30724 12.871 3.27671 12.0254 2.55173 10.9402C1.82663 9.8551 1.43965 8.57947 1.43965 7.27432C1.43965 5.5242 2.13487 3.84601 3.37231 2.60858C4.43881 1.54196 5.83288 0.87837 7.31811 0.715284Z" fill="#FFC048"/>
<path d="M7.31831 0.715147C7.08012 0.688903 6.83983 0.675781 6.5986 0.675781C5.54709 0.675781 4.52148 0.926736 3.60178 1.39561H5.04144C5.74978 1.03452 6.52092 0.802547 7.31831 0.715147Z" fill="#FFD473"/>
<path d="M4.2444 1.87549L2.80475 1.87549C2.49557 2.0927 2.20372 2.33757 1.93285 2.60844C1.86127 2.68014 1.79132 2.75325 1.72337 2.82776L3.16302 2.82776C3.23098 2.75325 3.3008 2.68014 3.3725 2.60844C3.64338 2.33757 3.93522 2.0927 4.2444 1.87549Z" fill="#FFD473"/>
<path d="M2.76515 3.30764L1.3255 3.30764C1.09915 3.60851 0.899743 3.92718 0.728925 4.25991H2.16858C2.33939 3.92718 2.5388 3.60851 2.76515 3.30764Z" fill="#FFD473"/>
<path d="M1.94597 4.7398H0.506323C0.378034 5.04839 0.273059 5.36683 0.192688 5.69207H1.63234C1.71271 5.3666 1.81757 5.04839 1.94597 4.7398Z" fill="#FFD473"/>
<path d="M1.53252 6.17195H0.0929858C0.0399127 6.485 0.00921699 6.8032 0.00195312 7.12422H1.37986C1.40107 7.12422 1.42169 7.12703 1.44125 7.13219C1.44817 6.80859 1.4791 6.48758 1.53252 6.17195Z" fill="#FFD473"/>
<path d="M1.44699 7.5945C1.42567 7.60059 1.40318 7.6041 1.37986 7.6041H0.00851404C0.0168323 7.7707 0.0314772 7.93683 0.0523315 8.10179C0.0716628 8.25434 0.0961491 8.40594 0.126025 8.55637H1.56556C1.50288 8.24004 1.46269 7.91856 1.44699 7.5945Z" fill="#FFD473"/>
<path d="M1.67944 9.03626H0.239903C0.330116 9.36172 0.445166 9.68016 0.584351 9.98852H2.024C1.88482 9.68016 1.76965 9.36172 1.67944 9.03626Z" fill="#FFD473"/>
<path d="M2.26453 10.4684H0.824879C0.913803 10.6292 1.00964 10.7866 1.11227 10.9401C1.2231 11.106 1.3412 11.2663 1.46586 11.4207H2.90539C2.78073 11.2663 2.66275 11.106 2.55192 10.9401C2.44929 10.7866 2.35345 10.6292 2.26453 10.4684Z" fill="#FFD473"/>
<path d="M3.33337 11.9006H1.89384C2.24942 12.2623 2.64577 12.5817 3.0748 12.8528H4.51445C4.08542 12.5817 3.68907 12.2623 3.33337 11.9006Z" fill="#FFD473"/>
<path d="M5.42443 13.3327H3.98466C4.01418 13.3454 4.04383 13.358 4.07358 13.3702C5.10177 13.7962 6.21806 13.9539 7.31819 13.8332C6.70099 13.7655 6.09306 13.6104 5.51312 13.3702C5.48348 13.358 5.45384 13.3454 5.42443 13.3327Z" fill="#FFD473"/>
<path d="M7.40113 0.675781C8.70617 0.675781 9.98191 1.06277 11.067 1.78781C12.1521 2.51285 12.9978 3.54338 13.4973 4.74908C13.9967 5.95478 14.1273 7.2815 13.8727 8.56147C13.6181 9.84143 12.9897 11.0172 12.0669 11.94C11.1441 12.8628 9.96838 13.4912 8.68842 13.7458C7.40845 14.0004 6.08174 13.8697 4.87604 13.3703C3.67034 12.8709 2.63981 12.0252 1.91477 10.9401C1.18972 9.85495 0.802734 8.57922 0.802734 7.27418C0.802734 5.52418 1.49792 3.84585 2.73536 2.60841C3.9728 1.37097 5.65113 0.675781 7.40113 0.675781V0.675781Z" fill="#FFDB5D"/>
<path d="M7.43176 1.996C8.48172 1.996 9.50811 2.30735 10.3811 2.89068C11.2541 3.47401 11.9346 4.30312 12.3364 5.27316C12.7382 6.2432 12.8433 7.3106 12.6385 8.34039C12.4336 9.37018 11.928 10.3161 11.1856 11.0585C10.4431 11.801 9.49723 12.3066 8.46744 12.5114C7.43765 12.7163 6.37024 12.6111 5.4002 12.2093C4.43016 11.8075 3.60106 11.1271 3.01773 10.2541C2.4344 9.38106 2.12305 8.35468 2.12305 7.30471C2.12305 5.89676 2.68236 4.54646 3.67793 3.55089C4.67351 2.55531 6.0238 1.996 7.43176 1.996V1.996Z" fill="white"/>
<path d="M7.79168 1.996C6.8129 1.996 5.8561 2.30735 5.04227 2.89068C4.22845 3.47401 3.59415 4.30312 3.21958 5.27316C2.84502 6.2432 2.74702 7.3106 2.93797 8.34039C3.12892 9.37018 3.60025 10.3161 4.29235 11.0585C4.98445 11.801 5.86624 12.3066 6.82622 12.5114C7.78619 12.7163 8.78123 12.6111 9.6855 12.2093C10.5898 11.8075 11.3627 11.1271 11.9065 10.2541C12.4502 9.38106 12.7405 8.35468 12.7405 7.30471C12.7405 5.89676 12.2191 4.54646 11.291 3.55089C10.3629 2.55531 9.10418 1.996 7.79168 1.996V1.996Z" fill="#EDA73D"/>
<path d="M7.191 1.99609C6.18849 1.99609 5.20849 2.30744 4.37494 2.89077C3.54138 3.4741 2.8917 4.30321 2.50806 5.27325C2.12442 6.24329 2.02404 7.3107 2.21962 8.34048C2.4152 9.37027 2.89795 10.3162 3.60683 11.0586C4.31571 11.8011 5.21888 12.3067 6.20213 12.5115C7.18537 12.7164 8.20453 12.6112 9.13073 12.2094C10.0569 11.8076 10.8486 11.1272 11.4055 10.2542C11.9625 9.38116 12.2598 8.35477 12.2598 7.30481C12.2598 5.89685 11.7257 4.54656 10.7752 3.55098C9.82458 2.5554 8.53532 1.99609 7.191 1.99609V1.99609Z" fill="#FDC251"/>
<mask id="path-8-outside-1_3417_539" maskUnits="userSpaceOnUse" x="2.56445" y="4.48047" width="9" height="6" fill="black">
<rect fill="white" x="2.56445" y="4.48047" width="9" height="6"/>
<path fill-rule="evenodd" clip-rule="evenodd" d="M6.42251 5.48709C6.42251 5.49115 6.39034 5.4937 6.33928 5.4937C6.27766 5.4937 6.25099 5.49632 6.2365 5.5038L6.21694 5.51389V6.78418C6.21694 7.73471 6.21498 8.06177 6.20917 8.08348L6.20139 8.11249L6.15628 8.11626C6.09962 8.121 5.94575 8.11408 5.94111 8.10658C5.9392 8.1035 5.91843 8.10098 5.89493 8.10098C5.87088 8.10098 5.85222 8.09809 5.85222 8.09436C5.85222 8.09072 5.83581 8.08775 5.81575 8.08775C5.79569 8.08775 5.77928 8.08477 5.77928 8.08113C5.77928 8.07749 5.76287 8.07451 5.74281 8.07451C5.72275 8.07451 5.70633 8.0721 5.70633 8.06915C5.70633 8.06621 5.68918 8.06049 5.6682 8.05644C5.63163 8.04939 5.59433 8.041 5.53724 8.027C5.52265 8.02342 5.49953 8.01894 5.48585 8.01703C5.47217 8.01513 5.46098 8.0109 5.46098 8.00764C5.46098 8.00439 5.44904 8.00172 5.43445 8.00172C5.41987 8.00172 5.40793 7.99874 5.40793 7.9951C5.40793 7.99146 5.39898 7.98848 5.38804 7.98848C5.37709 7.98848 5.36814 7.98551 5.36814 7.98187C5.36814 7.97823 5.36227 7.97525 5.35511 7.97525C5.34335 7.97525 5.31112 7.96349 5.28037 7.94797C5.27404 7.94478 5.26135 7.94216 5.25219 7.94216C5.24302 7.94216 5.23552 7.93918 5.23552 7.93555C5.23552 7.93191 5.22973 7.92893 5.22265 7.92893C5.21557 7.92893 5.20793 7.92595 5.20568 7.92231C5.20342 7.91867 5.19447 7.91569 5.18578 7.91569C5.1771 7.91569 5.16815 7.91271 5.16589 7.90908C5.16364 7.90544 5.156 7.90246 5.14892 7.90246C5.14184 7.90246 5.13605 7.89948 5.13605 7.89584C5.13605 7.8922 5.13173 7.88922 5.12645 7.88922C5.12118 7.88922 5.10283 7.88178 5.08568 7.87268C5.06853 7.86358 5.05047 7.85614 5.04554 7.85614C5.04061 7.85614 5.03658 7.85316 5.03658 7.84952C5.03658 7.84588 5.03061 7.8429 5.02332 7.8429C5.01603 7.8429 5.01006 7.83992 5.01006 7.83628C5.01006 7.83264 5.00558 7.82967 5.00011 7.82967C4.99464 7.82967 4.99016 7.82669 4.99016 7.82305C4.99016 7.81941 4.9842 7.81643 4.9769 7.81643C4.96961 7.81643 4.96364 7.81345 4.96364 7.80981C4.96364 7.80617 4.95767 7.8032 4.95038 7.8032C4.94308 7.8032 4.93711 7.80022 4.93711 7.79658C4.93711 7.79294 4.93335 7.78996 4.92876 7.78996C4.92416 7.78996 4.91235 7.78252 4.90252 7.77342C4.89269 7.76432 4.8807 7.75687 4.87587 7.75687C4.87105 7.75687 4.8628 7.75092 4.85754 7.74364C4.85228 7.73636 4.84416 7.7304 4.8395 7.7304C4.83483 7.7304 4.83101 7.72743 4.83101 7.72379C4.83101 7.72015 4.82719 7.71717 4.82253 7.71717C4.81786 7.71717 4.80975 7.71121 4.80449 7.70393C4.79923 7.69665 4.79284 7.6907 4.79029 7.6907C4.78485 7.6907 4.6785 7.58677 4.6785 7.58146C4.6785 7.57947 4.66582 7.565 4.65031 7.54929C4.61147 7.50992 4.59229 7.48665 4.59229 7.47889C4.59229 7.47528 4.58931 7.47232 4.58566 7.47232C4.58201 7.47232 4.57903 7.46702 4.57903 7.46055C4.57903 7.45407 4.57306 7.44448 4.56577 7.43924C4.55847 7.43399 4.5525 7.4244 4.5525 7.41792C4.5525 7.41145 4.54952 7.40615 4.54587 7.40615C4.54223 7.40615 4.53924 7.40192 4.53924 7.39676C4.53924 7.38495 4.51773 7.34669 4.51106 7.34663C4.50833 7.34661 4.50609 7.33915 4.50609 7.33005C4.50609 7.32095 4.5031 7.3135 4.49945 7.3135C4.49581 7.3135 4.49282 7.30606 4.49282 7.29696C4.49282 7.28786 4.48984 7.28042 4.48619 7.28042C4.48254 7.28042 4.47956 7.27297 4.47956 7.26387C4.47956 7.25477 4.47723 7.24733 4.47437 7.24733C4.47152 7.24733 4.4653 7.23318 4.46054 7.2159C4.45577 7.19861 4.44943 7.17702 4.44644 7.16792C4.44345 7.15882 4.43555 7.13128 4.42887 7.10671C4.42219 7.08214 4.41446 7.06204 4.41167 7.06204C4.40889 7.06204 4.40662 7.03971 4.40662 7.01241C4.40662 6.98374 4.40382 6.96278 4.39999 6.96278C4.3957 6.96278 4.39335 6.88226 4.39335 6.73448C4.39335 6.58669 4.3957 6.50617 4.39999 6.50617C4.40382 6.50617 4.40662 6.48522 4.40662 6.45654C4.40662 6.42925 4.40921 6.40691 4.41239 6.40691C4.41556 6.40691 4.41981 6.39426 4.42182 6.37879C4.42384 6.36332 4.43052 6.32982 4.43667 6.30434C4.44281 6.27886 4.44932 6.24684 4.45114 6.23316C4.45295 6.21949 4.45711 6.20666 4.46037 6.20465C4.46363 6.20264 4.4663 6.18926 4.4663 6.17491C4.4663 6.16056 4.46928 6.14883 4.47293 6.14883C4.47658 6.14883 4.47956 6.1399 4.47956 6.12898C4.47956 6.11806 4.48254 6.10913 4.48619 6.10913C4.48984 6.10913 4.49282 6.09573 4.49282 6.07935C4.49282 6.06297 4.49548 6.04957 4.49873 6.04957C4.5114 6.04957 4.5248 5.92001 4.51331 5.90855C4.50934 5.90459 4.50609 5.89726 4.50609 5.89227C4.50609 5.88002 4.48956 5.86428 4.47672 5.86428C4.47099 5.86428 4.4663 5.8613 4.4663 5.85766C4.4663 5.85402 4.45735 5.85105 4.4464 5.85105C4.43546 5.85105 4.4265 5.84882 4.42648 5.84608C4.42647 5.84335 4.4123 5.83569 4.39499 5.82907C4.37768 5.82244 4.35904 5.81475 4.35357 5.81198C4.3481 5.80922 4.32945 5.80282 4.31212 5.79778C4.2948 5.79273 4.28062 5.78627 4.28062 5.78343C4.28062 5.78058 4.27167 5.77825 4.26073 5.77825C4.24979 5.77825 4.24084 5.77528 4.24084 5.77164C4.24084 5.768 4.23338 5.76502 4.22426 5.76502C4.21514 5.76502 4.20768 5.76204 4.20768 5.7584C4.20768 5.75476 4.19873 5.75178 4.18779 5.75178C4.17685 5.75178 4.16789 5.74881 4.16789 5.74517C4.16789 5.74153 4.16191 5.73855 4.1546 5.73855C4.14728 5.73855 4.12584 5.7311 4.10694 5.72201C4.08804 5.71291 4.06717 5.70546 4.06055 5.70546C4.05394 5.70546 4.04853 5.70248 4.04853 5.69884C4.04853 5.69521 4.03958 5.69223 4.02864 5.69223C4.0177 5.69223 4.00874 5.68925 4.00874 5.68561C4.00874 5.68197 4.00128 5.67899 3.99217 5.67899C3.98305 5.67899 3.97559 5.67601 3.97559 5.67237C3.97559 5.66874 3.96664 5.66576 3.95569 5.66576C3.94475 5.66576 3.9358 5.66278 3.9358 5.65914C3.9358 5.65532 3.9148 5.65252 3.88607 5.65252C3.85733 5.65252 3.83633 5.65532 3.83633 5.65914C3.83633 5.66278 3.83094 5.66576 3.82434 5.66576C3.81216 5.66576 3.78991 5.70567 3.78991 5.72754C3.78991 5.73359 3.78693 5.73855 3.78328 5.73855C3.77964 5.73855 3.77665 5.74748 3.77665 5.7584C3.77665 5.76932 3.77367 5.77825 3.77002 5.77825C3.76637 5.77825 3.76339 5.7857 3.76339 5.7948C3.76339 5.8039 3.76041 5.81134 3.75676 5.81134C3.75311 5.81134 3.75013 5.82028 3.75013 5.83119C3.75013 5.84211 3.74714 5.85105 3.7435 5.85105C3.73985 5.85105 3.73686 5.85998 3.73686 5.8709C3.73686 5.88182 3.73388 5.89075 3.73023 5.89075C3.72659 5.89075 3.7235 5.89745 3.72337 5.90564C3.72324 5.91383 3.71887 5.92797 3.71366 5.93707C3.70844 5.94617 3.70407 5.96163 3.70394 5.97142C3.70381 5.98122 3.70072 5.99107 3.69708 5.99332C3.69343 5.99557 3.69045 6.00617 3.69045 6.01687C3.69045 6.02758 3.68746 6.03634 3.68381 6.03634C3.68017 6.03634 3.67718 6.04807 3.67718 6.06241C3.67718 6.07676 3.6742 6.09033 3.67055 6.09258C3.66691 6.09483 3.66392 6.10841 3.66392 6.12275C3.66392 6.1371 3.66094 6.14883 3.65729 6.14883C3.65364 6.14883 3.65066 6.15866 3.65066 6.17067C3.65066 6.18268 3.64816 6.19534 3.6451 6.19879C3.64204 6.20225 3.63437 6.23039 3.62805 6.26133C3.62173 6.29227 3.61378 6.32834 3.6104 6.34151C3.60701 6.35467 3.60424 6.37906 3.60424 6.39571C3.60424 6.41236 3.60126 6.42782 3.59761 6.43007C3.59396 6.43232 3.59098 6.45781 3.59098 6.48671C3.59098 6.51733 3.58821 6.53926 3.58435 6.53926C3.58051 6.53926 3.57772 6.56022 3.57772 6.58889C3.57772 6.61757 3.57492 6.63852 3.57108 6.63852C3.56683 6.63852 3.56445 6.69919 3.56445 6.80727C3.56445 6.91535 3.56683 6.97601 3.57108 6.97601C3.57498 6.97601 3.57772 6.99917 3.57772 7.03226C3.57772 7.0632 3.58049 7.08851 3.58388 7.08851C3.58726 7.08851 3.5915 7.11457 3.59329 7.14641C3.59679 7.2086 3.60636 7.28072 3.61676 7.32343C3.62031 7.33799 3.62708 7.36852 3.63182 7.39126C3.63655 7.41401 3.64273 7.43262 3.64555 7.43262C3.64836 7.43262 3.65066 7.44304 3.65066 7.45578C3.65066 7.46852 3.65364 7.47894 3.65729 7.47894C3.66094 7.47894 3.66392 7.49085 3.66392 7.50541C3.66392 7.51997 3.66691 7.53188 3.67055 7.53188C3.6742 7.53188 3.67718 7.53788 3.67718 7.54521C3.67718 7.55253 3.67997 7.5637 3.68338 7.57002C3.68678 7.57634 3.6934 7.59565 3.69809 7.61294C3.70277 7.63024 3.7087 7.64438 3.71126 7.64438C3.71382 7.64438 3.71787 7.65328 3.72027 7.66416C3.72266 7.67503 3.72738 7.68563 3.73074 7.68771C3.73411 7.68978 3.73686 7.69726 3.73686 7.70432C3.73686 7.71139 3.73985 7.71717 3.7435 7.71717C3.74714 7.71717 3.75013 7.72461 3.75013 7.73371C3.75013 7.74281 3.75311 7.75026 3.75676 7.75026C3.76041 7.75026 3.76339 7.75621 3.76339 7.76349C3.76339 7.77077 3.76637 7.77673 3.77002 7.77673C3.77367 7.77673 3.77665 7.78268 3.77665 7.78996C3.77665 7.79724 3.77964 7.8032 3.78328 7.8032C3.78693 7.8032 3.78991 7.80729 3.78991 7.81229C3.78991 7.82314 3.82343 7.88497 3.83102 7.88812C3.83395 7.88934 3.83633 7.89603 3.83633 7.90301C3.83633 7.90998 3.83932 7.91569 3.84296 7.91569C3.84661 7.91569 3.8496 7.92016 3.8496 7.92562C3.8496 7.93108 3.85258 7.93555 3.85623 7.93555C3.85987 7.93555 3.86286 7.94001 3.86286 7.94547C3.86286 7.95093 3.86584 7.9554 3.86949 7.9554C3.87314 7.9554 3.87612 7.95986 3.87612 7.96532C3.87612 7.97078 3.87891 7.97525 3.88231 7.97525C3.88571 7.97525 3.89017 7.98046 3.89223 7.98683C3.8943 7.9932 3.90494 8.00793 3.91589 8.01956C3.92684 8.03119 3.9358 8.04395 3.9358 8.0479C3.9358 8.05186 3.94625 8.06552 3.95901 8.07826C3.97178 8.091 3.98222 8.1036 3.98222 8.10626C3.98222 8.11002 4.05021 8.18598 4.07982 8.2153C4.12397 8.25901 4.20558 8.33259 4.20992 8.33259C4.21306 8.33259 4.22354 8.34079 4.2332 8.35081C4.24287 8.36083 4.26272 8.37786 4.27731 8.38866C4.2919 8.39946 4.30962 8.4136 4.31669 8.42008C4.32376 8.42655 4.33345 8.43185 4.33824 8.43185C4.34302 8.43185 4.34694 8.43483 4.34694 8.43847C4.34694 8.44211 4.35141 8.44509 4.35688 8.44509C4.36235 8.44509 4.36683 8.44807 4.36683 8.45171C4.36683 8.45535 4.3717 8.45832 4.37766 8.45832C4.38361 8.45832 4.39331 8.4637 4.39921 8.47028C4.41218 8.48475 4.47101 8.51788 4.48371 8.51788C4.48872 8.51788 4.49282 8.52086 4.49282 8.5245C4.49282 8.52814 4.4973 8.53112 4.50277 8.53112C4.50824 8.53112 4.51272 8.53409 4.51272 8.53773C4.51272 8.54137 4.51868 8.54435 4.52598 8.54435C4.53327 8.54435 4.53927 8.54658 4.53931 8.54931C4.53936 8.55205 4.5513 8.55997 4.56584 8.56692C4.58039 8.57388 4.59229 8.58206 4.59229 8.58512C4.59229 8.58817 4.59667 8.59067 4.60204 8.59067C4.6074 8.59067 4.62241 8.59663 4.63539 8.60391C4.64838 8.61119 4.66339 8.61714 4.66875 8.61714C4.67411 8.61714 4.6785 8.62012 4.6785 8.62376C4.6785 8.6274 4.68446 8.63038 4.69176 8.63038C4.69905 8.63038 4.70502 8.63336 4.70502 8.637C4.70502 8.64063 4.71248 8.64361 4.7216 8.64361C4.73072 8.64361 4.73818 8.64627 4.73818 8.64952C4.73818 8.65276 4.74635 8.65746 4.75635 8.65996C4.76634 8.66247 4.77604 8.66651 4.7779 8.66895C4.78179 8.67406 4.84034 8.69653 4.86251 8.70142C4.87072 8.70323 4.87743 8.70735 4.87743 8.71056C4.87743 8.71377 4.88639 8.7164 4.89733 8.7164C4.90827 8.7164 4.91722 8.71938 4.91722 8.72302C4.91722 8.72666 4.92468 8.72964 4.9338 8.72964C4.94292 8.72964 4.95038 8.73262 4.95038 8.73626C4.95038 8.7399 4.95788 8.74287 4.96705 8.74287C4.97621 8.74287 4.9889 8.74549 4.99523 8.74868C5.02568 8.76405 5.05815 8.77596 5.06957 8.77596C5.07653 8.77596 5.08406 8.77894 5.08632 8.78258C5.08857 8.78622 5.09901 8.7892 5.10953 8.7892C5.12004 8.7892 5.13048 8.79217 5.13273 8.79581C5.13499 8.79945 5.14561 8.80243 5.15634 8.80243C5.16706 8.80243 5.17584 8.80541 5.17584 8.80905C5.17584 8.81269 5.18628 8.81567 5.19905 8.81567C5.21181 8.81567 5.22226 8.81864 5.22226 8.82228C5.22226 8.82592 5.23394 8.8289 5.24823 8.8289C5.26251 8.8289 5.27519 8.83127 5.27641 8.83416C5.27889 8.84007 5.39028 8.86824 5.43114 8.8733C5.44573 8.8751 5.4605 8.87925 5.46396 8.88252C5.46743 8.88579 5.4816 8.88846 5.49546 8.88846C5.50932 8.88846 5.52066 8.89144 5.52066 8.89508C5.52066 8.89881 5.53945 8.90169 5.56376 8.90169C5.58808 8.90169 5.60687 8.90458 5.60687 8.90831C5.60687 8.91199 5.62455 8.91493 5.64665 8.91493C5.66854 8.91493 5.68644 8.91763 5.68644 8.92093C5.68644 8.92424 5.70211 8.92845 5.72125 8.9303C5.7404 8.93215 5.78442 8.93857 5.81906 8.94457C5.89839 8.9583 5.97359 8.96768 6.03955 8.97207C6.06781 8.97396 6.09094 8.97824 6.09094 8.98161C6.09094 8.98497 6.10898 8.98772 6.13103 8.98772C6.18433 8.98772 6.20051 9.00272 6.20675 9.05789C6.20919 9.07935 6.21322 9.23687 6.21571 9.40793C6.22039 9.72825 6.22088 9.73376 6.24736 9.76017C6.25389 9.7667 6.31676 9.76858 6.5283 9.76858H6.80082L6.80479 9.74873C6.80698 9.73781 6.81139 9.72888 6.81458 9.72888C6.81781 9.72888 6.82038 9.59826 6.82038 9.4344C6.82038 9.24249 6.82269 9.13992 6.82701 9.13992C6.83075 9.13992 6.83364 9.12122 6.83364 9.09706C6.83364 9.02728 6.81483 9.03112 7.16821 9.02859C7.3325 9.02741 7.49381 9.02838 7.52668 9.03074C7.58277 9.03478 7.58694 9.03611 7.59465 9.05241C7.60075 9.06531 7.60286 9.13786 7.60285 9.3348C7.60285 9.48113 7.60598 9.62503 7.60985 9.65608C7.6137 9.68702 7.61836 9.72499 7.62021 9.74046L7.62357 9.76858H7.90167C8.08266 9.76858 8.17978 9.76627 8.17978 9.76196C8.17978 9.75832 8.18574 9.75535 8.19304 9.75535C8.20336 9.75535 8.2063 9.75093 8.2063 9.73549C8.2063 9.72457 8.20929 9.71564 8.21293 9.71564C8.21726 9.71564 8.21956 9.60866 8.21956 9.40793C8.21956 9.2072 8.22187 9.10022 8.22619 9.10022C8.22984 9.10022 8.23283 9.09249 8.23283 9.08304C8.23283 9.05449 8.25289 9.02743 8.27405 9.02743C8.2842 9.02743 8.29251 9.02445 8.29251 9.02081C8.29251 9.01684 8.31903 9.01419 8.35882 9.01419C8.39861 9.01419 8.42513 9.01154 8.42513 9.00757C8.42513 9.00342 8.467 9.00096 8.53747 9.00096C8.60521 9.00096 8.65143 8.99833 8.65391 8.99434C8.65619 8.99066 8.68669 8.98772 8.7226 8.98772C8.75813 8.98772 8.79003 8.98497 8.79349 8.9816C8.79696 8.97823 8.82217 8.97397 8.84953 8.97212C8.91593 8.96764 8.99307 8.95754 9.06173 8.94434C9.09273 8.93837 9.13376 8.93202 9.15291 8.93021C9.17206 8.92841 9.18772 8.92424 9.18772 8.92093C9.18772 8.91763 9.20413 8.91493 9.22419 8.91493C9.24425 8.91493 9.26066 8.91195 9.26066 8.90831C9.26066 8.90467 9.27409 8.90169 9.2905 8.90169C9.30692 8.90169 9.32034 8.89872 9.32034 8.89508C9.32034 8.89144 9.33061 8.88846 9.34316 8.88846C9.35572 8.88846 9.36763 8.8858 9.36965 8.88254C9.37166 8.87929 9.38452 8.87516 9.39822 8.87338C9.43251 8.86891 9.52873 8.84057 9.53144 8.83415C9.53266 8.83126 9.54235 8.8289 9.55299 8.8289C9.56363 8.8289 9.57233 8.82626 9.57233 8.82303C9.57233 8.81981 9.58128 8.81534 9.59222 8.81311C9.60317 8.81088 9.62107 8.80722 9.63201 8.80499C9.64295 8.80276 9.65191 8.79829 9.65191 8.79507C9.65191 8.79184 9.66086 8.7892 9.6718 8.7892C9.68274 8.7892 9.69169 8.78622 9.69169 8.78258C9.69169 8.77894 9.69607 8.77596 9.70141 8.77596C9.7134 8.77596 9.7605 8.75464 9.76353 8.74784C9.76475 8.7451 9.77146 8.74287 9.77845 8.74287C9.78544 8.74287 9.79116 8.7399 9.79116 8.73626C9.79116 8.73262 9.80011 8.72964 9.81105 8.72964C9.822 8.72964 9.83095 8.72666 9.83095 8.72302C9.83095 8.71938 9.83841 8.7164 9.84753 8.7164C9.85664 8.7164 9.8641 8.71343 9.8641 8.70979C9.8641 8.70615 9.87007 8.70317 9.87737 8.70317C9.88466 8.70317 9.89063 8.70019 9.89063 8.69655C9.89063 8.69291 9.895 8.68994 9.90034 8.68994C9.91197 8.68994 9.97258 8.65721 9.97573 8.64922C9.97695 8.64614 9.9849 8.64361 9.99341 8.64361C10.0019 8.64361 10.0099 8.64138 10.0111 8.63865C10.0123 8.63592 10.0267 8.62647 10.0431 8.61764C10.0596 8.60881 10.0745 8.59984 10.0763 8.59772C10.0824 8.5906 10.1356 8.55759 10.141 8.55759C10.1439 8.55759 10.1506 8.55163 10.1559 8.54435C10.1611 8.53707 10.1685 8.53111 10.1723 8.53111C10.176 8.5311 10.1871 8.52421 10.1969 8.51578C10.2067 8.50737 10.2226 8.49471 10.2322 8.48767C10.2791 8.45336 10.4211 8.31817 10.4211 8.30792C10.4211 8.3049 10.4271 8.29814 10.4344 8.29289C10.4417 8.28764 10.4477 8.27876 10.4477 8.27315C10.4477 8.26754 10.4554 8.25713 10.4649 8.25002C10.4744 8.24291 10.4913 8.2236 10.5026 8.20709C10.5139 8.19059 10.5285 8.17226 10.5351 8.16638C10.5417 8.16049 10.5471 8.15082 10.5471 8.14487C10.5471 8.13893 10.5496 8.13407 10.5527 8.13407C10.5558 8.13407 10.5639 8.12365 10.5708 8.11091C10.5777 8.09817 10.5856 8.08775 10.5884 8.08775C10.5912 8.08775 10.5935 8.08179 10.5935 8.07451C10.5935 8.06723 10.596 8.06128 10.5989 8.06128C10.6019 8.06128 10.6084 8.05085 10.6134 8.03812C10.6184 8.02538 10.625 8.01495 10.6279 8.01495C10.6309 8.01495 10.6333 8.00627 10.6333 7.99565C10.6333 7.98504 10.6356 7.97536 10.6383 7.97414C10.643 7.97207 10.6732 7.91229 10.6879 7.87599C10.6915 7.86689 10.6972 7.85428 10.7004 7.84796C10.7036 7.84164 10.7063 7.82898 10.7063 7.81983C10.7063 7.81068 10.7093 7.8032 10.7129 7.8032C10.7165 7.8032 10.7195 7.79426 10.7195 7.78334C10.7195 7.77242 10.7225 7.76349 10.7262 7.76349C10.7298 7.76349 10.7328 7.75307 10.7328 7.74033C10.7328 7.72759 10.7355 7.71717 10.7387 7.71717C10.7419 7.71717 10.7461 7.70749 10.7479 7.69566C10.7497 7.68383 10.7563 7.65331 10.7627 7.62783C10.7691 7.60236 10.7757 7.56513 10.7773 7.54512C10.779 7.5251 10.7831 7.50589 10.7864 7.50243C10.7898 7.49897 10.7925 7.4759 10.7925 7.45115C10.7925 7.42556 10.7953 7.40615 10.7991 7.40615C10.803 7.40615 10.8057 7.38409 10.8057 7.35321C10.8057 7.32233 10.8085 7.30027 10.8124 7.30027C10.8166 7.30027 10.819 7.23961 10.819 7.13152C10.819 7.02344 10.8166 6.96278 10.8124 6.96278C10.8085 6.96278 10.8057 6.93962 10.8057 6.90653C10.8057 6.87559 10.8029 6.85028 10.7995 6.85028C10.796 6.85028 10.7917 6.81381 10.7899 6.76922C10.7841 6.63042 10.7733 6.52042 10.7487 6.35066C10.7429 6.31063 10.7367 6.25628 10.735 6.2299C10.7332 6.20351 10.729 6.18192 10.7256 6.18192C10.7223 6.18192 10.7195 6.16423 10.7195 6.1426C10.7195 6.12098 10.7165 6.10145 10.7129 6.0992C10.7093 6.09695 10.7063 6.07951 10.7063 6.06043C10.7063 6.04135 10.7036 6.02291 10.7002 6.01946C10.6969 6.016 10.6927 5.99828 10.6908 5.98009C10.6867 5.93974 10.6779 5.89923 10.663 5.85105C10.6568 5.83103 10.6502 5.80349 10.6484 5.78983C10.6467 5.77618 10.6425 5.76502 10.6393 5.76502C10.636 5.76502 10.6333 5.7546 10.6333 5.74186C10.6333 5.72912 10.6303 5.7187 10.6267 5.7187C10.623 5.7187 10.6201 5.70976 10.6201 5.69884C10.6201 5.68793 10.6171 5.67899 10.6134 5.67899C10.6098 5.67899 10.6068 5.67413 10.6068 5.66819C10.6068 5.64843 10.5793 5.63125 10.5538 5.63501C10.5114 5.64123 10.4609 5.65506 10.4609 5.66044C10.4609 5.66337 10.449 5.66576 10.4344 5.66576C10.4198 5.66576 10.4079 5.66874 10.4079 5.67237C10.4079 5.67601 10.3974 5.67899 10.3847 5.67899C10.3719 5.67899 10.3614 5.68197 10.3614 5.68561C10.3614 5.68925 10.3497 5.69223 10.3353 5.69223C10.3209 5.69223 10.3075 5.69487 10.3055 5.69812C10.3035 5.70135 10.2922 5.70552 10.2803 5.70737C10.2684 5.70922 10.2408 5.71575 10.2189 5.72187C10.197 5.72799 10.1694 5.73459 10.1575 5.73651C10.1456 5.73844 10.1342 5.74266 10.1322 5.74589C10.1302 5.74914 10.1198 5.75178 10.1091 5.75178C10.0983 5.75178 10.0896 5.75476 10.0896 5.7584C10.0896 5.76204 10.0776 5.76502 10.063 5.76502C10.0485 5.76502 10.0365 5.768 10.0365 5.77164C10.0365 5.77528 10.0261 5.77825 10.0133 5.77825C10.0005 5.77825 9.9901 5.78123 9.9901 5.78487C9.9901 5.78851 9.98132 5.79149 9.97059 5.79149C9.95987 5.79149 9.94925 5.79447 9.94699 5.79811C9.94474 5.80175 9.93412 5.80472 9.92339 5.80472C9.91266 5.80472 9.90389 5.8077 9.90389 5.81134C9.90389 5.81498 9.89947 5.81796 9.89408 5.81796C9.87218 5.81796 9.83235 5.83939 9.82522 5.85502C9.81615 5.87488 9.81546 5.89901 9.82371 5.90763C9.82702 5.91109 9.83125 5.9288 9.83312 5.947C9.83694 5.98411 9.84472 6.02086 9.86115 6.07935C9.86729 6.10119 9.87375 6.13171 9.8755 6.14718C9.87726 6.16264 9.88138 6.1753 9.88467 6.1753C9.88794 6.1753 9.89063 6.19168 9.89063 6.2117C9.89063 6.23172 9.89361 6.24809 9.89726 6.24809C9.90091 6.24809 9.90389 6.26447 9.90389 6.28449C9.90389 6.30451 9.90661 6.32089 9.90993 6.32089C9.91325 6.32089 9.91756 6.33801 9.91951 6.35894C9.92146 6.37986 9.92594 6.41485 9.92947 6.43669C9.93302 6.45853 9.93931 6.50022 9.94347 6.52934C9.94764 6.55845 9.95378 6.59419 9.95715 6.60875C9.9605 6.6233 9.96332 6.6449 9.96341 6.65672C9.9635 6.66855 9.96656 6.67823 9.9702 6.67823C9.97416 6.67823 9.97683 6.70359 9.97683 6.74109C9.97683 6.7786 9.97951 6.80396 9.98347 6.80396C9.98752 6.80396 9.9901 6.83484 9.9901 6.88337C9.9901 6.9319 9.99268 6.96278 9.99673 6.96278C10.001 6.96278 10.0034 7.03323 10.0034 7.16091C10.0034 7.28586 10.0009 7.36055 9.99673 7.36314C9.99308 7.36538 9.9901 7.38491 9.9901 7.40654C9.9901 7.42834 9.98714 7.44585 9.98347 7.44585C9.97982 7.44585 9.97683 7.45751 9.97683 7.47177C9.97683 7.48603 9.97447 7.49868 9.97158 7.4999C9.9687 7.50111 9.95465 7.52816 9.94037 7.56C9.92609 7.59185 9.91203 7.61791 9.90914 7.61791C9.90626 7.61791 9.90389 7.62386 9.90389 7.63114C9.90389 7.63842 9.90091 7.64438 9.89726 7.64438C9.89361 7.64438 9.89063 7.64884 9.89063 7.6543C9.89063 7.65976 9.88764 7.66423 9.884 7.66423C9.88035 7.66423 9.87737 7.66811 9.87737 7.67287C9.87737 7.67989 9.85355 7.71055 9.82606 7.73893C9.80622 7.75941 9.75706 7.8032 9.75392 7.8032C9.7518 7.8032 9.74212 7.81169 9.7324 7.82206C9.72269 7.83245 9.70582 7.84589 9.69493 7.85193C9.66124 7.87062 9.64918 7.87887 9.63796 7.89088C9.63201 7.89724 9.62227 7.90246 9.61632 7.90246C9.61036 7.90246 9.60549 7.90488 9.60549 7.90784C9.60549 7.9108 9.59504 7.91731 9.58228 7.92231C9.56951 7.92731 9.55907 7.93382 9.55907 7.93678C9.55907 7.93974 9.5531 7.94216 9.54581 7.94216C9.53851 7.94216 9.53254 7.94514 9.53254 7.94878C9.53254 7.95242 9.52694 7.9554 9.52009 7.9554C9.51325 7.9554 9.50393 7.95986 9.49939 7.96532C9.49484 7.97078 9.48553 7.97525 9.47868 7.97525C9.47183 7.97525 9.46623 7.97823 9.46623 7.98187C9.46623 7.98551 9.45877 7.98848 9.44965 7.98848C9.44054 7.98848 9.43308 7.99146 9.43308 7.9951C9.43308 7.99874 9.42562 8.00172 9.4165 8.00172C9.40738 8.00172 9.39992 8.0047 9.39992 8.00834C9.39992 8.01198 9.39097 8.01495 9.38003 8.01495C9.36908 8.01495 9.36013 8.01793 9.36013 8.02157C9.36013 8.02521 9.35118 8.02819 9.34024 8.02819C9.3293 8.02819 9.32034 8.03083 9.32034 8.03406C9.32034 8.03728 9.31214 8.04134 9.30211 8.04307C9.27119 8.0484 9.21816 8.06253 9.20605 8.06868C9.19972 8.07188 9.18405 8.07451 9.17124 8.07451C9.15842 8.07451 9.14793 8.07749 9.14793 8.08113C9.14793 8.08477 9.1345 8.08775 9.11809 8.08775C9.10168 8.08775 9.08825 8.09045 9.08825 8.09375C9.08825 8.09937 9.07633 8.10131 8.98215 8.11107C8.96209 8.11315 8.93971 8.11756 8.93242 8.12086C8.92512 8.12416 8.90274 8.12832 8.88268 8.13009C8.8118 8.13638 8.72657 8.14781 8.70364 8.1541C8.69088 8.1576 8.62598 8.16048 8.55941 8.1605C8.48318 8.16053 8.43839 8.16299 8.43839 8.16716C8.43839 8.17113 8.41187 8.17377 8.37208 8.17377C8.33229 8.17377 8.30577 8.17113 8.30577 8.16716C8.30577 8.16352 8.29288 8.16054 8.27712 8.16054C8.25481 8.16054 8.24529 8.15687 8.23402 8.14394L8.21956 8.12735V6.83699C8.21956 5.98117 8.21733 5.54664 8.21293 5.54664C8.20929 5.54664 8.2063 5.53473 8.2063 5.52017V5.4937H8.10683C8.04494 5.4937 8.00736 5.4912 8.00736 5.48709C8.00736 5.4832 7.98416 5.48047 7.951 5.48047C7.91784 5.48047 7.89463 5.4832 7.89463 5.48709C7.89463 5.49128 7.84613 5.4937 7.7624 5.4937C7.66386 5.4937 7.62882 5.49581 7.62487 5.50198C7.62196 5.50652 7.61695 5.53109 7.61372 5.55657C7.6105 5.58205 7.60669 6.16794 7.60525 6.85855C7.60354 7.67446 7.60035 8.11422 7.59611 8.11422C7.59253 8.11422 7.5896 8.12464 7.5896 8.13738C7.5896 8.15612 7.58707 8.16054 7.57634 8.16054C7.56904 8.16054 7.56307 8.16352 7.56307 8.16716C7.56307 8.17148 7.44262 8.17377 7.21499 8.17377H6.8669L6.85027 8.15935C6.83535 8.1464 6.83364 8.13994 6.83364 8.09648C6.83364 8.0686 6.83083 8.04804 6.82701 8.04804C6.82261 8.04804 6.82038 7.62232 6.82038 6.78411C6.82038 5.94589 6.81814 5.52017 6.81375 5.52017C6.8101 5.52017 6.80712 5.51422 6.80712 5.50694C6.80712 5.4945 6.80269 5.4937 6.73417 5.4937C6.68996 5.4937 6.66123 5.4911 6.66123 5.48709C6.66123 5.48292 6.61702 5.48047 6.54187 5.48047C6.46672 5.48047 6.42251 5.48292 6.42251 5.48709Z"/>
</mask>
<path fill-rule="evenodd" clip-rule="evenodd" d="M6.42251 5.48709C6.42251 5.49115 6.39034 5.4937 6.33928 5.4937C6.27766 5.4937 6.25099 5.49632 6.2365 5.5038L6.21694 5.51389V6.78418C6.21694 7.73471 6.21498 8.06177 6.20917 8.08348L6.20139 8.11249L6.15628 8.11626C6.09962 8.121 5.94575 8.11408 5.94111 8.10658C5.9392 8.1035 5.91843 8.10098 5.89493 8.10098C5.87088 8.10098 5.85222 8.09809 5.85222 8.09436C5.85222 8.09072 5.83581 8.08775 5.81575 8.08775C5.79569 8.08775 5.77928 8.08477 5.77928 8.08113C5.77928 8.07749 5.76287 8.07451 5.74281 8.07451C5.72275 8.07451 5.70633 8.0721 5.70633 8.06915C5.70633 8.06621 5.68918 8.06049 5.6682 8.05644C5.63163 8.04939 5.59433 8.041 5.53724 8.027C5.52265 8.02342 5.49953 8.01894 5.48585 8.01703C5.47217 8.01513 5.46098 8.0109 5.46098 8.00764C5.46098 8.00439 5.44904 8.00172 5.43445 8.00172C5.41987 8.00172 5.40793 7.99874 5.40793 7.9951C5.40793 7.99146 5.39898 7.98848 5.38804 7.98848C5.37709 7.98848 5.36814 7.98551 5.36814 7.98187C5.36814 7.97823 5.36227 7.97525 5.35511 7.97525C5.34335 7.97525 5.31112 7.96349 5.28037 7.94797C5.27404 7.94478 5.26135 7.94216 5.25219 7.94216C5.24302 7.94216 5.23552 7.93918 5.23552 7.93555C5.23552 7.93191 5.22973 7.92893 5.22265 7.92893C5.21557 7.92893 5.20793 7.92595 5.20568 7.92231C5.20342 7.91867 5.19447 7.91569 5.18578 7.91569C5.1771 7.91569 5.16815 7.91271 5.16589 7.90908C5.16364 7.90544 5.156 7.90246 5.14892 7.90246C5.14184 7.90246 5.13605 7.89948 5.13605 7.89584C5.13605 7.8922 5.13173 7.88922 5.12645 7.88922C5.12118 7.88922 5.10283 7.88178 5.08568 7.87268C5.06853 7.86358 5.05047 7.85614 5.04554 7.85614C5.04061 7.85614 5.03658 7.85316 5.03658 7.84952C5.03658 7.84588 5.03061 7.8429 5.02332 7.8429C5.01603 7.8429 5.01006 7.83992 5.01006 7.83628C5.01006 7.83264 5.00558 7.82967 5.00011 7.82967C4.99464 7.82967 4.99016 7.82669 4.99016 7.82305C4.99016 7.81941 4.9842 7.81643 4.9769 7.81643C4.96961 7.81643 4.96364 7.81345 4.96364 7.80981C4.96364 7.80617 4.95767 7.8032 4.95038 7.8032C4.94308 7.8032 4.93711 7.80022 4.93711 7.79658C4.93711 7.79294 4.93335 7.78996 4.92876 7.78996C4.92416 7.78996 4.91235 7.78252 4.90252 7.77342C4.89269 7.76432 4.8807 7.75687 4.87587 7.75687C4.87105 7.75687 4.8628 7.75092 4.85754 7.74364C4.85228 7.73636 4.84416 7.7304 4.8395 7.7304C4.83483 7.7304 4.83101 7.72743 4.83101 7.72379C4.83101 7.72015 4.82719 7.71717 4.82253 7.71717C4.81786 7.71717 4.80975 7.71121 4.80449 7.70393C4.79923 7.69665 4.79284 7.6907 4.79029 7.6907C4.78485 7.6907 4.6785 7.58677 4.6785 7.58146C4.6785 7.57947 4.66582 7.565 4.65031 7.54929C4.61147 7.50992 4.59229 7.48665 4.59229 7.47889C4.59229 7.47528 4.58931 7.47232 4.58566 7.47232C4.58201 7.47232 4.57903 7.46702 4.57903 7.46055C4.57903 7.45407 4.57306 7.44448 4.56577 7.43924C4.55847 7.43399 4.5525 7.4244 4.5525 7.41792C4.5525 7.41145 4.54952 7.40615 4.54587 7.40615C4.54223 7.40615 4.53924 7.40192 4.53924 7.39676C4.53924 7.38495 4.51773 7.34669 4.51106 7.34663C4.50833 7.34661 4.50609 7.33915 4.50609 7.33005C4.50609 7.32095 4.5031 7.3135 4.49945 7.3135C4.49581 7.3135 4.49282 7.30606 4.49282 7.29696C4.49282 7.28786 4.48984 7.28042 4.48619 7.28042C4.48254 7.28042 4.47956 7.27297 4.47956 7.26387C4.47956 7.25477 4.47723 7.24733 4.47437 7.24733C4.47152 7.24733 4.4653 7.23318 4.46054 7.2159C4.45577 7.19861 4.44943 7.17702 4.44644 7.16792C4.44345 7.15882 4.43555 7.13128 4.42887 7.10671C4.42219 7.08214 4.41446 7.06204 4.41167 7.06204C4.40889 7.06204 4.40662 7.03971 4.40662 7.01241C4.40662 6.98374 4.40382 6.96278 4.39999 6.96278C4.3957 6.96278 4.39335 6.88226 4.39335 6.73448C4.39335 6.58669 4.3957 6.50617 4.39999 6.50617C4.40382 6.50617 4.40662 6.48522 4.40662 6.45654C4.40662 6.42925 4.40921 6.40691 4.41239 6.40691C4.41556 6.40691 4.41981 6.39426 4.42182 6.37879C4.42384 6.36332 4.43052 6.32982 4.43667 6.30434C4.44281 6.27886 4.44932 6.24684 4.45114 6.23316C4.45295 6.21949 4.45711 6.20666 4.46037 6.20465C4.46363 6.20264 4.4663 6.18926 4.4663 6.17491C4.4663 6.16056 4.46928 6.14883 4.47293 6.14883C4.47658 6.14883 4.47956 6.1399 4.47956 6.12898C4.47956 6.11806 4.48254 6.10913 4.48619 6.10913C4.48984 6.10913 4.49282 6.09573 4.49282 6.07935C4.49282 6.06297 4.49548 6.04957 4.49873 6.04957C4.5114 6.04957 4.5248 5.92001 4.51331 5.90855C4.50934 5.90459 4.50609 5.89726 4.50609 5.89227C4.50609 5.88002 4.48956 5.86428 4.47672 5.86428C4.47099 5.86428 4.4663 5.8613 4.4663 5.85766C4.4663 5.85402 4.45735 5.85105 4.4464 5.85105C4.43546 5.85105 4.4265 5.84882 4.42648 5.84608C4.42647 5.84335 4.4123 5.83569 4.39499 5.82907C4.37768 5.82244 4.35904 5.81475 4.35357 5.81198C4.3481 5.80922 4.32945 5.80282 4.31212 5.79778C4.2948 5.79273 4.28062 5.78627 4.28062 5.78343C4.28062 5.78058 4.27167 5.77825 4.26073 5.77825C4.24979 5.77825 4.24084 5.77528 4.24084 5.77164C4.24084 5.768 4.23338 5.76502 4.22426 5.76502C4.21514 5.76502 4.20768 5.76204 4.20768 5.7584C4.20768 5.75476 4.19873 5.75178 4.18779 5.75178C4.17685 5.75178 4.16789 5.74881 4.16789 5.74517C4.16789 5.74153 4.16191 5.73855 4.1546 5.73855C4.14728 5.73855 4.12584 5.7311 4.10694 5.72201C4.08804 5.71291 4.06717 5.70546 4.06055 5.70546C4.05394 5.70546 4.04853 5.70248 4.04853 5.69884C4.04853 5.69521 4.03958 5.69223 4.02864 5.69223C4.0177 5.69223 4.00874 5.68925 4.00874 5.68561C4.00874 5.68197 4.00128 5.67899 3.99217 5.67899C3.98305 5.67899 3.97559 5.67601 3.97559 5.67237C3.97559 5.66874 3.96664 5.66576 3.95569 5.66576C3.94475 5.66576 3.9358 5.66278 3.9358 5.65914C3.9358 5.65532 3.9148 5.65252 3.88607 5.65252C3.85733 5.65252 3.83633 5.65532 3.83633 5.65914C3.83633 5.66278 3.83094 5.66576 3.82434 5.66576C3.81216 5.66576 3.78991 5.70567 3.78991 5.72754C3.78991 5.73359 3.78693 5.73855 3.78328 5.73855C3.77964 5.73855 3.77665 5.74748 3.77665 5.7584C3.77665 5.76932 3.77367 5.77825 3.77002 5.77825C3.76637 5.77825 3.76339 5.7857 3.76339 5.7948C3.76339 5.8039 3.76041 5.81134 3.75676 5.81134C3.75311 5.81134 3.75013 5.82028 3.75013 5.83119C3.75013 5.84211 3.74714 5.85105 3.7435 5.85105C3.73985 5.85105 3.73686 5.85998 3.73686 5.8709C3.73686 5.88182 3.73388 5.89075 3.73023 5.89075C3.72659 5.89075 3.7235 5.89745 3.72337 5.90564C3.72324 5.91383 3.71887 5.92797 3.71366 5.93707C3.70844 5.94617 3.70407 5.96163 3.70394 5.97142C3.70381 5.98122 3.70072 5.99107 3.69708 5.99332C3.69343 5.99557 3.69045 6.00617 3.69045 6.01687C3.69045 6.02758 3.68746 6.03634 3.68381 6.03634C3.68017 6.03634 3.67718 6.04807 3.67718 6.06241C3.67718 6.07676 3.6742 6.09033 3.67055 6.09258C3.66691 6.09483 3.66392 6.10841 3.66392 6.12275C3.66392 6.1371 3.66094 6.14883 3.65729 6.14883C3.65364 6.14883 3.65066 6.15866 3.65066 6.17067C3.65066 6.18268 3.64816 6.19534 3.6451 6.19879C3.64204 6.20225 3.63437 6.23039 3.62805 6.26133C3.62173 6.29227 3.61378 6.32834 3.6104 6.34151C3.60701 6.35467 3.60424 6.37906 3.60424 6.39571C3.60424 6.41236 3.60126 6.42782 3.59761 6.43007C3.59396 6.43232 3.59098 6.45781 3.59098 6.48671C3.59098 6.51733 3.58821 6.53926 3.58435 6.53926C3.58051 6.53926 3.57772 6.56022 3.57772 6.58889C3.57772 6.61757 3.57492 6.63852 3.57108 6.63852C3.56683 6.63852 3.56445 6.69919 3.56445 6.80727C3.56445 6.91535 3.56683 6.97601 3.57108 6.97601C3.57498 6.97601 3.57772 6.99917 3.57772 7.03226C3.57772 7.0632 3.58049 7.08851 3.58388 7.08851C3.58726 7.08851 3.5915 7.11457 3.59329 7.14641C3.59679 7.2086 3.60636 7.28072 3.61676 7.32343C3.62031 7.33799 3.62708 7.36852 3.63182 7.39126C3.63655 7.41401 3.64273 7.43262 3.64555 7.43262C3.64836 7.43262 3.65066 7.44304 3.65066 7.45578C3.65066 7.46852 3.65364 7.47894 3.65729 7.47894C3.66094 7.47894 3.66392 7.49085 3.66392 7.50541C3.66392 7.51997 3.66691 7.53188 3.67055 7.53188C3.6742 7.53188 3.67718 7.53788 3.67718 7.54521C3.67718 7.55253 3.67997 7.5637 3.68338 7.57002C3.68678 7.57634 3.6934 7.59565 3.69809 7.61294C3.70277 7.63024 3.7087 7.64438 3.71126 7.64438C3.71382 7.64438 3.71787 7.65328 3.72027 7.66416C3.72266 7.67503 3.72738 7.68563 3.73074 7.68771C3.73411 7.68978 3.73686 7.69726 3.73686 7.70432C3.73686 7.71139 3.73985 7.71717 3.7435 7.71717C3.74714 7.71717 3.75013 7.72461 3.75013 7.73371C3.75013 7.74281 3.75311 7.75026 3.75676 7.75026C3.76041 7.75026 3.76339 7.75621 3.76339 7.76349C3.76339 7.77077 3.76637 7.77673 3.77002 7.77673C3.77367 7.77673 3.77665 7.78268 3.77665 7.78996C3.77665 7.79724 3.77964 7.8032 3.78328 7.8032C3.78693 7.8032 3.78991 7.80729 3.78991 7.81229C3.78991 7.82314 3.82343 7.88497 3.83102 7.88812C3.83395 7.88934 3.83633 7.89603 3.83633 7.90301C3.83633 7.90998 3.83932 7.91569 3.84296 7.91569C3.84661 7.91569 3.8496 7.92016 3.8496 7.92562C3.8496 7.93108 3.85258 7.93555 3.85623 7.93555C3.85987 7.93555 3.86286 7.94001 3.86286 7.94547C3.86286 7.95093 3.86584 7.9554 3.86949 7.9554C3.87314 7.9554 3.87612 7.95986 3.87612 7.96532C3.87612 7.97078 3.87891 7.97525 3.88231 7.97525C3.88571 7.97525 3.89017 7.98046 3.89223 7.98683C3.8943 7.9932 3.90494 8.00793 3.91589 8.01956C3.92684 8.03119 3.9358 8.04395 3.9358 8.0479C3.9358 8.05186 3.94625 8.06552 3.95901 8.07826C3.97178 8.091 3.98222 8.1036 3.98222 8.10626C3.98222 8.11002 4.05021 8.18598 4.07982 8.2153C4.12397 8.25901 4.20558 8.33259 4.20992 8.33259C4.21306 8.33259 4.22354 8.34079 4.2332 8.35081C4.24287 8.36083 4.26272 8.37786 4.27731 8.38866C4.2919 8.39946 4.30962 8.4136 4.31669 8.42008C4.32376 8.42655 4.33345 8.43185 4.33824 8.43185C4.34302 8.43185 4.34694 8.43483 4.34694 8.43847C4.34694 8.44211 4.35141 8.44509 4.35688 8.44509C4.36235 8.44509 4.36683 8.44807 4.36683 8.45171C4.36683 8.45535 4.3717 8.45832 4.37766 8.45832C4.38361 8.45832 4.39331 8.4637 4.39921 8.47028C4.41218 8.48475 4.47101 8.51788 4.48371 8.51788C4.48872 8.51788 4.49282 8.52086 4.49282 8.5245C4.49282 8.52814 4.4973 8.53112 4.50277 8.53112C4.50824 8.53112 4.51272 8.53409 4.51272 8.53773C4.51272 8.54137 4.51868 8.54435 4.52598 8.54435C4.53327 8.54435 4.53927 8.54658 4.53931 8.54931C4.53936 8.55205 4.5513 8.55997 4.56584 8.56692C4.58039 8.57388 4.59229 8.58206 4.59229 8.58512C4.59229 8.58817 4.59667 8.59067 4.60204 8.59067C4.6074 8.59067 4.62241 8.59663 4.63539 8.60391C4.64838 8.61119 4.66339 8.61714 4.66875 8.61714C4.67411 8.61714 4.6785 8.62012 4.6785 8.62376C4.6785 8.6274 4.68446 8.63038 4.69176 8.63038C4.69905 8.63038 4.70502 8.63336 4.70502 8.637C4.70502 8.64063 4.71248 8.64361 4.7216 8.64361C4.73072 8.64361 4.73818 8.64627 4.73818 8.64952C4.73818 8.65276 4.74635 8.65746 4.75635 8.65996C4.76634 8.66247 4.77604 8.66651 4.7779 8.66895C4.78179 8.67406 4.84034 8.69653 4.86251 8.70142C4.87072 8.70323 4.87743 8.70735 4.87743 8.71056C4.87743 8.71377 4.88639 8.7164 4.89733 8.7164C4.90827 8.7164 4.91722 8.71938 4.91722 8.72302C4.91722 8.72666 4.92468 8.72964 4.9338 8.72964C4.94292 8.72964 4.95038 8.73262 4.95038 8.73626C4.95038 8.7399 4.95788 8.74287 4.96705 8.74287C4.97621 8.74287 4.9889 8.74549 4.99523 8.74868C5.02568 8.76405 5.05815 8.77596 5.06957 8.77596C5.07653 8.77596 5.08406 8.77894 5.08632 8.78258C5.08857 8.78622 5.09901 8.7892 5.10953 8.7892C5.12004 8.7892 5.13048 8.79217 5.13273 8.79581C5.13499 8.79945 5.14561 8.80243 5.15634 8.80243C5.16706 8.80243 5.17584 8.80541 5.17584 8.80905C5.17584 8.81269 5.18628 8.81567 5.19905 8.81567C5.21181 8.81567 5.22226 8.81864 5.22226 8.82228C5.22226 8.82592 5.23394 8.8289 5.24823 8.8289C5.26251 8.8289 5.27519 8.83127 5.27641 8.83416C5.27889 8.84007 5.39028 8.86824 5.43114 8.8733C5.44573 8.8751 5.4605 8.87925 5.46396 8.88252C5.46743 8.88579 5.4816 8.88846 5.49546 8.88846C5.50932 8.88846 5.52066 8.89144 5.52066 8.89508C5.52066 8.89881 5.53945 8.90169 5.56376 8.90169C5.58808 8.90169 5.60687 8.90458 5.60687 8.90831C5.60687 8.91199 5.62455 8.91493 5.64665 8.91493C5.66854 8.91493 5.68644 8.91763 5.68644 8.92093C5.68644 8.92424 5.70211 8.92845 5.72125 8.9303C5.7404 8.93215 5.78442 8.93857 5.81906 8.94457C5.89839 8.9583 5.97359 8.96768 6.03955 8.97207C6.06781 8.97396 6.09094 8.97824 6.09094 8.98161C6.09094 8.98497 6.10898 8.98772 6.13103 8.98772C6.18433 8.98772 6.20051 9.00272 6.20675 9.05789C6.20919 9.07935 6.21322 9.23687 6.21571 9.40793C6.22039 9.72825 6.22088 9.73376 6.24736 9.76017C6.25389 9.7667 6.31676 9.76858 6.5283 9.76858H6.80082L6.80479 9.74873C6.80698 9.73781 6.81139 9.72888 6.81458 9.72888C6.81781 9.72888 6.82038 9.59826 6.82038 9.4344C6.82038 9.24249 6.82269 9.13992 6.82701 9.13992C6.83075 9.13992 6.83364 9.12122 6.83364 9.09706C6.83364 9.02728 6.81483 9.03112 7.16821 9.02859C7.3325 9.02741 7.49381 9.02838 7.52668 9.03074C7.58277 9.03478 7.58694 9.03611 7.59465 9.05241C7.60075 9.06531 7.60286 9.13786 7.60285 9.3348C7.60285 9.48113 7.60598 9.62503 7.60985 9.65608C7.6137 9.68702 7.61836 9.72499 7.62021 9.74046L7.62357 9.76858H7.90167C8.08266 9.76858 8.17978 9.76627 8.17978 9.76196C8.17978 9.75832 8.18574 9.75535 8.19304 9.75535C8.20336 9.75535 8.2063 9.75093 8.2063 9.73549C8.2063 9.72457 8.20929 9.71564 8.21293 9.71564C8.21726 9.71564 8.21956 9.60866 8.21956 9.40793C8.21956 9.2072 8.22187 9.10022 8.22619 9.10022C8.22984 9.10022 8.23283 9.09249 8.23283 9.08304C8.23283 9.05449 8.25289 9.02743 8.27405 9.02743C8.2842 9.02743 8.29251 9.02445 8.29251 9.02081C8.29251 9.01684 8.31903 9.01419 8.35882 9.01419C8.39861 9.01419 8.42513 9.01154 8.42513 9.00757C8.42513 9.00342 8.467 9.00096 8.53747 9.00096C8.60521 9.00096 8.65143 8.99833 8.65391 8.99434C8.65619 8.99066 8.68669 8.98772 8.7226 8.98772C8.75813 8.98772 8.79003 8.98497 8.79349 8.9816C8.79696 8.97823 8.82217 8.97397 8.84953 8.97212C8.91593 8.96764 8.99307 8.95754 9.06173 8.94434C9.09273 8.93837 9.13376 8.93202 9.15291 8.93021C9.17206 8.92841 9.18772 8.92424 9.18772 8.92093C9.18772 8.91763 9.20413 8.91493 9.22419 8.91493C9.24425 8.91493 9.26066 8.91195 9.26066 8.90831C9.26066 8.90467 9.27409 8.90169 9.2905 8.90169C9.30692 8.90169 9.32034 8.89872 9.32034 8.89508C9.32034 8.89144 9.33061 8.88846 9.34316 8.88846C9.35572 8.88846 9.36763 8.8858 9.36965 8.88254C9.37166 8.87929 9.38452 8.87516 9.39822 8.87338C9.43251 8.86891 9.52873 8.84057 9.53144 8.83415C9.53266 8.83126 9.54235 8.8289 9.55299 8.8289C9.56363 8.8289 9.57233 8.82626 9.57233 8.82303C9.57233 8.81981 9.58128 8.81534 9.59222 8.81311C9.60317 8.81088 9.62107 8.80722 9.63201 8.80499C9.64295 8.80276 9.65191 8.79829 9.65191 8.79507C9.65191 8.79184 9.66086 8.7892 9.6718 8.7892C9.68274 8.7892 9.69169 8.78622 9.69169 8.78258C9.69169 8.77894 9.69607 8.77596 9.70141 8.77596C9.7134 8.77596 9.7605 8.75464 9.76353 8.74784C9.76475 8.7451 9.77146 8.74287 9.77845 8.74287C9.78544 8.74287 9.79116 8.7399 9.79116 8.73626C9.79116 8.73262 9.80011 8.72964 9.81105 8.72964C9.822 8.72964 9.83095 8.72666 9.83095 8.72302C9.83095 8.71938 9.83841 8.7164 9.84753 8.7164C9.85664 8.7164 9.8641 8.71343 9.8641 8.70979C9.8641 8.70615 9.87007 8.70317 9.87737 8.70317C9.88466 8.70317 9.89063 8.70019 9.89063 8.69655C9.89063 8.69291 9.895 8.68994 9.90034 8.68994C9.91197 8.68994 9.97258 8.65721 9.97573 8.64922C9.97695 8.64614 9.9849 8.64361 9.99341 8.64361C10.0019 8.64361 10.0099 8.64138 10.0111 8.63865C10.0123 8.63592 10.0267 8.62647 10.0431 8.61764C10.0596 8.60881 10.0745 8.59984 10.0763 8.59772C10.0824 8.5906 10.1356 8.55759 10.141 8.55759C10.1439 8.55759 10.1506 8.55163 10.1559 8.54435C10.1611 8.53707 10.1685 8.53111 10.1723 8.53111C10.176 8.5311 10.1871 8.52421 10.1969 8.51578C10.2067 8.50737 10.2226 8.49471 10.2322 8.48767C10.2791 8.45336 10.4211 8.31817 10.4211 8.30792C10.4211 8.3049 10.4271 8.29814 10.4344 8.29289C10.4417 8.28764 10.4477 8.27876 10.4477 8.27315C10.4477 8.26754 10.4554 8.25713 10.4649 8.25002C10.4744 8.24291 10.4913 8.2236 10.5026 8.20709C10.5139 8.19059 10.5285 8.17226 10.5351 8.16638C10.5417 8.16049 10.5471 8.15082 10.5471 8.14487C10.5471 8.13893 10.5496 8.13407 10.5527 8.13407C10.5558 8.13407 10.5639 8.12365 10.5708 8.11091C10.5777 8.09817 10.5856 8.08775 10.5884 8.08775C10.5912 8.08775 10.5935 8.08179 10.5935 8.07451C10.5935 8.06723 10.596 8.06128 10.5989 8.06128C10.6019 8.06128 10.6084 8.05085 10.6134 8.03812C10.6184 8.02538 10.625 8.01495 10.6279 8.01495C10.6309 8.01495 10.6333 8.00627 10.6333 7.99565C10.6333 7.98504 10.6356 7.97536 10.6383 7.97414C10.643 7.97207 10.6732 7.91229 10.6879 7.87599C10.6915 7.86689 10.6972 7.85428 10.7004 7.84796C10.7036 7.84164 10.7063 7.82898 10.7063 7.81983C10.7063 7.81068 10.7093 7.8032 10.7129 7.8032C10.7165 7.8032 10.7195 7.79426 10.7195 7.78334C10.7195 7.77242 10.7225 7.76349 10.7262 7.76349C10.7298 7.76349 10.7328 7.75307 10.7328 7.74033C10.7328 7.72759 10.7355 7.71717 10.7387 7.71717C10.7419 7.71717 10.7461 7.70749 10.7479 7.69566C10.7497 7.68383 10.7563 7.65331 10.7627 7.62783C10.7691 7.60236 10.7757 7.56513 10.7773 7.54512C10.779 7.5251 10.7831 7.50589 10.7864 7.50243C10.7898 7.49897 10.7925 7.4759 10.7925 7.45115C10.7925 7.42556 10.7953 7.40615 10.7991 7.40615C10.803 7.40615 10.8057 7.38409 10.8057 7.35321C10.8057 7.32233 10.8085 7.30027 10.8124 7.30027C10.8166 7.30027 10.819 7.23961 10.819 7.13152C10.819 7.02344 10.8166 6.96278 10.8124 6.96278C10.8085 6.96278 10.8057 6.93962 10.8057 6.90653C10.8057 6.87559 10.8029 6.85028 10.7995 6.85028C10.796 6.85028 10.7917 6.81381 10.7899 6.76922C10.7841 6.63042 10.7733 6.52042 10.7487 6.35066C10.7429 6.31063 10.7367 6.25628 10.735 6.2299C10.7332 6.20351 10.729 6.18192 10.7256 6.18192C10.7223 6.18192 10.7195 6.16423 10.7195 6.1426C10.7195 6.12098 10.7165 6.10145 10.7129 6.0992C10.7093 6.09695 10.7063 6.07951 10.7063 6.06043C10.7063 6.04135 10.7036 6.02291 10.7002 6.01946C10.6969 6.016 10.6927 5.99828 10.6908 5.98009C10.6867 5.93974 10.6779 5.89923 10.663 5.85105C10.6568 5.83103 10.6502 5.80349 10.6484 5.78983C10.6467 5.77618 10.6425 5.76502 10.6393 5.76502C10.636 5.76502 10.6333 5.7546 10.6333 5.74186C10.6333 5.72912 10.6303 5.7187 10.6267 5.7187C10.623 5.7187 10.6201 5.70976 10.6201 5.69884C10.6201 5.68793 10.6171 5.67899 10.6134 5.67899C10.6098 5.67899 10.6068 5.67413 10.6068 5.66819C10.6068 5.64843 10.5793 5.63125 10.5538 5.63501C10.5114 5.64123 10.4609 5.65506 10.4609 5.66044C10.4609 5.66337 10.449 5.66576 10.4344 5.66576C10.4198 5.66576 10.4079 5.66874 10.4079 5.67237C10.4079 5.67601 10.3974 5.67899 10.3847 5.67899C10.3719 5.67899 10.3614 5.68197 10.3614 5.68561C10.3614 5.68925 10.3497 5.69223 10.3353 5.69223C10.3209 5.69223 10.3075 5.69487 10.3055 5.69812C10.3035 5.70135 10.2922 5.70552 10.2803 5.70737C10.2684 5.70922 10.2408 5.71575 10.2189 5.72187C10.197 5.72799 10.1694 5.73459 10.1575 5.73651C10.1456 5.73844 10.1342 5.74266 10.1322 5.74589C10.1302 5.74914 10.1198 5.75178 10.1091 5.75178C10.0983 5.75178 10.0896 5.75476 10.0896 5.7584C10.0896 5.76204 10.0776 5.76502 10.063 5.76502C10.0485 5.76502 10.0365 5.768 10.0365 5.77164C10.0365 5.77528 10.0261 5.77825 10.0133 5.77825C10.0005 5.77825 9.9901 5.78123 9.9901 5.78487C9.9901 5.78851 9.98132 5.79149 9.97059 5.79149C9.95987 5.79149 9.94925 5.79447 9.94699 5.79811C9.94474 5.80175 9.93412 5.80472 9.92339 5.80472C9.91266 5.80472 9.90389 5.8077 9.90389 5.81134C9.90389 5.81498 9.89947 5.81796 9.89408 5.81796C9.87218 5.81796 9.83235 5.83939 9.82522 5.85502C9.81615 5.87488 9.81546 5.89901 9.82371 5.90763C9.82702 5.91109 9.83125 5.9288 9.83312 5.947C9.83694 5.98411 9.84472 6.02086 9.86115 6.07935C9.86729 6.10119 9.87375 6.13171 9.8755 6.14718C9.87726 6.16264 9.88138 6.1753 9.88467 6.1753C9.88794 6.1753 9.89063 6.19168 9.89063 6.2117C9.89063 6.23172 9.89361 6.24809 9.89726 6.24809C9.90091 6.24809 9.90389 6.26447 9.90389 6.28449C9.90389 6.30451 9.90661 6.32089 9.90993 6.32089C9.91325 6.32089 9.91756 6.33801 9.91951 6.35894C9.92146 6.37986 9.92594 6.41485 9.92947 6.43669C9.93302 6.45853 9.93931 6.50022 9.94347 6.52934C9.94764 6.55845 9.95378 6.59419 9.95715 6.60875C9.9605 6.6233 9.96332 6.6449 9.96341 6.65672C9.9635 6.66855 9.96656 6.67823 9.9702 6.67823C9.97416 6.67823 9.97683 6.70359 9.97683 6.74109C9.97683 6.7786 9.97951 6.80396 9.98347 6.80396C9.98752 6.80396 9.9901 6.83484 9.9901 6.88337C9.9901 6.9319 9.99268 6.96278 9.99673 6.96278C10.001 6.96278 10.0034 7.03323 10.0034 7.16091C10.0034 7.28586 10.0009 7.36055 9.99673 7.36314C9.99308 7.36538 9.9901 7.38491 9.9901 7.40654C9.9901 7.42834 9.98714 7.44585 9.98347 7.44585C9.97982 7.44585 9.97683 7.45751 9.97683 7.47177C9.97683 7.48603 9.97447 7.49868 9.97158 7.4999C9.9687 7.50111 9.95465 7.52816 9.94037 7.56C9.92609 7.59185 9.91203 7.61791 9.90914 7.61791C9.90626 7.61791 9.90389 7.62386 9.90389 7.63114C9.90389 7.63842 9.90091 7.64438 9.89726 7.64438C9.89361 7.64438 9.89063 7.64884 9.89063 7.6543C9.89063 7.65976 9.88764 7.66423 9.884 7.66423C9.88035 7.66423 9.87737 7.66811 9.87737 7.67287C9.87737 7.67989 9.85355 7.71055 9.82606 7.73893C9.80622 7.75941 9.75706 7.8032 9.75392 7.8032C9.7518 7.8032 9.74212 7.81169 9.7324 7.82206C9.72269 7.83245 9.70582 7.84589 9.69493 7.85193C9.66124 7.87062 9.64918 7.87887 9.63796 7.89088C9.63201 7.89724 9.62227 7.90246 9.61632 7.90246C9.61036 7.90246 9.60549 7.90488 9.60549 7.90784C9.60549 7.9108 9.59504 7.91731 9.58228 7.92231C9.56951 7.92731 9.55907 7.93382 9.55907 7.93678C9.55907 7.93974 9.5531 7.94216 9.54581 7.94216C9.53851 7.94216 9.53254 7.94514 9.53254 7.94878C9.53254 7.95242 9.52694 7.9554 9.52009 7.9554C9.51325 7.9554 9.50393 7.95986 9.49939 7.96532C9.49484 7.97078 9.48553 7.97525 9.47868 7.97525C9.47183 7.97525 9.46623 7.97823 9.46623 7.98187C9.46623 7.98551 9.45877 7.98848 9.44965 7.98848C9.44054 7.98848 9.43308 7.99146 9.43308 7.9951C9.43308 7.99874 9.42562 8.00172 9.4165 8.00172C9.40738 8.00172 9.39992 8.0047 9.39992 8.00834C9.39992 8.01198 9.39097 8.01495 9.38003 8.01495C9.36908 8.01495 9.36013 8.01793 9.36013 8.02157C9.36013 8.02521 9.35118 8.02819 9.34024 8.02819C9.3293 8.02819 9.32034 8.03083 9.32034 8.03406C9.32034 8.03728 9.31214 8.04134 9.30211 8.04307C9.27119 8.0484 9.21816 8.06253 9.20605 8.06868C9.19972 8.07188 9.18405 8.07451 9.17124 8.07451C9.15842 8.07451 9.14793 8.07749 9.14793 8.08113C9.14793 8.08477 9.1345 8.08775 9.11809 8.08775C9.10168 8.08775 9.08825 8.09045 9.08825 8.09375C9.08825 8.09937 9.07633 8.10131 8.98215 8.11107C8.96209 8.11315 8.93971 8.11756 8.93242 8.12086C8.92512 8.12416 8.90274 8.12832 8.88268 8.13009C8.8118 8.13638 8.72657 8.14781 8.70364 8.1541C8.69088 8.1576 8.62598 8.16048 8.55941 8.1605C8.48318 8.16053 8.43839 8.16299 8.43839 8.16716C8.43839 8.17113 8.41187 8.17377 8.37208 8.17377C8.33229 8.17377 8.30577 8.17113 8.30577 8.16716C8.30577 8.16352 8.29288 8.16054 8.27712 8.16054C8.25481 8.16054 8.24529 8.15687 8.23402 8.14394L8.21956 8.12735V6.83699C8.21956 5.98117 8.21733 5.54664 8.21293 5.54664C8.20929 5.54664 8.2063 5.53473 8.2063 5.52017V5.4937H8.10683C8.04494 5.4937 8.00736 5.4912 8.00736 5.48709C8.00736 5.4832 7.98416 5.48047 7.951 5.48047C7.91784 5.48047 7.89463 5.4832 7.89463 5.48709C7.89463 5.49128 7.84613 5.4937 7.7624 5.4937C7.66386 5.4937 7.62882 5.49581 7.62487 5.50198C7.62196 5.50652 7.61695 5.53109 7.61372 5.55657C7.6105 5.58205 7.60669 6.16794 7.60525 6.85855C7.60354 7.67446 7.60035 8.11422 7.59611 8.11422C7.59253 8.11422 7.5896 8.12464 7.5896 8.13738C7.5896 8.15612 7.58707 8.16054 7.57634 8.16054C7.56904 8.16054 7.56307 8.16352 7.56307 8.16716C7.56307 8.17148 7.44262 8.17377 7.21499 8.17377H6.8669L6.85027 8.15935C6.83535 8.1464 6.83364 8.13994 6.83364 8.09648C6.83364 8.0686 6.83083 8.04804 6.82701 8.04804C6.82261 8.04804 6.82038 7.62232 6.82038 6.78411C6.82038 5.94589 6.81814 5.52017 6.81375 5.52017C6.8101 5.52017 6.80712 5.51422 6.80712 5.50694C6.80712 5.4945 6.80269 5.4937 6.73417 5.4937C6.68996 5.4937 6.66123 5.4911 6.66123 5.48709C6.66123 5.48292 6.61702 5.48047 6.54187 5.48047C6.46672 5.48047 6.42251 5.48292 6.42251 5.48709Z" fill="#8F5B34"/>
<path fill-rule="evenodd" clip-rule="evenodd" d="M6.42251 5.48709C6.42251 5.49115 6.39034 5.4937 6.33928 5.4937C6.27766 5.4937 6.25099 5.49632 6.2365 5.5038L6.21694 5.51389V6.78418C6.21694 7.73471 6.21498 8.06177 6.20917 8.08348L6.20139 8.11249L6.15628 8.11626C6.09962 8.121 5.94575 8.11408 5.94111 8.10658C5.9392 8.1035 5.91843 8.10098 5.89493 8.10098C5.87088 8.10098 5.85222 8.09809 5.85222 8.09436C5.85222 8.09072 5.83581 8.08775 5.81575 8.08775C5.79569 8.08775 5.77928 8.08477 5.77928 8.08113C5.77928 8.07749 5.76287 8.07451 5.74281 8.07451C5.72275 8.07451 5.70633 8.0721 5.70633 8.06915C5.70633 8.06621 5.68918 8.06049 5.6682 8.05644C5.63163 8.04939 5.59433 8.041 5.53724 8.027C5.52265 8.02342 5.49953 8.01894 5.48585 8.01703C5.47217 8.01513 5.46098 8.0109 5.46098 8.00764C5.46098 8.00439 5.44904 8.00172 5.43445 8.00172C5.41987 8.00172 5.40793 7.99874 5.40793 7.9951C5.40793 7.99146 5.39898 7.98848 5.38804 7.98848C5.37709 7.98848 5.36814 7.98551 5.36814 7.98187C5.36814 7.97823 5.36227 7.97525 5.35511 7.97525C5.34335 7.97525 5.31112 7.96349 5.28037 7.94797C5.27404 7.94478 5.26135 7.94216 5.25219 7.94216C5.24302 7.94216 5.23552 7.93918 5.23552 7.93555C5.23552 7.93191 5.22973 7.92893 5.22265 7.92893C5.21557 7.92893 5.20793 7.92595 5.20568 7.92231C5.20342 7.91867 5.19447 7.91569 5.18578 7.91569C5.1771 7.91569 5.16815 7.91271 5.16589 7.90908C5.16364 7.90544 5.156 7.90246 5.14892 7.90246C5.14184 7.90246 5.13605 7.89948 5.13605 7.89584C5.13605 7.8922 5.13173 7.88922 5.12645 7.88922C5.12118 7.88922 5.10283 7.88178 5.08568 7.87268C5.06853 7.86358 5.05047 7.85614 5.04554 7.85614C5.04061 7.85614 5.03658 7.85316 5.03658 7.84952C5.03658 7.84588 5.03061 7.8429 5.02332 7.8429C5.01603 7.8429 5.01006 7.83992 5.01006 7.83628C5.01006 7.83264 5.00558 7.82967 5.00011 7.82967C4.99464 7.82967 4.99016 7.82669 4.99016 7.82305C4.99016 7.81941 4.9842 7.81643 4.9769 7.81643C4.96961 7.81643 4.96364 7.81345 4.96364 7.80981C4.96364 7.80617 4.95767 7.8032 4.95038 7.8032C4.94308 7.8032 4.93711 7.80022 4.93711 7.79658C4.93711 7.79294 4.93335 7.78996 4.92876 7.78996C4.92416 7.78996 4.91235 7.78252 4.90252 7.77342C4.89269 7.76432 4.8807 7.75687 4.87587 7.75687C4.87105 7.75687 4.8628 7.75092 4.85754 7.74364C4.85228 7.73636 4.84416 7.7304 4.8395 7.7304C4.83483 7.7304 4.83101 7.72743 4.83101 7.72379C4.83101 7.72015 4.82719 7.71717 4.82253 7.71717C4.81786 7.71717 4.80975 7.71121 4.80449 7.70393C4.79923 7.69665 4.79284 7.6907 4.79029 7.6907C4.78485 7.6907 4.6785 7.58677 4.6785 7.58146C4.6785 7.57947 4.66582 7.565 4.65031 7.54929C4.61147 7.50992 4.59229 7.48665 4.59229 7.47889C4.59229 7.47528 4.58931 7.47232 4.58566 7.47232C4.58201 7.47232 4.57903 7.46702 4.57903 7.46055C4.57903 7.45407 4.57306 7.44448 4.56577 7.43924C4.55847 7.43399 4.5525 7.4244 4.5525 7.41792C4.5525 7.41145 4.54952 7.40615 4.54587 7.40615C4.54223 7.40615 4.53924 7.40192 4.53924 7.39676C4.53924 7.38495 4.51773 7.34669 4.51106 7.34663C4.50833 7.34661 4.50609 7.33915 4.50609 7.33005C4.50609 7.32095 4.5031 7.3135 4.49945 7.3135C4.49581 7.3135 4.49282 7.30606 4.49282 7.29696C4.49282 7.28786 4.48984 7.28042 4.48619 7.28042C4.48254 7.28042 4.47956 7.27297 4.47956 7.26387C4.47956 7.25477 4.47723 7.24733 4.47437 7.24733C4.47152 7.24733 4.4653 7.23318 4.46054 7.2159C4.45577 7.19861 4.44943 7.17702 4.44644 7.16792C4.44345 7.15882 4.43555 7.13128 4.42887 7.10671C4.42219 7.08214 4.41446 7.06204 4.41167 7.06204C4.40889 7.06204 4.40662 7.03971 4.40662 7.01241C4.40662 6.98374 4.40382 6.96278 4.39999 6.96278C4.3957 6.96278 4.39335 6.88226 4.39335 6.73448C4.39335 6.58669 4.3957 6.50617 4.39999 6.50617C4.40382 6.50617 4.40662 6.48522 4.40662 6.45654C4.40662 6.42925 4.40921 6.40691 4.41239 6.40691C4.41556 6.40691 4.41981 6.39426 4.42182 6.37879C4.42384 6.36332 4.43052 6.32982 4.43667 6.30434C4.44281 6.27886 4.44932 6.24684 4.45114 6.23316C4.45295 6.21949 4.45711 6.20666 4.46037 6.20465C4.46363 6.20264 4.4663 6.18926 4.4663 6.17491C4.4663 6.16056 4.46928 6.14883 4.47293 6.14883C4.47658 6.14883 4.47956 6.1399 4.47956 6.12898C4.47956 6.11806 4.48254 6.10913 4.48619 6.10913C4.48984 6.10913 4.49282 6.09573 4.49282 6.07935C4.49282 6.06297 4.49548 6.04957 4.49873 6.04957C4.5114 6.04957 4.5248 5.92001 4.51331 5.90855C4.50934 5.90459 4.50609 5.89726 4.50609 5.89227C4.50609 5.88002 4.48956 5.86428 4.47672 5.86428C4.47099 5.86428 4.4663 5.8613 4.4663 5.85766C4.4663 5.85402 4.45735 5.85105 4.4464 5.85105C4.43546 5.85105 4.4265 5.84882 4.42648 5.84608C4.42647 5.84335 4.4123 5.83569 4.39499 5.82907C4.37768 5.82244 4.35904 5.81475 4.35357 5.81198C4.3481 5.80922 4.32945 5.80282 4.31212 5.79778C4.2948 5.79273 4.28062 5.78627 4.28062 5.78343C4.28062 5.78058 4.27167 5.77825 4.26073 5.77825C4.24979 5.77825 4.24084 5.77528 4.24084 5.77164C4.24084 5.768 4.23338 5.76502 4.22426 5.76502C4.21514 5.76502 4.20768 5.76204 4.20768 5.7584C4.20768 5.75476 4.19873 5.75178 4.18779 5.75178C4.17685 5.75178 4.16789 5.74881 4.16789 5.74517C4.16789 5.74153 4.16191 5.73855 4.1546 5.73855C4.14728 5.73855 4.12584 5.7311 4.10694 5.72201C4.08804 5.71291 4.06717 5.70546 4.06055 5.70546C4.05394 5.70546 4.04853 5.70248 4.04853 5.69884C4.04853 5.69521 4.03958 5.69223 4.02864 5.69223C4.0177 5.69223 4.00874 5.68925 4.00874 5.68561C4.00874 5.68197 4.00128 5.67899 3.99217 5.67899C3.98305 5.67899 3.97559 5.67601 3.97559 5.67237C3.97559 5.66874 3.96664 5.66576 3.95569 5.66576C3.94475 5.66576 3.9358 5.66278 3.9358 5.65914C3.9358 5.65532 3.9148 5.65252 3.88607 5.65252C3.85733 5.65252 3.83633 5.65532 3.83633 5.65914C3.83633 5.66278 3.83094 5.66576 3.82434 5.66576C3.81216 5.66576 3.78991 5.70567 3.78991 5.72754C3.78991 5.73359 3.78693 5.73855 3.78328 5.73855C3.77964 5.73855 3.77665 5.74748 3.77665 5.7584C3.77665 5.76932 3.77367 5.77825 3.77002 5.77825C3.76637 5.77825 3.76339 5.7857 3.76339 5.7948C3.76339 5.8039 3.76041 5.81134 3.75676 5.81134C3.75311 5.81134 3.75013 5.82028 3.75013 5.83119C3.75013 5.84211 3.74714 5.85105 3.7435 5.85105C3.73985 5.85105 3.73686 5.85998 3.73686 5.8709C3.73686 5.88182 3.73388 5.89075 3.73023 5.89075C3.72659 5.89075 3.7235 5.89745 3.72337 5.90564C3.72324 5.91383 3.71887 5.92797 3.71366 5.93707C3.70844 5.94617 3.70407 5.96163 3.70394 5.97142C3.70381 5.98122 3.70072 5.99107 3.69708 5.99332C3.69343 5.99557 3.69045 6.00617 3.69045 6.01687C3.69045 6.02758 3.68746 6.03634 3.68381 6.03634C3.68017 6.03634 3.67718 6.04807 3.67718 6.06241C3.67718 6.07676 3.6742 6.09033 3.67055 6.09258C3.66691 6.09483 3.66392 6.10841 3.66392 6.12275C3.66392 6.1371 3.66094 6.14883 3.65729 6.14883C3.65364 6.14883 3.65066 6.15866 3.65066 6.17067C3.65066 6.18268 3.64816 6.19534 3.6451 6.19879C3.64204 6.20225 3.63437 6.23039 3.62805 6.26133C3.62173 6.29227 3.61378 6.32834 3.6104 6.34151C3.60701 6.35467 3.60424 6.37906 3.60424 6.39571C3.60424 6.41236 3.60126 6.42782 3.59761 6.43007C3.59396 6.43232 3.59098 6.45781 3.59098 6.48671C3.59098 6.51733 3.58821 6.53926 3.58435 6.53926C3.58051 6.53926 3.57772 6.56022 3.57772 6.58889C3.57772 6.61757 3.57492 6.63852 3.57108 6.63852C3.56683 6.63852 3.56445 6.69919 3.56445 6.80727C3.56445 6.91535 3.56683 6.97601 3.57108 6.97601C3.57498 6.97601 3.57772 6.99917 3.57772 7.03226C3.57772 7.0632 3.58049 7.08851 3.58388 7.08851C3.58726 7.08851 3.5915 7.11457 3.59329 7.14641C3.59679 7.2086 3.60636 7.28072 3.61676 7.32343C3.62031 7.33799 3.62708 7.36852 3.63182 7.39126C3.63655 7.41401 3.64273 7.43262 3.64555 7.43262C3.64836 7.43262 3.65066 7.44304 3.65066 7.45578C3.65066 7.46852 3.65364 7.47894 3.65729 7.47894C3.66094 7.47894 3.66392 7.49085 3.66392 7.50541C3.66392 7.51997 3.66691 7.53188 3.67055 7.53188C3.6742 7.53188 3.67718 7.53788 3.67718 7.54521C3.67718 7.55253 3.67997 7.5637 3.68338 7.57002C3.68678 7.57634 3.6934 7.59565 3.69809 7.61294C3.70277 7.63024 3.7087 7.64438 3.71126 7.64438C3.71382 7.64438 3.71787 7.65328 3.72027 7.66416C3.72266 7.67503 3.72738 7.68563 3.73074 7.68771C3.73411 7.68978 3.73686 7.69726 3.73686 7.70432C3.73686 7.71139 3.73985 7.71717 3.7435 7.71717C3.74714 7.71717 3.75013 7.72461 3.75013 7.73371C3.75013 7.74281 3.75311 7.75026 3.75676 7.75026C3.76041 7.75026 3.76339 7.75621 3.76339 7.76349C3.76339 7.77077 3.76637 7.77673 3.77002 7.77673C3.77367 7.77673 3.77665 7.78268 3.77665 7.78996C3.77665 7.79724 3.77964 7.8032 3.78328 7.8032C3.78693 7.8032 3.78991 7.80729 3.78991 7.81229C3.78991 7.82314 3.82343 7.88497 3.83102 7.88812C3.83395 7.88934 3.83633 7.89603 3.83633 7.90301C3.83633 7.90998 3.83932 7.91569 3.84296 7.91569C3.84661 7.91569 3.8496 7.92016 3.8496 7.92562C3.8496 7.93108 3.85258 7.93555 3.85623 7.93555C3.85987 7.93555 3.86286 7.94001 3.86286 7.94547C3.86286 7.95093 3.86584 7.9554 3.86949 7.9554C3.87314 7.9554 3.87612 7.95986 3.87612 7.96532C3.87612 7.97078 3.87891 7.97525 3.88231 7.97525C3.88571 7.97525 3.89017 7.98046 3.89223 7.98683C3.8943 7.9932 3.90494 8.00793 3.91589 8.01956C3.92684 8.03119 3.9358 8.04395 3.9358 8.0479C3.9358 8.05186 3.94625 8.06552 3.95901 8.07826C3.97178 8.091 3.98222 8.1036 3.98222 8.10626C3.98222 8.11002 4.05021 8.18598 4.07982 8.2153C4.12397 8.25901 4.20558 8.33259 4.20992 8.33259C4.21306 8.33259 4.22354 8.34079 4.2332 8.35081C4.24287 8.36083 4.26272 8.37786 4.27731 8.38866C4.2919 8.39946 4.30962 8.4136 4.31669 8.42008C4.32376 8.42655 4.33345 8.43185 4.33824 8.43185C4.34302 8.43185 4.34694 8.43483 4.34694 8.43847C4.34694 8.44211 4.35141 8.44509 4.35688 8.44509C4.36235 8.44509 4.36683 8.44807 4.36683 8.45171C4.36683 8.45535 4.3717 8.45832 4.37766 8.45832C4.38361 8.45832 4.39331 8.4637 4.39921 8.47028C4.41218 8.48475 4.47101 8.51788 4.48371 8.51788C4.48872 8.51788 4.49282 8.52086 4.49282 8.5245C4.49282 8.52814 4.4973 8.53112 4.50277 8.53112C4.50824 8.53112 4.51272 8.53409 4.51272 8.53773C4.51272 8.54137 4.51868 8.54435 4.52598 8.54435C4.53327 8.54435 4.53927 8.54658 4.53931 8.54931C4.53936 8.55205 4.5513 8.55997 4.56584 8.56692C4.58039 8.57388 4.59229 8.58206 4.59229 8.58512C4.59229 8.58817 4.59667 8.59067 4.60204 8.59067C4.6074 8.59067 4.62241 8.59663 4.63539 8.60391C4.64838 8.61119 4.66339 8.61714 4.66875 8.61714C4.67411 8.61714 4.6785 8.62012 4.6785 8.62376C4.6785 8.6274 4.68446 8.63038 4.69176 8.63038C4.69905 8.63038 4.70502 8.63336 4.70502 8.637C4.70502 8.64063 4.71248 8.64361 4.7216 8.64361C4.73072 8.64361 4.73818 8.64627 4.73818 8.64952C4.73818 8.65276 4.74635 8.65746 4.75635 8.65996C4.76634 8.66247 4.77604 8.66651 4.7779 8.66895C4.78179 8.67406 4.84034 8.69653 4.86251 8.70142C4.87072 8.70323 4.87743 8.70735 4.87743 8.71056C4.87743 8.71377 4.88639 8.7164 4.89733 8.7164C4.90827 8.7164 4.91722 8.71938 4.91722 8.72302C4.91722 8.72666 4.92468 8.72964 4.9338 8.72964C4.94292 8.72964 4.95038 8.73262 4.95038 8.73626C4.95038 8.7399 4.95788 8.74287 4.96705 8.74287C4.97621 8.74287 4.9889 8.74549 4.99523 8.74868C5.02568 8.76405 5.05815 8.77596 5.06957 8.77596C5.07653 8.77596 5.08406 8.77894 5.08632 8.78258C5.08857 8.78622 5.09901 8.7892 5.10953 8.7892C5.12004 8.7892 5.13048 8.79217 5.13273 8.79581C5.13499 8.79945 5.14561 8.80243 5.15634 8.80243C5.16706 8.80243 5.17584 8.80541 5.17584 8.80905C5.17584 8.81269 5.18628 8.81567 5.19905 8.81567C5.21181 8.81567 5.22226 8.81864 5.22226 8.82228C5.22226 8.82592 5.23394 8.8289 5.24823 8.8289C5.26251 8.8289 5.27519 8.83127 5.27641 8.83416C5.27889 8.84007 5.39028 8.86824 5.43114 8.8733C5.44573 8.8751 5.4605 8.87925 5.46396 8.88252C5.46743 8.88579 5.4816 8.88846 5.49546 8.88846C5.50932 8.88846 5.52066 8.89144 5.52066 8.89508C5.52066 8.89881 5.53945 8.90169 5.56376 8.90169C5.58808 8.90169 5.60687 8.90458 5.60687 8.90831C5.60687 8.91199 5.62455 8.91493 5.64665 8.91493C5.66854 8.91493 5.68644 8.91763 5.68644 8.92093C5.68644 8.92424 5.70211 8.92845 5.72125 8.9303C5.7404 8.93215 5.78442 8.93857 5.81906 8.94457C5.89839 8.9583 5.97359 8.96768 6.03955 8.97207C6.06781 8.97396 6.09094 8.97824 6.09094 8.98161C6.09094 8.98497 6.10898 8.98772 6.13103 8.98772C6.18433 8.98772 6.20051 9.00272 6.20675 9.05789C6.20919 9.07935 6.21322 9.23687 6.21571 9.40793C6.22039 9.72825 6.22088 9.73376 6.24736 9.76017C6.25389 9.7667 6.31676 9.76858 6.5283 9.76858H6.80082L6.80479 9.74873C6.80698 9.73781 6.81139 9.72888 6.81458 9.72888C6.81781 9.72888 6.82038 9.59826 6.82038 9.4344C6.82038 9.24249 6.82269 9.13992 6.82701 9.13992C6.83075 9.13992 6.83364 9.12122 6.83364 9.09706C6.83364 9.02728 6.81483 9.03112 7.16821 9.02859C7.3325 9.02741 7.49381 9.02838 7.52668 9.03074C7.58277 9.03478 7.58694 9.03611 7.59465 9.05241C7.60075 9.06531 7.60286 9.13786 7.60285 9.3348C7.60285 9.48113 7.60598 9.62503 7.60985 9.65608C7.6137 9.68702 7.61836 9.72499 7.62021 9.74046L7.62357 9.76858H7.90167C8.08266 9.76858 8.17978 9.76627 8.17978 9.76196C8.17978 9.75832 8.18574 9.75535 8.19304 9.75535C8.20336 9.75535 8.2063 9.75093 8.2063 9.73549C8.2063 9.72457 8.20929 9.71564 8.21293 9.71564C8.21726 9.71564 8.21956 9.60866 8.21956 9.40793C8.21956 9.2072 8.22187 9.10022 8.22619 9.10022C8.22984 9.10022 8.23283 9.09249 8.23283 9.08304C8.23283 9.05449 8.25289 9.02743 8.27405 9.02743C8.2842 9.02743 8.29251 9.02445 8.29251 9.02081C8.29251 9.01684 8.31903 9.01419 8.35882 9.01419C8.39861 9.01419 8.42513 9.01154 8.42513 9.00757C8.42513 9.00342 8.467 9.00096 8.53747 9.00096C8.60521 9.00096 8.65143 8.99833 8.65391 8.99434C8.65619 8.99066 8.68669 8.98772 8.7226 8.98772C8.75813 8.98772 8.79003 8.98497 8.79349 8.9816C8.79696 8.97823 8.82217 8.97397 8.84953 8.97212C8.91593 8.96764 8.99307 8.95754 9.06173 8.94434C9.09273 8.93837 9.13376 8.93202 9.15291 8.93021C9.17206 8.92841 9.18772 8.92424 9.18772 8.92093C9.18772 8.91763 9.20413 8.91493 9.22419 8.91493C9.24425 8.91493 9.26066 8.91195 9.26066 8.90831C9.26066 8.90467 9.27409 8.90169 9.2905 8.90169C9.30692 8.90169 9.32034 8.89872 9.32034 8.89508C9.32034 8.89144 9.33061 8.88846 9.34316 8.88846C9.35572 8.88846 9.36763 8.8858 9.36965 8.88254C9.37166 8.87929 9.38452 8.87516 9.39822 8.87338C9.43251 8.86891 9.52873 8.84057 9.53144 8.83415C9.53266 8.83126 9.54235 8.8289 9.55299 8.8289C9.56363 8.8289 9.57233 8.82626 9.57233 8.82303C9.57233 8.81981 9.58128 8.81534 9.59222 8.81311C9.60317 8.81088 9.62107 8.80722 9.63201 8.80499C9.64295 8.80276 9.65191 8.79829 9.65191 8.79507C9.65191 8.79184 9.66086 8.7892 9.6718 8.7892C9.68274 8.7892 9.69169 8.78622 9.69169 8.78258C9.69169 8.77894 9.69607 8.77596 9.70141 8.77596C9.7134 8.77596 9.7605 8.75464 9.76353 8.74784C9.76475 8.7451 9.77146 8.74287 9.77845 8.74287C9.78544 8.74287 9.79116 8.7399 9.79116 8.73626C9.79116 8.73262 9.80011 8.72964 9.81105 8.72964C9.822 8.72964 9.83095 8.72666 9.83095 8.72302C9.83095 8.71938 9.83841 8.7164 9.84753 8.7164C9.85664 8.7164 9.8641 8.71343 9.8641 8.70979C9.8641 8.70615 9.87007 8.70317 9.87737 8.70317C9.88466 8.70317 9.89063 8.70019 9.89063 8.69655C9.89063 8.69291 9.895 8.68994 9.90034 8.68994C9.91197 8.68994 9.97258 8.65721 9.97573 8.64922C9.97695 8.64614 9.9849 8.64361 9.99341 8.64361C10.0019 8.64361 10.0099 8.64138 10.0111 8.63865C10.0123 8.63592 10.0267 8.62647 10.0431 8.61764C10.0596 8.60881 10.0745 8.59984 10.0763 8.59772C10.0824 8.5906 10.1356 8.55759 10.141 8.55759C10.1439 8.55759 10.1506 8.55163 10.1559 8.54435C10.1611 8.53707 10.1685 8.53111 10.1723 8.53111C10.176 8.5311 10.1871 8.52421 10.1969 8.51578C10.2067 8.50737 10.2226 8.49471 10.2322 8.48767C10.2791 8.45336 10.4211 8.31817 10.4211 8.30792C10.4211 8.3049 10.4271 8.29814 10.4344 8.29289C10.4417 8.28764 10.4477 8.27876 10.4477 8.27315C10.4477 8.26754 10.4554 8.25713 10.4649 8.25002C10.4744 8.24291 10.4913 8.2236 10.5026 8.20709C10.5139 8.19059 10.5285 8.17226 10.5351 8.16638C10.5417 8.16049 10.5471 8.15082 10.5471 8.14487C10.5471 8.13893 10.5496 8.13407 10.5527 8.13407C10.5558 8.13407 10.5639 8.12365 10.5708 8.11091C10.5777 8.09817 10.5856 8.08775 10.5884 8.08775C10.5912 8.08775 10.5935 8.08179 10.5935 8.07451C10.5935 8.06723 10.596 8.06128 10.5989 8.06128C10.6019 8.06128 10.6084 8.05085 10.6134 8.03812C10.6184 8.02538 10.625 8.01495 10.6279 8.01495C10.6309 8.01495 10.6333 8.00627 10.6333 7.99565C10.6333 7.98504 10.6356 7.97536 10.6383 7.97414C10.643 7.97207 10.6732 7.91229 10.6879 7.87599C10.6915 7.86689 10.6972 7.85428 10.7004 7.84796C10.7036 7.84164 10.7063 7.82898 10.7063 7.81983C10.7063 7.81068 10.7093 7.8032 10.7129 7.8032C10.7165 7.8032 10.7195 7.79426 10.7195 7.78334C10.7195 7.77242 10.7225 7.76349 10.7262 7.76349C10.7298 7.76349 10.7328 7.75307 10.7328 7.74033C10.7328 7.72759 10.7355 7.71717 10.7387 7.71717C10.7419 7.71717 10.7461 7.70749 10.7479 7.69566C10.7497 7.68383 10.7563 7.65331 10.7627 7.62783C10.7691 7.60236 10.7757 7.56513 10.7773 7.54512C10.779 7.5251 10.7831 7.50589 10.7864 7.50243C10.7898 7.49897 10.7925 7.4759 10.7925 7.45115C10.7925 7.42556 10.7953 7.40615 10.7991 7.40615C10.803 7.40615 10.8057 7.38409 10.8057 7.35321C10.8057 7.32233 10.8085 7.30027 10.8124 7.30027C10.8166 7.30027 10.819 7.23961 10.819 7.13152C10.819 7.02344 10.8166 6.96278 10.8124 6.96278C10.8085 6.96278 10.8057 6.93962 10.8057 6.90653C10.8057 6.87559 10.8029 6.85028 10.7995 6.85028C10.796 6.85028 10.7917 6.81381 10.7899 6.76922C10.7841 6.63042 10.7733 6.52042 10.7487 6.35066C10.7429 6.31063 10.7367 6.25628 10.735 6.2299C10.7332 6.20351 10.729 6.18192 10.7256 6.18192C10.7223 6.18192 10.7195 6.16423 10.7195 6.1426C10.7195 6.12098 10.7165 6.10145 10.7129 6.0992C10.7093 6.09695 10.7063 6.07951 10.7063 6.06043C10.7063 6.04135 10.7036 6.02291 10.7002 6.01946C10.6969 6.016 10.6927 5.99828 10.6908 5.98009C10.6867 5.93974 10.6779 5.89923 10.663 5.85105C10.6568 5.83103 10.6502 5.80349 10.6484 5.78983C10.6467 5.77618 10.6425 5.76502 10.6393 5.76502C10.636 5.76502 10.6333 5.7546 10.6333 5.74186C10.6333 5.72912 10.6303 5.7187 10.6267 5.7187C10.623 5.7187 10.6201 5.70976 10.6201 5.69884C10.6201 5.68793 10.6171 5.67899 10.6134 5.67899C10.6098 5.67899 10.6068 5.67413 10.6068 5.66819C10.6068 5.64843 10.5793 5.63125 10.5538 5.63501C10.5114 5.64123 10.4609 5.65506 10.4609 5.66044C10.4609 5.66337 10.449 5.66576 10.4344 5.66576C10.4198 5.66576 10.4079 5.66874 10.4079 5.67237C10.4079 5.67601 10.3974 5.67899 10.3847 5.67899C10.3719 5.67899 10.3614 5.68197 10.3614 5.68561C10.3614 5.68925 10.3497 5.69223 10.3353 5.69223C10.3209 5.69223 10.3075 5.69487 10.3055 5.69812C10.3035 5.70135 10.2922 5.70552 10.2803 5.70737C10.2684 5.70922 10.2408 5.71575 10.2189 5.72187C10.197 5.72799 10.1694 5.73459 10.1575 5.73651C10.1456 5.73844 10.1342 5.74266 10.1322 5.74589C10.1302 5.74914 10.1198 5.75178 10.1091 5.75178C10.0983 5.75178 10.0896 5.75476 10.0896 5.7584C10.0896 5.76204 10.0776 5.76502 10.063 5.76502C10.0485 5.76502 10.0365 5.768 10.0365 5.77164C10.0365 5.77528 10.0261 5.77825 10.0133 5.77825C10.0005 5.77825 9.9901 5.78123 9.9901 5.78487C9.9901 5.78851 9.98132 5.79149 9.97059 5.79149C9.95987 5.79149 9.94925 5.79447 9.94699 5.79811C9.94474 5.80175 9.93412 5.80472 9.92339 5.80472C9.91266 5.80472 9.90389 5.8077 9.90389 5.81134C9.90389 5.81498 9.89947 5.81796 9.89408 5.81796C9.87218 5.81796 9.83235 5.83939 9.82522 5.85502C9.81615 5.87488 9.81546 5.89901 9.82371 5.90763C9.82702 5.91109 9.83125 5.9288 9.83312 5.947C9.83694 5.98411 9.84472 6.02086 9.86115 6.07935C9.86729 6.10119 9.87375 6.13171 9.8755 6.14718C9.87726 6.16264 9.88138 6.1753 9.88467 6.1753C9.88794 6.1753 9.89063 6.19168 9.89063 6.2117C9.89063 6.23172 9.89361 6.24809 9.89726 6.24809C9.90091 6.24809 9.90389 6.26447 9.90389 6.28449C9.90389 6.30451 9.90661 6.32089 9.90993 6.32089C9.91325 6.32089 9.91756 6.33801 9.91951 6.35894C9.92146 6.37986 9.92594 6.41485 9.92947 6.43669C9.93302 6.45853 9.93931 6.50022 9.94347 6.52934C9.94764 6.55845 9.95378 6.59419 9.95715 6.60875C9.9605 6.6233 9.96332 6.6449 9.96341 6.65672C9.9635 6.66855 9.96656 6.67823 9.9702 6.67823C9.97416 6.67823 9.97683 6.70359 9.97683 6.74109C9.97683 6.7786 9.97951 6.80396 9.98347 6.80396C9.98752 6.80396 9.9901 6.83484 9.9901 6.88337C9.9901 6.9319 9.99268 6.96278 9.99673 6.96278C10.001 6.96278 10.0034 7.03323 10.0034 7.16091C10.0034 7.28586 10.0009 7.36055 9.99673 7.36314C9.99308 7.36538 9.9901 7.38491 9.9901 7.40654C9.9901 7.42834 9.98714 7.44585 9.98347 7.44585C9.97982 7.44585 9.97683 7.45751 9.97683 7.47177C9.97683 7.48603 9.97447 7.49868 9.97158 7.4999C9.9687 7.50111 9.95465 7.52816 9.94037 7.56C9.92609 7.59185 9.91203 7.61791 9.90914 7.61791C9.90626 7.61791 9.90389 7.62386 9.90389 7.63114C9.90389 7.63842 9.90091 7.64438 9.89726 7.64438C9.89361 7.64438 9.89063 7.64884 9.89063 7.6543C9.89063 7.65976 9.88764 7.66423 9.884 7.66423C9.88035 7.66423 9.87737 7.66811 9.87737 7.67287C9.87737 7.67989 9.85355 7.71055 9.82606 7.73893C9.80622 7.75941 9.75706 7.8032 9.75392 7.8032C9.7518 7.8032 9.74212 7.81169 9.7324 7.82206C9.72269 7.83245 9.70582 7.84589 9.69493 7.85193C9.66124 7.87062 9.64918 7.87887 9.63796 7.89088C9.63201 7.89724 9.62227 7.90246 9.61632 7.90246C9.61036 7.90246 9.60549 7.90488 9.60549 7.90784C9.60549 7.9108 9.59504 7.91731 9.58228 7.92231C9.56951 7.92731 9.55907 7.93382 9.55907 7.93678C9.55907 7.93974 9.5531 7.94216 9.54581 7.94216C9.53851 7.94216 9.53254 7.94514 9.53254 7.94878C9.53254 7.95242 9.52694 7.9554 9.52009 7.9554C9.51325 7.9554 9.50393 7.95986 9.49939 7.96532C9.49484 7.97078 9.48553 7.97525 9.47868 7.97525C9.47183 7.97525 9.46623 7.97823 9.46623 7.98187C9.46623 7.98551 9.45877 7.98848 9.44965 7.98848C9.44054 7.98848 9.43308 7.99146 9.43308 7.9951C9.43308 7.99874 9.42562 8.00172 9.4165 8.00172C9.40738 8.00172 9.39992 8.0047 9.39992 8.00834C9.39992 8.01198 9.39097 8.01495 9.38003 8.01495C9.36908 8.01495 9.36013 8.01793 9.36013 8.02157C9.36013 8.02521 9.35118 8.02819 9.34024 8.02819C9.3293 8.02819 9.32034 8.03083 9.32034 8.03406C9.32034 8.03728 9.31214 8.04134 9.30211 8.04307C9.27119 8.0484 9.21816 8.06253 9.20605 8.06868C9.19972 8.07188 9.18405 8.07451 9.17124 8.07451C9.15842 8.07451 9.14793 8.07749 9.14793 8.08113C9.14793 8.08477 9.1345 8.08775 9.11809 8.08775C9.10168 8.08775 9.08825 8.09045 9.08825 8.09375C9.08825 8.09937 9.07633 8.10131 8.98215 8.11107C8.96209 8.11315 8.93971 8.11756 8.93242 8.12086C8.92512 8.12416 8.90274 8.12832 8.88268 8.13009C8.8118 8.13638 8.72657 8.14781 8.70364 8.1541C8.69088 8.1576 8.62598 8.16048 8.55941 8.1605C8.48318 8.16053 8.43839 8.16299 8.43839 8.16716C8.43839 8.17113 8.41187 8.17377 8.37208 8.17377C8.33229 8.17377 8.30577 8.17113 8.30577 8.16716C8.30577 8.16352 8.29288 8.16054 8.27712 8.16054C8.25481 8.16054 8.24529 8.15687 8.23402 8.14394L8.21956 8.12735V6.83699C8.21956 5.98117 8.21733 5.54664 8.21293 5.54664C8.20929 5.54664 8.2063 5.53473 8.2063 5.52017V5.4937H8.10683C8.04494 5.4937 8.00736 5.4912 8.00736 5.48709C8.00736 5.4832 7.98416 5.48047 7.951 5.48047C7.91784 5.48047 7.89463 5.4832 7.89463 5.48709C7.89463 5.49128 7.84613 5.4937 7.7624 5.4937C7.66386 5.4937 7.62882 5.49581 7.62487 5.50198C7.62196 5.50652 7.61695 5.53109 7.61372 5.55657C7.6105 5.58205 7.60669 6.16794 7.60525 6.85855C7.60354 7.67446 7.60035 8.11422 7.59611 8.11422C7.59253 8.11422 7.5896 8.12464 7.5896 8.13738C7.5896 8.15612 7.58707 8.16054 7.57634 8.16054C7.56904 8.16054 7.56307 8.16352 7.56307 8.16716C7.56307 8.17148 7.44262 8.17377 7.21499 8.17377H6.8669L6.85027 8.15935C6.83535 8.1464 6.83364 8.13994 6.83364 8.09648C6.83364 8.0686 6.83083 8.04804 6.82701 8.04804C6.82261 8.04804 6.82038 7.62232 6.82038 6.78411C6.82038 5.94589 6.81814 5.52017 6.81375 5.52017C6.8101 5.52017 6.80712 5.51422 6.80712 5.50694C6.80712 5.4945 6.80269 5.4937 6.73417 5.4937C6.68996 5.4937 6.66123 5.4911 6.66123 5.48709C6.66123 5.48292 6.61702 5.48047 6.54187 5.48047C6.46672 5.48047 6.42251 5.48292 6.42251 5.48709Z" stroke="#8F5B34" stroke-width="0.190909" mask="url(#path-8-outside-1_3417_539)"/>
<path d="M2.17643 8.07415L0.974609 8.76808C1.11801 9.38504 1.34975 9.97974 1.66444 10.5336L2.76832 9.89632C2.51033 9.41328 2.32428 8.8884 2.22025 8.33963C2.20337 8.25141 2.18885 8.16284 2.17643 8.07415Z" fill="#FFEB82"/>
<path d="M3.0577 10.376L1.96179 11.0086C2.03748 11.1188 2.11621 11.2264 2.19798 11.3314C2.27648 11.4319 2.35756 11.53 2.44144 11.6256L3.54344 10.9894C3.36653 10.7973 3.20415 10.5921 3.0577 10.376Z" fill="#FFEB82"/>
<path d="M12.5366 5.79716C12.4665 5.54292 12.3786 5.29478 12.2741 5.05484L13.3558 4.43038C13.4057 4.53512 13.453 4.64127 13.4975 4.74882C13.5528 4.88261 13.6037 5.01782 13.6501 5.15431L12.5366 5.79716Z" fill="#FFEB82"/>
<path d="M12.0237 4.55258C11.8193 4.19102 11.574 3.85408 11.2907 3.55016C11.1372 3.38556 10.9748 3.2329 10.8045 3.09278L11.9091 2.45508C12.3728 2.8888 12.7714 3.38731 13.0928 3.93538L12.0237 4.55258Z" fill="#FFEB82"/>
</g>
<defs>
<clipPath id="clip0_3417_539">
<rect y="0.675781" width="14" height="13.2045" rx="0.604546" fill="white"/>
</clipPath>
</defs>
</svg>
