<svg width="15" height="16" viewBox="0 0 15 16" fill="none" xmlns="http://www.w3.org/2000/svg">
<g clip-path="url(#clip0_3417_568)">
<path d="M7.31877 15.4892C11.3608 15.4892 14.6375 12.2124 14.6375 8.17039C14.6375 4.12835 11.3608 0.851624 7.31877 0.851624C3.27673 0.851624 0 4.12835 0 8.17039C0 12.2124 3.27673 15.4892 7.31877 15.4892Z" fill="#0052B4"/>
<path d="M7.31894 3.7155L7.55592 4.44478H8.32267L7.70232 4.89548L7.93929 5.62476L7.31894 5.17403L6.69856 5.62476L6.93554 4.89548L6.31519 4.44478H7.08197L7.31894 3.7155Z" fill="#FFDA44"/>
<path d="M4.16864 5.02033L4.85192 5.36843L5.39411 4.82627L5.27412 5.58359L5.95737 5.93172L5.20002 6.05168L5.08006 6.80906L4.73193 6.12581L3.97461 6.2458L4.5168 5.70361L4.16864 5.02033Z" fill="#FFDA44"/>
<path d="M2.86401 8.17041L3.59329 7.93344V7.16666L4.04397 7.78704L4.77327 7.55006L4.32251 8.17041L4.77327 8.79077L4.04397 8.55382L3.59329 9.17417V8.40739L2.86401 8.17041Z" fill="#FFDA44"/>
<path d="M4.16864 11.3205L4.51677 10.6372L3.97461 10.095L4.73196 10.2151L5.08003 9.5318L5.20002 10.2892L5.95734 10.4091L5.27418 10.7572L5.39411 11.5146L4.85192 10.9724L4.16864 11.3205Z" fill="#FFDA44"/>
<path d="M7.31894 12.6253L7.08194 11.896H6.31519L6.93556 11.4453L6.69856 10.7161L7.31894 11.1668L7.93929 10.7161L7.70232 11.4453L8.32267 11.896H7.55589L7.31894 12.6253Z" fill="#FFDA44"/>
<path d="M10.4688 11.3205L9.7856 10.9724L9.24338 11.5146L9.36337 10.7572L8.68018 10.4091L9.4375 10.2892L9.55746 9.5318L9.90556 10.2151L10.6629 10.095L10.1207 10.6373L10.4688 11.3205Z" fill="#FFDA44"/>
<path d="M11.7737 8.17041L11.0444 8.40739V9.17417L10.5937 8.55379L9.8645 8.79077L10.3152 8.17041L9.8645 7.55006L10.5937 7.78704L11.0444 7.16666V7.93347L11.7737 8.17041Z" fill="#FFDA44"/>
<path d="M10.4688 5.02036L10.1207 5.70363L10.6629 6.24582L9.90553 6.12581L9.55746 6.80905L9.4375 6.0517L8.68018 5.93172L9.36337 5.58362L9.24338 4.82632L9.78563 5.36849L10.4688 5.02036Z" fill="#FFDA44"/>
</g>
<defs>
<clipPath id="clip0_3417_568">
<rect width="14.6375" height="14.6375" fill="white" transform="translate(0 0.851624)"/>
</clipPath>
</defs>
</svg>
