<svg width="122" height="77" viewBox="0 0 122 77" fill="none" xmlns="http://www.w3.org/2000/svg">
<path d="M0 7C0 3.68629 2.68629 1 6 1H107C110.314 1 113 3.68629 113 7V66C113 69.3137 110.314 72 107 72H13C5.8203 72 0 66.1797 0 59V7Z" fill="#2B2F3D"/>
<path fill-rule="evenodd" clip-rule="evenodd" d="M5 0C2.23858 0 0 2.23858 0 5V13V49V65C0 71.6274 5.37258 77 12 77H114C118.418 77 122 73.4183 122 69V13C122 8.58172 118.418 5 114 5H38C38 2.23858 35.7614 0 33 0H5Z" fill="#1A1D26"/>
<circle cx="11.3" cy="9.3" r="1.3" fill="#414451"/>
<circle cx="16.4992" cy="9.30024" r="1.3" fill="#414451"/>
<circle cx="21.7004" cy="9.30024" r="1.3" fill="#414451"/>
</svg>
