<svg width="128" height="129" viewBox="0 0 128 129" fill="none" xmlns="http://www.w3.org/2000/svg">
<path d="M0 14.6483C0 9.60292 4.09012 5.51282 9.13553 5.51282H111.044C116.089 5.51282 120.179 9.60293 120.179 14.6483V119.864C120.179 124.91 116.089 129 111.044 129H14.6531C6.56041 129 0 122.44 0 114.347V14.6483Z" fill="black" fill-opacity="0.04"/>
<mask id="path-2-inside-1_2049_9681" fill="white">
<path fill-rule="evenodd" clip-rule="evenodd" d="M7.61294 0C3.40843 0 0 3.40843 0 7.61294V24.3089V105.059V115.717C0 122.444 5.45349 127.897 12.1807 127.897H115.717C122.444 127.897 127.897 122.444 127.897 115.717V24.3089C127.897 17.5817 122.444 12.1282 115.717 12.1282H57.8584V7.61294C57.8584 3.40843 54.4499 0 50.2454 0H7.61294Z"/>
</mask>
<path fill-rule="evenodd" clip-rule="evenodd" d="M7.61294 0C3.40843 0 0 3.40843 0 7.61294V24.3089V105.059V115.717C0 122.444 5.45349 127.897 12.1807 127.897H115.717C122.444 127.897 127.897 122.444 127.897 115.717V24.3089C127.897 17.5817 122.444 12.1282 115.717 12.1282H57.8584V7.61294C57.8584 3.40843 54.4499 0 50.2454 0H7.61294Z" fill="white"/>
<path d="M57.8584 12.1282H57.3071V12.6795H57.8584V12.1282ZM0.551282 7.61294C0.551282 3.71289 3.71289 0.551282 7.61294 0.551282V-0.551282C3.10397 -0.551282 -0.551282 3.10396 -0.551282 7.61294H0.551282ZM0.551282 24.3089V7.61294H-0.551282V24.3089H0.551282ZM0.551282 105.059V24.3089H-0.551282V105.059H0.551282ZM0.551282 115.717V105.059H-0.551282V115.717H0.551282ZM12.1807 127.346C5.75795 127.346 0.551282 122.139 0.551282 115.717H-0.551282C-0.551282 122.748 5.14902 128.449 12.1807 128.449V127.346ZM115.717 127.346H12.1807V128.449H115.717V127.346ZM127.346 115.717C127.346 122.139 122.139 127.346 115.717 127.346V128.449C122.748 128.449 128.449 122.748 128.449 115.717H127.346ZM127.346 24.3089V115.717H128.449V24.3089H127.346ZM115.717 12.6795C122.139 12.6795 127.346 17.8862 127.346 24.3089H128.449C128.449 17.2772 122.748 11.5769 115.717 11.5769V12.6795ZM57.8584 12.6795H115.717V11.5769H57.8584V12.6795ZM57.3071 7.61294V12.1282H58.4096V7.61294H57.3071ZM50.2454 0.551282C54.1455 0.551282 57.3071 3.71289 57.3071 7.61294H58.4096C58.4096 3.10397 54.7544 -0.551282 50.2454 -0.551282V0.551282ZM7.61294 0.551282H50.2454V-0.551282H7.61294V0.551282Z" fill="black" fill-opacity="0.1" mask="url(#path-2-inside-1_2049_9681)"/>
</svg>
