<svg width="84" height="84" viewBox="0 0 84 84" fill="none" xmlns="http://www.w3.org/2000/svg">
<path d="M0 8C0 4.68629 2.68629 2 6 2H73C76.3137 2 79 4.68629 79 8V78C79 81.3137 76.3137 84 73 84H13C5.8203 84 0 78.1797 0 71V8Z" fill="#2B2F3D"/>
<mask id="path-2-inside-1_2577_13438" fill="white">
<path fill-rule="evenodd" clip-rule="evenodd" d="M5 0C2.23858 0 0 2.23858 0 5V14V69V72C0 78.6274 5.37258 84 12 84H76C80.4183 84 84 80.4183 84 76V14C84 9.58172 80.4183 6 76 6H38V5C38 2.23858 35.7614 0 33 0H5Z"/>
</mask>
<path fill-rule="evenodd" clip-rule="evenodd" d="M5 0C2.23858 0 0 2.23858 0 5V14V69V72C0 78.6274 5.37258 84 12 84H76C80.4183 84 84 80.4183 84 76V14C84 9.58172 80.4183 6 76 6H38V5C38 2.23858 35.7614 0 33 0H5Z" fill="#1A1D26"/>
<path d="M38 6H37.7V6.3H38V6ZM0.3 5C0.3 2.40426 2.40426 0.3 5 0.3V-0.3C2.07289 -0.3 -0.3 2.07289 -0.3 5H0.3ZM0.3 14V5H-0.3V14H0.3ZM0.3 69V14H-0.3V69H0.3ZM0.3 72V69H-0.3V72H0.3ZM12 83.7C5.53827 83.7 0.3 78.4617 0.3 72H-0.3C-0.3 78.7931 5.2069 84.3 12 84.3V83.7ZM76 83.7H12V84.3H76V83.7ZM83.7 76C83.7 80.2526 80.2526 83.7 76 83.7V84.3C80.584 84.3 84.3 80.584 84.3 76H83.7ZM83.7 14V76H84.3V14H83.7ZM76 6.3C80.2526 6.3 83.7 9.74741 83.7 14H84.3C84.3 9.41604 80.584 5.7 76 5.7V6.3ZM38 6.3H76V5.7H38V6.3ZM37.7 5V6H38.3V5H37.7ZM33 0.3C35.5957 0.3 37.7 2.40426 37.7 5H38.3C38.3 2.07289 35.9271 -0.3 33 -0.3V0.3ZM5 0.3H33V-0.3H5V0.3Z" fill="#747785" mask="url(#path-2-inside-1_2577_13438)"/>
</svg>
