<svg width="123" height="123" viewBox="0 0 123 123" fill="none" xmlns="http://www.w3.org/2000/svg">
<path d="M0 11.7141C0 6.86184 3.9335 2.92834 8.78571 2.92834H106.893C111.745 2.92834 115.679 6.86184 115.679 11.7141V114.214C115.679 119.066 111.745 123 106.893 123H19.0357C8.5226 123 0 114.477 0 103.964V11.7141Z" fill="#1A1D26"/>
<path fill-rule="evenodd" clip-rule="evenodd" d="M7.32143 0C3.27791 0 0 3.27791 0 7.32142V20.4999V101.036V105.428C0 115.133 7.867 123 17.5714 123H111.286C117.755 123 123 117.755 123 111.286V20.4999C123 14.0303 117.755 8.78564 111.286 8.78564H55.6429V7.32143C55.6429 3.27792 52.3649 0 48.3214 0H7.32143Z" fill="#232730"/>
<path fill-rule="evenodd" clip-rule="evenodd" d="M7.32143 0C3.27791 0 0 3.27791 0 7.32142V20.4999V101.036V105.428C0 115.133 7.867 123 17.5714 123H111.286C117.755 123 123 117.755 123 111.286V20.4999C123 14.0303 117.755 8.78564 111.286 8.78564H55.6429V7.32143C55.6429 3.27792 52.3649 0 48.3214 0H7.32143Z" fill="#1E222B"/>
<circle cx="16.5481" cy="13.618" r="1.90357" fill="#414451"/>
<circle cx="24.1614" cy="13.6182" r="1.90357" fill="#414451"/>
<circle cx="31.7747" cy="13.6182" r="1.90357" fill="#414451"/>
</svg>
