<svg width="14" height="12" viewBox="0 0 14 12" fill="none" xmlns="http://www.w3.org/2000/svg">
<path d="M10.3287 6.62751L9.40209 3.74471C9.33687 3.54178 9.14809 3.40417 8.93494 3.40417H7.03853L7.02319 7.26836H9.86156C10.1943 7.26836 10.4305 6.94426 10.3287 6.62751Z" fill="#FDBF00"/>
<path d="M3.73282 6.62751L4.65943 3.74471C4.72466 3.54178 4.91343 3.40417 5.12658 3.40417H7.023L7.03833 7.26836H4.19997C3.86726 7.26836 3.631 6.94426 3.73282 6.62751Z" fill="#FFD17B"/>
<path d="M13.794 10.4917L12.8674 7.60891C12.8022 7.40598 12.6134 7.26837 12.4003 7.26837H10.5039L10.4885 11.1326H13.3269C13.6596 11.1326 13.8959 10.8085 13.794 10.4917Z" fill="#FDBF00"/>
<path d="M7.19839 10.4917L8.12501 7.60891C8.19023 7.40598 8.37901 7.26837 8.59216 7.26837H10.4886L10.5039 11.1326H7.66554C7.33283 11.1326 7.09658 10.8085 7.19839 10.4917Z" fill="#FFD17B"/>
<path d="M6.80161 10.4917L5.87499 7.60891C5.80977 7.40598 5.62099 7.26837 5.40784 7.26837H3.51143L3.49609 11.1326H6.33446C6.66717 11.1326 6.90342 10.8085 6.80161 10.4917Z" fill="#FDBF00"/>
<path d="M0.20596 10.4917L1.13258 7.60891C1.1978 7.40598 1.38658 7.26837 1.59973 7.26837H3.49614L3.51147 11.1326H0.673111C0.340403 11.1326 0.104148 10.8085 0.20596 10.4917Z" fill="#FFD17B"/>
<rect x="12.4856" y="2.07047" width="0.774354" height="1.82464" rx="0.387177" transform="rotate(54.5762 12.4856 2.07047)" fill="#FFD17B"/>
<rect width="0.774354" height="1.82464" rx="0.387177" transform="matrix(-0.57962 0.814887 0.814887 0.57962 1.5835 2.07047)" fill="#FFD17B"/>
<rect width="0.774354" height="1.82464" rx="0.387177" transform="matrix(1 0 0 -1 6.62427 1.82465)" fill="#FDBF00"/>
</svg>
