<svg width="86" height="86" viewBox="0 0 86 86" fill="none" xmlns="http://www.w3.org/2000/svg">
<rect x="86" y="86" width="86" height="86" rx="12.5" transform="rotate(-180 86 86)" fill="url(#paint0_linear_3824_2086)"/>
<rect x="85.6774" y="85.6774" width="85.3548" height="85.3548" rx="12.1774" transform="rotate(-180 85.6774 85.6774)" stroke="#3D518F" stroke-opacity="0.06" stroke-width="0.645161"/>
<path d="M64.9375 43.4665C64.9375 41.7399 64.7915 40.4799 64.4757 39.1732H43.9375V46.9665H55.9929C55.75 48.9032 54.4375 51.8199 51.5208 53.7798L51.4799 54.0407L57.9737 58.8701L58.4236 58.9132C62.5554 55.2498 64.9375 49.8598 64.9375 43.4665Z" fill="#4285F4"/>
<path d="M43.9323 63.9999C49.8384 63.9999 54.7967 62.1331 58.4183 58.9132L51.5155 53.7797C49.6683 55.0164 47.1891 55.8797 43.9323 55.8797C38.1476 55.8797 33.2379 52.2165 31.4878 47.1531L31.2312 47.174L24.4789 52.1907L24.3906 52.4264C27.9878 59.2864 35.3767 63.9999 43.9323 63.9999Z" fill="#34A853"/>
<path d="M31.493 47.1533C31.0312 45.8467 30.7639 44.4466 30.7639 43C30.7639 41.5532 31.0312 40.1533 31.4687 38.8466L31.4564 38.5683L24.6195 33.4711L24.3958 33.5732C22.9132 36.4199 22.0625 39.6166 22.0625 43C22.0625 46.3833 22.9132 49.5799 24.3958 52.4266L31.493 47.1533Z" fill="#FBBC05"/>
<path d="M43.9324 30.1199C48.04 30.1199 50.8107 31.8233 52.3907 33.2467L58.5643 27.46C54.7727 24.0767 49.8386 22 43.9324 22C35.3767 22 27.9878 26.7133 24.3906 33.5732L31.4635 38.8466C33.238 33.7833 38.1477 30.1199 43.9324 30.1199Z" fill="#EB4335"/>
<defs>
<linearGradient id="paint0_linear_3824_2086" x1="129" y1="146.255" x2="129" y2="76.2063" gradientUnits="userSpaceOnUse">
<stop stop-color="#FEFEFE"/>
<stop offset="1" stop-color="#D7FBD8"/>
</linearGradient>
</defs>
</svg>
