<svg width="25" height="24" viewBox="0 0 25 24" fill="none" xmlns="http://www.w3.org/2000/svg">
<g clip-path="url(#clip0_4912_17213)">
<rect x="-3.94531" y="0.948242" width="31.8701" height="22.8053" rx="1.9986" fill="url(#paint0_linear_4912_17213)"/>
<rect x="-3.94531" y="0.948242" width="31.8701" height="22.8053" rx="1.9986" fill="url(#paint1_linear_4912_17213)"/>
<rect x="-3.94531" y="0.948242" width="31.8701" height="22.8053" rx="1.9986" fill="url(#paint2_linear_4912_17213)"/>
<rect x="-3.94531" y="0.948242" width="31.8701" height="22.8053" rx="1.9986" fill="url(#paint3_radial_4912_17213)"/>
<rect x="-3.94531" y="0.948242" width="31.8701" height="22.8053" rx="1.9986" fill="url(#paint4_radial_4912_17213)"/>
<rect x="-3.94531" y="0.948242" width="31.8701" height="22.8053" rx="1.9986" fill="url(#paint5_radial_4912_17213)"/>
<path d="M-3.94531 21.7502C-3.94531 21.4501 -3.79055 21.1711 -3.53588 21.0122L11.7375 11.4824C11.8863 11.3895 12.0752 11.3896 12.2239 11.4827L27.5482 21.0703C27.7825 21.2169 27.9248 21.4738 27.9248 21.7502C27.9248 22.8557 27.027 23.752 25.9195 23.752H-1.94C-3.0475 23.752 -3.94531 22.8557 -3.94531 21.7502Z" fill="url(#paint6_linear_4912_17213)"/>
<path d="M-3.94531 21.7502C-3.94531 21.4501 -3.79055 21.1711 -3.53588 21.0122L11.7375 11.4824C11.8863 11.3895 12.0752 11.3896 12.2239 11.4827L27.5482 21.0703C27.7825 21.2169 27.9248 21.4738 27.9248 21.7502C27.9248 22.8557 27.027 23.752 25.9195 23.752H-1.94C-3.0475 23.752 -3.94531 22.8557 -3.94531 21.7502Z" fill="url(#paint7_linear_4912_17213)"/>
<path d="M-3.94531 21.7502C-3.94531 21.4501 -3.79055 21.1711 -3.53588 21.0122L11.7375 11.4824C11.8863 11.3895 12.0752 11.3896 12.2239 11.4827L27.5482 21.0703C27.7825 21.2169 27.9248 21.4738 27.9248 21.7502C27.9248 22.8557 27.027 23.752 25.9195 23.752H-1.94C-3.0475 23.752 -3.94531 22.8557 -3.94531 21.7502Z" fill="url(#paint8_linear_4912_17213)"/>
<path d="M-3.94531 21.7502C-3.94531 21.4501 -3.79055 21.1711 -3.53588 21.0122L11.7375 11.4824C11.8863 11.3895 12.0752 11.3896 12.2239 11.4827L27.5482 21.0703C27.7825 21.2169 27.9248 21.4738 27.9248 21.7502C27.9248 22.8557 27.027 23.752 25.9195 23.752H-1.94C-3.0475 23.752 -3.94531 22.8557 -3.94531 21.7502Z" fill="url(#paint9_linear_4912_17213)"/>
<path d="M-3.94531 21.7502C-3.94531 21.4501 -3.79055 21.1711 -3.53588 21.0122L11.7375 11.4824C11.8863 11.3895 12.0752 11.3896 12.2239 11.4827L27.5482 21.0703C27.7825 21.2169 27.9248 21.4738 27.9248 21.7502C27.9248 22.8557 27.027 23.752 25.9195 23.752H-1.94C-3.0475 23.752 -3.94531 22.8557 -3.94531 21.7502Z" fill="url(#paint10_radial_4912_17213)"/>
<path d="M-3.94531 21.7502C-3.94531 21.4501 -3.79055 21.1711 -3.53588 21.0122L11.7375 11.4824C11.8863 11.3895 12.0752 11.3896 12.2239 11.4827L27.5482 21.0703C27.7825 21.2169 27.9248 21.4738 27.9248 21.7502C27.9248 22.8557 27.027 23.752 25.9195 23.752H-1.94C-3.0475 23.752 -3.94531 22.8557 -3.94531 21.7502Z" fill="url(#paint11_linear_4912_17213)"/>
<path d="M-3.94531 2.94996C-3.94531 3.25014 -3.79055 3.52911 -3.53588 3.68802L11.7375 13.2178C11.8863 13.3107 12.0752 13.3106 12.2239 13.2175L27.5482 3.62991C27.7825 3.48331 27.9248 3.22637 27.9248 2.94996C27.9248 1.84445 27.027 0.948242 25.9195 0.948242H-1.94C-3.0475 0.948242 -3.94531 1.84445 -3.94531 2.94996Z" fill="url(#paint12_linear_4912_17213)"/>
<path d="M-3.94531 2.94996C-3.94531 3.25014 -3.79055 3.52911 -3.53588 3.68802L11.7375 13.2178C11.8863 13.3107 12.0752 13.3106 12.2239 13.2175L27.5482 3.62991C27.7825 3.48331 27.9248 3.22637 27.9248 2.94996C27.9248 1.84445 27.027 0.948242 25.9195 0.948242H-1.94C-3.0475 0.948242 -3.94531 1.84445 -3.94531 2.94996Z" fill="url(#paint13_linear_4912_17213)"/>
<path d="M-3.94531 2.94996C-3.94531 3.25014 -3.79055 3.52911 -3.53588 3.68802L11.7375 13.2178C11.8863 13.3107 12.0752 13.3106 12.2239 13.2175L27.5482 3.62991C27.7825 3.48331 27.9248 3.22637 27.9248 2.94996C27.9248 1.84445 27.027 0.948242 25.9195 0.948242H-1.94C-3.0475 0.948242 -3.94531 1.84445 -3.94531 2.94996Z" fill="url(#paint14_linear_4912_17213)"/>
<path d="M-3.94531 2.94996C-3.94531 3.25014 -3.79055 3.52911 -3.53588 3.68802L11.7375 13.2178C11.8863 13.3107 12.0752 13.3106 12.2239 13.2175L27.5482 3.62991C27.7825 3.48331 27.9248 3.22637 27.9248 2.94996C27.9248 1.84445 27.027 0.948242 25.9195 0.948242H-1.94C-3.0475 0.948242 -3.94531 1.84445 -3.94531 2.94996Z" fill="url(#paint15_radial_4912_17213)"/>
<path d="M-3.94531 2.94996C-3.94531 3.25014 -3.79055 3.52911 -3.53588 3.68802L11.7375 13.2178C11.8863 13.3107 12.0752 13.3106 12.2239 13.2175L27.5482 3.62991C27.7825 3.48331 27.9248 3.22637 27.9248 2.94996C27.9248 1.84445 27.027 0.948242 25.9195 0.948242H-1.94C-3.0475 0.948242 -3.94531 1.84445 -3.94531 2.94996Z" fill="url(#paint16_linear_4912_17213)"/>
<path d="M-3.94531 2.94996C-3.94531 3.25014 -3.79055 3.52911 -3.53588 3.68802L11.7375 13.2178C11.8863 13.3107 12.0752 13.3106 12.2239 13.2175L27.5482 3.62991C27.7825 3.48331 27.9248 3.22637 27.9248 2.94996C27.9248 1.84445 27.027 0.948242 25.9195 0.948242H-1.94C-3.0475 0.948242 -3.94531 1.84445 -3.94531 2.94996Z" fill="url(#paint17_radial_4912_17213)"/>
<path d="M-3.94531 2.94996C-3.94531 3.25014 -3.79055 3.52911 -3.53588 3.68802L11.7375 13.2178C11.8863 13.3107 12.0752 13.3106 12.2239 13.2175L27.5482 3.62991C27.7825 3.48331 27.9248 3.22637 27.9248 2.94996C27.9248 1.84445 27.027 0.948242 25.9195 0.948242H-1.94C-3.0475 0.948242 -3.94531 1.84445 -3.94531 2.94996Z" fill="url(#paint18_linear_4912_17213)"/>
<rect x="-1.94531" y="1.94824" width="30" height="21" rx="1.9986" fill="url(#paint19_radial_4912_17213)"/>
<path d="M11.4729 18.2846C11.7857 18.463 12.1653 18.4529 12.4769 18.2723C14.3028 17.2141 17.3954 14.846 18.6193 11.7813C20.4384 7.74059 16.1671 4.51499 13.2151 6.83495C12.9218 7.06545 12.5566 7.32767 12.2923 7.57879C12.1501 7.71384 11.9019 7.72763 11.7556 7.59712C11.4047 7.28418 10.8847 6.89677 10.5463 6.66778C8.02959 4.96509 3.45044 7.20953 5.40374 11.9997C6.11127 14.1257 9.45301 17.132 11.4729 18.2846Z" fill="url(#paint20_radial_4912_17213)"/>
<path d="M11.4729 18.2846C11.7857 18.463 12.1653 18.4529 12.4769 18.2723C14.3028 17.2141 17.3954 14.846 18.6193 11.7813C20.4384 7.74059 16.1671 4.51499 13.2151 6.83495C12.9218 7.06545 12.5566 7.32767 12.2923 7.57879C12.1501 7.71384 11.9019 7.72763 11.7556 7.59712C11.4047 7.28418 10.8847 6.89677 10.5463 6.66778C8.02959 4.96509 3.45044 7.20953 5.40374 11.9997C6.11127 14.1257 9.45301 17.132 11.4729 18.2846Z" fill="url(#paint21_radial_4912_17213)"/>
<path d="M11.4729 18.2846C11.7857 18.463 12.1653 18.4529 12.4769 18.2723C14.3028 17.2141 17.3954 14.846 18.6193 11.7813C20.4384 7.74059 16.1671 4.51499 13.2151 6.83495C12.9218 7.06545 12.5566 7.32767 12.2923 7.57879C12.1501 7.71384 11.9019 7.72763 11.7556 7.59712C11.4047 7.28418 10.8847 6.89677 10.5463 6.66778C8.02959 4.96509 3.45044 7.20953 5.40374 11.9997C6.11127 14.1257 9.45301 17.132 11.4729 18.2846Z" fill="url(#paint22_radial_4912_17213)"/>
<path d="M11.4729 18.2846C11.7857 18.463 12.1653 18.4529 12.4769 18.2723C14.3028 17.2141 17.3954 14.846 18.6193 11.7813C20.4384 7.74059 16.1671 4.51499 13.2151 6.83495C12.9218 7.06545 12.5566 7.32767 12.2923 7.57879C12.1501 7.71384 11.9019 7.72763 11.7556 7.59712C11.4047 7.28418 10.8847 6.89677 10.5463 6.66778C8.02959 4.96509 3.45044 7.20953 5.40374 11.9997C6.11127 14.1257 9.45301 17.132 11.4729 18.2846Z" fill="url(#paint23_radial_4912_17213)"/>
<path d="M11.4729 18.2846C11.7857 18.463 12.1653 18.4529 12.4769 18.2723C14.3028 17.2141 17.3954 14.846 18.6193 11.7813C20.4384 7.74059 16.1671 4.51499 13.2151 6.83495C12.9218 7.06545 12.5566 7.32767 12.2923 7.57879C12.1501 7.71384 11.9019 7.72763 11.7556 7.59712C11.4047 7.28418 10.8847 6.89677 10.5463 6.66778C8.02959 4.96509 3.45044 7.20953 5.40374 11.9997C6.11127 14.1257 9.45301 17.132 11.4729 18.2846Z" fill="url(#paint24_linear_4912_17213)"/>
<path d="M11.4729 18.2846C11.7857 18.463 12.1653 18.4529 12.4769 18.2723C14.3028 17.2141 17.3954 14.846 18.6193 11.7813C20.4384 7.74059 16.1671 4.51499 13.2151 6.83495C12.9218 7.06545 12.5566 7.32767 12.2923 7.57879C12.1501 7.71384 11.9019 7.72763 11.7556 7.59712C11.4047 7.28418 10.8847 6.89677 10.5463 6.66778C8.02959 4.96509 3.45044 7.20953 5.40374 11.9997C6.11127 14.1257 9.45301 17.132 11.4729 18.2846Z" fill="url(#paint25_linear_4912_17213)"/>
<path d="M11.4729 18.2846C11.7857 18.463 12.1653 18.4529 12.4769 18.2723C14.3028 17.2141 17.3954 14.846 18.6193 11.7813C20.4384 7.74059 16.1671 4.51499 13.2151 6.83495C12.9218 7.06545 12.5566 7.32767 12.2923 7.57879C12.1501 7.71384 11.9019 7.72763 11.7556 7.59712C11.4047 7.28418 10.8847 6.89677 10.5463 6.66778C8.02959 4.96509 3.45044 7.20953 5.40374 11.9997C6.11127 14.1257 9.45301 17.132 11.4729 18.2846Z" fill="url(#paint26_radial_4912_17213)"/>
<path d="M11.4729 18.2846C11.7857 18.463 12.1653 18.4529 12.4769 18.2723C14.3028 17.2141 17.3954 14.846 18.6193 11.7813C20.4384 7.74059 16.1671 4.51499 13.2151 6.83495C12.9218 7.06545 12.5566 7.32767 12.2923 7.57879C12.1501 7.71384 11.9019 7.72763 11.7556 7.59712C11.4047 7.28418 10.8847 6.89677 10.5463 6.66778C8.02959 4.96509 3.45044 7.20953 5.40374 11.9997C6.11127 14.1257 9.45301 17.132 11.4729 18.2846Z" fill="url(#paint27_radial_4912_17213)"/>
<path d="M11.4729 18.2846C11.7857 18.463 12.1653 18.4529 12.4769 18.2723C14.3028 17.2141 17.3954 14.846 18.6193 11.7813C20.4384 7.74059 16.1671 4.51499 13.2151 6.83495C12.9218 7.06545 12.5566 7.32767 12.2923 7.57879C12.1501 7.71384 11.9019 7.72763 11.7556 7.59712C11.4047 7.28418 10.8847 6.89677 10.5463 6.66778C8.02959 4.96509 3.45044 7.20953 5.40374 11.9997C6.11127 14.1257 9.45301 17.132 11.4729 18.2846Z" fill="url(#paint28_radial_4912_17213)"/>
<path d="M11.4729 18.2846C11.7857 18.463 12.1653 18.4529 12.4769 18.2723C14.3028 17.2141 17.3954 14.846 18.6193 11.7813C20.4384 7.74059 16.1671 4.51499 13.2151 6.83495C12.9218 7.06545 12.5566 7.32767 12.2923 7.57879C12.1501 7.71384 11.9019 7.72763 11.7556 7.59712C11.4047 7.28418 10.8847 6.89677 10.5463 6.66778C8.02959 4.96509 3.45044 7.20953 5.40374 11.9997C6.11127 14.1257 9.45301 17.132 11.4729 18.2846Z" fill="url(#paint29_radial_4912_17213)"/>
<path d="M11.4729 18.2846C11.7857 18.463 12.1653 18.4529 12.4769 18.2723C14.3028 17.2141 17.3954 14.846 18.6193 11.7813C20.4384 7.74059 16.1671 4.51499 13.2151 6.83495C12.9218 7.06545 12.5566 7.32767 12.2923 7.57879C12.1501 7.71384 11.9019 7.72763 11.7556 7.59712C11.4047 7.28418 10.8847 6.89677 10.5463 6.66778C8.02959 4.96509 3.45044 7.20953 5.40374 11.9997C6.11127 14.1257 9.45301 17.132 11.4729 18.2846Z" fill="url(#paint30_radial_4912_17213)"/>
<path d="M11.4729 18.2846C11.7857 18.463 12.1653 18.4529 12.4769 18.2723C14.3028 17.2141 17.3954 14.846 18.6193 11.7813C20.4384 7.74059 16.1671 4.51499 13.2151 6.83495C12.9218 7.06545 12.5566 7.32767 12.2923 7.57879C12.1501 7.71384 11.9019 7.72763 11.7556 7.59712C11.4047 7.28418 10.8847 6.89677 10.5463 6.66778C8.02959 4.96509 3.45044 7.20953 5.40374 11.9997C6.11127 14.1257 9.45301 17.132 11.4729 18.2846Z" fill="url(#paint31_radial_4912_17213)"/>
<path d="M11.4729 18.2846C11.7857 18.463 12.1653 18.4529 12.4769 18.2723C14.3028 17.2141 17.3954 14.846 18.6193 11.7813C20.4384 7.74059 16.1671 4.51499 13.2151 6.83495C12.9218 7.06545 12.5566 7.32767 12.2923 7.57879C12.1501 7.71384 11.9019 7.72763 11.7556 7.59712C11.4047 7.28418 10.8847 6.89677 10.5463 6.66778C8.02959 4.96509 3.45044 7.20953 5.40374 11.9997C6.11127 14.1257 9.45301 17.132 11.4729 18.2846Z" fill="url(#paint32_radial_4912_17213)"/>
<path d="M11.4729 18.2846C11.7857 18.463 12.1653 18.4529 12.4769 18.2723C14.3028 17.2141 17.3954 14.846 18.6193 11.7813C20.4384 7.74059 16.1671 4.51499 13.2151 6.83495C12.9218 7.06545 12.5566 7.32767 12.2923 7.57879C12.1501 7.71384 11.9019 7.72763 11.7556 7.59712C11.4047 7.28418 10.8847 6.89677 10.5463 6.66778C8.02959 4.96509 3.45044 7.20953 5.40374 11.9997C6.11127 14.1257 9.45301 17.132 11.4729 18.2846Z" fill="url(#paint33_radial_4912_17213)"/>
</g>
<defs>
<linearGradient id="paint0_linear_4912_17213" x1="-1.65353" y1="13.6735" x2="27.9248" y2="13.4582" gradientUnits="userSpaceOnUse">
<stop stop-color="#DFD0E6"/>
<stop offset="1" stop-color="#EEE5F8"/>
</linearGradient>
<linearGradient id="paint1_linear_4912_17213" x1="-3.94531" y1="13.6034" x2="-0.463857" y2="13.6034" gradientUnits="userSpaceOnUse">
<stop stop-color="#D6BABD"/>
<stop offset="1" stop-color="#DCC9DD" stop-opacity="0"/>
</linearGradient>
<linearGradient id="paint2_linear_4912_17213" x1="-3.94531" y1="13.6034" x2="5.51613" y2="13.6034" gradientUnits="userSpaceOnUse">
<stop stop-color="#D6BABD" stop-opacity="0.6"/>
<stop offset="1" stop-color="#DCC9DD" stop-opacity="0"/>
</linearGradient>
<radialGradient id="paint3_radial_4912_17213" cx="0" cy="0" r="1" gradientUnits="userSpaceOnUse" gradientTransform="translate(10.9582 12.3509) rotate(160.3) scale(2.75886 20.1406)">
<stop stop-color="#7E5491" stop-opacity="0.9"/>
<stop offset="1" stop-color="#7E5490" stop-opacity="0"/>
</radialGradient>
<radialGradient id="paint4_radial_4912_17213" cx="0" cy="0" r="1" gradientUnits="userSpaceOnUse" gradientTransform="translate(26.8222 22.5033) rotate(126.87) scale(3.73477 17.7257)">
<stop offset="0.260951" stop-color="#EEEBEF"/>
<stop offset="0.779047" stop-color="#EEEBEF" stop-opacity="0"/>
</radialGradient>
<radialGradient id="paint5_radial_4912_17213" cx="0" cy="0" r="1" gradientUnits="userSpaceOnUse" gradientTransform="translate(11.5565 12.1275) rotate(52.2651) scale(2.80827 47.2414)">
<stop offset="0.332083" stop-color="#BCA0C2" stop-opacity="0.8"/>
<stop offset="1" stop-color="#BCA0C2" stop-opacity="0"/>
</radialGradient>
<linearGradient id="paint6_linear_4912_17213" x1="11.9897" y1="25.7537" x2="11.9897" y2="13.3859" gradientUnits="userSpaceOnUse">
<stop stop-color="#DDC5F1"/>
<stop offset="1" stop-color="#E6DAF1"/>
</linearGradient>
<linearGradient id="paint7_linear_4912_17213" x1="2.23373" y1="17.0464" x2="2.75533" y2="17.8302" gradientUnits="userSpaceOnUse">
<stop offset="0.0734082" stop-color="#DDC2C8"/>
<stop offset="1" stop-color="#DFCDDA" stop-opacity="0"/>
</linearGradient>
<linearGradient id="paint8_linear_4912_17213" x1="19.5306" y1="15.9622" x2="19.2028" y2="16.4745" gradientUnits="userSpaceOnUse">
<stop offset="0.139796" stop-color="#F8F3FD"/>
<stop offset="1" stop-color="#F1EAF9" stop-opacity="0"/>
</linearGradient>
<linearGradient id="paint9_linear_4912_17213" x1="11.9897" y1="23.752" x2="11.9897" y2="22.1104" gradientUnits="userSpaceOnUse">
<stop stop-color="#D3ADEF"/>
<stop offset="1" stop-color="#D3ADEF" stop-opacity="0"/>
</linearGradient>
<radialGradient id="paint10_radial_4912_17213" cx="0" cy="0" r="1" gradientUnits="userSpaceOnUse" gradientTransform="translate(11.9897 23.4265) rotate(-90) scale(20.4168 20.4168)">
<stop offset="0.712544" stop-color="#D3ADEF" stop-opacity="0"/>
<stop offset="0.872822" stop-color="#D3ADEF"/>
</radialGradient>
<linearGradient id="paint11_linear_4912_17213" x1="-3.94531" y1="16.9047" x2="5.51613" y2="16.9047" gradientUnits="userSpaceOnUse">
<stop stop-color="#D6BABD" stop-opacity="0.5"/>
<stop offset="1" stop-color="#DCC9DD" stop-opacity="0"/>
</linearGradient>
<linearGradient id="paint12_linear_4912_17213" x1="11.9897" y1="0.948242" x2="11.9897" y2="13.2874" gradientUnits="userSpaceOnUse">
<stop stop-color="#E9E4E9"/>
<stop offset="1" stop-color="#E7DCF0"/>
</linearGradient>
<linearGradient id="paint13_linear_4912_17213" x1="4.89633" y1="8.77976" x2="9.02697" y2="1.3556" gradientUnits="userSpaceOnUse">
<stop stop-color="#E1D5E7"/>
<stop offset="1" stop-color="#E1D5E7" stop-opacity="0"/>
</linearGradient>
<linearGradient id="paint14_linear_4912_17213" x1="-3.94531" y1="2.82115" x2="-0.585679" y2="2.82115" gradientUnits="userSpaceOnUse">
<stop stop-color="#E1C1BC"/>
<stop offset="1" stop-color="#E1C1BC" stop-opacity="0"/>
<stop offset="1" stop-color="#E9D1CD" stop-opacity="0"/>
</linearGradient>
<radialGradient id="paint15_radial_4912_17213" cx="0" cy="0" r="1" gradientUnits="userSpaceOnUse" gradientTransform="translate(25.1188 5.61805) rotate(-138.284) scale(7.01766 31.089)">
<stop stop-color="#FBF9FE"/>
<stop offset="1" stop-color="#F0ECF1" stop-opacity="0"/>
</radialGradient>
<linearGradient id="paint16_linear_4912_17213" x1="9.44776" y1="17.6733" x2="13.1199" y2="11.0818" gradientUnits="userSpaceOnUse">
<stop offset="0.634677" stop-color="#D3ADEF"/>
<stop offset="0.833337" stop-color="#D3ADEF" stop-opacity="0"/>
</linearGradient>
<radialGradient id="paint17_radial_4912_17213" cx="0" cy="0" r="1" gradientUnits="userSpaceOnUse" gradientTransform="translate(12.1587 13.6287) rotate(57.3997) scale(0.907759 30.9908)">
<stop stop-color="#D3ADEF"/>
<stop offset="1" stop-color="#D3ADEF" stop-opacity="0"/>
</radialGradient>
<linearGradient id="paint18_linear_4912_17213" x1="-3.94531" y1="7.79549" x2="5.51613" y2="7.79549" gradientUnits="userSpaceOnUse">
<stop stop-color="#D6BABD" stop-opacity="0.3"/>
<stop offset="1" stop-color="#DCC9DD" stop-opacity="0"/>
</linearGradient>
<radialGradient id="paint19_radial_4912_17213" cx="0" cy="0" r="1" gradientUnits="userSpaceOnUse" gradientTransform="translate(10.0078 12.4482) rotate(43.0192) scale(8.51794 5.14289)">
<stop offset="0.668625" stop-color="#8C738B"/>
<stop offset="1" stop-color="#BF9DBD" stop-opacity="0"/>
</radialGradient>
<radialGradient id="paint20_radial_4912_17213" cx="0" cy="0" r="1" gradientUnits="userSpaceOnUse" gradientTransform="translate(11.4651 1.93979) rotate(88.5481) scale(16.3161 16.8017)">
<stop stop-color="#F12E52"/>
<stop offset="0.67675" stop-color="#FF3B79"/>
<stop offset="1" stop-color="#FF4EC6"/>
</radialGradient>
<radialGradient id="paint21_radial_4912_17213" cx="0" cy="0" r="1" gradientUnits="userSpaceOnUse" gradientTransform="translate(15.4985 9.28168) rotate(142.986) scale(13.2927 24.8984)">
<stop offset="0.483055" stop-color="#B91D43" stop-opacity="0"/>
<stop offset="0.833898" stop-color="#B91D43"/>
</radialGradient>
<radialGradient id="paint22_radial_4912_17213" cx="0" cy="0" r="1" gradientUnits="userSpaceOnUse" gradientTransform="translate(13.9637 12.5384) rotate(-158.663) scale(11.5302 16.2996)">
<stop offset="0.40984" stop-color="#B91D43" stop-opacity="0"/>
<stop offset="0.833898" stop-color="#B91D43"/>
</radialGradient>
<radialGradient id="paint23_radial_4912_17213" cx="0" cy="0" r="1" gradientUnits="userSpaceOnUse" gradientTransform="translate(11.715 10.5247) rotate(90) scale(10.0351 10.0351)">
<stop offset="0.671096" stop-color="#FF7AF2" stop-opacity="0"/>
<stop offset="0.933555" stop-color="#FFBCE6"/>
</radialGradient>
<linearGradient id="paint24_linear_4912_17213" x1="12.8226" y1="11.6994" x2="16.8836" y2="16.5323" gradientUnits="userSpaceOnUse">
<stop offset="0.694491" stop-color="#FF7AF2" stop-opacity="0"/>
<stop offset="0.933555" stop-color="#FFBCE6"/>
</linearGradient>
<linearGradient id="paint25_linear_4912_17213" x1="12.3191" y1="11.9007" x2="7.55329" y2="17.2707" gradientUnits="userSpaceOnUse">
<stop offset="0.694491" stop-color="#FF7AF2" stop-opacity="0"/>
<stop offset="0.933555" stop-color="#FFBCE6"/>
</linearGradient>
<radialGradient id="paint26_radial_4912_17213" cx="0" cy="0" r="1" gradientUnits="userSpaceOnUse" gradientTransform="translate(13.1276 10.0585) rotate(164.618) scale(8.72516 9.21453)">
<stop offset="0.802083" stop-color="#FF73A6" stop-opacity="0"/>
<stop offset="1" stop-color="#FF93BA" stop-opacity="0.6"/>
</radialGradient>
<radialGradient id="paint27_radial_4912_17213" cx="0" cy="0" r="1" gradientUnits="userSpaceOnUse" gradientTransform="translate(11.9599 7.95972) rotate(-90) scale(6.01073 7.16173)">
<stop stop-color="#FC0D1A" stop-opacity="0.6"/>
<stop offset="0.802083" stop-color="#FC1020" stop-opacity="0"/>
</radialGradient>
<radialGradient id="paint28_radial_4912_17213" cx="0" cy="0" r="1" gradientUnits="userSpaceOnUse" gradientTransform="translate(17.3898 8.22817) rotate(129.227) scale(5.17234 3.41468)">
<stop stop-color="#FF93BA" stop-opacity="0.5"/>
<stop offset="1" stop-color="#FF73A6" stop-opacity="0"/>
</radialGradient>
<radialGradient id="paint29_radial_4912_17213" cx="0" cy="0" r="1" gradientUnits="userSpaceOnUse" gradientTransform="translate(10.6389 9.65902) rotate(45.5907) scale(1.67378 1.105)">
<stop stop-color="#FF93BA" stop-opacity="0.4"/>
<stop offset="1" stop-color="#FF73A6" stop-opacity="0"/>
</radialGradient>
<radialGradient id="paint30_radial_4912_17213" cx="0" cy="0" r="1" gradientUnits="userSpaceOnUse" gradientTransform="translate(15.5192 6.92604) rotate(176.279) scale(1.50387 0.977174)">
<stop stop-color="#FF93BA" stop-opacity="0.3"/>
<stop offset="1" stop-color="#FF73A6" stop-opacity="0"/>
</radialGradient>
<radialGradient id="paint31_radial_4912_17213" cx="0" cy="0" r="1" gradientUnits="userSpaceOnUse" gradientTransform="translate(8.27192 6.96264) rotate(1.07082) scale(1.30571 0.66804)">
<stop stop-color="#FF93BA" stop-opacity="0.3"/>
<stop offset="1" stop-color="#FF73A6" stop-opacity="0"/>
</radialGradient>
<radialGradient id="paint32_radial_4912_17213" cx="0" cy="0" r="1" gradientUnits="userSpaceOnUse" gradientTransform="translate(12.9082 10.1959) rotate(-90) scale(2.94039 1.07498)">
<stop stop-color="#FA1E3A" stop-opacity="0.7"/>
<stop offset="1" stop-color="#FA1E3A" stop-opacity="0"/>
</radialGradient>
<radialGradient id="paint33_radial_4912_17213" cx="0" cy="0" r="1" gradientUnits="userSpaceOnUse" gradientTransform="translate(15.9361 9.27811) rotate(-151.991) scale(3.22464)">
<stop stop-color="#FA1E3A" stop-opacity="0.7"/>
<stop offset="1" stop-color="#FA1E3A" stop-opacity="0"/>
</radialGradient>
<clipPath id="clip0_4912_17213">
<rect x="0.0546875" y="0.948242" width="24" height="23" rx="5" fill="white"/>
</clipPath>
</defs>
</svg>
