<svg width="250" height="72" viewBox="0 0 250 72" fill="none" xmlns="http://www.w3.org/2000/svg">
<rect width="250" height="72" rx="8" fill="#D9EBFF"/>
<path d="M93.4259 21.0628L94.5663 19.9157L95.72 21.0628L94.5663 22.2098L93.4259 21.0628ZM96.7278 19.6173L98.4451 18.7952C99.1435 20.3732 99.4927 21.6661 99.4927 22.6739C99.4927 23.6022 99.2916 24.389 98.8893 25.0343C98.4915 25.6797 97.9279 26.1703 97.1986 26.5063C96.4692 26.8422 95.6073 27.0102 94.6127 27.0102C93.0259 27.0102 91.8258 26.6566 91.0125 25.9493C90.2036 25.2465 89.7991 24.1569 89.7991 22.6806C89.7991 22.2606 89.8323 21.7943 89.8986 21.2816C89.9649 20.7644 90.071 20.192 90.2168 19.5643L91.954 19.9555C91.8081 20.645 91.7087 21.1821 91.6556 21.5667C91.6026 21.9512 91.5761 22.285 91.5761 22.5678C91.5761 23.4607 91.8214 24.1017 92.312 24.4906C92.8071 24.8796 93.5585 25.0741 94.5663 25.0741C95.5874 25.0741 96.3654 24.8973 96.9002 24.5437C97.4351 24.1945 97.7025 23.6265 97.7025 22.8397C97.7025 22.4728 97.6296 22.0485 97.4837 21.5667C97.3378 21.0849 97.0859 20.4351 96.7278 19.6173ZM100.948 14.6976H102.791V20.7379C102.791 21.2241 102.908 21.5689 103.143 21.7722C103.377 21.9711 103.781 22.0706 104.356 22.0706H104.363V24H104.356C103.277 24 102.44 23.7304 101.843 23.1911C101.246 22.6474 100.948 21.8429 100.948 20.7777V14.6976ZM108.172 20.4528C108.172 20.8594 108.207 21.1821 108.278 21.4208C108.348 21.6551 108.492 21.823 108.709 21.9247C108.925 22.0219 109.25 22.0706 109.683 22.0706H109.982V24H109.663C109.102 24 108.607 23.8674 108.178 23.6022C107.749 23.3325 107.449 22.9635 107.276 22.4949H107.21C107.042 22.9635 106.728 23.3325 106.269 23.6022C105.813 23.8674 105.309 24 104.757 24H104.498C104.401 24 104.333 23.9226 104.293 23.7679C104.249 23.6132 104.226 23.3679 104.226 23.032C104.226 22.6916 104.249 22.4463 104.293 22.296C104.333 22.1457 104.401 22.0706 104.498 22.0706H104.757C105.208 22.0706 105.546 22.0197 105.771 21.9181C105.997 21.8164 106.147 21.6484 106.222 21.4142C106.297 21.1755 106.335 20.855 106.335 20.4528V19.3455H108.172V20.4528ZM102.788 26.2742L103.928 25.1272L105.082 26.2742L103.928 27.4213L102.788 26.2742ZM105.102 26.2742L106.242 25.1272L107.396 26.2742L106.242 27.4213L105.102 26.2742ZM116.144 14.3595L116.41 16.2756C115.495 16.4834 114.723 16.6757 114.096 16.8525C113.472 17.0293 112.909 17.2105 112.405 17.3962V17.436C113.094 17.9796 113.647 18.4592 114.062 18.8747C114.482 19.2902 114.785 19.6792 114.971 20.0417C115.156 20.3997 115.249 20.7644 115.249 21.1357C115.249 22.0463 114.887 22.7513 114.162 23.2508C113.437 23.7503 112.407 24 111.072 24H110.124C110.027 24 109.958 23.9271 109.919 23.7812C109.874 23.6309 109.852 23.3812 109.852 23.032C109.852 22.6828 109.874 22.4352 109.919 22.2894C109.958 22.1435 110.027 22.0706 110.124 22.0706H111.026C111.835 22.0706 112.434 21.9844 112.823 21.812C113.212 21.6396 113.406 21.3788 113.406 21.0296C113.406 20.8219 113.302 20.5876 113.094 20.3268C112.891 20.0616 112.553 19.7367 112.08 19.3521C111.611 18.9631 110.979 18.4813 110.184 17.9067L110.323 16.2955C112.091 15.4424 114.032 14.7971 116.144 14.3595ZM130.711 19.1598C130.645 19.5311 130.592 19.856 130.552 20.1345C130.517 20.4086 130.499 20.6428 130.499 20.8373C130.499 21.213 130.607 21.5136 130.824 21.7391C131.04 21.9601 131.414 22.0706 131.944 22.0706H131.951V24H131.944C131.264 24 130.676 23.863 130.181 23.5889C129.69 23.3104 129.336 22.8507 129.12 22.2098H129.053C128.585 22.8949 127.937 23.3657 127.111 23.6221C126.289 23.874 125.309 24 124.173 24C122.547 24 121.342 23.6994 120.56 23.0983C119.778 22.4927 119.386 21.602 119.386 20.4262C119.386 19.7323 119.517 18.93 119.778 18.0194L121.382 18.4637C121.289 18.7908 121.216 19.109 121.163 19.4184C121.115 19.7278 121.09 19.9842 121.09 20.1876C121.09 20.8506 121.349 21.3302 121.866 21.6263C122.383 21.9225 123.245 22.0706 124.452 22.0706C125.447 22.0706 126.251 21.9645 126.865 21.7523C127.48 21.5401 127.955 21.1998 128.291 20.7312C128.631 20.2627 128.879 19.6461 129.034 18.8814L130.711 19.1598ZM122.715 18.3509L123.855 17.2039L125.009 18.3509L123.855 19.498L122.715 18.3509ZM125.029 18.3509L126.169 17.2039L127.323 18.3509L126.169 19.498L125.029 18.3509ZM135.229 18.3642C135.362 18.8902 135.466 19.3831 135.541 19.8428C135.616 20.2981 135.654 20.6981 135.654 21.0429C135.654 23.0143 134.553 24 132.352 24H132.093C131.912 24 131.821 23.6773 131.821 23.032C131.821 22.391 131.912 22.0706 132.093 22.0706H132.352C132.873 22.0706 133.254 21.9689 133.492 21.7656C133.735 21.5622 133.857 21.2484 133.857 20.8241C133.857 20.6207 133.824 20.3489 133.758 20.0085C133.696 19.6638 133.612 19.2748 133.506 18.8416L135.229 18.3642ZM131.881 26.2742L133.022 25.1272L134.175 26.2742L133.022 27.4213L131.881 26.2742ZM137.076 14.6976H138.919V20.7379C138.919 21.2241 139.036 21.5689 139.271 21.7722C139.505 21.9711 139.909 22.0706 140.484 22.0706H140.49V24H140.484C139.405 24 138.568 23.7304 137.971 23.1911C137.374 22.6474 137.076 21.8429 137.076 20.7777V14.6976ZM143.762 18.3642C143.895 18.8902 143.999 19.3831 144.074 19.8428C144.149 20.2981 144.187 20.6981 144.187 21.0429C144.187 23.0143 143.086 24 140.885 24H140.626C140.445 24 140.354 23.6773 140.354 23.032C140.354 22.391 140.445 22.0706 140.626 22.0706H140.885C141.406 22.0706 141.787 21.9689 142.025 21.7656C142.268 21.5622 142.39 21.2484 142.39 20.8241C142.39 20.6207 142.357 20.3489 142.291 20.0085C142.229 19.6638 142.145 19.2748 142.039 18.8416L143.762 18.3642ZM141.124 14.0943L142.271 12.9472L143.418 14.0943L142.271 15.2413L141.124 14.0943ZM142.284 16.269L143.424 15.122L144.578 16.269L143.424 17.4161L142.284 16.269ZM139.97 16.269L141.11 15.122L142.264 16.269L141.11 17.4161L139.97 16.269ZM157.215 17.8669L156.625 19.5179C156.143 19.3234 155.684 19.2262 155.246 19.2262C154.724 19.2262 154.285 19.3786 153.926 19.6836C153.573 19.9842 153.396 20.3666 153.396 20.8307C153.396 21.1534 153.546 21.3655 153.847 21.4672C154.152 21.5645 154.678 21.644 155.425 21.7059C156.07 21.7634 156.574 21.9247 156.937 22.1899C157.299 22.4551 157.48 22.8972 157.48 23.516C157.48 24.21 157.27 24.8155 156.85 25.3327C156.435 25.8543 155.854 26.2587 155.107 26.5461C154.36 26.8334 153.493 26.977 152.508 26.977C151.084 26.977 149.99 26.6543 149.226 26.009C148.461 25.3636 148.079 24.4487 148.079 23.264C148.079 22.9237 148.107 22.4728 148.165 21.9114C148.222 21.3457 148.297 20.7754 148.39 20.2008L150.154 20.5191C150.048 21.1379 149.97 21.6484 149.922 22.0507C149.873 22.4485 149.849 22.7977 149.849 23.0983C149.849 23.7657 150.063 24.2586 150.492 24.5768C150.925 24.8951 151.615 25.0542 152.561 25.0542C153.149 25.0542 153.686 25.0012 154.172 24.8951C154.662 24.789 155.054 24.6476 155.345 24.4708C155.642 24.2984 155.79 24.1061 155.79 23.8939C155.79 23.6862 155.668 23.5536 155.425 23.4961C155.186 23.4342 154.892 23.3922 154.543 23.3701C153.646 23.2994 152.954 23.1005 152.468 22.7734C151.986 22.4419 151.745 21.8761 151.745 21.076C151.745 20.3909 151.906 19.7743 152.229 19.2262C152.552 18.6736 152.985 18.236 153.529 17.9133C154.072 17.5862 154.676 17.4227 155.339 17.4227C155.935 17.4227 156.561 17.5708 157.215 17.8669ZM160.905 24H159.075V14.6976H160.905V24ZM167.154 16.6801L168.884 20.7312C169.043 21.107 169.194 21.3921 169.335 21.5866C169.481 21.7766 169.649 21.9048 169.839 21.9711C170.029 22.0374 170.27 22.0706 170.562 22.0706H170.621V24H170.562C169.934 24 169.417 23.8829 169.01 23.6486C168.604 23.4099 168.283 23.0121 168.049 22.4551H167.983C167.779 22.9635 167.417 23.3591 166.895 23.642C166.378 23.9249 165.783 24.0663 165.112 24.0663C164.643 24.0663 164.175 23.9867 163.706 23.8276C163.242 23.6641 162.8 23.4209 162.38 23.0983L163.202 21.4805C163.861 21.9137 164.515 22.1302 165.165 22.1302C165.532 22.1302 165.89 22.0617 166.239 21.9247C166.592 21.7833 166.884 21.5777 167.114 21.3081L165.43 17.5089L167.154 16.6801ZM173.893 18.3642C174.026 18.8902 174.13 19.3831 174.205 19.8428C174.28 20.2981 174.318 20.6981 174.318 21.0429C174.318 23.0143 173.217 24 171.016 24H170.757C170.576 24 170.485 23.6773 170.485 23.032C170.485 22.391 170.576 22.0706 170.757 22.0706H171.016C171.537 22.0706 171.918 21.9689 172.156 21.7656C172.399 21.5622 172.521 21.2484 172.521 20.8241C172.521 20.6207 172.488 20.3489 172.421 20.0085C172.36 19.6638 172.276 19.2748 172.169 18.8416L173.893 18.3642ZM171.195 16.0834L172.335 14.9363L173.489 16.0834L172.335 17.2304L171.195 16.0834ZM182.446 15.4999L183.587 14.3528L184.74 15.4999L183.587 16.6469L182.446 15.4999ZM184.76 15.4999L185.901 14.3528L187.054 15.4999L185.901 16.6469L184.76 15.4999ZM184.754 17.8802C185.39 17.8802 185.918 18.0924 186.338 18.5167C186.758 18.941 187.072 19.5135 187.28 20.234C187.492 20.95 187.598 21.7501 187.598 22.6341C187.598 24.0972 187.178 25.2355 186.338 26.0488C185.503 26.8665 184.305 27.2754 182.745 27.2754C181.233 27.2754 180.088 26.9439 179.31 26.2808C178.537 25.6178 178.15 24.6409 178.15 23.3502C178.15 22.9922 178.181 22.5546 178.243 22.0374C178.305 21.5158 178.4 20.8727 178.528 20.108L180.311 20.466C180.201 21.0937 180.119 21.6263 180.066 22.0639C180.013 22.5015 179.986 22.8817 179.986 23.2044C179.986 23.9293 180.223 24.4663 180.696 24.8155C181.173 25.1647 181.878 25.3393 182.811 25.3393C184.495 25.3393 185.492 24.7669 185.801 23.6221L185.748 23.5292C185.589 23.5734 185.406 23.611 185.198 23.642C184.99 23.6729 184.778 23.6884 184.561 23.6884C183.828 23.6884 183.255 23.4939 182.844 23.1049C182.433 22.7115 182.227 22.1258 182.227 21.3479C182.227 20.6937 182.329 20.1058 182.532 19.5842C182.736 19.0582 183.025 18.6427 183.401 18.3377C183.781 18.0327 184.232 17.8802 184.754 17.8802ZM185.841 21.686C185.832 21.3899 185.79 21.1003 185.715 20.8174C185.64 20.5301 185.521 20.2936 185.357 20.108C185.193 19.9179 184.975 19.8229 184.701 19.8229C184.382 19.8229 184.141 19.9533 183.978 20.2141C183.814 20.4749 183.733 20.76 183.733 21.0694C183.733 21.339 183.817 21.5313 183.984 21.6462C184.152 21.7612 184.378 21.8186 184.661 21.8186C184.886 21.8186 185.096 21.8054 185.291 21.7788C185.49 21.7523 185.673 21.7214 185.841 21.686ZM192.315 23.9602L192.262 23.874C192.099 23.9182 191.915 23.9558 191.712 23.9867C191.509 24.0177 191.308 24.0332 191.109 24.0332C190.357 24.0332 189.776 23.8342 189.365 23.4364C188.954 23.0386 188.748 22.4573 188.748 21.6926C188.748 21.1003 188.839 20.539 189.02 20.0085C189.206 19.4781 189.484 19.0471 189.856 18.7156C190.231 18.3841 190.702 18.2183 191.268 18.2183C191.776 18.2183 192.209 18.3532 192.567 18.6228C192.93 18.888 193.224 19.2483 193.449 19.7035C193.679 20.1588 193.847 20.6738 193.953 21.2484C194.059 21.8186 194.112 22.4065 194.112 23.0121C194.112 24.1304 193.714 25.0631 192.919 25.8101C192.128 26.5571 190.961 27.1671 189.418 27.6401L188.596 25.9029C189.524 25.6819 190.324 25.399 190.996 25.0542C191.672 24.7139 192.112 24.3492 192.315 23.9602ZM192.355 22.044C192.346 21.7435 192.304 21.4495 192.229 21.1622C192.154 20.8749 192.035 20.6384 191.871 20.4528C191.712 20.2627 191.495 20.1677 191.221 20.1677C190.903 20.1677 190.66 20.2981 190.492 20.5589C190.328 20.8196 190.247 21.1047 190.247 21.4142C190.247 21.6838 190.331 21.8761 190.499 21.991C190.667 22.1059 190.894 22.1634 191.182 22.1634C191.394 22.1634 191.597 22.1523 191.792 22.1302C191.991 22.1037 192.178 22.075 192.355 22.044ZM199.871 16.6801L201.601 20.7312C201.76 21.107 201.91 21.3921 202.052 21.5866C202.198 21.7766 202.366 21.9048 202.556 21.9711C202.746 22.0374 202.987 22.0706 203.279 22.0706H203.338V24H203.279C202.651 24 202.134 23.8829 201.727 23.6486C201.32 23.4099 201 23.0121 200.766 22.4551H200.699C200.496 22.9635 200.134 23.3591 199.612 23.642C199.095 23.9249 198.5 24.0663 197.828 24.0663C197.36 24.0663 196.891 23.9867 196.423 23.8276C195.959 23.6641 195.517 23.4209 195.097 23.0983L195.919 21.4805C196.577 21.9137 197.232 22.1302 197.881 22.1302C198.248 22.1302 198.606 22.0617 198.956 21.9247C199.309 21.7833 199.601 21.5777 199.831 21.3081L198.147 17.5089L199.871 16.6801ZM207.147 20.4528C207.147 20.8594 207.183 21.1821 207.253 21.4208C207.324 21.6551 207.468 21.823 207.684 21.9247C207.901 22.0219 208.226 22.0706 208.659 22.0706H208.957V24H208.639C208.078 24 207.583 23.8674 207.154 23.6022C206.725 23.3325 206.425 22.9635 206.252 22.4949H206.186C206.018 22.9635 205.704 23.3325 205.244 23.6022C204.789 23.8674 204.285 24 203.733 24H203.474C203.377 24 203.308 23.9226 203.268 23.7679C203.224 23.6132 203.202 23.3679 203.202 23.032C203.202 22.6916 203.224 22.4463 203.268 22.296C203.308 22.1457 203.377 22.0706 203.474 22.0706H203.733C204.183 22.0706 204.522 22.0197 204.747 21.9181C204.972 21.8164 205.123 21.6484 205.198 21.4142C205.273 21.1755 205.311 20.855 205.311 20.4528V19.3455H207.147V20.4528ZM204.396 16.9519L205.536 15.8049L206.69 16.9519L205.536 18.099L204.396 16.9519ZM211.865 22.4352C211.688 22.9524 211.361 23.3436 210.883 23.6088C210.41 23.8696 209.829 24 209.139 24H209.1C209.002 24 208.934 23.9249 208.894 23.7746C208.85 23.6199 208.828 23.3723 208.828 23.032C208.828 22.6916 208.85 22.4463 208.894 22.296C208.934 22.1457 209.002 22.0706 209.1 22.0706H209.139C209.745 22.0706 210.152 21.9512 210.359 21.7125C210.567 21.4738 210.671 21.118 210.671 20.645V19.2792H212.508V20.5456C212.534 20.7666 212.581 20.9257 212.647 21.023C212.718 21.1158 212.802 21.1932 212.899 21.255C213.677 20.1588 214.406 19.3698 215.087 18.888C215.772 18.4018 216.433 18.1587 217.069 18.1587C217.564 18.1587 217.998 18.2824 218.369 18.53C218.745 18.7731 219.036 19.1068 219.244 19.5311C219.456 19.9555 219.562 20.4373 219.562 20.9766C219.562 21.6131 219.383 22.1568 219.025 22.6076C218.672 23.0585 218.19 23.4033 217.58 23.642C216.974 23.8807 216.294 24 215.538 24C214.587 24 213.816 23.8762 213.224 23.6287C212.636 23.3767 212.205 22.9789 211.931 22.4352H211.865ZM216.831 20.0483C216.442 20.0483 216.017 20.192 215.558 20.4793C215.102 20.7622 214.656 21.2197 214.218 21.8518C214.417 21.9269 214.64 21.9822 214.888 22.0175C215.136 22.0529 215.394 22.0706 215.664 22.0706C216.057 22.0706 216.42 22.0352 216.751 21.9645C217.087 21.8893 217.357 21.77 217.56 21.6064C217.763 21.4385 217.865 21.2197 217.865 20.95C217.865 20.6892 217.77 20.4749 217.58 20.3069C217.394 20.1345 217.145 20.0483 216.831 20.0483Z" fill="#1E2A58"/>
<rect x="14" y="9" width="53" height="21" rx="10.5" fill="#1D71B9"/>
<path d="M39.5527 16.7739L39.0781 17.6001C38.7031 17.3364 38.3442 17.2046 38.0015 17.2046C37.6909 17.2046 37.4287 17.2998 37.2148 17.4902C37.0039 17.6807 36.8984 17.915 36.8984 18.1934C36.8984 18.7822 37.4668 19.0767 38.6035 19.0767C38.7617 19.0767 38.936 19.0723 39.1265 19.0635C39.3198 19.0518 39.5176 19.0371 39.7197 19.0195L39.7153 20.0479C39.0503 20.0684 38.4644 20.1724 37.9575 20.3599C37.4536 20.5474 37.0596 20.7979 36.7754 21.1113C36.4941 21.4248 36.3535 21.7808 36.3535 22.1792C36.3535 22.6099 36.5352 22.9409 36.8984 23.1724C37.2646 23.4067 37.7832 23.5239 38.4541 23.5239C38.7822 23.5239 39.1104 23.4961 39.4385 23.4404C39.7695 23.3877 40.0713 23.3115 40.3438 23.2119L40.6953 24.1875C39.9775 24.4775 39.2188 24.6226 38.4189 24.6226C37.792 24.6226 37.2485 24.5303 36.7886 24.3457C36.3315 24.1611 35.9785 23.8975 35.7295 23.5547C35.4805 23.2119 35.356 22.8062 35.356 22.3374C35.356 21.7808 35.52 21.2769 35.8481 20.8257C36.1792 20.3716 36.6348 20.0244 37.2148 19.7842V19.7402C36.3594 19.4854 35.9316 18.9858 35.9316 18.2417C35.9316 17.855 36.0225 17.5034 36.2041 17.187C36.3887 16.8706 36.6362 16.6201 36.9468 16.4355C37.2573 16.248 37.6016 16.1543 37.9795 16.1543C38.5479 16.1543 39.0723 16.3608 39.5527 16.7739ZM43.5233 21.6167L43.4881 21.564C43.3651 21.5991 43.2288 21.6284 43.0794 21.6519C42.9329 21.6724 42.7821 21.6826 42.6268 21.6826C42.1434 21.6826 41.7669 21.561 41.4974 21.3179C41.2279 21.0718 41.0931 20.7026 41.0931 20.2104C41.0931 19.8354 41.1517 19.481 41.2689 19.147C41.3861 18.8101 41.5633 18.5361 41.8006 18.3252C42.0409 18.1113 42.3426 18.0044 42.7059 18.0044C43.037 18.0044 43.3182 18.0938 43.5496 18.2725C43.7811 18.4512 43.9686 18.6899 44.1121 18.9888C44.2557 19.2876 44.3597 19.6216 44.4242 19.9907C44.4915 20.3599 44.5252 20.7349 44.5252 21.1157C44.5252 21.8276 44.2586 22.4209 43.7254 22.8955C43.1952 23.3701 42.4261 23.7554 41.4183 24.0513L40.9701 23.0757C41.6527 22.9146 42.221 22.7065 42.6751 22.4517C43.1322 22.1997 43.4149 21.9214 43.5233 21.6167ZM43.5409 20.5444C43.5321 20.3247 43.4984 20.1035 43.4398 19.8809C43.3841 19.6582 43.2948 19.4722 43.1717 19.3228C43.0516 19.1704 42.8875 19.0942 42.6795 19.0942C42.5155 19.0942 42.3778 19.1426 42.2664 19.2393C42.158 19.333 42.076 19.4546 42.0204 19.604C41.9676 19.7534 41.9412 19.9072 41.9412 20.0654C41.9412 20.2793 42.0057 20.4287 42.1346 20.5137C42.2664 20.5986 42.4437 20.6411 42.6663 20.6411C42.8275 20.6411 42.9813 20.6309 43.1278 20.6104C43.2743 20.5898 43.412 20.5679 43.5409 20.5444ZM46.0129 18.8701L46.9797 18.5361L47.2741 19.4546C47.3679 19.7388 47.4675 19.9629 47.5729 20.127C47.6813 20.291 47.8205 20.4082 47.9904 20.4785C48.1603 20.5459 48.383 20.5796 48.6584 20.5796H48.6628V21.6562H48.6584C48.134 21.6562 47.7399 21.4761 47.4762 21.1157L47.4323 21.1333C47.4645 21.8394 47.2521 22.4224 46.7951 22.8823C46.341 23.3452 45.6628 23.7378 44.7604 24.0601L44.299 23.0933C45.0929 22.8149 45.6584 22.5249 45.9953 22.2231C46.3351 21.9214 46.5051 21.5493 46.5051 21.1069C46.5051 20.855 46.4611 20.5342 46.3732 20.1445C46.2883 19.752 46.1681 19.3271 46.0129 18.8701ZM52.0401 15.7852L52.7344 15.0864L53.4287 15.7852L52.7344 16.4795L52.0401 15.7852ZM52.8091 17.1914L53.499 16.4971L54.1978 17.1914L53.499 17.8857L52.8091 17.1914ZM51.271 17.1914L51.9654 16.4971L52.6641 17.1914L51.9654 17.8857L51.271 17.1914ZM51.6182 20.5796C51.8496 20.5796 52.0166 20.5122 52.1192 20.3774C52.2217 20.2427 52.2876 20.0376 52.3169 19.7622L52.3916 18.9141L53.2925 18.9756L53.231 19.8149C53.2075 20.064 53.2559 20.2544 53.376 20.3862C53.4961 20.5151 53.6719 20.5796 53.9033 20.5796C54.126 20.5796 54.2915 20.5151 54.3999 20.3862C54.5112 20.2573 54.5669 20.0757 54.5669 19.8413C54.5669 19.7593 54.5596 19.6465 54.5449 19.5029C54.5332 19.3594 54.5156 19.207 54.4922 19.0459C54.4717 18.8848 54.4497 18.7383 54.4263 18.6064L55.4238 18.3691C55.4678 18.5889 55.5059 18.832 55.5381 19.0986C55.5703 19.3652 55.5864 19.6084 55.5864 19.8281C55.5864 20.4492 55.4575 20.9092 55.1997 21.208C54.9419 21.5068 54.5684 21.6562 54.0791 21.6562C53.71 21.6562 53.4243 21.5698 53.2222 21.397C53.02 21.2241 52.8853 20.9956 52.8179 20.7114H52.7739C52.6333 21.3413 52.229 21.6562 51.5611 21.6562C51.2036 21.6562 50.9253 21.5698 50.7261 21.397C50.5298 21.2241 50.398 20.9795 50.3306 20.6631H50.2866C50.1724 20.9619 49.9834 21.2021 49.7197 21.3838C49.459 21.5654 49.1397 21.6562 48.7617 21.6562H48.5728C48.5171 21.6562 48.4761 21.6138 48.4497 21.5288C48.4234 21.4409 48.4102 21.3003 48.4102 21.1069C48.4102 20.9165 48.4234 20.7817 48.4497 20.7026C48.4761 20.6206 48.5171 20.5796 48.5728 20.5796H48.7617C49.1367 20.5796 49.4107 20.4946 49.5835 20.3247C49.7593 20.1519 49.8662 19.875 49.9043 19.4941L49.979 18.6899L51.0073 18.7646L50.9195 19.7534C50.8902 20.0083 50.937 20.2104 51.0601 20.3599C51.1831 20.5063 51.3692 20.5796 51.6182 20.5796Z" fill="white"/>
<path d="M24.6293 16L21 19.5L24.6293 23M30 19.5H21.1016" stroke="white" stroke-miterlimit="10" stroke-linecap="round" stroke-linejoin="round"/>
<rect x="130" y="40" width="111" height="24" rx="4" fill="white" fill-opacity="0.55"/>
<path d="M197.51 50.6787L197.466 49.8975L198.413 49.8438L198.584 52.6611C198.607 53.0094 198.656 53.2829 198.73 53.4814C198.809 53.6768 198.929 53.8135 199.092 53.8916C199.258 53.9697 199.484 54.0088 199.771 54.0088H199.775V55H199.771C199.312 55 198.939 54.9219 198.652 54.7656C198.369 54.6061 198.148 54.3669 197.988 54.0479C197.627 54.2008 197.246 54.2773 196.846 54.2773C196.484 54.2773 196.157 54.2236 195.864 54.1162C195.575 54.0088 195.343 53.8509 195.171 53.6426C195.002 53.431 194.917 53.1738 194.917 52.8711C194.917 52.3112 195.145 51.8408 195.601 51.46C196.06 51.0791 196.696 50.8187 197.51 50.6787ZM197.573 51.5967C197.023 51.652 196.584 51.7773 196.255 51.9727C195.929 52.1647 195.767 52.4056 195.767 52.6953C195.767 52.9264 195.877 53.0957 196.099 53.2031C196.32 53.3105 196.589 53.3643 196.904 53.3643C197.204 53.3643 197.476 53.3268 197.72 53.252C197.7 53.1576 197.686 53.0713 197.676 52.9932C197.666 52.9118 197.658 52.8255 197.651 52.7344L197.573 51.5967ZM201.509 51.1328C201.604 51.4909 201.677 51.8278 201.729 52.1436C201.784 52.4593 201.812 52.7425 201.812 52.9932C201.812 53.6442 201.633 54.1423 201.275 54.4873C200.92 54.8291 200.363 55 199.605 55H199.375C199.268 55 199.214 54.834 199.214 54.502C199.214 54.1732 199.268 54.0088 199.375 54.0088H199.605C200.064 54.0088 200.393 53.9176 200.591 53.7354C200.79 53.5531 200.889 53.2796 200.889 52.915C200.889 52.7327 200.865 52.5114 200.816 52.251C200.767 51.9873 200.704 51.696 200.625 51.377L201.509 51.1328ZM199.829 49.3408L200.533 48.6377L201.236 49.3408L200.533 50.0488L199.829 49.3408ZM203.16 48.5791L205.455 51.1279C205.937 50.6592 206.178 50.0358 206.178 49.2578V48.4229H207.125V49.2578C207.125 49.7689 207.039 50.2262 206.866 50.6299C206.693 51.0335 206.422 51.4111 206.051 51.7627C206.412 52.111 206.68 52.4333 206.856 52.7295C207.035 53.0225 207.125 53.304 207.125 53.5742C207.125 54.0397 206.908 54.4027 206.475 54.6631C206.042 54.9202 205.476 55.0488 204.776 55.0488C204.132 55.0488 203.429 54.9251 202.667 54.6777V53.2861L204.893 51.7139L202.506 49.2676L203.16 48.5791ZM205.406 52.2021L203.638 53.4961V53.9014C203.844 53.9502 204.057 53.9893 204.278 54.0186C204.503 54.0446 204.721 54.0576 204.932 54.0576C205.356 54.0576 205.683 54.0007 205.914 53.8867C206.148 53.7728 206.265 53.6361 206.265 53.4766C206.265 53.3464 206.195 53.1755 206.055 52.9639C205.915 52.749 205.699 52.4951 205.406 52.2021ZM208.151 48.4229H209.103V52.8027C209.103 53.2357 209.199 53.5449 209.391 53.7305C209.586 53.916 209.93 54.0088 210.421 54.0088H210.426V55H210.421C209.685 55 209.122 54.8193 208.732 54.458C208.344 54.0934 208.151 53.5482 208.151 52.8223V48.4229ZM213.434 54.0088C213.714 54.0088 213.919 53.9274 214.049 53.7646C214.18 53.5986 214.261 53.3431 214.294 52.998L214.377 52.0898L215.221 52.1533L215.153 53.0273C215.12 53.3529 215.179 53.5986 215.329 53.7646C215.478 53.9274 215.698 54.0088 215.988 54.0088C216.525 54.0088 216.794 53.7012 216.794 53.0859C216.794 52.9883 216.785 52.8597 216.769 52.7002C216.756 52.5374 216.738 52.3698 216.715 52.1973C216.693 52.0215 216.668 51.8669 216.642 51.7334L217.56 51.5137C217.606 51.7415 217.646 52.0003 217.682 52.29C217.718 52.5798 217.736 52.8402 217.736 53.0713C217.736 53.7223 217.599 54.2074 217.326 54.5264C217.052 54.8421 216.655 55 216.134 55C215.737 55 215.426 54.9072 215.202 54.7217C214.98 54.5329 214.834 54.2822 214.762 53.9697H214.713C214.551 54.6566 214.106 55 213.38 55C212.987 55 212.679 54.9023 212.458 54.707C212.24 54.5117 212.096 54.2367 212.028 53.8818H211.979C211.862 54.2171 211.654 54.4873 211.354 54.6924C211.055 54.8975 210.69 55 210.26 55H210.031C209.923 55 209.87 54.8324 209.87 54.4971C209.87 54.1715 209.923 54.0088 210.031 54.0088H210.26C210.71 54.0088 211.04 53.903 211.252 53.6914C211.463 53.4766 211.595 53.1315 211.647 52.6562L211.725 51.8506L212.672 51.9189L212.58 52.9541C212.544 53.2861 212.599 53.5449 212.746 53.7305C212.895 53.916 213.125 54.0088 213.434 54.0088ZM221.55 55.0537C220.997 55.0537 220.565 54.9023 220.256 54.5996C219.947 54.2936 219.792 53.9144 219.792 53.4619C219.792 53.0192 219.91 52.5993 220.144 52.2021C220.378 51.8018 220.665 51.4339 221.003 51.0986C220.837 50.9359 220.671 50.7861 220.505 50.6494L221.091 49.9512C221.501 50.2865 221.876 50.6396 222.214 51.0107C222.556 51.3818 222.828 51.766 223.03 52.1631C223.235 52.5602 223.337 52.9688 223.337 53.3887C223.337 53.7109 223.262 53.9974 223.113 54.248C222.966 54.4987 222.758 54.6956 222.488 54.8389C222.221 54.9821 221.908 55.0537 221.55 55.0537ZM221.55 54.0576C221.85 54.0576 222.068 53.9844 222.204 53.8379C222.344 53.6914 222.414 53.5075 222.414 53.2861C222.414 53.0355 222.338 52.7669 222.185 52.4805C222.032 52.194 221.82 51.9271 221.55 51.6797C221.283 51.9271 221.072 52.1956 220.915 52.4854C220.759 52.7718 220.681 53.0387 220.681 53.2861C220.681 53.5075 220.749 53.6914 220.886 53.8379C221.023 53.9844 221.244 54.0576 221.55 54.0576ZM227.898 53.0908C227.898 53.5433 227.779 53.9128 227.542 54.1992C227.304 54.4857 226.988 54.6973 226.595 54.834C226.201 54.9674 225.769 55.0342 225.301 55.0342C225.069 55.0342 224.829 55.0179 224.578 54.9854C224.331 54.9528 224.075 54.9023 223.811 54.834L224.031 53.9014C224.262 53.9535 224.48 53.9925 224.685 54.0186C224.894 54.0413 225.092 54.0527 225.281 54.0527C225.805 54.0527 226.215 53.9714 226.512 53.8086C226.811 53.6426 226.961 53.3984 226.961 53.0762C226.961 52.7734 226.814 52.4121 226.521 51.9922C226.232 51.5723 225.826 51.1312 225.305 50.6689L225.94 49.917C226.591 50.4964 227.08 51.0482 227.405 51.5723C227.734 52.0931 227.898 52.5993 227.898 53.0908ZM228.895 52.0312L229.783 51.7188C229.966 52.2591 230.109 52.762 230.213 53.2275C230.321 53.6898 230.374 54.1081 230.374 54.4824C230.374 55.2116 230.135 55.8285 229.656 56.333C229.181 56.8408 228.428 57.2819 227.396 57.6562L226.976 56.7627C227.832 56.4632 228.457 56.141 228.851 55.7959C229.245 55.4508 229.442 55.0212 229.442 54.5068C229.442 54.2074 229.391 53.8379 229.29 53.3984C229.193 52.959 229.061 52.5033 228.895 52.0312ZM228.695 49.7021L229.398 48.999L230.101 49.7021L229.398 50.4102L228.695 49.7021ZM231.239 48.4229H232.191V52.8027C232.191 53.2357 232.287 53.5449 232.479 53.7305C232.674 53.916 233.018 54.0088 233.509 54.0088H233.514V55H233.509C232.774 55 232.211 54.8193 231.82 54.458C231.433 54.0934 231.239 53.5482 231.239 52.8223V48.4229ZM235.253 51.1328C235.347 51.4909 235.421 51.8278 235.473 52.1436C235.528 52.4593 235.556 52.7425 235.556 52.9932C235.556 53.6442 235.377 54.1423 235.019 54.4873C234.664 54.8291 234.107 55 233.349 55H233.119C233.012 55 232.958 54.834 232.958 54.502C232.958 54.1732 233.012 54.0088 233.119 54.0088H233.349C233.808 54.0088 234.136 53.9176 234.335 53.7354C234.534 53.5531 234.633 53.2796 234.633 52.915C234.633 52.7327 234.608 52.5114 234.56 52.251C234.511 51.9873 234.447 51.696 234.369 51.377L235.253 51.1328ZM233.109 56.7285L233.812 56.0254L234.516 56.7285L233.812 57.4365L233.109 56.7285Z" fill="#65697E"/>
<path d="M139.657 50.0537C139.97 50.0537 140.188 49.9447 140.312 49.7266C140.438 49.5052 140.531 49.126 140.59 48.5889L140.683 47.8711L142.011 48.0762C141.923 48.8249 141.799 49.4499 141.64 49.9512C141.483 50.4492 141.264 50.8236 140.98 51.0742C140.697 51.3249 140.325 51.4502 139.862 51.4502C139.641 51.4502 139.436 51.3802 139.247 51.2402L139.213 51.2695C139.324 51.8522 139.402 52.4495 139.447 53.0615C139.496 53.6702 139.522 54.3164 139.525 55H138.178C138.174 54.3848 138.15 53.8053 138.104 53.2617C138.062 52.7181 137.994 52.1859 137.899 51.665C137.808 51.1442 137.685 50.6104 137.528 50.0635C137.372 49.5166 137.18 48.9323 136.952 48.3105L138.236 47.832L138.505 48.5791C138.642 48.9567 138.764 49.2529 138.871 49.4678C138.979 49.6826 139.092 49.834 139.213 49.9219C139.337 50.0098 139.485 50.0537 139.657 50.0537ZM145.636 52.2021C145.789 51.359 146.043 50.5485 146.398 49.7705C146.753 48.9893 147.178 48.2894 147.672 47.6709L148.771 48.5205C148.413 48.9893 148.092 49.4531 147.809 49.9121C147.526 50.3678 147.279 50.8464 147.067 51.3477C146.859 51.849 146.683 52.3975 146.54 52.9932C146.4 53.5856 146.291 54.2546 146.213 55H145.026C144.948 54.2546 144.837 53.5856 144.694 52.9932C144.554 52.3975 144.378 51.849 144.167 51.3477C143.955 50.8464 143.708 50.3678 143.424 49.9121C143.141 49.4531 142.821 48.9893 142.463 48.5205L143.561 47.6709C144.059 48.2894 144.484 48.9893 144.836 49.7705C145.187 50.5485 145.438 51.359 145.588 52.2021H145.636ZM149.54 54.3018C149.54 54.0934 149.615 53.9193 149.765 53.7793C149.915 53.6361 150.095 53.5645 150.307 53.5645C150.515 53.5645 150.694 53.6361 150.844 53.7793C150.994 53.9193 151.069 54.0934 151.069 54.3018C151.069 54.5101 150.994 54.6875 150.844 54.834C150.694 54.9805 150.515 55.0537 150.307 55.0537C150.095 55.0537 149.915 54.9805 149.765 54.834C149.615 54.6875 149.54 54.5101 149.54 54.3018ZM154.982 50.6689C154.829 51.512 154.575 52.3242 154.221 53.1055C153.869 53.8835 153.446 54.5817 152.951 55.2002L151.852 54.3555C152.21 53.8867 152.531 53.4245 152.814 52.9688C153.097 52.5098 153.343 52.0296 153.552 51.5283C153.763 51.027 153.939 50.4785 154.079 49.8828C154.222 49.2871 154.333 48.6165 154.411 47.8711H155.602C155.68 48.6165 155.79 49.2871 155.929 49.8828C156.073 50.4785 156.249 51.027 156.457 51.5283C156.668 52.0296 156.916 52.5098 157.199 52.9688C157.482 53.4245 157.803 53.8867 158.161 54.3555L157.062 55.2002C156.568 54.5817 156.143 53.8835 155.788 53.1055C155.436 52.3242 155.184 51.512 155.031 50.6689H154.982ZM162.163 50.6348C162.078 50.8822 161.966 51.0677 161.826 51.1914C161.689 51.3118 161.5 51.3721 161.259 51.3721C161.181 51.3721 161.114 51.359 161.059 51.333C161.007 51.3037 160.953 51.263 160.898 51.2109L160.859 51.2451C160.966 51.8538 161.044 52.4593 161.093 53.0615C161.142 53.6605 161.168 54.3066 161.171 55H159.819C159.815 54.1732 159.773 53.3968 159.692 52.6709C159.614 51.9417 159.488 51.2223 159.316 50.5127C159.147 49.7998 158.92 49.0592 158.637 48.291L159.921 47.832L160.263 49.0088C160.377 49.3506 160.488 49.5931 160.595 49.7363C160.703 49.8796 160.846 49.9512 161.025 49.9512C161.214 49.9512 161.352 49.8779 161.44 49.7314C161.528 49.585 161.581 49.362 161.601 49.0625C161.607 48.877 161.612 48.7174 161.616 48.584C161.619 48.4473 161.619 48.304 161.616 48.1543L162.714 48.1592C162.701 48.3708 162.69 48.5449 162.68 48.6816C162.67 48.8151 162.665 48.9827 162.665 49.1846C162.665 49.4385 162.713 49.6305 162.807 49.7607C162.905 49.8877 163.066 49.9512 163.29 49.9512C163.502 49.9512 163.645 49.8877 163.72 49.7607C163.798 49.6305 163.837 49.4368 163.837 49.1797C163.837 48.8607 163.8 48.4847 163.725 48.0518L164.985 47.8223C165.079 48.3203 165.126 48.75 165.126 49.1113C165.126 49.8242 164.975 50.3792 164.672 50.7764C164.373 51.1735 163.937 51.3721 163.364 51.3721C163.087 51.3721 162.856 51.3102 162.67 51.1865C162.485 51.0628 162.332 50.8789 162.211 50.6348H162.163ZM170.734 47.9102H171.862L167.712 55H166.579L170.734 47.9102ZM172.316 53.7061C172.316 53.9404 172.259 54.1602 172.146 54.3652C172.032 54.5703 171.87 54.7363 171.662 54.8633C171.454 54.9902 171.21 55.0537 170.93 55.0537C170.65 55.0537 170.404 54.9902 170.192 54.8633C169.984 54.7363 169.823 54.5703 169.709 54.3652C169.595 54.1602 169.538 53.9404 169.538 53.7061C169.538 53.4749 169.595 53.2568 169.709 53.0518C169.823 52.8434 169.984 52.6758 170.192 52.5488C170.401 52.4186 170.646 52.3535 170.93 52.3535C171.213 52.3535 171.457 52.4186 171.662 52.5488C171.87 52.6758 172.032 52.8434 172.146 53.0518C172.259 53.2568 172.316 53.4749 172.316 53.7061ZM171.516 53.7012C171.516 53.5189 171.462 53.3626 171.354 53.2324C171.247 53.1022 171.104 53.0371 170.925 53.0371C170.749 53.0371 170.607 53.1022 170.5 53.2324C170.393 53.3626 170.339 53.5189 170.339 53.7012C170.339 53.8867 170.393 54.0446 170.5 54.1748C170.607 54.305 170.749 54.3701 170.925 54.3701C171.104 54.3701 171.247 54.305 171.354 54.1748C171.462 54.0446 171.516 53.8867 171.516 53.7012ZM168.908 49.1797C168.908 49.4141 168.851 49.6338 168.737 49.8389C168.623 50.0439 168.462 50.21 168.254 50.3369C168.046 50.4639 167.801 50.5273 167.521 50.5273C167.242 50.5273 166.996 50.4639 166.784 50.3369C166.576 50.21 166.415 50.0439 166.301 49.8389C166.187 49.6338 166.13 49.4141 166.13 49.1797C166.13 48.9486 166.187 48.7305 166.301 48.5254C166.415 48.3171 166.576 48.1494 166.784 48.0225C166.993 47.8923 167.238 47.8271 167.521 47.8271C167.805 47.8271 168.049 47.8923 168.254 48.0225C168.462 48.1494 168.623 48.3171 168.737 48.5254C168.851 48.7305 168.908 48.9486 168.908 49.1797ZM168.107 49.1748C168.107 48.9925 168.054 48.8363 167.946 48.7061C167.839 48.5758 167.696 48.5107 167.517 48.5107C167.341 48.5107 167.199 48.5758 167.092 48.7061C166.984 48.8363 166.931 48.9925 166.931 49.1748C166.931 49.3604 166.984 49.5182 167.092 49.6484C167.199 49.7786 167.341 49.8438 167.517 49.8438C167.696 49.8438 167.839 49.7786 167.946 49.6484C168.054 49.5182 168.107 49.3604 168.107 49.1748Z" fill="#4C5681"/>
<rect x="14" y="40" width="111" height="24" rx="4" fill="white" fill-opacity="0.55"/>
<path d="M28.7234 51.0449L28.4061 51.8945C28.061 51.7383 27.7241 51.6602 27.3953 51.6602C27.1186 51.6602 26.868 51.7204 26.6434 51.8408C26.4187 51.958 26.2397 52.1224 26.1062 52.334C25.976 52.5423 25.9109 52.7816 25.9109 53.0518C25.9109 53.3512 26.0379 53.5417 26.2918 53.623C26.549 53.7044 26.9184 53.763 27.4002 53.7988C27.6932 53.8216 27.9536 53.8704 28.1814 53.9453C28.4093 54.0202 28.5883 54.139 28.7186 54.3018C28.8488 54.4645 28.9139 54.6956 28.9139 54.9951C28.9139 55.4346 28.7658 55.8187 28.4695 56.1475C28.1733 56.4795 27.7648 56.7367 27.2439 56.9189C26.7231 57.1045 26.1225 57.1973 25.4422 57.1973C24.4754 57.1973 23.7283 56.9824 23.201 56.5527C22.6736 56.1263 22.41 55.5111 22.41 54.707C22.41 54.1602 22.4832 53.4505 22.6297 52.5781L23.5428 52.7441C23.4646 53.1901 23.4077 53.5563 23.3719 53.8428C23.3393 54.1292 23.323 54.3945 23.323 54.6387C23.323 55.1758 23.4988 55.5713 23.8504 55.8252C24.2052 56.0824 24.7407 56.2109 25.4568 56.2109C25.9353 56.2109 26.3699 56.1654 26.7605 56.0742C27.1512 55.9831 27.4604 55.8577 27.6883 55.6982C27.9194 55.542 28.035 55.3646 28.035 55.166C28.035 55.0228 27.9861 54.9186 27.8885 54.8535C27.7908 54.7852 27.6606 54.7396 27.4978 54.7168C27.3383 54.6908 27.1626 54.6712 26.9705 54.6582C26.5962 54.6322 26.2641 54.5752 25.9744 54.4873C25.6847 54.3962 25.4568 54.248 25.2908 54.043C25.1281 53.8346 25.0467 53.5417 25.0467 53.1641C25.0467 52.7018 25.1541 52.2884 25.3689 51.9238C25.5838 51.556 25.8719 51.2646 26.2332 51.0498C26.5945 50.835 26.9965 50.7275 27.4393 50.7275C27.8527 50.7275 28.2807 50.8333 28.7234 51.0449ZM30.9162 52.0312L31.8049 51.7188C31.9872 52.2591 32.1304 52.762 32.2346 53.2275C32.342 53.6898 32.3957 54.1081 32.3957 54.4824C32.3957 55.2116 32.1564 55.8285 31.6779 56.333C31.2027 56.8408 30.4491 57.2819 29.4172 57.6562L28.9973 56.7627C29.8534 56.4632 30.4784 56.141 30.8723 55.7959C31.2661 55.4508 31.4631 55.0212 31.4631 54.5068C31.4631 54.2074 31.4126 53.8379 31.3117 53.3984C31.2141 52.959 31.0822 52.5033 30.9162 52.0312ZM33.2603 48.4229H34.2125V52.8027C34.2125 53.2357 34.3085 53.5449 34.5006 53.7305C34.6959 53.916 35.0393 54.0088 35.5309 54.0088H35.5357V55H35.5309C34.7952 55 34.232 54.8193 33.8414 54.458C33.454 54.0934 33.2603 53.5482 33.2603 52.8223V48.4229ZM39.3936 48.3496L39.54 49.3311C38.8239 49.5036 38.2103 49.6663 37.6992 49.8193C37.1914 49.9691 36.7438 50.1204 36.3564 50.2734L36.3516 50.3125C36.9017 50.7324 37.3444 51.1019 37.6797 51.4209C38.015 51.7399 38.2591 52.0345 38.4121 52.3047C38.5684 52.5716 38.6465 52.8434 38.6465 53.1201C38.6465 53.7223 38.3975 54.1862 37.8994 54.5117C37.4014 54.8372 36.6901 55 35.7656 55H35.1406C35.0853 55 35.0446 54.9626 35.0186 54.8877C34.9925 54.8096 34.9795 54.681 34.9795 54.502C34.9795 54.3262 34.9925 54.2008 35.0186 54.126C35.0446 54.0479 35.0853 54.0088 35.1406 54.0088H35.7461C37.0482 54.0088 37.6992 53.6947 37.6992 53.0664C37.6992 52.8809 37.6162 52.6774 37.4502 52.4561C37.2874 52.2347 37.027 51.9743 36.6689 51.6748C36.3109 51.3753 35.8389 51.0156 35.2529 50.5957L35.3311 49.6924C35.9202 49.4222 36.555 49.1732 37.2353 48.9453C37.9189 48.7174 38.6383 48.5189 39.3936 48.3496ZM41.3963 52.0312L42.285 51.7188C42.4672 52.2591 42.6105 52.762 42.7146 53.2275C42.8221 53.6898 42.8758 54.1081 42.8758 54.4824C42.8758 55.2116 42.6365 55.8285 42.158 56.333C41.6827 56.8408 40.9292 57.2819 39.8973 57.6562L39.4773 56.7627C40.3335 56.4632 40.9585 56.141 41.3523 55.7959C41.7462 55.4508 41.9432 55.0212 41.9432 54.5068C41.9432 54.2074 41.8927 53.8379 41.7918 53.3984C41.6941 52.959 41.5623 52.5033 41.3963 52.0312ZM41.1961 49.7021L41.8992 48.999L42.6023 49.7021L41.8992 50.4102L41.1961 49.7021ZM46.3186 54.9414L46.2844 54.8926C46.1346 54.9349 45.9686 54.9707 45.7863 55C45.6073 55.026 45.4201 55.0391 45.2248 55.0391C44.704 55.0391 44.2954 54.9121 43.9992 54.6582C43.703 54.401 43.5549 54.0088 43.5549 53.4814C43.5549 53.0843 43.6184 52.7067 43.7453 52.3486C43.8723 51.9906 44.0627 51.6976 44.3166 51.4697C44.5738 51.2419 44.8977 51.1279 45.2883 51.1279C45.6464 51.1279 45.9491 51.2272 46.1965 51.4258C46.4471 51.6243 46.649 51.8896 46.802 52.2217C46.9549 52.5505 47.0656 52.915 47.134 53.3154C47.2056 53.7158 47.2414 54.1162 47.2414 54.5166C47.2414 55.2783 46.9436 55.9115 46.3478 56.416C45.7521 56.9238 44.9009 57.3324 43.7941 57.6416L43.3937 56.7383C44.2206 56.5462 44.8911 56.2956 45.4055 55.9863C45.9198 55.6771 46.2242 55.3288 46.3186 54.9414ZM46.3283 53.9453C46.3186 53.7467 46.2941 53.5417 46.2551 53.3301C46.216 53.1185 46.1558 52.9215 46.0744 52.7393C45.993 52.557 45.8856 52.4089 45.7521 52.2949C45.6187 52.181 45.4559 52.124 45.2639 52.124C45.0588 52.124 44.8879 52.1859 44.7512 52.3096C44.6145 52.4333 44.5119 52.5895 44.4436 52.7783C44.3784 52.9671 44.3459 53.1592 44.3459 53.3545C44.3459 53.6247 44.4273 53.8118 44.59 53.916C44.7561 54.0202 44.979 54.0723 45.259 54.0723C45.4608 54.0723 45.6512 54.0592 45.8303 54.0332C46.0093 54.0072 46.1753 53.9779 46.3283 53.9453ZM48.7213 52.0312L49.61 51.7188C49.7923 52.2591 49.9355 52.762 50.0396 53.2275C50.1471 53.6898 50.2008 54.1081 50.2008 54.4824C50.2008 55.2116 49.9615 55.8285 49.483 56.333C49.0077 56.8408 48.2542 57.2819 47.2223 57.6562L46.8023 56.7627C47.6585 56.4632 48.2835 56.141 48.6773 55.7959C49.0712 55.4508 49.2682 55.0212 49.2682 54.5068C49.2682 54.2074 49.2177 53.8379 49.1168 53.3984C49.0191 52.959 48.8873 52.5033 48.7213 52.0312ZM59.1225 53.4326C59.0606 53.9665 58.7546 54.362 58.2045 54.6191C57.6576 54.873 56.8389 55 55.7484 55C54.9411 55 54.2868 54.9251 53.7855 54.7754C53.2842 54.6224 52.918 54.3815 52.6869 54.0527C52.459 53.7207 52.3451 53.2878 52.3451 52.7539C52.3451 52.3177 52.4151 51.7692 52.5551 51.1084L53.4242 51.3086C53.3656 51.5951 53.32 51.8555 53.2875 52.0898C53.2549 52.3242 53.2387 52.5146 53.2387 52.6611C53.2387 52.9899 53.32 53.2536 53.4828 53.4521C53.6456 53.6507 53.9109 53.7939 54.2787 53.8818C54.6465 53.9665 55.1381 54.0088 55.7533 54.0088C57.573 54.0088 58.4828 53.6898 58.4828 53.0518C58.4828 52.7979 58.2842 52.4691 57.8871 52.0654C57.4932 51.6618 56.8845 51.1719 56.0609 50.5957L56.1391 49.6924C56.7348 49.4189 57.3744 49.1683 58.058 48.9404C58.7449 48.7126 59.4594 48.5156 60.2016 48.3496L60.3432 49.3311C59.6498 49.4971 59.046 49.6566 58.5316 49.8096C58.0173 49.9626 57.5616 50.1172 57.1644 50.2734L57.1596 50.3125C57.5958 50.6445 57.9506 50.931 58.224 51.1719C58.4975 51.4095 58.7269 51.639 58.9125 51.8604C59.1013 52.0817 59.2803 52.3307 59.4496 52.6074C59.671 52.9785 59.8744 53.265 60.06 53.4668C60.2455 53.6686 60.449 53.8102 60.6703 53.8916C60.8917 53.9697 61.1602 54.0088 61.476 54.0088H61.4809V55H61.476C60.8868 55 60.4164 54.8812 60.0648 54.6436C59.7133 54.4027 59.4154 53.999 59.1713 53.4326H59.1225ZM63.2146 51.1328C63.309 51.4909 63.3823 51.8278 63.4344 52.1436C63.4897 52.4593 63.5174 52.7425 63.5174 52.9932C63.5174 53.6442 63.3383 54.1423 62.9803 54.4873C62.6255 54.8291 62.0688 55 61.3103 55H61.0809C60.9734 55 60.9197 54.834 60.9197 54.502C60.9197 54.1732 60.9734 54.0088 61.0809 54.0088H61.3103C61.7693 54.0088 62.0981 53.9176 62.2967 53.7354C62.4952 53.5531 62.5945 53.2796 62.5945 52.915C62.5945 52.7327 62.5701 52.5114 62.5213 52.251C62.4725 51.9873 62.409 51.696 62.3309 51.377L63.2146 51.1328ZM60.158 56.7285L60.8611 56.0254L61.5691 56.7285L60.8611 57.4365L60.158 56.7285ZM61.8621 56.7285L62.5652 56.0254L63.2732 56.7285L62.5652 57.4365L61.8621 56.7285ZM66.0572 52.0312L66.9459 51.7188C67.1282 52.2591 67.2714 52.762 67.3756 53.2275C67.483 53.6898 67.5367 54.1081 67.5367 54.4824C67.5367 55.2116 67.2975 55.8285 66.8189 56.333C66.3437 56.8408 65.5901 57.2819 64.5582 57.6562L64.1383 56.7627C64.9944 56.4632 65.6194 56.141 66.0133 55.7959C66.4072 55.4508 66.6041 55.0212 66.6041 54.5068C66.6041 54.2074 66.5536 53.8379 66.4527 53.3984C66.3551 52.959 66.2232 52.5033 66.0572 52.0312ZM72.1807 53.0908C72.1807 53.5433 72.0618 53.9128 71.8242 54.1992C71.5866 54.4857 71.2708 54.6973 70.8769 54.834C70.4831 54.9674 70.0518 55.0342 69.583 55.0342C69.3519 55.0342 69.111 55.0179 68.8603 54.9854C68.613 54.9528 68.3574 54.9023 68.0937 54.834L68.3135 53.9014C68.5446 53.9535 68.7627 53.9925 68.9678 54.0186C69.1761 54.0413 69.3747 54.0527 69.5635 54.0527C70.0876 54.0527 70.4977 53.9714 70.7939 53.8086C71.0934 53.6426 71.2432 53.3984 71.2432 53.0762C71.2432 52.7734 71.0967 52.4121 70.8037 51.9922C70.514 51.5723 70.1087 51.1312 69.5879 50.6689L70.2227 49.917C70.8737 50.4964 71.362 51.0482 71.6875 51.5723C72.0163 52.0931 72.1807 52.5993 72.1807 53.0908ZM79.5887 55.0488C79.9467 55.2116 80.1974 55.3727 80.3406 55.5322C80.4839 55.6917 80.5555 55.8903 80.5555 56.1279C80.5555 56.4535 80.4155 56.748 80.1355 57.0117C79.8556 57.2754 79.4764 57.4837 78.9978 57.6367C78.5193 57.7897 77.9806 57.8662 77.3816 57.8662C76.3172 57.8662 75.5278 57.6465 75.0135 57.207C74.5024 56.7708 74.2469 56.097 74.2469 55.1855C74.2469 54.8405 74.2762 54.4385 74.3348 53.9795C74.3934 53.5205 74.478 53.029 74.5887 52.5049L75.4676 52.6758C75.3602 53.1738 75.2788 53.6328 75.2234 54.0527C75.1681 54.4694 75.1404 54.8242 75.1404 55.1172C75.1404 55.7389 75.3146 56.1865 75.6629 56.46C76.0145 56.7334 76.5874 56.8701 77.3816 56.8701C78.0327 56.8701 78.5617 56.7855 78.9686 56.6162C79.3755 56.4469 79.5789 56.2256 79.5789 55.9521C79.5789 55.8252 79.5171 55.7161 79.3934 55.625C79.2697 55.5339 79.0483 55.4443 78.7293 55.3564C78.4135 55.2686 77.9659 55.1676 77.3865 55.0537L77.5232 54.0088H81.0437V55H79.5887V55.0488ZM84.8967 48.3496L85.0432 49.3311C84.327 49.5036 83.7134 49.6663 83.2023 49.8193C82.6945 49.9691 82.2469 50.1204 81.8596 50.2734L81.8547 50.3125C82.4048 50.7324 82.8475 51.1019 83.1828 51.4209C83.5181 51.7399 83.7622 52.0345 83.9152 52.3047C84.0715 52.5716 84.1496 52.8434 84.1496 53.1201C84.1496 53.7223 83.9006 54.1862 83.4025 54.5117C82.9045 54.8372 82.1932 55 81.2687 55H80.6437C80.5884 55 80.5477 54.9626 80.5217 54.8877C80.4956 54.8096 80.4826 54.681 80.4826 54.502C80.4826 54.3262 80.4956 54.2008 80.5217 54.126C80.5477 54.0479 80.5884 54.0088 80.6437 54.0088H81.2492C82.5513 54.0088 83.2023 53.6947 83.2023 53.0664C83.2023 52.8809 83.1193 52.6774 82.9533 52.4561C82.7906 52.2347 82.5301 51.9743 82.1721 51.6748C81.814 51.3753 81.342 51.0156 80.7561 50.5957L80.8342 49.6924C81.4234 49.4222 82.0581 49.1732 82.7385 48.9453C83.4221 48.7174 84.1415 48.5189 84.8967 48.3496ZM84.1008 46.9385L84.2033 47.5C83.0347 47.7083 81.9182 48.0794 80.8537 48.6133L80.5852 48.1055C81.1353 47.8288 81.7066 47.5928 82.299 47.3975C82.8947 47.2021 83.4953 47.0492 84.1008 46.9385ZM87.9977 49.9854L89.3014 53.0371C89.4153 53.3008 89.5309 53.5026 89.648 53.6426C89.7685 53.7826 89.9068 53.8786 90.0631 53.9307C90.2226 53.9827 90.4146 54.0088 90.6393 54.0088H90.7027V55H90.6393C90.1965 55 89.8255 54.9154 89.526 54.7461C89.2265 54.5736 88.997 54.2887 88.8375 53.8916H88.7887C88.6324 54.2594 88.3671 54.5443 87.9928 54.7461C87.6184 54.9479 87.2018 55.0488 86.7428 55.0488C86.4173 55.0488 86.0901 54.9919 85.7613 54.8779C85.4325 54.7607 85.1233 54.585 84.8336 54.3506L85.2877 53.5205C85.763 53.8786 86.2577 54.0576 86.7721 54.0576C87.0813 54.0576 87.3775 53.9909 87.6607 53.8574C87.9472 53.7207 88.1799 53.5238 88.359 53.2666L87.0992 50.415L87.9977 49.9854ZM92.4365 51.1328C92.5309 51.4909 92.6042 51.8278 92.6562 52.1436C92.7116 52.4593 92.7393 52.7425 92.7393 52.9932C92.7393 53.6442 92.5602 54.1423 92.2021 54.4873C91.8473 54.8291 91.2907 55 90.5322 55H90.3027C90.1953 55 90.1416 54.834 90.1416 54.502C90.1416 54.1732 90.1953 54.0088 90.3027 54.0088H90.5322C90.9912 54.0088 91.32 53.9176 91.5186 53.7354C91.7171 53.5531 91.8164 53.2796 91.8164 52.915C91.8164 52.7327 91.792 52.5114 91.7432 52.251C91.6943 51.9873 91.6309 51.696 91.5527 51.377L92.4365 51.1328ZM90.7568 49.3408L91.46 48.6377L92.1631 49.3408L91.46 50.0488L90.7568 49.3408ZM96.1039 55.0244L96.0746 54.9707C95.8923 54.9837 95.71 54.9919 95.5277 54.9951C95.3454 54.9984 95.168 55 94.9955 55C94.4812 55 94.0759 54.8747 93.7797 54.624C93.4835 54.3701 93.3354 53.9779 93.3354 53.4473C93.3354 53.0534 93.3988 52.6807 93.5258 52.3291C93.6527 51.9743 93.8448 51.6862 94.102 51.4648C94.3591 51.2402 94.6814 51.1279 95.0687 51.1279C95.3975 51.1279 95.6775 51.2126 95.9086 51.3818C96.1397 51.5479 96.3301 51.7708 96.4799 52.0508C96.6329 52.3275 96.7501 52.6367 96.8314 52.9785C96.9128 53.3171 96.9665 53.6605 96.9926 54.0088H97.3539V55H96.9633C96.8721 55.6283 96.532 56.1572 95.9428 56.5869C95.3568 57.0166 94.5674 57.3682 93.5746 57.6416L93.1742 56.7383C93.9783 56.5527 94.6391 56.3118 95.1566 56.0156C95.6775 55.7227 95.9932 55.3923 96.1039 55.0244ZM96.1186 54.0283C96.112 53.8265 96.0893 53.6149 96.0502 53.3936C96.0111 53.1722 95.9509 52.9655 95.8695 52.7734C95.7881 52.5814 95.6791 52.4251 95.5424 52.3047C95.4089 52.1842 95.2429 52.124 95.0443 52.124C94.8393 52.124 94.6684 52.1826 94.5316 52.2998C94.3949 52.417 94.2924 52.5667 94.224 52.749C94.1589 52.9313 94.1264 53.1201 94.1264 53.3154C94.1264 53.5889 94.2094 53.7793 94.3754 53.8867C94.5414 53.9909 94.7628 54.043 95.0395 54.043C95.2152 54.043 95.3926 54.043 95.5717 54.043C95.754 54.0397 95.9363 54.0348 96.1186 54.0283ZM100.899 48.6426L101.597 47.9395L102.305 48.6426L101.597 49.3457L100.899 48.6426ZM101.749 50.1758L102.452 49.4727L103.16 50.1758L102.452 50.8838L101.749 50.1758ZM100.045 50.1758L100.748 49.4727L101.456 50.1758L100.748 50.8838L100.045 50.1758ZM100.357 54.0088C100.637 54.0088 100.842 53.9274 100.972 53.7646C101.103 53.5986 101.184 53.3431 101.217 52.998L101.3 52.0898L102.144 52.1533L102.076 53.0273C102.043 53.3529 102.102 53.5986 102.252 53.7646C102.401 53.9274 102.621 54.0088 102.911 54.0088C103.448 54.0088 103.717 53.7012 103.717 53.0859C103.717 52.9883 103.708 52.8597 103.692 52.7002C103.679 52.5374 103.661 52.3698 103.638 52.1973C103.616 52.0215 103.591 51.8669 103.565 51.7334L104.483 51.5137C104.529 51.7415 104.569 52.0003 104.605 52.29C104.641 52.5798 104.659 52.8402 104.659 53.0713C104.659 53.7223 104.522 54.2074 104.249 54.5264C103.975 54.8421 103.578 55 103.057 55C102.66 55 102.349 54.9072 102.125 54.7217C101.903 54.5329 101.757 54.2822 101.685 53.9697H101.637C101.474 54.6566 101.029 55 100.304 55C99.9096 55 99.602 54.9023 99.3807 54.707C99.1626 54.5117 99.0193 54.2367 98.951 53.8818H98.9021C98.785 54.2171 98.5766 54.4873 98.2771 54.6924C97.9777 54.8975 97.6131 55 97.1834 55H96.9539C96.8465 55 96.7928 54.8324 96.7928 54.4971C96.7928 54.1715 96.8465 54.0088 96.9539 54.0088H97.1834C97.6326 54.0088 97.963 53.903 98.1746 53.6914C98.3862 53.4766 98.518 53.1315 98.5701 52.6562L98.6482 51.8506L99.5955 51.9189L99.5027 52.9541C99.4669 53.2861 99.5223 53.5449 99.6687 53.7305C99.8185 53.916 100.048 54.0088 100.357 54.0088ZM108.302 49.9854L109.606 53.0371C109.72 53.3008 109.835 53.5026 109.952 53.6426C110.073 53.7826 110.211 53.8786 110.367 53.9307C110.527 53.9827 110.719 54.0088 110.944 54.0088H111.007V55H110.944C110.501 55 110.13 54.9154 109.83 54.7461C109.531 54.5736 109.301 54.2887 109.142 53.8916H109.093C108.937 54.2594 108.671 54.5443 108.297 54.7461C107.923 54.9479 107.506 55.0488 107.047 55.0488C106.722 55.0488 106.394 54.9919 106.066 54.8779C105.737 54.7607 105.428 54.585 105.138 54.3506L105.592 53.5205C106.067 53.8786 106.562 54.0576 107.076 54.0576C107.386 54.0576 107.682 53.9909 107.965 53.8574C108.251 53.7207 108.484 53.5238 108.663 53.2666L107.404 50.415L108.302 49.9854ZM111.496 48.584L112.199 47.8809L112.907 48.584L112.199 49.292L111.496 48.584ZM113.2 48.584L113.903 47.8809L114.611 48.584L113.903 49.292L113.2 48.584ZM111.193 52.2656C111.193 51.8717 111.274 51.5299 111.437 51.2402C111.603 50.9505 111.826 50.7275 112.106 50.5713C112.389 50.4118 112.707 50.332 113.058 50.332C113.407 50.332 113.721 50.4118 114.001 50.5713C114.284 50.7308 114.508 50.9554 114.674 51.2451C114.84 51.5316 114.923 51.8701 114.923 52.2607C114.923 52.6188 114.834 52.9297 114.655 53.1934C114.476 53.457 114.248 53.6735 113.971 53.8428L113.986 53.8867C114.272 53.9681 114.593 54.0088 114.948 54.0088H115.514V55H114.855C114.477 55 114.147 54.9561 113.864 54.8682C113.584 54.7803 113.31 54.6566 113.044 54.4971C112.78 54.6566 112.506 54.7803 112.223 54.8682C111.943 54.9561 111.616 55 111.242 55H110.607C110.496 55 110.441 54.834 110.441 54.502C110.441 54.1732 110.496 54.0088 110.607 54.0088H111.115C111.483 54.0088 111.824 53.9681 112.14 53.8867L112.155 53.8428C111.878 53.6735 111.649 53.4587 111.466 53.1982C111.284 52.9378 111.193 52.627 111.193 52.2656ZM113.053 53.6328C113.333 53.4928 113.559 53.3154 113.732 53.1006C113.905 52.8857 113.991 52.6204 113.991 52.3047C113.991 52.0117 113.903 51.7725 113.727 51.5869C113.555 51.4014 113.332 51.3086 113.058 51.3086C112.782 51.3086 112.555 51.4014 112.379 51.5869C112.207 51.7692 112.121 52.0085 112.121 52.3047C112.121 52.6107 112.207 52.8727 112.379 53.0908C112.555 53.3089 112.78 53.4896 113.053 53.6328ZM117.253 51.1328C117.347 51.4909 117.421 51.8278 117.473 52.1436C117.528 52.4593 117.556 52.7425 117.556 52.9932C117.556 53.6442 117.377 54.1423 117.019 54.4873C116.664 54.8291 116.107 55 115.349 55H115.119C115.012 55 114.958 54.834 114.958 54.502C114.958 54.1732 115.012 54.0088 115.119 54.0088H115.349C115.808 54.0088 116.136 53.9176 116.335 53.7354C116.534 53.5531 116.633 53.2796 116.633 52.915C116.633 52.7327 116.608 52.5114 116.56 52.251C116.511 51.9873 116.447 51.696 116.369 51.377L117.253 51.1328ZM115.573 49.3408L116.276 48.6377L116.979 49.3408L116.276 50.0488L115.573 49.3408Z" fill="#65697E"/>
<path fill-rule="evenodd" clip-rule="evenodd" d="M230.755 14.0371C230.637 14.0556 230.453 14.0977 230.346 14.1307C230.239 14.1636 230.06 14.237 229.948 14.2937C229.837 14.3505 229.65 14.4702 229.532 14.5598C229.415 14.6493 229.239 14.8099 229.142 14.9166C229.044 15.0233 228.866 15.2433 228.745 15.4055C228.625 15.5677 228.426 15.8572 228.302 16.0489C228.179 16.2405 227.854 16.7593 227.581 17.2016C227.308 17.6439 226.965 18.1868 226.819 18.408C226.673 18.6291 226.488 18.9006 226.408 19.0112C226.327 19.1217 226.19 19.3027 226.101 19.4133C226.013 19.5239 225.881 19.6798 225.808 19.7597C225.735 19.8397 225.046 20.4045 225.066 20.3921C225.094 20.3754 225.723 19.9629 225.71 19.9962C225.699 20.0258 225.73 19.9495 225.757 19.9495C225.779 19.9495 225.79 19.9617 225.781 19.9767C225.771 19.9917 225.754 19.9976 225.742 19.9899C225.729 19.9822 225.715 19.9851 225.71 19.9962C225.705 20.0074 225.63 20.0527 225.543 20.0969C225.455 20.1411 225.297 20.2344 225.192 20.3041C225.018 20.4188 225 20.4393 225 20.5186C225 20.5957 225.021 20.6223 225.179 20.74C225.277 20.8135 225.451 20.9643 225.566 21.0751C225.681 21.1858 225.866 21.385 225.979 21.5177C226.091 21.6504 226.263 21.8676 226.362 22.0003C226.46 22.133 226.669 22.4346 226.825 22.6705C226.982 22.9064 227.304 23.4131 227.541 23.7964C227.778 24.1798 228.096 24.6858 228.249 24.9208C228.401 25.1559 228.61 25.4635 228.713 25.6044C228.816 25.7454 228.986 25.9632 229.091 26.0885C229.196 26.2139 229.345 26.3775 229.424 26.4523C229.502 26.527 229.641 26.644 229.732 26.7121C229.824 26.7803 229.976 26.873 230.07 26.918L230.241 27H232.121C233.607 27 234 26.993 234 26.9665C233.999 26.9481 233.932 26.9035 233.85 26.8676C233.768 26.8316 233.598 26.7371 233.473 26.6574C233.348 26.5778 233.162 26.4449 233.06 26.362C232.958 26.2792 232.75 26.0842 232.597 25.9288C232.444 25.7734 232.191 25.4843 232.034 25.2863C231.878 25.0884 231.637 24.7619 231.5 24.5607C231.362 24.3596 231.137 24.0148 231.001 23.7946C230.864 23.5745 230.528 23.0083 230.254 22.5364C229.981 22.0646 229.634 21.4901 229.485 21.2597C229.335 21.0293 229.145 20.7669 229.062 20.6766L228.912 20.5124L229.056 20.3553C229.135 20.2688 229.295 20.0547 229.411 19.8794C229.528 19.7042 229.713 19.4099 229.822 19.2256C229.932 19.0413 230.231 18.5346 230.487 18.0997C230.742 17.6647 231.084 17.106 231.245 16.8581C231.407 16.6101 231.639 16.2723 231.761 16.1074C231.883 15.9425 232.078 15.693 232.194 15.5528C232.31 15.4127 232.541 15.1654 232.708 15.0033C232.874 14.8411 233.123 14.6273 233.261 14.5281C233.398 14.4289 233.62 14.2908 233.755 14.2213C233.927 14.1323 234 14.0805 234 14.0465C234 14.0003 233.929 13.9982 232.485 14.0007C231.41 14.0026 230.907 14.0132 230.755 14.0371ZM225.794 19.9092C225.794 19.9166 225.788 19.9226 225.781 19.9226C225.774 19.9226 225.768 19.9166 225.768 19.9092C225.768 19.9019 225.774 19.8958 225.781 19.8958C225.788 19.8958 225.794 19.9019 225.794 19.9092ZM225.874 19.936C225.874 19.9434 225.868 19.9495 225.86 19.9495C225.853 19.9495 225.847 19.9434 225.847 19.936C225.847 19.9287 225.853 19.9226 225.86 19.9226C225.868 19.9226 225.874 19.9287 225.874 19.936Z" fill="#48ACE9"/>
</svg>
