<svg width="47" height="27" viewBox="0 0 47 27" fill="none" xmlns="http://www.w3.org/2000/svg">
<path d="M15.9027 26.3005C15.5557 26.5016 15.1574 26.5909 14.7564 26.5909H6.39954C5.99571 26.5909 5.5947 26.5003 5.24596 26.2967C3.24654 25.1294 1.67974 23.3348 0.794983 21.1831C-0.167853 18.8415 -0.259129 16.2323 0.537724 13.8291L1.93018 14.401C3.61955 15.0965 5.49619 15.1922 7.24755 14.6722C7.60057 14.5675 7.92699 14.4173 8.27504 14.3023C8.62899 14.1891 8.99505 14.1182 9.36563 14.0909C10.2416 14.0185 11.1695 14.0617 12.0251 14.269L13.0978 14.5287C14.6478 14.9056 16.2751 14.8097 17.7701 14.2533L17.7873 14.2463L20.2721 13.1268C20.8565 14.3609 21.1495 15.7052 21.1513 17.1597C21.1575 19.1138 20.6197 21.031 19.598 22.6967C18.6828 24.1888 17.4117 25.4262 15.9027 26.3005Z" fill="#87DFFA"/>
<path d="M10.3729 9.44039C13.8063 9.44039 16.5896 9.19733 16.5896 8.89752C16.5896 8.5977 13.8063 8.35464 10.3729 8.35464C6.93955 8.35464 4.15625 8.5977 4.15625 8.89752C4.15625 9.19733 6.93955 9.44039 10.3729 9.44039Z" fill="#C3F1FF"/>
<path d="M3.51512 9.28157C3.78863 9.47496 4.36644 9.64168 5.5085 9.78509C6.78098 9.9451 8.4702 10.0332 10.2649 10.0332C12.0596 10.0332 13.7488 9.9451 15.0213 9.78509C16.1869 9.63844 16.7642 9.46806 17.031 9.26913C17.7564 9.81676 18.4167 10.4457 18.9988 11.1437C18.5964 11.3981 18.1708 11.6137 17.7277 11.7877C17.6574 11.813 17.5988 11.8633 17.5631 11.929C17.5274 11.9946 17.5171 12.0712 17.5342 12.1439C17.5446 12.1841 17.5634 12.2216 17.5892 12.2541C17.615 12.2865 17.6474 12.3132 17.6842 12.3324C17.721 12.3515 17.7614 12.3628 17.8029 12.3653C17.8443 12.3679 17.8858 12.3617 17.9246 12.3472C18.3574 12.186 18.7978 11.9625 19.365 11.6153C19.595 11.9299 19.8055 12.2584 19.9951 12.5988L17.5476 13.7016C16.1661 14.2133 14.6633 14.3007 13.2318 13.9525L12.1591 13.6928C10.6396 13.3247 8.99299 13.3233 7.52799 13.9364C7.09026 14.1142 6.63325 14.2402 6.16625 14.3119C4.81077 14.5343 3.42015 14.3753 2.14989 13.8525L0.734375 13.2713C1.33874 11.7434 2.29083 10.3774 3.51512 9.28157Z" fill="#C3F1FF"/>
<path d="M15.6675 12.8138C14.8927 12.8139 14.1253 12.6626 13.4085 12.3684C13.3363 12.3382 13.279 12.2806 13.2491 12.2083C13.2192 12.136 13.2191 12.0547 13.2488 11.9823C13.2785 11.9099 13.3356 11.8522 13.4078 11.8218C13.4799 11.7913 13.5611 11.7906 13.6337 11.8198C14.5198 12.1835 15.4872 12.3029 16.4351 12.1655C16.5122 12.1556 16.5902 12.1764 16.6522 12.2235C16.7142 12.2705 16.7551 12.3401 16.7663 12.4171C16.7775 12.4941 16.7579 12.5724 16.7119 12.6351C16.6658 12.6978 16.597 12.7399 16.5202 12.7523C16.2378 12.7933 15.9528 12.8138 15.6675 12.8138Z" fill="white"/>
<path d="M3.16413 14.7956C2.74501 14.6982 2.33229 14.5667 1.93018 14.4011L0.537724 13.8292C-0.259129 16.2324 -0.167853 18.8416 0.794983 21.1832C1.67974 23.3349 3.24654 25.1295 5.24596 26.2968C5.28935 26.3222 5.33356 26.3457 5.37848 26.3676C2.18364 21.715 2.00628 17.8216 3.16413 14.7956Z" fill="#6FCBF0"/>
<path d="M6.78172 9.91098C6.32437 9.87599 5.89701 9.83384 5.5085 9.78498C4.36644 9.64157 3.78863 9.47485 3.51512 9.28146C2.29083 10.3773 1.33874 11.7433 0.734375 13.2712L2.14989 13.8524C2.55288 14.0183 2.96799 14.1475 3.39024 14.2396C4.19177 12.4652 5.44843 11.0142 6.78172 9.91098Z" fill="#6FCBF0"/>
<path d="M9.07435 8.36661C6.26433 8.41875 4.15625 8.63669 4.15625 8.89762C4.15625 9.10598 5.50047 9.28692 7.47292 9.37792C8.01288 8.98386 8.55479 8.64624 9.07435 8.36661Z" fill="#6FCBF0"/>
<path fill-rule="evenodd" clip-rule="evenodd" d="M2.50942 16.3025C2.57931 16.1323 2.774 16.0509 2.94427 16.1208C3.82473 16.4822 4.786 16.6007 5.72787 16.4641C5.91003 16.4377 6.07911 16.5639 6.10553 16.7461C6.13196 16.9282 6.00571 17.0973 5.82356 17.1237C4.76367 17.2775 3.68196 17.1441 2.69119 16.7374C2.52091 16.6675 2.43953 16.4728 2.50942 16.3025Z" fill="white"/>
<path d="M6.91434 22.1108C7.61828 21.4891 8.36572 21.2039 9.07575 21.2867C9.80778 21.3716 10.4939 21.8364 11.1172 22.669C10.8787 22.9918 10.1723 23.8284 9.14662 24.0015C8.38823 24.1293 7.59702 23.8676 6.79685 23.2225L6.22999 22.7185L6.91434 22.1108Z" fill="#F26A5F"/>
<path d="M11.0509 22.7614C10.7611 23.1288 10.0898 23.843 9.15101 24.0015C8.39262 24.1293 7.6014 23.8675 6.80124 23.2225L6.23438 22.7185L6.40374 22.5681C7.13413 22.8694 8.00718 23.1522 8.87688 23.1653C9.82646 23.1797 10.4789 23.0091 11.0509 22.7614Z" fill="#DD5F55"/>
<path d="M5.11629 21.8821L6.09375 22.7073L5.11629 23.5316V21.8821Z" fill="#F26A5F"/>
<path d="M5.10938 23.5316L5.78138 22.9511L5.10938 22.3709V23.5316Z" fill="#DD5F55"/>
<path d="M15.6981 19.397C14.7816 20.2062 13.8083 20.5776 12.8842 20.4698C11.9313 20.3592 11.038 19.754 10.2266 18.6703C10.537 18.25 11.4568 17.1609 12.792 16.9355C13.7796 16.7691 14.8093 17.1099 15.8508 17.9496L16.5888 18.6057L15.6981 19.397Z" fill="#F26A5F"/>
<path d="M12.8842 20.4699C13.8083 20.5776 14.7816 20.2063 15.6981 19.397L16.5888 18.6058L16.5586 18.5789C16.4483 18.626 16.3185 18.6863 16.1727 18.7541C15.4525 19.0889 14.3397 19.6061 13.2331 19.6226C12.2395 19.6375 11.3755 19.2004 10.7339 18.8758C10.5537 18.7846 10.3911 18.7024 10.2481 18.6415C10.2406 18.6514 10.2334 18.661 10.2266 18.6703C10.8252 19.4698 11.4683 20.0089 12.1471 20.2811C12.3713 20.3536 12.592 20.4125 12.8035 20.4593C12.8303 20.4632 12.8573 20.4668 12.8842 20.4699Z" fill="#DD5F55"/>
<path d="M18.3517 19.8859L16.9062 18.6005L18.3517 17.3164V19.8859Z" fill="#F26A5F"/>
<path d="M18.3538 19.8454L17.1797 18.8515L18.3538 17.8584V19.8454Z" fill="#DD5F55"/>
<path d="M11.4148 18.6274C11.5706 18.6274 11.6968 18.5012 11.6968 18.3454C11.6968 18.1897 11.5706 18.0634 11.4148 18.0634C11.2591 18.0634 11.1328 18.1897 11.1328 18.3454C11.1328 18.5012 11.2591 18.6274 11.4148 18.6274Z" fill="#492170"/>
<path d="M10.1641 22.6646C10.3238 22.6646 10.4532 22.5352 10.4532 22.3755C10.4532 22.2159 10.3238 22.0865 10.1641 22.0865C10.0044 22.0865 9.875 22.2159 9.875 22.3755C9.875 22.5352 10.0044 22.6646 10.1641 22.6646Z" fill="#492170"/>
<path d="M37.2504 9.79795C36.9422 9.76399 36.6313 9.74701 36.3192 9.74701C34.0548 9.74701 31.8832 10.6466 30.282 12.2477C28.6808 13.8489 27.7812 16.0204 27.7812 18.2849C27.7812 19.9737 28.282 21.6243 29.2202 23.0284C30.1583 24.4325 31.4917 25.5267 33.0518 26.1728C34.3822 26.724 35.8266 26.9281 37.2501 26.7719C36.4515 26.6843 35.665 26.4836 34.9146 26.1728C33.3545 25.5267 32.0211 24.4325 31.083 23.0284C30.1448 21.6243 29.6441 19.9737 29.6441 18.2849C29.6441 16.0204 30.5436 13.8489 32.1448 12.2477C33.5248 10.8676 35.3286 10.009 37.2504 9.79795Z" fill="#FFC048"/>
<path d="M38.1785 9.74713C39.8672 9.74713 41.5179 10.2479 42.922 11.186C44.326 12.1242 45.4203 13.4576 46.0666 15.0177C46.7128 16.5778 46.8818 18.2945 46.5524 19.9507C46.223 21.6069 45.4098 23.1282 44.2158 24.3223C43.0217 25.5163 41.5004 26.3295 39.8442 26.6589C38.188 26.9884 36.4713 26.8193 34.9112 26.1731C33.3511 25.5268 32.0177 24.4325 31.0795 23.0285C30.1414 21.6244 29.6406 19.9737 29.6406 18.2851C29.6406 16.0207 30.5402 13.849 32.1413 12.2478C33.7425 10.6467 35.9141 9.74713 38.1785 9.74713V9.74713Z" fill="#FFDB5D"/>
<path d="M37.2482 9.79795C36.94 9.76399 36.629 9.74701 36.3169 9.74701C34.9563 9.74701 33.6292 10.0717 32.4392 10.6784H34.302C35.2186 10.2112 36.2164 9.91104 37.2482 9.79795Z" fill="#FFD473"/>
<path d="M33.2707 11.2994H31.4079C31.0078 11.5804 30.6302 11.8973 30.2797 12.2477C30.1871 12.3405 30.0966 12.4351 30.0087 12.5315H31.8715C31.9594 12.4351 32.0498 12.3405 32.1425 12.2477C32.493 11.8973 32.8707 11.5804 33.2707 11.2994Z" fill="#FFD473"/>
<path d="M31.3567 13.1525H29.4938C29.201 13.5418 28.9429 13.9541 28.7219 14.3847H30.5847C30.8058 13.9541 31.0638 13.5418 31.3567 13.1525Z" fill="#FFD473"/>
<path d="M30.2967 15.0056H28.4339C28.2679 15.4049 28.132 15.8169 28.028 16.2378H29.8909C29.9949 15.8166 30.1305 15.4049 30.2967 15.0056Z" fill="#FFD473"/>
<path d="M29.7617 16.8587H27.899C27.8304 17.2638 27.7906 17.6755 27.7812 18.0909H29.5642C29.5916 18.0909 29.6183 18.0945 29.6436 18.1012C29.6526 17.6825 29.6926 17.2671 29.7617 16.8587Z" fill="#FFD473"/>
<path d="M29.651 18.6994C29.6235 18.7073 29.5943 18.7118 29.5642 18.7118H27.7897C27.8005 18.9274 27.8195 19.1424 27.8464 19.3558C27.8714 19.5532 27.9031 19.7494 27.9418 19.944H29.8045C29.7234 19.5347 29.6714 19.1187 29.651 18.6994Z" fill="#FFD473"/>
<path d="M29.9518 20.5649H28.0891C28.2059 20.9861 28.3547 21.3981 28.5348 21.7971H30.3977C30.2176 21.3981 30.0685 20.9861 29.9518 20.5649Z" fill="#FFD473"/>
<path d="M30.7089 22.4181H28.8461C28.9611 22.6261 29.0851 22.8298 29.2179 23.0284C29.3613 23.243 29.5142 23.4504 29.6754 23.6502H31.5381C31.3768 23.4504 31.2242 23.243 31.0807 23.0284C30.948 22.8298 30.8239 22.6261 30.7089 22.4181Z" fill="#FFD473"/>
<path d="M32.0919 24.2712H30.2292C30.6893 24.7393 31.2022 25.1526 31.7573 25.5034H33.6201C33.065 25.1526 32.5521 24.7393 32.0919 24.2712Z" fill="#FFD473"/>
<path d="M34.7976 26.1243H32.9346C32.9728 26.1407 33.0112 26.157 33.0497 26.1728C34.3801 26.724 35.8245 26.9281 37.248 26.7719C36.4494 26.6843 35.6628 26.4836 34.9124 26.1728C34.874 26.157 34.8356 26.1407 34.7976 26.1243Z" fill="#FFD473"/>
<path d="M38.2207 11.4548C39.5793 11.4548 40.9074 11.8576 42.037 12.6124C43.1666 13.3672 44.0471 14.44 44.567 15.6952C45.0869 16.9504 45.2229 18.3315 44.9579 19.664C44.6928 20.9965 44.0386 22.2205 43.0779 23.1811C42.1173 24.1418 40.8933 24.796 39.5608 25.0611C38.2283 25.3261 36.8472 25.1901 35.592 24.6702C34.3368 24.1503 33.264 23.2698 32.5092 22.1402C31.7544 21.0106 31.3516 19.6825 31.3516 18.3239C31.3516 16.5021 32.0753 14.7549 33.3635 13.4667C34.6517 12.1785 36.3989 11.4548 38.2207 11.4548V11.4548Z" fill="white"/>
<path d="M38.6747 11.4548C37.4082 11.4548 36.1702 11.8576 35.1171 12.6124C34.0641 13.3672 33.2433 14.44 32.7587 15.6952C32.274 16.9504 32.1472 18.3315 32.3943 19.664C32.6414 20.9965 33.2512 22.2205 34.1468 23.1811C35.0423 24.1418 36.1833 24.796 37.4254 25.0611C38.6676 25.3261 39.9551 25.1901 41.1252 24.6702C42.2953 24.1503 43.2953 23.2698 43.999 22.1402C44.7026 21.0106 45.0781 19.6825 45.0781 18.3239C45.0781 16.5021 44.4035 14.7549 43.2026 13.4667C42.0017 12.1785 40.373 11.4548 38.6747 11.4548V11.4548Z" fill="#EDA73D"/>
<path d="M37.9179 11.4548C36.6207 11.4548 35.3527 11.8576 34.2741 12.6124C33.1955 13.3672 32.3549 14.44 31.8585 15.6952C31.3621 16.9504 31.2322 18.3315 31.4852 19.664C31.7383 20.9965 32.363 22.2205 33.2802 23.1811C34.1975 24.1418 35.3661 24.796 36.6384 25.0611C37.9106 25.3261 39.2293 25.1901 40.4278 24.6702C41.6262 24.1503 42.6506 23.2698 43.3712 22.1402C44.0919 21.0106 44.4766 19.6825 44.4766 18.3239C44.4766 16.5021 43.7856 14.7549 42.5556 13.4667C41.3256 12.1785 39.6574 11.4548 37.9179 11.4548V11.4548Z" fill="#FDC251"/>
<path fill-rule="evenodd" clip-rule="evenodd" d="M35.3498 22.3169L36.9624 22.1715L36.9748 21.9594C36.9934 21.644 37.0027 21.3316 37.0027 21.0222C37.0027 20.5422 36.9792 19.9616 36.9326 19.2815C36.9758 19.2847 37.0174 19.2864 37.0574 19.2864C37.9683 19.2864 38.6677 19.015 39.0716 18.4091C39.3417 18.004 39.4602 17.4419 39.4602 16.7557C39.4602 16.222 39.3872 15.7396 39.2359 15.3122L39.1475 15.0621L37.5149 15.7764L37.6054 15.999C37.8211 16.5295 37.9204 16.9354 37.9251 17.2276C37.9105 17.2431 37.878 17.2694 37.8151 17.3024C37.6989 17.3573 37.5084 17.3952 37.2219 17.3952C37.0281 17.3952 36.9045 17.3603 36.8292 17.3145C36.7619 17.2737 36.7171 17.2151 36.6946 17.1195L36.6929 17.1122L36.6908 17.1051C36.6908 17.1053 36.6908 17.1051 36.6906 17.1044C36.69 17.1019 36.6877 17.0929 36.6832 17.0736C36.6781 17.0518 36.6713 17.0219 36.6628 16.9835C36.6459 16.9068 36.6227 16.7987 36.593 16.6589C36.5338 16.3793 36.4494 15.9748 36.3398 15.445L36.2819 15.1652L34.4766 15.825L34.5352 16.0432C35.0978 18.1362 35.3764 19.9838 35.3764 21.5886C35.3764 21.7949 35.3733 21.9407 35.3677 22.03L35.3498 22.3169Z" fill="#EDA73D"/>
<path fill-rule="evenodd" clip-rule="evenodd" d="M41.1281 17.6243L40.9456 17.5107L39.628 19.0919L39.8551 19.2445C40.2494 19.5093 40.6556 19.841 41.0737 20.2411L41.2593 20.4188L42.6048 18.8931L42.443 18.7293C41.9609 18.241 41.5223 17.8699 41.1281 17.6243Z" fill="#EDA73D"/>
<path fill-rule="evenodd" clip-rule="evenodd" d="M35.3498 21.6589L36.9624 21.5135L36.9748 21.3013C36.9934 20.986 37.0027 20.6736 37.0027 20.3641C37.0027 19.8841 36.9792 19.3036 36.9326 18.6234C36.9758 18.6267 37.0174 18.6284 37.0574 18.6284C37.9683 18.6284 38.6677 18.3569 39.0716 17.7511C39.3417 17.3459 39.4602 16.7839 39.4602 16.0977C39.4602 15.564 39.3872 15.0815 39.2359 14.6542L39.1475 14.4041L37.5149 15.1184L37.6054 15.341C37.8211 15.8715 37.9204 16.2773 37.9251 16.5696C37.9105 16.5851 37.878 16.6114 37.8151 16.6443C37.6989 16.6993 37.5084 16.7372 37.2219 16.7372C37.0281 16.7372 36.9045 16.7022 36.8292 16.6565C36.7619 16.6156 36.7171 16.5571 36.6946 16.4614L36.6929 16.4542L36.6908 16.4471C36.6908 16.4472 36.6908 16.447 36.6906 16.4464C36.69 16.4439 36.6877 16.4349 36.6832 16.4156C36.6781 16.3938 36.6713 16.3639 36.6628 16.3255C36.6459 16.2488 36.6227 16.1407 36.593 16.0009C36.5338 15.7213 36.4494 15.3167 36.3398 14.787L36.2819 14.5071L34.4766 15.167L34.5352 15.3852C35.0978 17.4782 35.3764 19.3258 35.3764 20.9305C35.3764 21.1368 35.3733 21.2826 35.3677 21.3719L35.3498 21.6589Z" fill="#8F5B34"/>
<path fill-rule="evenodd" clip-rule="evenodd" d="M41.1281 16.9663L40.9456 16.8527L39.628 18.4339L39.8551 18.5865C40.2494 18.8513 40.6556 19.1829 41.0737 19.5831L41.2593 19.7608L42.6048 18.2351L42.443 18.0713C41.9609 17.583 41.5223 17.2119 41.1281 16.9663Z" fill="#8F5B34"/>
<path d="M31.4145 19.3205L29.8594 20.2184C30.0449 21.0167 30.3448 21.7862 30.752 22.5028L32.1803 21.6783C31.8465 21.0532 31.6058 20.3741 31.4712 19.664C31.4493 19.5498 31.4305 19.4352 31.4145 19.3205Z" fill="#FFEB82"/>
<path d="M32.5548 22.2989L31.1367 23.1175C31.2347 23.26 31.3365 23.3993 31.4423 23.5352C31.5439 23.6652 31.6488 23.7921 31.7574 23.9158L33.1833 23.0926C32.9544 22.844 32.7443 22.5786 32.5548 22.2989Z" fill="#FFEB82"/>
<path d="M44.8198 16.3742C44.7292 16.0452 44.6155 15.7241 44.4803 15.4137L45.8798 14.6057C45.9444 14.7412 46.0056 14.8785 46.0632 15.0177C46.1348 15.1908 46.2006 15.3658 46.2606 15.5424L44.8198 16.3742Z" fill="#FFEB82"/>
<path d="M44.1561 14.7638C43.8918 14.296 43.5743 13.86 43.2078 13.4667C43.0092 13.2537 42.7991 13.0562 42.5786 12.8749L44.0079 12.0497C44.6079 12.611 45.1236 13.256 45.5396 13.9652L44.1561 14.7638Z" fill="#FFEB82"/>
<path d="M24.2547 16.892C24.4053 16.8909 24.5563 16.8904 24.7077 16.8904C27.3097 16.8904 29.7985 17.0445 31.9473 17.3325C32.5363 17.4451 33.095 17.5712 33.6178 17.7101C34.9715 18.07 35.8226 18.3832 36.3507 18.6652C36.9788 18.9883 37.1944 19.2583 37.1945 19.3829C37.1943 19.4436 37.1901 19.3895 37.1937 19.4511C37.218 19.8652 36.6436 20.2524 34.8963 20.7888C34.7349 20.8274 34.5657 20.8658 34.3884 20.9039C31.8074 21.4583 28.3692 21.7635 24.7073 21.7635C24.5561 21.7635 24.4052 21.763 24.2547 21.762C24.1043 21.763 23.9534 21.7635 23.8021 21.7635C20.1402 21.7635 16.7021 21.4583 14.121 20.9039C13.9437 20.8658 13.7745 20.8274 13.6132 20.7888C11.8659 20.2524 11.3203 19.8652 11.3445 19.4511C11.3481 19.3895 11.3439 19.4436 11.3438 19.3829C11.3439 19.2583 11.5306 18.9883 12.1588 18.6652C12.6868 18.3832 13.538 18.07 14.8916 17.7101C15.4144 17.5712 15.9731 17.4451 16.5622 17.3325C18.7109 17.0445 21.1997 16.8904 23.8017 16.8904C23.9531 16.8904 24.1041 16.8909 24.2547 16.892Z" fill="#FFE4AA"/>
<path d="M13.8949 24.9089C13.5912 24.693 12.8902 24.037 12.295 22.7433C11.8821 21.8459 11.7467 21.2485 11.5925 20.568C11.5243 20.2675 11.4525 19.9508 11.3516 19.5849C14.1199 21.0401 19.9308 20.9339 23.0604 20.9871L23.0881 20.9876C23.4753 20.9942 23.8703 21.0009 24.2702 21.0069C24.67 21.0009 25.065 20.9942 25.4523 20.9876L25.48 20.9871C28.4145 20.9372 35.3822 20.5346 37.1888 19.5849C37.0878 19.9508 37.016 20.2675 36.9479 20.568C36.7937 21.2485 36.6582 21.8459 36.2454 22.7433C35.6502 24.037 34.9491 24.693 34.6454 24.9089C33.6867 25.5723 32.38 25.9981 31.2343 26.21C29.7826 26.4783 28.5644 26.5838 26.8329 26.6422C25.1334 26.6997 23.4083 26.6998 21.7075 26.6422C19.976 26.5838 18.7577 26.4783 17.306 26.21C16.1603 25.9981 14.8536 25.5723 13.8949 24.9089Z" fill="#F2C45F"/>
<path d="M17.6326 26.2569C17.516 26.237 17.3982 26.216 17.2788 26.1939C17.2218 26.1834 17.1624 26.1752 17.1008 26.1692C16.6445 26.0719 16.2248 25.9384 15.8242 25.7699C15.1313 25.5731 14.4649 25.3033 13.8949 24.9089C13.5912 24.693 12.8902 24.037 12.295 22.7433C11.8821 21.8459 11.7467 21.2485 11.5925 20.568C11.5243 20.2675 11.4525 19.9508 11.3516 19.5849C12.5173 20.1977 14.2225 20.5336 16.0399 20.7211C15.4446 23.4042 16.3522 25.3646 17.6326 26.2569Z" fill="#F2AE5F"/>
<path fill-rule="evenodd" clip-rule="evenodd" d="M11.4069 19.2973C11.5106 19.1002 11.7544 19.0243 11.9516 19.128C13.2598 19.8156 15.2304 20.1736 17.3099 20.3601C19.1336 20.5236 20.9927 20.5519 22.4844 20.5747C22.6837 20.5777 22.8764 20.5806 23.0616 20.5838L23.0899 20.5843L23.09 20.5843C23.4751 20.5908 23.8674 20.5975 24.2645 20.6035C24.6617 20.5975 25.054 20.5908 25.4392 20.5843L25.4398 20.5843L25.4675 20.5838C26.9216 20.5591 29.2876 20.4218 31.5132 20.1726C32.6258 20.048 33.6973 19.8961 34.599 19.7177C35.513 19.5368 36.2125 19.336 36.6082 19.128C36.8053 19.0243 37.0492 19.1002 37.1528 19.2973C37.2565 19.4945 37.1837 19.7443 36.9835 19.842C31.5132 22.5095 17.3099 22.4212 11.5763 19.842C11.3731 19.7506 11.3033 19.4945 11.4069 19.2973Z" fill="#FFE4AA"/>
<path fill-rule="evenodd" clip-rule="evenodd" d="M34.61 21.758C34.7655 21.8079 34.8511 21.9744 34.8013 22.1299C34.5876 22.796 34.2065 23.3834 33.6817 23.7189C33.544 23.8069 33.3612 23.7667 33.2732 23.629C33.1852 23.4914 33.2254 23.3085 33.3631 23.2206C33.7376 22.9811 34.052 22.529 34.238 21.9493C34.2879 21.7937 34.4544 21.7081 34.61 21.758Z" fill="white"/>
<path d="M34.4636 0.226548C34.5745 0.152618 34.8036 0 35.0941 0C35.299 2.00958e-05 35.489 0.0747213 35.6435 0.216035C36.0147 0.555609 35.9594 1.03882 35.8622 1.28956C35.8558 1.30584 35.8501 1.32234 35.8457 1.33925L35.7911 1.55072L35.7784 1.59631C35.6864 1.92739 35.6178 2.17419 35.5803 2.35897C35.4964 2.77012 35.4021 3.26679 35.308 3.85064C35.1423 5.05272 34.9661 6.69288 34.8692 8.69693C34.8587 8.91393 34.6575 9.07106 34.4413 9.0501C33.3539 8.94471 32.1796 9.2369 31.1065 9.42285C30.9776 9.44518 30.8491 9.39057 30.761 9.29395C29.5371 7.95197 27.4492 9.02694 26.0156 9.55991C25.923 9.59433 25.8209 9.5854 25.7307 9.54519C25.0319 9.23369 24.1385 9.23381 23.44 9.54519C23.3498 9.5854 23.2476 9.59434 23.1551 9.55982C21.7107 9.02108 19.65 7.9239 18.4094 9.29373C18.3216 9.39066 18.193 9.44533 18.0646 9.42058C17.1421 9.24274 15.6042 8.80849 14.5711 9.01717C14.2952 9.07292 13.9522 8.88765 13.9382 8.60645C13.8402 6.64213 13.6664 5.02997 13.5021 3.83964C13.4098 3.26668 13.3154 2.77001 13.2317 2.35924C13.2178 2.29074 13.1914 2.20792 13.161 2.11246C13.1568 2.0994 13.1525 2.08609 13.1483 2.07255C13.0734 1.83667 12.971 1.51359 12.9183 1.14899C12.921 1.1675 12.834 0.753475 13.0912 0.433243C13.2361 0.252846 13.4522 0.153499 13.6998 0.153499C13.8012 0.153499 13.9102 0.170299 14.0237 0.203437C14.0653 0.215603 14.1052 0.233204 14.1423 0.255785L14.8699 0.699246C14.929 0.735233 14.9949 0.759121 15.066 0.770333C15.0828 0.772992 15.1 0.773766 15.1169 0.772086C15.2042 0.763455 15.308 0.724916 15.3939 0.65746L15.5113 0.565298C15.7791 0.354859 16.115 0.238897 16.4569 0.238897L16.561 0.238696C16.9141 0.238696 17.2587 0.361612 17.5313 0.584801C17.6217 0.658859 17.732 0.700947 17.8504 0.706617C17.9156 0.700872 18.0226 0.660783 18.1111 0.590767C18.4082 0.355904 18.7455 0.238866 19.0894 0.238866L19.1932 0.238746C19.5446 0.238746 19.8878 0.360474 20.1596 0.5815C20.2551 0.659195 20.3649 0.700907 20.4824 0.706637C20.5485 0.700899 20.6561 0.660456 20.7449 0.589709C21.0372 0.357022 21.3759 0.238836 21.7216 0.238836L21.8255 0.238773C22.1751 0.238773 22.5169 0.359333 22.7878 0.578245C22.8887 0.659655 22.9977 0.700924 23.1144 0.706644C23.1813 0.700882 23.2897 0.660022 23.3789 0.588496C23.6661 0.35815 24.0063 0.238804 24.354 0.238804H24.4579C24.8055 0.238804 25.1458 0.358155 25.416 0.574868C25.5221 0.659987 25.6306 0.700887 25.7464 0.706664C25.8142 0.700924 25.9232 0.659655 26.0128 0.587305C26.2951 0.359311 26.6368 0.238773 26.9863 0.238773L27.0902 0.238836C27.436 0.238836 27.7748 0.357042 28.0442 0.571686C28.1557 0.660434 28.2634 0.700904 28.3782 0.706672C28.447 0.700907 28.5567 0.659218 28.6467 0.586087C28.9241 0.360476 29.2673 0.238746 29.6187 0.238746L29.7225 0.238866C30.0663 0.238866 30.4037 0.355907 30.6724 0.568435C30.7892 0.660748 30.8963 0.700869 31.0102 0.706697C31.0798 0.700944 31.1901 0.658886 31.2803 0.584984C31.5531 0.361609 31.8977 0.238696 32.2508 0.238696L32.3549 0.238897C32.6968 0.238897 33.0327 0.354834 33.3007 0.565348L33.4181 0.65759C33.5124 0.731636 33.6285 0.770855 33.7538 0.770855C33.7834 0.766949 33.8236 0.755716 33.8657 0.738031C33.894 0.726124 33.9192 0.708009 33.942 0.687369L34.3889 0.282331C34.412 0.261426 34.437 0.242745 34.4636 0.226548Z" fill="#04C078"/>
<path d="M14.5479 14.6198C14.2756 14.5558 13.9357 14.7273 13.9137 15.0061C13.8408 15.9279 13.7328 16.9207 13.6207 17.9523L13.4924 19.1472C13.4684 19.3754 13.6049 19.5984 13.8174 19.6756C13.8458 19.6859 13.8743 19.6966 13.9008 19.7112C13.9657 19.747 14.022 19.776 14.0655 19.786C14.9544 20.0773 18.6869 20.9089 23.9982 20.9089L24.402 20.9072L24.8753 20.9091C30.1039 20.9091 33.4393 20.1914 34.2513 19.9241C34.2765 19.9177 34.4597 19.8521 34.6415 19.7843C34.7759 19.7343 34.9098 19.684 34.9282 19.6771C35.1655 19.6163 35.3224 19.3908 35.2968 19.1472L35.2334 18.5455L35.2334 18.5453C35.0986 17.2681 34.9692 16.0428 34.8883 14.9246C34.8728 14.7094 34.671 14.5572 34.4566 14.5809C33.341 14.7044 32.2051 14.3982 31.1065 14.2061C30.9777 14.1835 30.8491 14.2382 30.7608 14.3347C29.5443 15.6628 27.4332 14.5954 26.0156 14.0688C25.923 14.0344 25.8209 14.0434 25.7307 14.0836C25.0319 14.3951 24.1385 14.395 23.44 14.0836C23.3498 14.0434 23.2476 14.0344 23.1551 14.0689C21.7242 14.6014 19.6376 15.6829 18.4096 14.3349C18.3216 14.2382 18.1933 14.1833 18.0649 14.2079C17.0588 14.4011 15.5787 14.862 14.5479 14.6198Z" fill="#04C078"/>
<path d="M33.604 15.4363C33.596 15.3483 33.5546 15.2667 33.4884 15.2082C33.4221 15.1498 33.3359 15.1189 33.2476 15.122C33.1593 15.1251 33.0755 15.1619 33.0134 15.2249C32.9514 15.2879 32.9159 15.3722 32.9141 15.4605C32.9538 16.5258 33.0566 17.5878 33.2217 18.6409C33.2518 18.8503 33.284 19.0756 33.3186 19.3236C33.3314 19.4047 33.373 19.4785 33.4357 19.5315C33.4985 19.5844 33.5783 19.6129 33.6604 19.6117C33.6759 19.6117 33.6915 19.6107 33.7069 19.6088C33.751 19.604 33.7937 19.5906 33.8326 19.5692C33.8714 19.5478 33.9056 19.5189 33.9332 19.4841C33.9608 19.4494 33.9812 19.4095 33.9932 19.3668C34.0052 19.3241 34.0086 19.2795 34.0032 19.2355C33.9683 18.9867 33.936 18.7607 33.9059 18.5507C33.7442 17.5194 33.6434 16.4795 33.604 15.4363Z" fill="#0A9060"/>
<path d="M32.0885 15.2167C32.0807 15.1285 32.0394 15.0467 31.9731 14.9881C31.9069 14.9295 31.8206 14.8985 31.7322 14.9015C31.6438 14.9045 31.5599 14.9414 31.4978 15.0044C31.4357 15.0675 31.4001 15.1519 31.3984 15.2404C31.4399 16.4441 31.5551 17.6442 31.7432 18.8339C31.7739 19.0423 31.8069 19.2655 31.842 19.5088C31.8551 19.5897 31.8967 19.6632 31.9594 19.7159C32.022 19.7686 32.1016 19.797 32.1835 19.796C32.1996 19.7959 32.2157 19.7948 32.2318 19.7927C32.2759 19.7876 32.3186 19.7738 32.3573 19.752C32.396 19.7302 32.43 19.701 32.4574 19.666C32.4847 19.631 32.5049 19.5909 32.5166 19.5481C32.5283 19.5052 32.5314 19.4605 32.5257 19.4164C32.4904 19.1721 32.4572 18.9482 32.4263 18.7392C32.2411 17.5731 32.1283 16.3967 32.0885 15.2167Z" fill="#0A9060"/>
<path d="M30.3437 14.9931C30.2991 14.9936 30.2551 15.0027 30.2141 15.0202C30.1731 15.0376 30.136 15.0629 30.1048 15.0947C30.0736 15.1266 30.049 15.1642 30.0323 15.2055C30.0157 15.2468 30.0074 15.291 30.0078 15.3356C30.0536 16.9805 30.2666 18.0601 30.437 19.6857C30.4471 19.7692 30.4877 19.846 30.551 19.9014C30.6143 19.9567 30.6958 19.9867 30.7799 19.9856C30.7917 19.9856 30.8034 19.9851 30.8151 19.984C30.8594 19.9805 30.9026 19.9682 30.9422 19.9479C30.9818 19.9276 31.0169 19.8996 31.0456 19.8656C31.0743 19.8316 31.096 19.7923 31.1095 19.7499C31.1229 19.7075 31.1278 19.6628 31.1238 19.6185C30.9552 18.0083 30.743 16.9391 30.6979 15.3176C30.6933 15.2279 30.6536 15.1435 30.5873 15.0828C30.521 15.0221 30.4335 14.9899 30.3437 14.9931Z" fill="#0A9060"/>
<path d="M29.5261 15.893C29.5193 15.8049 29.479 15.7227 29.4135 15.6634C29.348 15.6041 29.2623 15.5721 29.1739 15.5741C29.0856 15.576 29.0014 15.6116 28.9385 15.6737C28.8756 15.7358 28.8389 15.8196 28.8359 15.9079C28.8548 16.8909 28.9263 17.8721 29.0499 18.8474C29.0811 19.1243 29.1158 19.5395 29.1546 19.9025C29.1649 19.9857 29.2056 20.0623 29.2689 20.1174C29.3322 20.1724 29.4136 20.2022 29.4975 20.2009C29.5094 20.201 29.5213 20.2005 29.5331 20.1993C29.5774 20.1958 29.6205 20.1836 29.66 20.1634C29.6995 20.1431 29.7346 20.1153 29.7633 20.0814C29.7919 20.0475 29.8136 20.0082 29.827 19.9659C29.8404 19.9236 29.8452 19.879 29.8413 19.8348C29.8025 19.4703 29.7678 19.0538 29.7365 18.7759C29.6144 17.8194 29.5441 16.857 29.5261 15.893Z" fill="#0A9060"/>
<path d="M27.939 15.3381H27.9307C27.8862 15.3383 27.8422 15.3473 27.8012 15.3646C27.7601 15.3818 27.7229 15.407 27.6916 15.4386C27.6603 15.4703 27.6355 15.5078 27.6188 15.549C27.602 15.5903 27.5935 15.6344 27.5938 15.6789C27.628 17.0747 27.7023 17.8368 27.8256 19.0995C27.8463 19.3135 27.8687 19.7886 27.8926 20.0386C27.9021 20.1226 27.9425 20.2 28.006 20.2559C28.0694 20.3118 28.1513 20.3421 28.2359 20.3409C28.2466 20.3409 28.2573 20.3409 28.2681 20.3396C28.3124 20.3365 28.3557 20.3246 28.3954 20.3047C28.4351 20.2848 28.4705 20.2572 28.4995 20.2235C28.5285 20.1898 28.5506 20.1507 28.5644 20.1085C28.5782 20.0663 28.5835 20.0217 28.58 19.9774C28.5561 19.727 28.5338 19.2513 28.5128 19.0371C28.387 17.7464 28.3176 17.0355 28.2839 15.6632C28.2801 15.5747 28.2419 15.4913 28.1775 15.4305C28.1131 15.3698 28.0275 15.3367 27.939 15.3381Z" fill="#0A9060"/>
<path d="M26.7927 15.108C26.7481 15.108 26.704 15.1167 26.6628 15.1337C26.6216 15.1507 26.5842 15.1757 26.5526 15.2072C26.5211 15.2387 26.4961 15.2761 26.479 15.3173C26.4619 15.3584 26.4531 15.4026 26.4531 15.4471C26.4778 16.89 26.5335 18.3762 26.6452 20.0553C26.6523 20.1413 26.6918 20.2213 26.7557 20.2793C26.8196 20.3372 26.9031 20.3688 26.9893 20.3675C26.9967 20.3675 27.0043 20.3675 27.0119 20.3669C27.0563 20.3649 27.1 20.3541 27.1403 20.3352C27.1806 20.3163 27.2168 20.2896 27.2467 20.2566C27.2767 20.2237 27.2999 20.1852 27.3149 20.1433C27.3299 20.1014 27.3365 20.0569 27.3343 20.0124C27.2232 18.3447 27.1678 16.8677 27.1436 15.4358C27.1423 15.3912 27.1322 15.3472 27.1139 15.3065C27.0955 15.2658 27.0693 15.2291 27.0366 15.1986C27.004 15.1681 26.9656 15.1444 26.9237 15.1288C26.8819 15.1133 26.8373 15.1062 26.7927 15.108Z" fill="#0A9060"/>
<path d="M25.7515 14.7629H25.7483C25.6582 14.7624 25.5715 14.7977 25.5074 14.861C25.4432 14.9244 25.4068 15.0106 25.4062 15.1008C25.4145 15.9951 25.4417 18.2623 25.5085 20.0499C25.5131 20.1378 25.5515 20.2206 25.6158 20.2807C25.6801 20.3409 25.7652 20.3738 25.8532 20.3726C25.8575 20.3726 25.8614 20.3726 25.8659 20.3726C25.9105 20.3717 25.9545 20.3621 25.9954 20.3442C26.0363 20.3263 26.0732 20.3005 26.1041 20.2683C26.135 20.2361 26.1592 20.1981 26.1754 20.1566C26.1916 20.115 26.1994 20.0706 26.1984 20.026C26.132 18.2464 26.1051 15.9866 26.0967 15.0949C26.0945 15.0052 26.057 14.9201 25.9924 14.8579C25.9278 14.7957 25.8412 14.7616 25.7515 14.7629Z" fill="#0A9060"/>
<path d="M15.4975 15.0108C15.4078 15.0053 15.3195 15.0357 15.2521 15.0954C15.1848 15.155 15.1439 15.2389 15.1384 15.3287C15.0873 16.5148 14.9951 17.4177 14.8427 18.561C14.8144 18.7724 14.7842 18.9988 14.7521 19.2457C14.7471 19.2898 14.751 19.3344 14.7634 19.377C14.7758 19.4196 14.7965 19.4593 14.8244 19.4938C14.8522 19.5283 14.8867 19.5569 14.9257 19.578C14.9647 19.5991 15.0075 19.6122 15.0517 19.6166C15.0661 19.6184 15.0805 19.6193 15.095 19.6193C15.1776 19.6204 15.2578 19.5916 15.3207 19.5382C15.3836 19.4847 15.425 19.4102 15.4371 19.3285C15.4692 19.0822 15.4994 18.8566 15.5277 18.6453C15.6826 17.4847 15.776 16.5711 15.8285 15.3562C15.8296 15.3118 15.8219 15.2676 15.8058 15.2261C15.7897 15.1847 15.7656 15.1468 15.7348 15.1147C15.7041 15.0826 15.6673 15.0569 15.6266 15.0391C15.5858 15.0212 15.542 15.0116 15.4975 15.0108Z" fill="#0A9060"/>
<path d="M17.0022 14.8954C16.9575 14.8923 16.9128 14.8981 16.8704 14.9125C16.8281 14.9269 16.789 14.9496 16.7555 14.9793C16.722 15.0089 16.6948 15.0449 16.6754 15.0852C16.656 15.1255 16.6448 15.1693 16.6425 15.214C16.5772 16.6239 16.4366 18.0293 16.2215 19.4242C16.2158 19.4683 16.2189 19.513 16.2307 19.5558C16.2424 19.5987 16.2626 19.6388 16.2899 19.6737C16.3173 19.7087 16.3513 19.7379 16.39 19.7597C16.4288 19.7814 16.4714 19.7952 16.5155 19.8003C16.5315 19.8025 16.5477 19.8036 16.5639 19.8036C16.6457 19.8046 16.7252 19.7762 16.7879 19.7235C16.8506 19.6709 16.8922 19.5974 16.9053 19.5166C17.1238 18.1005 17.2663 16.6738 17.3322 15.2425C17.3334 15.198 17.3258 15.1538 17.3098 15.1122C17.2939 15.0707 17.2699 15.0327 17.2392 15.0004C17.2086 14.9682 17.1719 14.9423 17.1312 14.9243C17.0905 14.9063 17.0466 14.8964 17.0022 14.8954Z" fill="#0A9060"/>
<path d="M17.9819 20.0642C17.9938 20.0653 18.0054 20.0659 18.0171 20.0659C18.1011 20.0671 18.1825 20.0372 18.2458 19.982C18.3091 19.9269 18.3498 19.8503 18.36 19.767C18.4177 19.2222 18.4783 18.7434 18.5371 18.2803C18.6478 17.3844 18.7097 16.4831 18.7224 15.5805C18.7228 15.536 18.7145 15.4919 18.6979 15.4507C18.6813 15.4095 18.6567 15.3719 18.6255 15.3402C18.5943 15.3085 18.5572 15.2832 18.5163 15.2659C18.4754 15.2485 18.4314 15.2394 18.387 15.2391C18.2974 15.2358 18.2101 15.2678 18.1438 15.3282C18.0775 15.3885 18.0374 15.4724 18.0322 15.5619C18.0199 16.4437 17.9597 17.3243 17.8518 18.1996C17.7925 18.666 17.7312 19.1484 17.6731 19.7001C17.6693 19.7444 17.6742 19.7889 17.6877 19.8312C17.7012 19.8735 17.7229 19.9127 17.7516 19.9466C17.7803 19.9804 17.8154 20.0083 17.855 20.0285C17.8945 20.0486 17.9376 20.0608 17.9819 20.0642Z" fill="#0A9060"/>
<path d="M19.2687 15.8214C19.2265 17.2819 19.1716 17.6029 19.0447 18.7929C19.0153 19.0682 18.9828 19.4792 18.9471 19.8285C18.9378 19.9196 18.965 20.0107 19.0228 20.0817C19.0806 20.1527 19.1642 20.1978 19.2553 20.2072C19.3464 20.2165 19.4375 20.1893 19.5085 20.1315C19.5795 20.0737 19.6247 19.9901 19.634 19.899C19.6696 19.5505 19.7019 19.1406 19.7312 18.8661C19.8601 17.657 19.9312 17.3104 19.9589 15.8349C19.9598 15.7896 19.9517 15.7445 19.9351 15.7023C19.9186 15.6601 19.8939 15.6216 19.8624 15.589C19.831 15.5563 19.7934 15.5302 19.7519 15.512C19.7103 15.4939 19.6656 15.4841 19.6203 15.4833C19.575 15.4824 19.5299 15.4905 19.4878 15.5071C19.4456 15.5236 19.407 15.5483 19.3744 15.5798C19.3417 15.6112 19.3156 15.6488 19.2975 15.6903C19.2793 15.7318 19.2696 15.7765 19.2687 15.8219V15.8214Z" fill="#0A9060"/>
<path d="M20.8771 15.1253C20.7872 15.1222 20.6997 15.1546 20.6336 15.2156C20.5675 15.2765 20.528 15.3611 20.5238 15.4509C20.4901 16.8297 20.4206 17.7507 20.2941 19.0494C20.2734 19.2621 20.2513 19.6297 20.2276 19.8777C20.2241 19.9221 20.2294 19.9667 20.2432 20.009C20.257 20.0513 20.279 20.0904 20.3081 20.1241C20.3371 20.1579 20.3725 20.1855 20.4122 20.2055C20.452 20.2254 20.4953 20.2373 20.5397 20.2405C20.5505 20.2415 20.5611 20.2419 20.5718 20.2419C20.6564 20.243 20.7384 20.2126 20.8019 20.1566C20.8653 20.1007 20.9057 20.0231 20.9152 19.939C20.9388 19.6913 20.9609 19.3242 20.9816 19.1119C21.1051 17.8413 21.1797 16.8689 21.2141 15.4666C21.2144 15.4221 21.2059 15.3779 21.1892 15.3366C21.1724 15.2953 21.1477 15.2577 21.1164 15.226C21.0851 15.1943 21.0478 15.1691 21.0068 15.1518C20.9657 15.1345 20.9216 15.1255 20.8771 15.1253Z" fill="#0A9060"/>
<path d="M21.8296 15.1184C21.808 16.7259 21.7505 18.3638 21.6332 20.1257C21.631 20.1702 21.6376 20.2147 21.6526 20.2567C21.6676 20.2986 21.6907 20.3372 21.7207 20.3702C21.7507 20.4031 21.7868 20.4299 21.8272 20.4488C21.8675 20.4678 21.9112 20.4786 21.9557 20.4806C21.9633 20.481 21.9707 20.4812 21.9782 20.4812C22.0645 20.4824 22.1481 20.4508 22.212 20.3927C22.2759 20.3347 22.3154 20.2545 22.3224 20.1685C22.4403 18.3949 22.4983 16.7499 22.52 15.127C22.5165 15.0385 22.4792 14.9547 22.4157 14.8929C22.3523 14.8311 22.2675 14.796 22.1789 14.7949C22.0903 14.7938 22.0047 14.8267 21.9397 14.8869C21.8747 14.947 21.8353 15.0299 21.8296 15.1183L21.8296 15.1184Z" fill="#0A9060"/>
<path d="M24.5247 14.8779C24.4353 14.8766 24.3489 14.9106 24.2843 14.9725C24.2198 15.0344 24.1822 15.1192 24.1797 15.2086L24.1955 20.0796C24.1957 20.1242 24.2046 20.1684 24.2218 20.2096C24.2391 20.2507 24.2643 20.2881 24.296 20.3195C24.3276 20.3509 24.3652 20.3758 24.4065 20.3927C24.4478 20.4096 24.4921 20.4181 24.5367 20.4179H24.5408C24.6302 20.4193 24.7166 20.3853 24.7812 20.3234C24.8458 20.2615 24.8834 20.1767 24.8859 20.0873L24.8702 15.2163C24.8698 15.1262 24.8337 15.0399 24.7697 14.9764C24.7057 14.9129 24.6191 14.8775 24.529 14.8778L24.5247 14.8779Z" fill="#0A9060"/>
<path d="M23.349 14.7627C23.2593 14.7614 23.1726 14.7956 23.108 14.8579C23.0433 14.9201 23.0059 15.0054 23.0038 15.0952C22.9911 16.8426 22.9556 18.5369 22.8985 20.0651C22.8975 20.1098 22.9053 20.1541 22.9215 20.1957C22.9377 20.2373 22.9619 20.2753 22.9928 20.3076C23.0237 20.3398 23.0607 20.3656 23.1015 20.3835C23.1424 20.4014 23.1864 20.4111 23.2311 20.4119C23.2353 20.4119 23.2393 20.4119 23.2437 20.4119C23.3318 20.4131 23.4168 20.3802 23.4811 20.32C23.5454 20.2599 23.5838 20.1772 23.5885 20.0893C23.5946 19.9266 23.6004 19.8355 23.607 19.6394C23.6532 18.273 23.6828 16.6679 23.6942 15.0996C23.6939 15.055 23.6848 15.0108 23.6674 14.9696C23.6499 14.9285 23.6246 14.8912 23.5928 14.8599C23.5609 14.8285 23.5232 14.8038 23.4818 14.787C23.4404 14.7702 23.3961 14.7618 23.3514 14.7622L23.349 14.7627Z" fill="#0A9060"/>
<path d="M33.2571 8.58638C33.2608 8.58638 33.2644 8.58638 33.268 8.58638C33.3578 8.5863 33.444 8.5513 33.5084 8.4888C33.5728 8.42629 33.6104 8.34117 33.6132 8.25145C33.7417 4.09352 34.0963 2.12255 34.1015 2.10526C34.1267 2.01813 34.1166 1.92458 34.0735 1.84479C34.0303 1.765 33.9576 1.70536 33.8709 1.67874C33.7841 1.65212 33.6904 1.66064 33.61 1.70247C33.5295 1.74431 33.4687 1.8161 33.4406 1.90236C33.4181 1.97587 33.0542 3.96017 32.922 8.22997C32.9206 8.27538 32.9282 8.32063 32.9442 8.36312C32.9603 8.40562 32.9846 8.44453 33.0157 8.47763C33.0468 8.51073 33.0842 8.53738 33.1256 8.55604C33.167 8.5747 33.2117 8.58501 33.2571 8.58638Z" fill="#0A9060"/>
<path d="M31.8919 8.69068H31.9001C31.9904 8.69071 32.0771 8.65542 32.1417 8.59235C32.2063 8.52929 32.2437 8.44345 32.2458 8.3532C32.3545 3.76576 32.8269 1.30577 32.8356 1.27202C32.8478 1.22779 32.8511 1.18156 32.8453 1.13603C32.8395 1.09051 32.8246 1.0466 32.8017 1.00686C32.7787 0.967126 32.748 0.932363 32.7115 0.904598C32.675 0.876834 32.6332 0.856624 32.5888 0.845148C32.5444 0.833673 32.4981 0.831161 32.4527 0.837758C32.4073 0.844356 32.3636 0.85993 32.3243 0.883575C32.2849 0.90722 32.2507 0.938461 32.2236 0.975476C32.1964 1.01249 32.1769 1.05454 32.1662 1.09917C32.1424 1.1916 31.666 3.64468 31.5548 8.33657C31.5525 8.42823 31.5868 8.51703 31.65 8.58343C31.7132 8.64984 31.8002 8.68842 31.8919 8.69068Z" fill="#0A9060"/>
<path d="M30.5263 8.71249H30.5329C30.6234 8.71251 30.7104 8.67698 30.775 8.61354C30.8397 8.55011 30.8769 8.46384 30.8786 8.37328C30.9536 4.34861 31.3566 2.17441 31.3599 2.15688C31.3747 2.06789 31.354 1.97667 31.3024 1.90268C31.2509 1.82869 31.1724 1.77779 31.0838 1.76085C30.9952 1.74391 30.9035 1.76227 30.8282 1.81201C30.753 1.86175 30.7002 1.93892 30.681 2.02707C30.667 2.1005 30.2639 4.26457 30.1876 8.36044C30.1859 8.45202 30.2206 8.54053 30.2841 8.60654C30.3476 8.67255 30.4347 8.71065 30.5263 8.71249Z" fill="#0A9060"/>
<path d="M29.2506 8.26265H29.2595C29.3497 8.26268 29.4363 8.22747 29.5009 8.16452C29.5655 8.10158 29.6029 8.0159 29.6052 7.92574C29.7175 3.51528 30.1277 1.49072 30.132 1.4708C30.1487 1.38185 30.1298 1.2899 30.0795 1.2147C30.0291 1.13951 29.9513 1.08705 29.8627 1.0686C29.7741 1.05015 29.6818 1.06718 29.6056 1.11603C29.5294 1.16489 29.4754 1.24166 29.4552 1.32988C29.4377 1.41326 29.0282 3.42358 28.9142 7.90821C28.9118 7.99981 28.9459 8.08859 29.009 8.15505C29.0721 8.22151 29.159 8.26021 29.2506 8.26265Z" fill="#0A9060"/>
<path d="M28.0102 8.14753H28.0174C28.1079 8.14755 28.1947 8.11213 28.2593 8.04885C28.324 7.98558 28.3612 7.89949 28.3631 7.80907C28.4421 3.95018 28.702 2.36146 28.7051 2.34796C28.7239 2.25886 28.7068 2.16593 28.6574 2.08937C28.6081 2.01281 28.5306 1.95879 28.4417 1.93906C28.3528 1.91933 28.2597 1.93547 28.1826 1.98399C28.1056 2.0325 28.0507 2.10946 28.0301 2.19815C28.0174 2.2547 27.7528 3.84523 27.6719 7.79474C27.6701 7.88637 27.7046 7.975 27.768 8.04115C27.8315 8.1073 27.9185 8.14557 28.0102 8.14753Z" fill="#0A9060"/>
<path d="M26.7674 8.48234H26.775C26.8654 8.48236 26.9523 8.44695 27.0169 8.38369C27.0815 8.32043 27.1188 8.23437 27.1207 8.14396C27.2143 3.68978 27.5177 1.53262 27.5207 1.51245C27.5293 1.46683 27.5286 1.41994 27.5186 1.3746C27.5087 1.32925 27.4897 1.28637 27.4628 1.24852C27.436 1.21066 27.4018 1.17861 27.3622 1.15427C27.3227 1.12993 27.2787 1.1138 27.2328 1.10684C27.1869 1.09988 27.14 1.10224 27.0951 1.11378C27.0501 1.12531 27.0079 1.14578 26.971 1.17397C26.9341 1.20216 26.9033 1.23749 26.8804 1.27786C26.8574 1.31822 26.8429 1.36279 26.8375 1.40891C26.8249 1.49278 26.5248 3.62188 26.4298 8.12947C26.4278 8.22101 26.4623 8.30957 26.5256 8.37573C26.5889 8.44188 26.6759 8.48023 26.7674 8.48234Z" fill="#0A9060"/>
<path d="M25.6518 8.81813H25.658C25.7487 8.81814 25.8357 8.78256 25.9003 8.71903C25.965 8.65551 26.0021 8.56914 26.0037 8.47851C26.0585 5.36298 26.1562 2.45233 26.1572 2.42755C26.1592 2.33698 26.1255 2.24926 26.0634 2.18327C26.0013 2.11728 25.9158 2.0783 25.8253 2.0747C25.7348 2.07111 25.6465 2.1032 25.5794 2.16406C25.5123 2.22492 25.4717 2.3097 25.4665 2.40014C25.4656 2.42484 25.3677 5.34281 25.3126 8.46657C25.311 8.55815 25.3458 8.64661 25.4094 8.71252C25.473 8.77844 25.5602 8.81642 25.6518 8.81813Z" fill="#0A9060"/>
<path d="M15.1798 8.25085C15.1824 8.34074 15.2199 8.4261 15.2843 8.4888C15.3488 8.5515 15.4352 8.58661 15.5251 8.58668H15.5351C15.6268 8.58408 15.7136 8.54518 15.7766 8.47854C15.8396 8.4119 15.8735 8.32298 15.8709 8.23134C15.7474 3.89644 15.3044 1.97469 15.2811 1.90398C15.2511 1.81878 15.1889 1.74873 15.1079 1.70881C15.0268 1.66888 14.9334 1.66227 14.8475 1.69038C14.7617 1.71849 14.6902 1.77909 14.6485 1.8592C14.6068 1.93932 14.598 2.0326 14.6242 2.11906C14.6295 2.13503 15.0601 4.03884 15.1798 8.25085Z" fill="#0A9060"/>
<path d="M16.6844 8.4576C16.6865 8.54786 16.7239 8.63369 16.7885 8.69676C16.8531 8.75982 16.9398 8.79511 17.0301 8.79509H17.0383C17.1299 8.79293 17.2169 8.75449 17.2802 8.68821C17.3435 8.62194 17.3779 8.53325 17.3758 8.44164C17.2668 3.72834 16.7024 1.11221 16.6785 1.02084C16.6539 0.933646 16.5961 0.859585 16.5174 0.814587C16.4388 0.769589 16.3457 0.757249 16.258 0.780224C16.1704 0.8032 16.0953 0.859653 16.0489 0.937439C16.0024 1.01523 15.9884 1.10813 16.0098 1.19617C16.0151 1.21798 16.5775 3.83905 16.6844 8.4576Z" fill="#0A9060"/>
<path d="M18.0595 8.17161C18.0614 8.26203 18.0987 8.34809 18.1633 8.41135C18.2279 8.4746 18.3148 8.51002 18.4052 8.51H18.4127C18.5043 8.50801 18.5914 8.46973 18.6548 8.40356C18.7182 8.33739 18.7528 8.24875 18.7508 8.15713C18.6672 4.17831 18.2764 2.26125 18.2628 2.18355C18.2451 2.09516 18.1935 2.01719 18.1191 1.96627C18.0447 1.91534 17.9534 1.89549 17.8646 1.91094C17.7758 1.92639 17.6965 1.97592 17.6437 2.04897C17.5909 2.12202 17.5687 2.21281 17.5818 2.30199C17.5844 2.3206 17.9767 4.25436 18.0595 8.17161Z" fill="#0A9060"/>
<path d="M19.3012 7.61247C19.3035 7.7026 19.341 7.78824 19.4056 7.85115C19.4701 7.91406 19.5567 7.94924 19.6469 7.94921H19.6558C19.7474 7.94687 19.8344 7.90821 19.8975 7.84176C19.9607 7.77531 19.9948 7.6865 19.9925 7.59486C19.8781 3.1141 19.4691 1.42035 19.4517 1.33722C19.4435 1.29171 19.4263 1.2483 19.4011 1.20955C19.3759 1.1708 19.3432 1.1375 19.3049 1.11162C19.2666 1.08574 19.2235 1.06781 19.1781 1.05888C19.1328 1.04995 19.0861 1.05021 19.0408 1.05964C18.9956 1.06907 18.9527 1.08748 18.9146 1.11378C18.8766 1.14009 18.8443 1.17375 18.8195 1.21278C18.7947 1.2518 18.778 1.2954 18.7704 1.341C18.7627 1.38659 18.7643 1.43325 18.775 1.47822C18.7787 1.49789 19.1884 3.19353 19.3012 7.61247Z" fill="#0A9060"/>
<path d="M20.5282 8.01742C20.5301 8.10785 20.5674 8.19393 20.632 8.25721C20.6966 8.32048 20.7835 8.35591 20.8739 8.35589H20.8812C20.9728 8.35397 21.06 8.31572 21.1234 8.24956C21.1869 8.1834 21.2215 8.09475 21.2196 8.0031C21.1385 4.05745 20.9457 2.26148 20.9332 2.20493C20.9133 2.11542 20.8587 2.03749 20.7813 1.98828C20.7039 1.93907 20.6102 1.92261 20.5207 1.94251C20.4312 1.96242 20.3532 2.01707 20.304 2.09444C20.2548 2.17181 20.2383 2.26556 20.2582 2.35506C20.261 2.36815 20.449 4.16248 20.5282 8.01742Z" fill="#0A9060"/>
<path d="M21.8353 8.35305C21.8375 8.4433 21.8748 8.52913 21.9394 8.5922C22.004 8.65526 22.0908 8.69056 22.181 8.69053H22.1893C22.2809 8.68837 22.3679 8.64994 22.4311 8.58368C22.4944 8.51743 22.5288 8.42876 22.5267 8.33716C22.427 3.94752 22.1368 1.50811 22.1246 1.41979C22.1103 1.33047 22.0615 1.25032 21.9888 1.19654C21.9161 1.14275 21.8251 1.11962 21.7355 1.13209C21.646 1.14456 21.5648 1.19165 21.5095 1.26326C21.4543 1.33486 21.4293 1.42528 21.4399 1.51511C21.4424 1.53659 21.7366 4.01024 21.8353 8.35305Z" fill="#0A9060"/>
<path d="M24.4273 8.64064H24.4317C24.5226 8.64064 24.6099 8.60483 24.6746 8.54096C24.7393 8.47708 24.7762 8.39028 24.7774 8.29937L24.8587 1.66128C24.8599 1.56959 24.8245 1.4812 24.7605 1.41556C24.6965 1.34991 24.609 1.31239 24.5173 1.31125C24.4256 1.3101 24.3372 1.34542 24.2716 1.40945C24.206 1.47347 24.1684 1.56095 24.1673 1.65264L24.086 8.29073C24.0848 8.38239 24.1202 8.47074 24.1842 8.53636C24.2482 8.60198 24.3356 8.63949 24.4273 8.64064Z" fill="#0A9060"/>
<path d="M23.3115 8.88999H23.3177C23.4094 8.88837 23.4966 8.85041 23.5603 8.78447C23.624 8.71853 23.6589 8.63 23.6573 8.53835C23.6023 5.41476 23.5042 2.28186 23.5033 2.25717C23.4981 2.16672 23.4576 2.08195 23.3905 2.02109C23.3234 1.96022 23.235 1.92814 23.1445 1.93173C23.054 1.93532 22.9685 1.97431 22.9064 2.04029C22.8443 2.10628 22.8106 2.194 22.8126 2.28458C22.8136 2.30927 22.9114 5.43492 22.966 8.55045C22.9676 8.64102 23.0047 8.72734 23.0693 8.79084C23.1339 8.85434 23.2209 8.88994 23.3115 8.88999Z" fill="#0A9060"/>
<path d="M17.7241 9.97608C17.7793 9.90153 17.7405 9.79064 17.6487 9.77771C17.055 9.69421 16.2732 9.65919 15.7246 9.67314H15.4624C15.3117 9.66871 15.1616 9.69466 15.0209 9.74947C14.8801 9.80429 14.7515 9.88689 14.6424 9.99249C14.5333 10.0981 14.4458 10.2246 14.3852 10.3647C14.3246 10.5048 14.2919 10.6557 14.2891 10.8087V12.8318C14.2919 12.9849 14.3246 13.1358 14.3852 13.276C14.4458 13.4162 14.5332 13.5428 14.6423 13.6485C14.7514 13.7542 14.88 13.837 15.0208 13.8919C15.1615 13.9469 15.3116 13.973 15.4624 13.9688H15.7233C16.252 13.9817 17.0145 13.9496 17.5887 13.873C17.6786 13.861 17.7193 13.7542 17.6699 13.6782C17.1096 12.8153 17.1665 11.3803 17.3795 10.661C17.4468 10.4345 17.5632 10.1934 17.7241 9.97608Z" fill="#CC362A"/>
<path d="M31.2326 9.97608C31.1774 9.90153 31.2162 9.79064 31.308 9.77771C31.9017 9.69421 32.6835 9.65919 33.2321 9.67314H33.4943C33.645 9.66871 33.7951 9.69466 33.9358 9.74947C34.0766 9.80429 34.2052 9.88689 34.3143 9.99249C34.4234 10.0981 34.5109 10.2246 34.5715 10.3647C34.6321 10.5048 34.6648 10.6557 34.6676 10.8087V12.8318C34.6648 12.9849 34.6321 13.1358 34.5715 13.276C34.5109 13.4162 34.4235 13.5428 34.3144 13.6485C34.2053 13.7542 34.0767 13.837 33.9359 13.8919C33.7952 13.9469 33.6451 13.973 33.4943 13.9688H33.2335C32.7047 13.9817 31.9422 13.9496 31.368 13.873C31.2781 13.861 31.2374 13.7542 31.2868 13.6782C31.8472 12.8153 31.7902 11.3803 31.5772 10.661C31.5099 10.4345 31.3936 10.1934 31.2326 9.97608Z" fill="#CC362A"/>
<path d="M21.8011 11.7905C21.8011 11.1607 22.0408 10.5859 22.4357 10.1492C22.4951 10.0835 22.4713 9.97547 22.3874 9.94681L20.6622 9.35708C19.4742 8.94749 18.6748 9.88955 18.4456 10.661C18.0977 11.8365 18.1661 14.9235 20.6649 14.3009L22.441 13.6918C22.5263 13.6625 22.549 13.5514 22.4865 13.4863C22.0615 13.0435 21.8011 12.4468 21.8011 11.7905Z" fill="#CC362A"/>
<path d="M27.1989 11.7905C27.1989 11.1607 26.9591 10.5859 26.5643 10.1492C26.5049 10.0835 26.5287 9.97547 26.6125 9.94681L28.3378 9.35708C29.5257 8.94749 30.3251 9.88955 30.5543 10.661C30.9023 11.8365 30.8338 14.9235 28.335 14.3009L26.559 13.6918C26.4736 13.6625 26.451 13.5514 26.5135 13.4863C26.9385 13.0435 27.1989 12.4468 27.1989 11.7905Z" fill="#CC362A"/>
<path d="M26.422 11.8199C26.422 12.8771 25.565 13.7341 24.5078 13.7341C23.4506 13.7341 22.5936 12.8771 22.5936 11.8199C22.5936 10.7628 23.4506 9.90575 24.5078 9.90575C25.565 9.90575 26.422 10.7628 26.422 11.8199Z" fill="#CC362A"/>
<path d="M21.7985 9.94668C21.8823 9.97533 21.9061 10.0833 21.8467 10.149C21.4519 10.5857 21.2121 11.1606 21.2121 11.7903C21.2121 12.4467 21.4725 13.0434 21.8975 13.4862C21.96 13.5513 21.9374 13.6624 21.852 13.6917L20.076 14.3007C19.9737 14.3262 19.8754 14.3455 19.7811 14.359C19.7698 14.3606 19.7579 14.3604 19.7466 14.3585C18.1551 14.0901 18.1468 11.6705 18.4456 10.6608C18.6128 10.0981 19.0835 9.44453 19.787 9.29114C19.8019 9.2879 19.8173 9.28781 19.8322 9.29083C19.9106 9.30673 19.991 9.3286 20.0732 9.35695L21.7985 9.94668Z" fill="#F15D51"/>
<path d="M15.6368 13.9686H15.4624C15.3116 13.9729 15.1615 13.9468 15.0208 13.8918C14.88 13.8368 14.7514 13.7541 14.6423 13.6484C14.5332 13.5427 14.4458 13.4161 14.3852 13.2759C14.3246 13.1357 14.2919 12.9847 14.2891 12.8316V10.8086C14.2919 10.6556 14.3246 10.5047 14.3852 10.3646C14.4458 10.2245 14.5333 10.098 14.6424 9.99236C14.7515 9.88675 14.8801 9.80416 15.0209 9.74934C15.1616 9.69453 15.3117 9.66858 15.4624 9.673H15.6518C16.1146 9.68296 16.6352 9.71788 17.0596 9.77757C17.1515 9.79049 17.1903 9.9014 17.1351 9.97595C16.9742 10.1933 16.8578 10.4344 16.7905 10.6608C16.5776 11.3801 16.5206 12.8152 17.0809 13.678C17.1303 13.7541 17.0896 13.8609 16.9997 13.8729C16.5901 13.9275 16.0848 13.9595 15.6368 13.9686Z" fill="#F15D51"/>
<path d="M32.7159 9.673C32.2531 9.68296 31.7326 9.71788 31.3081 9.77757C31.2163 9.79049 31.1774 9.9014 31.2326 9.97595C31.3936 10.1933 31.51 10.4344 31.5772 10.6608C31.7902 11.3801 31.8472 12.8152 31.2868 13.678C31.2374 13.7541 31.2782 13.8609 31.3681 13.8729C31.7776 13.9275 32.2829 13.9595 32.7309 13.9686H32.9054C33.0561 13.9729 33.2062 13.9468 33.347 13.8918C33.4877 13.8368 33.6164 13.7541 33.7255 13.6484C33.8345 13.5427 33.9219 13.4161 33.9825 13.2759C34.0432 13.1357 34.0758 12.9847 34.0787 12.8316V10.8086C34.0758 10.6556 34.0432 10.5047 33.9825 10.3646C33.9219 10.2245 33.8345 10.098 33.7254 9.99236C33.6163 9.88675 33.4876 9.80416 33.3469 9.74934C33.2061 9.69453 33.056 9.66858 32.9054 9.673H32.7159Z" fill="#F15D51"/>
<path d="M28.624 9.29114C28.6091 9.2879 28.5937 9.28781 28.5788 9.29083C28.5004 9.30673 28.42 9.3286 28.3378 9.35695L26.6125 9.94668C26.5287 9.97533 26.5049 10.0833 26.5643 10.149C26.9591 10.5857 27.1989 11.1606 27.1989 11.7903C27.1989 12.4467 26.9385 13.0434 26.5135 13.4862C26.451 13.5513 26.4736 13.6624 26.559 13.6917L28.335 14.3007C28.4373 14.3262 28.5356 14.3455 28.6299 14.359C28.6412 14.3606 28.6531 14.3604 28.6644 14.3585C30.2559 14.0901 30.2642 11.6705 29.9653 10.6608C29.7982 10.0981 29.3275 9.44453 28.624 9.29114Z" fill="#F15D51"/>
<path d="M24.1953 13.7086C24.2072 13.7105 24.2194 13.7105 24.2313 13.7086C25.1399 13.5594 25.833 12.7705 25.833 11.8198C25.833 10.869 25.1399 10.0802 24.2313 9.931C24.2194 9.92905 24.2072 9.92905 24.1953 9.931C23.2868 10.0802 22.5936 10.869 22.5936 11.8198C22.5936 12.7705 23.2868 13.5594 24.1953 13.7086Z" fill="#F15D51"/>
</svg>
