<svg width="15" height="15" viewBox="0 0 15 15" fill="none" xmlns="http://www.w3.org/2000/svg">
<g clip-path="url(#clip0_5012_4294)">
<path d="M7.5 15C11.6421 15 15 11.6421 15 7.5C15 3.35786 11.6421 0 7.5 0C3.35786 0 0 3.35786 0 7.5C0 11.6421 3.35786 15 7.5 15Z" fill="white"/>
<path d="M1.54983 2.93359C0.960703 3.70009 0.516475 4.58353 0.257812 5.54327H4.15951L1.54983 2.93359Z" fill="#0052B4"/>
<path d="M14.7415 5.54324C14.4828 4.58354 14.0386 3.70009 13.4495 2.93359L10.8398 5.54324H14.7415Z" fill="#0052B4"/>
<path d="M0.257812 9.45508C0.516504 10.4148 0.960732 11.2982 1.54983 12.0647L4.15942 9.45508H0.257812Z" fill="#0052B4"/>
<path d="M12.0647 1.54986C11.2982 0.960732 10.4148 0.516504 9.45508 0.257812V4.15948L12.0647 1.54986Z" fill="#0052B4"/>
<path d="M2.93359 13.4494C3.70009 14.0386 4.58353 14.4828 5.54324 14.7415V10.8398L2.93359 13.4494Z" fill="#0052B4"/>
<path d="M5.54321 0.257812C4.58351 0.516504 3.70006 0.960732 2.93359 1.54983L5.54321 4.15945V0.257812Z" fill="#0052B4"/>
<path d="M9.45508 14.7415C10.4148 14.4828 11.2982 14.0386 12.0647 13.4495L9.45508 10.8398V14.7415Z" fill="#0052B4"/>
<path d="M10.8398 9.45508L13.4495 12.0647C14.0386 11.2983 14.4828 10.4148 14.7415 9.45508H10.8398Z" fill="#0052B4"/>
<path d="M14.9365 6.52175H8.47831H8.47828V0.0634863C8.15804 0.0217969 7.83155 0 7.5 0C7.16839 0 6.84196 0.0217969 6.52175 0.0634863V6.52169V6.52172H0.0634863C0.0217969 6.84196 0 7.16845 0 7.5C0 7.83161 0.0217969 8.15804 0.0634863 8.47825H6.52169H6.52172V14.9365C6.84196 14.9782 7.16839 15 7.5 15C7.83155 15 8.15804 14.9782 8.47825 14.9365V8.47831V8.47828H14.9365C14.9782 8.15804 15 7.83161 15 7.5C15 7.16845 14.9782 6.84196 14.9365 6.52175V6.52175Z" fill="#D80027"/>
<path d="M9.45703 9.45706L12.8038 12.8038C12.9577 12.65 13.1046 12.4891 13.2446 12.3223L10.3794 9.45703H9.45703V9.45706Z" fill="#D80027"/>
<path d="M5.54405 9.45703H5.54399L2.19727 12.8038C2.35113 12.9577 2.512 13.1045 2.67876 13.2446L5.54405 10.3793V9.45703Z" fill="#D80027"/>
<path d="M5.54348 5.54411V5.54405L2.19672 2.19727C2.04279 2.35113 1.89596 2.512 1.75586 2.67876L4.62118 5.54408H5.54348V5.54411Z" fill="#D80027"/>
<path d="M9.45703 5.54351L12.8038 2.19669C12.65 2.04276 12.4891 1.89593 12.3223 1.75586L9.45703 4.62118V5.54351Z" fill="#D80027"/>
</g>
<defs>
<clipPath id="clip0_5012_4294">
<rect width="15" height="15" fill="white"/>
</clipPath>
</defs>
</svg>
