<svg width="14" height="16" viewBox="0 0 14 16" fill="none" xmlns="http://www.w3.org/2000/svg">
<path d="M4.42133 15.9977C4.23087 15.9977 4.08802 15.9025 3.99278 15.7596L3.42138 14.7597C3.1833 14.2359 2.70713 13.7597 2.18335 13.474L1.1834 12.9026C1.04055 12.855 0.945312 12.6645 0.945312 12.5217C0.945312 12.3312 1.04055 12.1884 1.1834 12.0931L2.18335 11.5217C2.70713 11.236 3.1833 10.8075 3.469 10.2361L4.0404 9.23613C4.08802 9.09328 4.27848 8.99805 4.42133 8.99805C4.6118 8.99805 4.75465 9.09328 4.84988 9.23613L5.42128 10.2361C5.70698 10.7599 6.18315 11.236 6.70693 11.5217L7.70689 12.0931C7.84974 12.1884 7.94497 12.3312 7.94497 12.5217C7.94497 12.7122 7.84974 12.855 7.70689 12.9502L6.70693 13.5216C6.18315 13.8073 5.70698 14.2835 5.42128 14.8073L4.84988 15.8072C4.75465 15.9025 4.6118 15.9977 4.42133 15.9977Z" fill="#5E44FF"/>
<path d="M9.41448 8.99858C9.16959 8.99858 8.98593 8.87614 8.86349 8.69247L8.12883 7.40682C7.82272 6.73339 7.21051 6.12117 6.53707 5.75384L5.25142 5.01918C5.06776 4.95796 4.94531 4.71308 4.94531 4.52941C4.94531 4.28453 5.06776 4.10086 5.25142 3.97842L6.53707 3.24376C7.21051 2.87643 7.82272 2.32544 8.19005 1.59078L8.92471 0.305131C8.98593 0.121466 9.23082 -0.000976562 9.41448 -0.000976562C9.65937 -0.000976562 9.84303 0.121466 9.96547 0.305131L10.7001 1.59078C11.0675 2.26422 11.6797 2.87643 12.3531 3.24376L13.6388 3.97842C13.8224 4.10086 13.9449 4.28453 13.9449 4.52941C13.9449 4.7743 13.8224 4.95796 13.6388 5.08041L12.3531 5.81506C11.6797 6.18239 11.0675 6.79461 10.7001 7.46804L9.96547 8.7537C9.84303 8.87614 9.65937 8.99858 9.41448 8.99858Z" fill="#5E44FF"/>
</svg>
