<svg width="16" height="15" viewBox="0 0 16 15" fill="none" xmlns="http://www.w3.org/2000/svg">
<path d="M7.06215 1.03451C7.38431 0.163888 8.61569 0.163888 8.93785 1.03451L10.2712 4.63794C10.3725 4.91166 10.5883 5.12747 10.8621 5.22876L14.4655 6.56215C15.3361 6.88431 15.3361 8.11569 14.4655 8.43785L10.8621 9.77124C10.5883 9.87253 10.3725 10.0883 10.2712 10.3621L8.93785 13.9655C8.61569 14.8361 7.38431 14.8361 7.06215 13.9655L5.72876 10.3621C5.62747 10.0883 5.41166 9.87253 5.13794 9.77124L1.53451 8.43785C0.663888 8.11569 0.663888 6.88431 1.53451 6.56215L5.13794 5.22876C5.41166 5.12747 5.62747 4.91166 5.72876 4.63794L7.06215 1.03451Z" fill="#FFBF31"/>
</svg>
