<svg width="512" height="512" viewBox="0 0 512 512" fill="none" xmlns="http://www.w3.org/2000/svg">
<g clip-path="url(#clip0_906_184)">
<path d="M256 512C397.385 512 512 397.385 512 256C512 114.615 397.385 0 256 0C114.615 0 0 114.615 0 256C0 397.385 114.615 512 256 512Z" fill="#D80027"/>
<path d="M316.163 203.462L339.769 235.993L378 223.597L354.357 256.1L377.961 288.629L339.742 276.186L316.099 308.688L316.123 268.497L277.906 256.053L316.138 243.657L316.163 203.462Z" fill="white"/>
<path d="M265.347 337.386C220.441 337.386 184.037 300.981 184.037 256.075C184.037 211.169 220.441 174.764 265.347 174.764C279.349 174.764 292.524 178.305 304.026 184.538C285.982 166.892 261.307 156 234.074 156C178.806 156 134 200.805 134 256.074C134 311.343 178.806 356.148 234.074 356.148C261.307 356.148 285.983 345.257 304.026 327.611C292.524 333.846 279.349 337.386 265.347 337.386Z" fill="white"/>
</g>
<defs>
<clipPath id="clip0_906_184">
<rect width="512" height="512" fill="white"/>
</clipPath>
</defs>
</svg>
