<svg width="13" height="16" viewBox="0 0 13 16" fill="none" xmlns="http://www.w3.org/2000/svg">
<path d="M12.4479 7.24085C12.0894 6.45946 11.5682 5.75812 10.917 5.18072L10.3797 4.70324C10.3614 4.68747 10.3395 4.67628 10.3157 4.67065C10.292 4.66502 10.2672 4.66512 10.2435 4.67095C10.2197 4.67678 10.1979 4.68815 10.1798 4.70407C10.1617 4.71999 10.1479 4.73997 10.1396 4.76225L9.89956 5.42929C9.74999 5.84776 9.47485 6.27516 9.08522 6.69542C9.05937 6.72224 9.02982 6.72939 9.00951 6.73118C8.9892 6.73297 8.9578 6.72939 8.9301 6.70436C8.90425 6.6829 8.89133 6.65071 8.89317 6.61852C8.9615 5.54196 8.62911 4.32769 7.90155 3.00613C7.29957 1.90811 6.46306 1.05151 5.41789 0.45421L4.65525 0.0196502C4.55554 -0.0375757 4.42812 0.0375333 4.43366 0.150197L4.47428 1.00859C4.50198 1.59515 4.43181 2.11376 4.26562 2.54475C4.0625 3.0723 3.77073 3.56229 3.39772 4.00222C3.13814 4.30795 2.84392 4.58449 2.52059 4.82663C1.7419 5.40634 1.10872 6.14915 0.668465 6.99943C0.229298 7.85713 0.000535808 8.80144 0 9.75879C0 10.6029 0.171733 11.4201 0.511505 12.1909C0.839582 12.933 1.31303 13.6065 1.90568 14.1741C2.50397 14.7464 3.19829 15.197 3.97201 15.51C4.77343 15.8355 5.62286 16 6.49999 16C7.37712 16 8.22655 15.8355 9.02797 15.5118C9.79979 15.2007 10.5016 14.7469 11.0943 14.1759C11.6926 13.6037 12.1616 12.9348 12.4885 12.1927C12.8277 11.424 13.0018 10.5965 13 9.76058C13 8.88788 12.8153 8.04023 12.4479 7.24085Z" fill="#41508B"/>
</svg>
