<svg width="14" height="13" viewBox="0 0 14 13" fill="none" xmlns="http://www.w3.org/2000/svg">
<g clip-path="url(#clip0_3417_525)">
<path fill-rule="evenodd" clip-rule="evenodd" d="M2.58544 0.415464L0.135074 5.56246C0.12575 5.5816 0.122795 5.60323 0.126642 5.62417C0.130488 5.64511 0.140935 5.66428 0.156454 5.67886L6.7743 12.0203C6.7931 12.0384 6.81813 12.0484 6.84418 12.0484C6.87022 12.0484 6.89526 12.0384 6.91406 12.0203L13.5319 5.67925C13.5474 5.66467 13.5579 5.64551 13.5617 5.62456C13.5656 5.60362 13.5626 5.582 13.5533 5.56285L11.1029 0.41586C11.095 0.398574 11.0823 0.383931 11.0663 0.37368C11.0503 0.36343 11.0317 0.358005 11.0126 0.358055H2.6765C2.6574 0.357818 2.63864 0.363111 2.62248 0.373298C2.60632 0.383484 2.59346 0.398129 2.58544 0.415464V0.415464V0.415464Z" fill="#50AF95"/>
<path fill-rule="evenodd" clip-rule="evenodd" d="M7.69422 6.09116C7.64671 6.09473 7.40124 6.10938 6.85368 6.10938C6.41816 6.10938 6.10895 6.09631 6.00046 6.09116C4.3174 6.01713 3.06114 5.72414 3.06114 5.37336C3.06114 5.02257 4.3174 4.72998 6.00046 4.65476V5.79937C6.11053 5.80729 6.42568 5.8259 6.8612 5.8259C7.38381 5.8259 7.64552 5.80412 7.69263 5.79977V4.65555C9.37213 4.73038 10.6256 5.02336 10.6256 5.37336C10.6256 5.72335 9.37253 6.01633 7.69263 6.09077L7.69422 6.09116ZM7.69422 4.53717V3.51292H10.0381V1.951H3.65661V3.51292H6.00007V4.53677C4.09529 4.62427 2.66284 5.00159 2.66284 5.45373C2.66284 5.90587 4.09529 6.28279 6.00007 6.37069V9.65288H7.69382V6.3695C9.59425 6.282 11.0243 5.90508 11.0243 5.45333C11.0243 5.00159 9.59543 4.62467 7.69382 4.53677L7.69422 4.53717Z" fill="white"/>
</g>
<defs>
<clipPath id="clip0_3417_525">
<rect width="13.8824" height="12.4211" fill="white"/>
</clipPath>
</defs>
</svg>
